<?xml version="1.0" encoding="UTF-8"?>
<svg xmlns="http://www.w3.org/2000/svg" xmlns:xlink="http://www.w3.org/1999/xlink" width="707.04pt" height="1000.08pt" viewBox="0 0 707.04 1000.08" version="1.2">
<defs>
<clipPath id="clip1">
  <path d="M 0 0.21875 L 706.042969 0.21875 L 706.042969 998.792969 L 0 998.792969 Z M 0 0.21875 "/>
</clipPath>
<clipPath id="clip2">
  <path d="M 0 0.21875 L 706 0.21875 L 706 998 L 0 998 Z M 0 0.21875 "/>
</clipPath>
<clipPath id="clip3">
  <path d="M 0 59.886719 L 704.882813 59.886719 L 704.882813 997.429688 L 0 997.429688 Z M 0 59.886719 "/>
</clipPath>
<clipPath id="clip4">
  <path d="M 196 239 L 704.882813 239 L 704.882813 716 L 196 716 Z M 196 239 "/>
</clipPath>
<clipPath id="clip5">
  <path d="M 694 157 L 704.882813 157 L 704.882813 191 L 694 191 Z M 694 157 "/>
</clipPath>
</defs>
<g id="surface1">
<g clip-path="url(#clip1)" clip-rule="nonzero">
<path style=" stroke:none;fill-rule:nonzero;fill:rgb(100%,100%,100%);fill-opacity:1;" d="M 0 998.792969 L 706.042969 998.792969 L 706.042969 0.21875 L 0 0.21875 Z M 0 998.792969 "/>
</g>
<g clip-path="url(#clip2)" clip-rule="nonzero">
<path style=" stroke:none;fill-rule:nonzero;fill:rgb(100%,100%,100%);fill-opacity:1;" d="M 0 997.429688 L 705.734375 997.429688 L 705.734375 0.21875 L 0 0.21875 Z M 0 997.429688 "/>
</g>
<g clip-path="url(#clip3)" clip-rule="nonzero">
<path style=" stroke:none;fill-rule:nonzero;fill:rgb(94.139099%,51.756287%,38.818359%);fill-opacity:1;" d="M 0 997.707031 L 723.839844 997.707031 L 723.839844 59.886719 L 0 59.886719 L 0 997.707031 "/>
</g>
<g clip-path="url(#clip4)" clip-rule="nonzero">
<path style=" stroke:none;fill-rule:nonzero;fill:rgb(92.576599%,46.263123%,19.604492%);fill-opacity:1;" d="M 196.023438 715.921875 L 788.453125 715.921875 L 788.453125 239.289063 L 196.023438 239.289063 L 196.023438 715.921875 "/>
</g>
<path style=" stroke:none;fill-rule:nonzero;fill:rgb(92.576599%,92.96875%,93.359375%);fill-opacity:1;" d="M 304.585938 381.898438 L 283.800781 381.898438 L 283.800781 375.320313 L 304.585938 375.320313 Z M 314.109375 366.429688 L 274.855469 366.429688 L 274.855469 390.714844 L 314.109375 390.714844 Z M 282.449219 404.144531 L 282.449219 412.777344 L 275.097656 412.777344 L 275.097656 404.144531 Z M 266.335938 424.746094 L 275.097656 424.746094 L 275.097656 421.667969 L 282.449219 421.667969 L 282.449219 424.484375 L 291.730469 424.484375 L 291.730469 395.273438 L 266.335938 395.273438 Z M 305.160156 412.777344 L 305.160156 404.144531 L 312.960938 404.144531 L 312.960938 412.777344 Z M 296.269531 395.273438 L 296.269531 424.746094 L 305.160156 424.746094 L 305.160156 421.667969 L 312.960938 421.667969 L 312.960938 424.484375 L 322.296875 424.484375 L 322.296875 395.273438 L 296.269531 395.273438 "/>
<path style=" stroke:none;fill-rule:nonzero;fill:rgb(92.576599%,92.96875%,93.359375%);fill-opacity:1;" d="M 335.65625 388.234375 L 348.382813 388.234375 L 348.382813 380.433594 L 345.566406 380.433594 L 345.566406 364.058594 L 337.898438 364.058594 L 337.898438 380.433594 L 335.65625 380.433594 L 335.65625 365.910156 L 327.726563 365.910156 L 327.726563 389.4375 C 327.726563 398.144531 327.210938 413.039063 323.765625 422.316406 C 325.929688 422.816406 329.65625 424.097656 331.507813 424.929688 C 333.730469 418.539063 334.765625 410.035156 335.269531 402.164063 L 338.859375 402.164063 L 338.859375 424.875 L 346.789063 424.875 L 346.789063 394.4375 L 335.601563 394.4375 C 335.65625 392.640625 335.65625 390.972656 335.65625 389.4375 Z M 358.421875 388.734375 L 358.421875 385.804688 L 361.421875 385.804688 C 361.238281 386.75 360.980469 387.714844 360.589844 388.734375 Z M 358.421875 376.339844 L 362.203125 376.339844 L 362.203125 379.210938 L 358.421875 379.210938 Z M 374.148438 379.210938 L 370.574219 379.210938 L 370.574219 376.339844 L 374.148438 376.339844 Z M 374.148438 388.734375 L 369.425781 388.734375 C 369.6875 387.714844 369.871094 386.75 370.054688 385.804688 L 374.148438 385.804688 Z M 385.207031 405.421875 L 374.984375 405.421875 L 374.984375 397.699219 L 366.09375 397.699219 L 366.09375 405.421875 L 358.738281 405.421875 C 362.386719 402.625 364.945313 399.292969 366.738281 395.902344 L 382.984375 395.902344 L 382.984375 369.171875 L 368.980469 369.171875 C 369.6875 367.835938 370.316406 366.355469 370.964844 364.820313 L 360.015625 364.058594 C 359.886719 365.597656 359.570313 367.375 359.183594 369.171875 L 350.050781 369.171875 L 350.050781 395.902344 L 356.570313 395.902344 C 354.773438 398.011719 352.476563 400.050781 349.476563 401.792969 C 350.882813 402.683594 352.867188 404.089844 354.386719 405.421875 L 348.070313 405.421875 L 348.070313 413.351563 L 366.09375 413.351563 L 366.09375 424.746094 L 374.984375 424.746094 L 374.984375 413.351563 L 385.207031 413.351563 L 385.207031 405.421875 "/>
<path style=" stroke:none;fill-rule:nonzero;fill:rgb(92.576599%,92.96875%,93.359375%);fill-opacity:1;" d="M 433.359375 381.84375 L 418.277344 381.84375 L 418.277344 399.160156 C 418.277344 407.40625 420.632813 409.851563 428.320313 409.851563 L 435.914063 409.851563 C 442.507813 409.851563 444.804688 407.089844 445.769531 397.125 C 443.34375 396.550781 439.5625 395.140625 437.710938 393.660156 C 437.394531 400.515625 437.082031 401.664063 435.097656 401.664063 L 429.726563 401.664063 C 427.539063 401.664063 427.226563 401.347656 427.226563 399.03125 L 427.226563 389.824219 L 442.25 389.824219 L 442.25 366.097656 L 417.761719 366.097656 L 417.761719 374.230469 L 433.359375 374.230469 Z M 407.332031 404.144531 L 415.648438 404.144531 L 415.648438 396.160156 L 407.332031 396.160156 L 407.332031 390.714844 L 416.222656 390.714844 L 416.222656 382.601563 L 405.683594 382.601563 L 405.683594 377.878906 L 414.628906 377.878906 L 414.628906 369.875 L 405.683594 369.875 L 405.683594 364.246094 L 396.976563 364.246094 L 396.976563 369.875 L 388.085938 369.875 L 388.085938 377.878906 L 396.976563 377.878906 L 396.976563 382.601563 L 386.234375 382.601563 L 386.234375 390.714844 L 398.828125 390.714844 L 398.828125 407.867188 C 397.753906 406.386719 396.847656 404.535156 396.011719 402.292969 C 396.21875 399.679688 396.273438 396.996094 396.347656 394.308594 L 387.898438 393.660156 C 387.824219 404.535156 387.195313 415.40625 384.324219 421.929688 C 386.363281 422.761719 390.457031 424.671875 392.121094 425.761719 C 393.269531 422.890625 394.105469 419.316406 394.734375 415.40625 C 399.847656 421.800781 407.40625 423.152344 418.464844 423.152344 L 443.398438 423.152344 C 443.972656 420.335938 445.507813 416.039063 446.917969 413.945313 C 440.082031 414.316406 424.410156 414.316406 418.519531 414.257813 C 414.1875 414.257813 410.460938 414.054688 407.332031 413.296875 L 407.332031 404.144531 "/>
<path style=" stroke:none;fill-rule:nonzero;fill:rgb(92.576599%,92.96875%,93.359375%);fill-opacity:1;" d="M 464.945313 370.265625 C 462.464844 368.597656 457.40625 365.984375 454.332031 364.375 L 448.960938 371.023438 C 452.164063 373.007813 457.089844 375.894531 459.3125 377.675781 Z M 461.761719 387.269531 C 459.257813 385.675781 454.332031 383.175781 451.257813 381.636719 L 445.957031 388.363281 C 449.164063 390.214844 453.941406 393.03125 456.183594 394.753906 Z M 455.035156 398.328125 C 452.421875 406.015625 448.960938 414 446.476563 419.058594 L 454.980469 423.984375 C 457.722656 417.445313 460.351563 410.351563 462.648438 403.386719 Z M 484.007813 395.070313 L 496.085938 395.070313 L 496.085938 397.4375 L 484.007813 397.4375 Z M 496.085938 388.992188 L 484.007813 388.992188 L 484.007813 386.695313 L 496.085938 386.695313 Z M 504.660156 403.960938 L 504.660156 380.175781 L 493.472656 380.175781 C 494.234375 379.082031 495.066406 377.878906 495.84375 376.65625 L 490.582031 375.765625 L 506.125 375.765625 L 506.125 367.449219 L 465.390625 367.449219 L 465.390625 385.289063 C 465.390625 395.585938 464.816406 410.222656 457.664063 420 C 459.886719 420.964844 463.871094 423.464844 465.519531 424.929688 C 473.191406 414.316406 474.410156 396.792969 474.410156 385.289063 L 474.410156 375.765625 L 485.101563 375.765625 C 484.765625 377.101563 484.265625 378.710938 483.75 380.175781 L 475.820313 380.175781 L 475.820313 403.960938 L 485.210938 403.960938 L 485.210938 415.980469 C 485.210938 416.628906 484.96875 416.816406 484.265625 416.816406 C 483.691406 416.816406 481.894531 416.816406 480.226563 416.742188 C 481.765625 414.054688 483.304688 411 484.394531 408.238281 L 476.207031 405.886719 C 474.800781 409.722656 472.429688 414.1875 470.1875 417.128906 C 472.246094 418.148438 475.691406 420.207031 477.414063 421.539063 C 478.117188 420.464844 478.894531 419.1875 479.726563 417.777344 C 480.488281 419.945313 481.320313 422.632813 481.582031 424.671875 C 485.414063 424.746094 488.488281 424.613281 490.972656 423.390625 C 493.527344 422.1875 494.046875 420 494.046875 416.242188 L 494.046875 403.960938 Z M 494.4375 408.109375 C 496.214844 412.203125 498.511719 417.648438 499.476563 420.964844 L 508.050781 417.335938 C 506.902344 414.128906 504.347656 408.886719 502.496094 405.054688 L 494.4375 408.109375 "/>
<path style=" stroke:none;fill-rule:nonzero;fill:rgb(92.576599%,92.96875%,93.359375%);fill-opacity:1;" d="M 289.992188 496.039063 L 266.371094 496.039063 L 266.371094 544.183594 L 291.027344 544.183594 C 302.566406 544.183594 309.976563 538.960938 309.976563 530.71875 C 309.976563 524.605469 306.199219 519.804688 300.308594 518.566406 C 305.308594 517.121094 308.476563 513.0625 308.476563 508.191406 C 308.476563 500.78125 301.253906 496.039063 289.992188 496.039063 Z M 289.25 514.914063 L 280.578125 514.914063 L 280.578125 506.746094 L 289.25 506.746094 C 292.0625 506.746094 293.84375 508.265625 293.84375 510.730469 C 293.84375 513.269531 292.0625 514.914063 289.25 514.914063 Z M 289.25 533.476563 L 280.578125 533.476563 L 280.578125 524.753906 L 289.25 524.753906 C 292.878906 524.679688 295.214844 526.328125 295.214844 528.9375 C 295.214844 531.753906 292.878906 533.535156 289.25 533.476563 "/>
<path style=" stroke:none;fill-rule:nonzero;fill:rgb(92.576599%,92.96875%,93.359375%);fill-opacity:1;" d="M 326.390625 512.730469 L 326.390625 506.820313 L 312.515625 506.820313 L 312.515625 544.183594 L 326.390625 544.183594 L 326.390625 526.328125 C 326.390625 520.898438 331.003906 517.878906 338.136719 518.769531 L 338.136719 506.265625 C 333.058594 506.265625 329.003906 508.597656 326.390625 512.730469 "/>
<path style=" stroke:none;fill-rule:nonzero;fill:rgb(92.576599%,92.96875%,93.359375%);fill-opacity:1;" d="M 356.332031 506.265625 C 350.496094 506.265625 344.457031 507.636719 338.34375 510.117188 L 341.769531 519.324219 C 345.902344 517.527344 350.089844 516.636719 353.035156 516.636719 C 357.292969 516.636719 359.5 518.492188 359.5 521.585938 L 359.5 521.714844 L 350.367188 521.714844 C 340.957031 521.863281 335.9375 525.847656 335.9375 533.050781 C 335.9375 540.070313 340.605469 544.796875 348.570313 544.796875 C 353.515625 544.796875 357.238281 543.089844 359.5 540.070313 L 359.5 544.183594 L 373.09375 544.183594 L 373.09375 519.9375 C 373.09375 511.285156 366.851563 506.265625 356.332031 506.265625 Z M 353.179688 535.738281 C 350.496094 535.738281 348.996094 534.367188 348.996094 532.03125 C 348.996094 529.699219 350.441406 528.53125 353.179688 528.53125 L 359.5 528.53125 L 359.5 531.882813 C 358.460938 534.21875 355.996094 535.738281 353.179688 535.738281 "/>
<path style=" stroke:none;fill-rule:nonzero;fill:rgb(92.576599%,92.96875%,93.359375%);fill-opacity:1;" d="M 402.773438 506.265625 C 397.550781 506.265625 393.492188 508.46875 390.878906 512.582031 L 390.878906 506.820313 L 377.007813 506.820313 L 377.007813 544.183594 L 390.878906 544.183594 L 390.878906 525.714844 C 390.878906 521.453125 393.214844 518.492188 396.992188 518.4375 C 400.214844 518.4375 402.347656 520.769531 402.347656 524.476563 L 402.347656 544.183594 L 416.222656 544.183594 L 416.222656 520.492188 C 416.222656 511.839844 410.738281 506.265625 402.773438 506.265625 "/>
<path style=" stroke:none;fill-rule:nonzero;fill:rgb(92.576599%,92.96875%,93.359375%);fill-opacity:1;" d="M 444.792969 493.222656 L 444.792969 511.136719 C 442.253906 508.0625 438.625 506.339844 434.214844 506.339844 C 423.988281 506.339844 417.246094 513.824219 417.246094 525.289063 C 417.246094 537.035156 424.121094 544.667969 434.566406 544.667969 C 438.828125 544.667969 442.328125 542.945313 444.792969 539.925781 L 444.792969 544.183594 L 458.667969 544.183594 L 458.667969 493.222656 Z M 438.066406 534.015625 C 433.9375 534.015625 431.269531 530.660156 431.269531 525.640625 C 431.269531 520.695313 433.9375 517.324219 438.066406 517.324219 C 442.125 517.324219 444.792969 520.695313 444.792969 525.640625 C 444.792969 530.660156 442.125 534.015625 438.066406 534.015625 "/>
<path style=" stroke:none;fill-rule:nonzero;fill:rgb(92.576599%,92.96875%,93.359375%);fill-opacity:1;" d="M 504.480469 495.613281 C 489.367188 495.613281 478.234375 505.933594 478.234375 520.066406 C 478.234375 534.292969 489.367188 544.796875 504.480469 544.796875 C 519.597656 544.796875 530.710938 534.21875 530.710938 520.066406 C 530.710938 505.988281 519.597656 495.613281 504.480469 495.613281 Z M 504.6875 507.582031 C 511.003906 507.582031 516.097656 512.859375 516.097656 520.140625 C 516.097656 527.417969 511.003906 532.847656 504.6875 532.847656 C 498.367188 532.847656 492.867188 527.417969 492.867188 520.140625 C 492.867188 512.859375 498.292969 507.582031 504.6875 507.582031 "/>
<path style=" stroke:none;fill-rule:nonzero;fill:rgb(92.576599%,92.96875%,93.359375%);fill-opacity:1;" d="M 546.644531 512.730469 L 546.644531 506.820313 L 532.769531 506.820313 L 532.769531 544.183594 L 546.644531 544.183594 L 546.644531 526.328125 C 546.644531 520.898438 551.257813 517.878906 558.386719 518.769531 L 558.386719 506.265625 C 553.3125 506.265625 549.257813 508.597656 546.644531 512.730469 "/>
<path style=" stroke:none;fill-rule:nonzero;fill:rgb(92.576599%,92.96875%,93.359375%);fill-opacity:1;" d="M 566.832031 490.410156 C 563.332031 490.410156 560.941406 492.871094 560.941406 496.371094 C 560.941406 499.746094 563.332031 502.207031 566.832031 502.207031 C 570.351563 502.207031 572.742188 499.746094 572.742188 496.371094 C 572.742188 492.871094 570.351563 490.410156 566.832031 490.410156 Z M 559.828125 506.820313 L 559.828125 544.183594 L 573.703125 544.183594 L 573.703125 506.820313 L 559.828125 506.820313 "/>
<path style=" stroke:none;fill-rule:nonzero;fill:rgb(92.576599%,92.96875%,93.359375%);fill-opacity:1;" d="M 601.449219 506.820313 L 601.449219 510.878906 C 599.042969 507.988281 595.539063 506.339844 591.148438 506.339844 C 582.148438 506.339844 575.757813 513.34375 575.757813 523.992188 C 575.757813 534.902344 582.351563 542.054688 591.429688 542.054688 C 595.6875 542.054688 599.042969 540.480469 601.449219 537.589844 L 601.449219 541.367188 C 601.449219 545 598.503906 547.351563 593.484375 547.351563 C 589.632813 547.351563 585.316406 546.113281 582.019531 543.90625 L 577.40625 553.242188 C 581.460938 555.929688 587.722656 558.132813 594.652344 558.132813 C 606.878906 558.132813 615.195313 551.464844 615.195313 540.960938 L 615.195313 506.820313 Z M 595.058594 532.089844 C 591.28125 532.089844 588.742188 529.011719 588.742188 524.402344 C 588.742188 519.730469 591.28125 516.566406 595.058594 516.566406 C 598.910156 516.566406 601.449219 519.660156 601.449219 524.402344 C 601.449219 529.011719 598.910156 532.089844 595.058594 532.089844 "/>
<path style=" stroke:none;fill-rule:nonzero;fill:rgb(92.576599%,92.96875%,93.359375%);fill-opacity:1;" d="M 626.925781 490.410156 C 623.421875 490.410156 621.035156 492.871094 621.035156 496.371094 C 621.035156 499.746094 623.421875 502.207031 626.925781 502.207031 C 630.445313 502.207031 632.832031 499.746094 632.832031 496.371094 C 632.832031 492.871094 630.445313 490.410156 626.925781 490.410156 Z M 619.921875 506.820313 L 619.921875 544.183594 L 633.796875 544.183594 L 633.796875 506.820313 L 619.921875 506.820313 "/>
<path style=" stroke:none;fill-rule:nonzero;fill:rgb(92.576599%,92.96875%,93.359375%);fill-opacity:1;" d="M 664.507813 506.265625 C 659.285156 506.265625 655.226563 508.46875 652.613281 512.582031 L 652.613281 506.820313 L 638.742188 506.820313 L 638.742188 544.183594 L 652.613281 544.183594 L 652.613281 525.714844 C 652.613281 521.453125 654.949219 518.492188 658.730469 518.4375 C 661.953125 518.4375 664.082031 520.769531 664.082031 524.476563 L 664.082031 544.183594 L 677.957031 544.183594 L 677.957031 520.492188 C 677.957031 511.839844 672.472656 506.265625 664.507813 506.265625 "/>
<g clip-path="url(#clip5)" clip-rule="nonzero">
<path style=" stroke:none;fill-rule:nonzero;fill:rgb(94.139099%,51.756287%,38.818359%);fill-opacity:1;" d="M 694.472656 190.621094 L 1099.988281 190.621094 L 1099.988281 157.898438 L 694.472656 157.898438 L 694.472656 190.621094 "/>
</g>
<path style=" stroke:none;fill-rule:nonzero;fill:rgb(21.946716%,21.580505%,21.946716%);fill-opacity:1;" d="M 45.425781 958.222656 L 42.960938 963.28125 L 42.960938 964.742188 L 46.703125 964.742188 L 46.703125 966.539063 L 48.703125 966.539063 L 48.703125 964.742188 L 49.761719 964.742188 L 49.761719 963.09375 L 48.703125 963.09375 L 48.703125 961.335938 L 46.703125 961.335938 L 46.722656 963.09375 L 45.164063 963.09375 L 47.480469 958.222656 L 45.425781 958.222656 "/>
<path style=" stroke:none;fill-rule:nonzero;fill:rgb(21.946716%,21.580505%,21.946716%);fill-opacity:1;" d="M 67.398438 958.242188 L 67.398438 966.539063 L 69.5625 966.539063 L 69.5625 963.539063 L 73.289063 963.539063 L 73.289063 961.816406 L 69.5625 961.816406 L 69.5625 959.964844 L 73.601563 959.964844 L 73.601563 958.242188 L 67.398438 958.242188 "/>
<path style=" stroke:none;fill-rule:nonzero;fill:rgb(21.946716%,21.580505%,21.946716%);fill-opacity:1;" d="M 76.105469 961.207031 L 76.105469 960.128906 L 73.992188 960.128906 L 73.992188 966.539063 L 76.105469 966.539063 L 76.105469 963.28125 C 76.214844 962.390625 76.992188 961.871094 78.160156 961.984375 L 78.160156 960.058594 C 77.269531 960.058594 76.546875 960.464844 76.105469 961.207031 "/>
<path style=" stroke:none;fill-rule:nonzero;fill:rgb(21.946716%,21.580505%,21.946716%);fill-opacity:1;" d="M 81.324219 960.058594 C 79.324219 960.058594 77.972656 961.371094 77.972656 963.371094 C 77.972656 965.316406 79.269531 966.613281 81.363281 966.613281 C 82.546875 966.613281 83.511719 966.207031 84.160156 965.464844 L 83.046875 964.371094 C 82.621094 964.800781 82.105469 965.019531 81.546875 965.019531 C 80.824219 965.019531 80.308594 964.613281 80.101563 963.910156 L 84.550781 963.910156 C 84.699219 961.574219 83.550781 960.058594 81.324219 960.058594 Z M 80.046875 962.78125 C 80.195313 962.039063 80.640625 961.539063 81.324219 961.539063 C 82.046875 961.539063 82.511719 962.039063 82.511719 962.78125 L 80.046875 962.78125 "/>
<path style=" stroke:none;fill-rule:nonzero;fill:rgb(21.946716%,21.580505%,21.946716%);fill-opacity:1;" d="M 87.875 960.058594 C 85.875 960.058594 84.519531 961.371094 84.519531 963.371094 C 84.519531 965.316406 85.816406 966.613281 87.910156 966.613281 C 89.097656 966.613281 90.058594 966.207031 90.707031 965.464844 L 89.597656 964.371094 C 89.171875 964.800781 88.652344 965.019531 88.097656 965.019531 C 87.375 965.019531 86.855469 964.613281 86.652344 963.910156 L 91.097656 963.910156 C 91.246094 961.574219 90.097656 960.058594 87.875 960.058594 Z M 86.597656 962.78125 C 86.746094 962.039063 87.1875 961.539063 87.875 961.539063 C 88.597656 961.539063 89.058594 962.039063 89.058594 962.78125 L 86.597656 962.78125 "/>
<path style=" stroke:none;fill-rule:nonzero;fill:rgb(21.946716%,21.580505%,21.946716%);fill-opacity:1;" d="M 95.71875 962.464844 L 97.257813 961.574219 C 96.699219 960.613281 95.683594 960.058594 94.386719 960.058594 C 92.402344 960.058594 91.070313 961.371094 91.070313 963.371094 C 91.070313 965.316406 92.382813 966.613281 94.367188 966.613281 C 95.71875 966.613281 96.773438 966.058594 97.273438 965.078125 L 95.71875 964.1875 C 95.460938 964.6875 95.035156 964.910156 94.476563 964.910156 C 93.71875 964.910156 93.199219 964.300781 93.199219 963.355469 C 93.199219 962.425781 93.71875 961.796875 94.476563 961.796875 C 95.015625 961.796875 95.441406 962.058594 95.71875 962.464844 "/>
<path style=" stroke:none;fill-rule:nonzero;fill:rgb(21.946716%,21.580505%,21.946716%);fill-opacity:1;" d="M 100.457031 960.058594 C 98.34375 960.058594 96.953125 961.371094 96.953125 963.335938 C 96.953125 965.316406 98.34375 966.613281 100.457031 966.613281 C 102.566406 966.613281 103.957031 965.316406 103.957031 963.335938 C 103.957031 961.371094 102.566406 960.058594 100.457031 960.058594 Z M 100.457031 961.761719 C 101.289063 961.761719 101.84375 962.410156 101.84375 963.355469 C 101.84375 964.316406 101.289063 964.949219 100.457031 964.949219 C 99.640625 964.949219 99.085938 964.316406 99.085938 963.355469 C 99.085938 962.410156 99.640625 961.761719 100.457031 961.761719 "/>
</g>
</svg>
