<?xml version="1.0" encoding="UTF-8"?>
<svg xmlns="http://www.w3.org/2000/svg" xmlns:xlink="http://www.w3.org/1999/xlink" width="707.04pt" height="1000.08pt" viewBox="0 0 707.04 1000.08" version="1.2">
<defs>
<clipPath id="clip1">
  <path d="M 0 0.21875 L 706.042969 0.21875 L 706.042969 998.792969 L 0 998.792969 Z M 0 0.21875 "/>
</clipPath>
<clipPath id="clip2">
  <path d="M 0 0.21875 L 706 0.21875 L 706 998 L 0 998 Z M 0 0.21875 "/>
</clipPath>
<clipPath id="clip3">
  <path d="M 0 42 L 705.734375 42 L 705.734375 956 L 0 956 Z M 0 42 "/>
</clipPath>
<clipPath id="clip4">
  <path d="M 185 308 L 705.734375 308 L 705.734375 773 L 185 773 Z M 185 308 "/>
</clipPath>
</defs>
<g id="surface1">
<g clip-path="url(#clip1)" clip-rule="nonzero">
<path style=" stroke:none;fill-rule:nonzero;fill:rgb(100%,100%,100%);fill-opacity:1;" d="M 0 998.792969 L 706.042969 998.792969 L 706.042969 0.21875 L 0 0.21875 Z M 0 998.792969 "/>
</g>
<g clip-path="url(#clip2)" clip-rule="nonzero">
<path style=" stroke:none;fill-rule:nonzero;fill:rgb(100%,100%,100%);fill-opacity:1;" d="M 0 997.429688 L 705.734375 997.429688 L 705.734375 0.21875 L 0 0.21875 Z M 0 997.429688 "/>
</g>
<g clip-path="url(#clip3)" clip-rule="nonzero">
<path style=" stroke:none;fill-rule:nonzero;fill:rgb(94.139099%,51.756287%,38.818359%);fill-opacity:1;" d="M 0 955.972656 L 705.734375 955.972656 L 705.734375 42.671875 L 0 42.671875 Z M 0 955.972656 "/>
</g>
<g clip-path="url(#clip4)" clip-rule="nonzero">
<path style=" stroke:none;fill-rule:nonzero;fill:rgb(92.576599%,46.263123%,19.604492%);fill-opacity:1;" d="M 185.992188 772.265625 L 762.9375 772.265625 L 762.9375 308.097656 L 185.992188 308.097656 L 185.992188 772.265625 "/>
</g>
<path style=" stroke:none;fill-rule:nonzero;fill:rgb(92.576599%,92.96875%,93.359375%);fill-opacity:1;" d="M 272.09375 394.609375 L 251.859375 394.609375 L 251.859375 388.195313 L 272.09375 388.195313 Z M 281.375 379.527344 L 243.140625 379.527344 L 243.140625 403.203125 L 281.375 403.203125 Z M 250.5625 416.265625 L 250.5625 424.679688 L 243.390625 424.679688 L 243.390625 416.265625 Z M 234.867188 436.320313 L 243.390625 436.320313 L 243.390625 433.328125 L 250.5625 433.328125 L 250.5625 436.066406 L 259.589844 436.066406 L 259.589844 407.617188 L 234.867188 407.617188 Z M 272.671875 424.679688 L 272.671875 416.265625 L 280.257813 416.265625 L 280.257813 424.679688 Z M 264.003906 407.617188 L 264.003906 436.320313 L 272.671875 436.320313 L 272.671875 433.328125 L 280.257813 433.328125 L 280.257813 436.066406 L 289.355469 436.066406 L 289.355469 407.617188 L 264.003906 407.617188 "/>
<path style=" stroke:none;fill-rule:nonzero;fill:rgb(92.576599%,92.96875%,93.359375%);fill-opacity:1;" d="M 302.367188 400.769531 L 314.765625 400.769531 L 314.765625 393.167969 L 312.027344 393.167969 L 312.027344 377.238281 L 304.546875 377.238281 L 304.546875 393.167969 L 302.367188 393.167969 L 302.367188 379.039063 L 294.640625 379.039063 L 294.640625 401.960938 C 294.640625 410.425781 294.152344 424.933594 290.78125 433.960938 C 292.910156 434.464844 296.511719 435.707031 298.316406 436.519531 C 300.492188 430.285156 301.484375 421.996094 301.988281 414.339844 L 305.484375 414.339844 L 305.484375 436.445313 L 313.199219 436.445313 L 313.199219 406.804688 L 302.296875 406.804688 C 302.367188 405.058594 302.367188 403.457031 302.367188 401.960938 Z M 324.53125 401.273438 L 324.53125 398.410156 L 327.46875 398.410156 C 327.269531 399.328125 327.015625 400.265625 326.65625 401.273438 Z M 324.53125 389.183594 L 328.207031 389.183594 L 328.207031 391.996094 L 324.53125 391.996094 Z M 339.84375 391.996094 L 336.367188 391.996094 L 336.367188 389.183594 L 339.84375 389.183594 Z M 339.84375 401.273438 L 335.25 401.273438 C 335.484375 400.265625 335.683594 399.328125 335.863281 398.410156 L 339.84375 398.410156 Z M 350.621094 417.527344 L 340.65625 417.527344 L 340.65625 409.976563 L 332.007813 409.976563 L 332.007813 417.527344 L 324.835938 417.527344 C 328.386719 414.789063 330.890625 411.546875 332.621094 408.25 L 348.441406 408.25 L 348.441406 382.210938 L 334.800781 382.210938 C 335.484375 380.898438 336.117188 379.472656 336.746094 377.976563 L 326.097656 377.238281 C 325.972656 378.734375 325.648438 380.464844 325.289063 382.210938 L 316.367188 382.210938 L 316.367188 408.25 L 322.730469 408.25 C 320.980469 410.300781 318.746094 412.285156 315.808594 413.976563 C 317.179688 414.84375 319.109375 416.210938 320.601563 417.527344 L 314.441406 417.527344 L 314.441406 425.238281 L 332.007813 425.238281 L 332.007813 436.320313 L 340.65625 436.320313 L 340.65625 425.238281 L 350.621094 425.238281 L 350.621094 417.527344 "/>
<path style=" stroke:none;fill-rule:nonzero;fill:rgb(92.576599%,92.96875%,93.359375%);fill-opacity:1;" d="M 378.210938 412.101563 C 378.894531 413.597656 379.578125 415.273438 380.265625 416.96875 L 376.894531 418.699219 L 376.894531 408.804688 L 386.175781 408.804688 L 386.175781 404.574219 C 386.859375 405.996094 387.617188 407.796875 387.921875 408.933594 L 387.921875 408.988281 C 388.480469 408.429688 390.859375 408.050781 392.839844 408.050781 L 394.15625 408.050781 C 392.96875 412.480469 391.21875 417.023438 388.859375 421.3125 C 387.867188 418.011719 385.742188 413.222656 383.941406 409.542969 Z M 379.886719 387.128906 L 379.886719 391.238281 L 376.894531 391.238281 L 376.894531 387.128906 Z M 376.894531 397.472656 L 379.886719 397.472656 L 379.886719 401.707031 L 376.894531 401.707031 Z M 403.238281 428.535156 C 402.929688 428.535156 402.625 428.410156 402.5 428.175781 C 402.371094 427.976563 402.371094 427.597656 402.371094 427.292969 L 402.371094 410.859375 L 400.75 410.859375 C 401.003906 409.921875 401.253906 408.988281 401.507813 408.050781 L 409.292969 408.050781 L 409.347656 400.769531 L 402.804688 400.769531 C 403.488281 395.90625 403.796875 391.363281 403.921875 387.382813 L 408.660156 387.382813 L 408.660156 379.777344 L 387.617188 379.777344 L 387.617188 387.382813 L 397.019531 387.382813 C 396.824219 391.363281 396.515625 395.976563 395.707031 400.769531 L 393.652344 400.769531 C 394.335938 397.039063 395.09375 392.300781 395.527344 389.871094 L 388.859375 389.871094 C 388.480469 392.679688 387.4375 399.777344 386.929688 401.023438 C 386.679688 401.707031 386.5 402.140625 386.175781 402.445313 L 386.175781 380.03125 L 370.121094 380.03125 L 370.121094 408.050781 C 368.550781 405.003906 365.5625 399.273438 364.570313 397.652344 L 364.570313 397.527344 L 369.058594 397.527344 L 369.058594 389.382813 L 364.570313 389.382813 L 364.570313 377.167969 L 356.734375 377.167969 L 356.734375 389.382813 L 351.382813 389.382813 L 351.382813 397.527344 L 356.734375 397.527344 L 356.734375 398.410156 C 355.363281 405.183594 352.804688 413.09375 349.886719 418.140625 C 351.128906 420.265625 352.984375 423.617188 353.796875 426.050781 C 354.859375 424.246094 355.851563 422.121094 356.734375 419.707031 L 356.734375 436.320313 L 364.570313 436.320313 L 364.570313 411.039063 C 365.382813 413.292969 366.066406 415.472656 366.570313 417.148438 L 370.121094 411.039063 L 370.121094 418.519531 C 370.121094 421.636719 368.316406 424.175781 367.003906 425.3125 C 368.246094 426.554688 370.371094 429.472656 371.058594 431.09375 C 372.101563 429.78125 373.796875 428.230469 382.445313 423.132813 C 382.625 423.871094 382.824219 424.5 382.949219 425.113281 L 388.121094 422.625 C 386.121094 425.996094 383.6875 429.222656 380.695313 432.210938 C 382.695313 433.148438 385.617188 435.273438 386.984375 436.570313 C 390.660156 432.714844 393.527344 428.480469 395.777344 424.050781 L 395.777344 428.050781 C 395.777344 431.78125 396.085938 432.84375 397.074219 433.960938 C 398.011719 435.023438 399.507813 435.457031 401.128906 435.457031 L 403.921875 435.457031 C 405.109375 435.457031 406.300781 435.078125 407.164063 434.464844 C 408.03125 433.707031 408.605469 432.714844 408.96875 431.347656 C 409.347656 429.851563 409.597656 426.300781 409.652344 423.183594 C 408.230469 422.679688 406.355469 421.6875 405.292969 420.824219 C 405.363281 423.5625 405.292969 425.871094 405.164063 426.859375 C 405.058594 427.492188 404.929688 427.976563 404.734375 428.230469 C 404.550781 428.410156 404.300781 428.535156 403.996094 428.535156 L 403.238281 428.535156 "/>
<path style=" stroke:none;fill-rule:nonzero;fill:rgb(92.576599%,92.96875%,93.359375%);fill-opacity:1;" d="M 418.683594 406.375 L 445.65625 406.375 C 444.160156 407.871094 442.539063 409.238281 440.972656 410.425781 C 442.96875 411.546875 445.960938 413.527344 447.710938 414.96875 C 451.945313 411.671875 457.167969 406.429688 459.980469 402.195313 L 453.871094 398.410156 L 452.503906 398.714844 L 443.277344 398.714844 L 446.46875 395.78125 C 444.71875 393.542969 440.972656 390.859375 437.800781 389.183594 L 432.394531 394.105469 C 434.449219 395.347656 436.683594 397.039063 438.429688 398.714844 L 418.933594 398.714844 C 426.285156 395.78125 433.1875 391.742188 438.683594 386.570313 C 445.78125 392.175781 455.0625 397.09375 463.402344 399.90625 C 464.699219 397.652344 467.4375 394.105469 469.441406 392.300781 C 460.339844 389.941406 450.015625 385.507813 443.78125 380.898438 C 444.160156 380.335938 444.519531 379.851563 444.898438 379.292969 L 436.429688 376.175781 C 431.257813 383.960938 420.738281 389.382813 409.476563 392.230469 C 410.972656 394.105469 413.382813 398.339844 414.324219 400.390625 C 415.816406 399.90625 417.257813 399.402344 418.683594 398.84375 Z M 417.621094 433.457031 C 420.050781 428.914063 421.855469 421.996094 423.042969 416.265625 L 414.953125 413.527344 C 413.890625 419.203125 411.835938 425.183594 409.402344 429.292969 Z M 436.554688 426.679688 C 433.386719 426.679688 432.882813 426.429688 432.882813 424.300781 L 432.882813 415.222656 C 435.945313 418.011719 438.988281 421.132813 440.539063 423.4375 L 447.582031 418.085938 C 445.152344 414.84375 439.855469 410.425781 435.871094 407.363281 L 429.332031 412.160156 L 430.519531 413.167969 L 423.925781 413.167969 L 423.925781 424.425781 C 423.925781 432.085938 426.214844 434.644531 435.492188 434.644531 L 445.585938 434.644531 C 452.988281 434.644531 455.421875 432.210938 456.484375 422.679688 C 454.050781 422.195313 450.25 420.824219 448.394531 419.457031 C 448.015625 425.671875 447.582031 426.679688 444.84375 426.679688 Z M 453.0625 416.085938 C 456.304688 421.257813 459.980469 428.175781 461.277344 432.535156 L 469.492188 428.988281 C 467.871094 424.554688 463.890625 417.960938 460.59375 413.042969 L 453.0625 416.085938 "/>
<path style=" stroke:none;fill-rule:nonzero;fill:rgb(92.576599%,92.96875%,93.359375%);fill-opacity:1;" d="M 259.789063 505.761719 L 235.15625 505.761719 L 235.15625 552.644531 L 260.851563 552.644531 C 272.886719 552.644531 280.617188 547.566406 280.617188 539.527344 C 280.617188 533.582031 276.671875 528.898438 270.527344 527.691406 C 275.734375 526.285156 279.03125 522.339844 279.03125 517.601563 C 279.03125 510.375 271.515625 505.761719 259.789063 505.761719 Z M 258.996094 524.160156 L 249.984375 524.160156 L 249.984375 516.195313 L 258.996094 516.195313 C 261.933594 516.195313 263.789063 517.671875 263.789063 520.070313 C 263.789063 522.554688 261.933594 524.160156 258.996094 524.160156 Z M 258.996094 542.210938 L 249.984375 542.210938 L 249.984375 533.726563 L 258.996094 533.726563 C 262.796875 533.65625 265.230469 535.257813 265.230469 537.796875 C 265.230469 540.535156 262.796875 542.285156 258.996094 542.210938 "/>
<path style=" stroke:none;fill-rule:nonzero;fill:rgb(92.576599%,92.96875%,93.359375%);fill-opacity:1;" d="M 297.71875 522.015625 L 297.71875 516.265625 L 283.25 516.265625 L 283.25 552.644531 L 297.71875 552.644531 L 297.71875 535.257813 C 297.71875 529.976563 302.511719 527.023438 309.953125 527.90625 L 309.953125 515.726563 C 304.65625 515.726563 300.4375 517.996094 297.71875 522.015625 "/>
<path style=" stroke:none;fill-rule:nonzero;fill:rgb(92.576599%,92.96875%,93.359375%);fill-opacity:1;" d="M 328.914063 515.726563 C 322.839844 515.726563 316.535156 517.058594 310.15625 519.472656 L 313.742188 528.429688 C 318.027344 526.699219 322.40625 525.816406 325.472656 525.816406 C 329.921875 525.816406 332.210938 527.636719 332.210938 530.644531 L 332.210938 530.769531 L 322.695313 530.769531 C 312.875 530.914063 307.652344 534.789063 307.652344 541.816406 C 307.652344 548.628906 312.535156 553.238281 320.824219 553.238281 C 325.976563 553.238281 329.847656 551.582031 332.210938 548.628906 L 332.210938 552.644531 L 346.371094 552.644531 L 346.371094 529.042969 C 346.371094 520.609375 339.867188 515.726563 328.914063 515.726563 Z M 325.613281 544.410156 C 322.839844 544.410156 321.253906 543.078125 321.253906 540.808594 C 321.253906 538.535156 322.769531 537.402344 325.613281 537.402344 L 332.210938 537.402344 L 332.210938 540.679688 C 331.128906 542.953125 328.550781 544.410156 325.613281 544.410156 "/>
<path style=" stroke:none;fill-rule:nonzero;fill:rgb(92.576599%,92.96875%,93.359375%);fill-opacity:1;" d="M 377.296875 515.726563 C 371.855469 515.726563 367.640625 517.871094 364.917969 521.871094 L 364.917969 516.265625 L 350.449219 516.265625 L 350.449219 552.644531 L 364.917969 552.644531 L 364.917969 534.644531 C 364.917969 530.5 367.351563 527.636719 371.277344 527.5625 C 374.648438 527.5625 376.863281 529.835938 376.863281 533.457031 L 376.863281 552.644531 L 391.316406 552.644531 L 391.316406 529.5625 C 391.316406 521.148438 385.601563 515.726563 377.296875 515.726563 "/>
<path style=" stroke:none;fill-rule:nonzero;fill:rgb(92.576599%,92.96875%,93.359375%);fill-opacity:1;" d="M 421.085938 503.023438 L 421.085938 520.484375 C 418.4375 517.457031 414.652344 515.796875 410.078125 515.796875 C 399.410156 515.796875 392.382813 523.078125 392.382813 534.25 C 392.382813 545.691406 399.554688 553.113281 410.417969 553.113281 C 414.871094 553.113281 418.507813 551.4375 421.085938 548.5 L 421.085938 552.644531 L 435.554688 552.644531 L 435.554688 503.023438 Z M 414.078125 542.753906 C 409.789063 542.753906 406.996094 539.472656 406.996094 534.589844 C 406.996094 529.761719 409.789063 526.5 414.078125 526.5 C 418.292969 526.5 421.085938 529.761719 421.085938 534.589844 C 421.085938 539.472656 418.292969 542.753906 414.078125 542.753906 "/>
<path style=" stroke:none;fill-rule:nonzero;fill:rgb(92.576599%,92.96875%,93.359375%);fill-opacity:1;" d="M 271.445313 584.265625 L 280.039063 574.773438 C 274.957031 569.691406 266.871094 566.484375 259.285156 566.484375 C 243.753906 566.484375 232.292969 576.574219 232.292969 590.210938 C 232.292969 604.070313 243.535156 614.359375 258.777344 614.359375 C 266.363281 614.359375 274.597656 610.824219 280.039063 605.328125 L 271.445313 596.773438 C 268.003906 600.050781 263.355469 602.195313 259.5 602.195313 C 252.6875 602.195313 247.554688 596.96875 247.554688 590.085938 C 247.554688 583.203125 252.6875 578.050781 259.5 578.050781 C 263.644531 578.050781 268.292969 580.519531 271.445313 584.265625 "/>
<path style=" stroke:none;fill-rule:nonzero;fill:rgb(92.576599%,92.96875%,93.359375%);fill-opacity:1;" d="M 299 576.914063 C 285.902344 576.914063 277.308594 584.265625 277.308594 595.5625 C 277.308594 606.808594 285.902344 614.230469 299 614.230469 C 312.101563 614.230469 320.621094 606.808594 320.621094 595.5625 C 320.621094 584.265625 312.101563 576.914063 299 576.914063 Z M 299 587.617188 C 303.21875 587.617188 306.007813 590.878906 306.007813 595.707031 C 306.007813 600.589844 303.21875 603.800781 299 603.800781 C 294.710938 603.800781 291.917969 600.589844 291.917969 595.707031 C 291.917969 590.878906 294.710938 587.617188 299 587.617188 "/>
<path style=" stroke:none;fill-rule:nonzero;fill:rgb(92.576599%,92.96875%,93.359375%);fill-opacity:1;" d="M 349.601563 576.84375 C 344.160156 576.84375 339.945313 578.988281 337.222656 582.988281 L 337.222656 577.382813 L 322.753906 577.382813 L 322.753906 613.761719 L 337.222656 613.761719 L 337.222656 595.761719 C 337.222656 591.617188 339.65625 588.753906 343.582031 588.683594 C 346.953125 588.683594 349.167969 590.953125 349.167969 594.574219 L 349.167969 613.761719 L 363.621094 613.761719 L 363.621094 590.679688 C 363.621094 582.265625 357.90625 576.84375 349.601563 576.84375 "/>
<path style=" stroke:none;fill-rule:nonzero;fill:rgb(92.576599%,92.96875%,93.359375%);fill-opacity:1;" d="M 391.96875 591.492188 L 403.046875 586.410156 C 399.769531 580.394531 393.246094 576.914063 385.085938 576.914063 C 372.777344 576.914063 364.6875 584.390625 364.6875 595.707031 C 364.6875 606.878906 372.707031 614.230469 384.957031 614.230469 C 393.535156 614.230469 400.128906 610.824219 403.121094 604.808594 L 391.894531 599.511719 C 390.667969 602.265625 388.527344 603.527344 385.734375 603.527344 C 381.878906 603.527344 379.300781 600.394531 379.300781 595.636719 C 379.300781 591.023438 381.878906 587.871094 385.734375 587.871094 C 388.453125 587.871094 390.597656 589.222656 391.96875 591.492188 "/>
<path style=" stroke:none;fill-rule:nonzero;fill:rgb(92.576599%,92.96875%,93.359375%);fill-opacity:1;" d="M 421.011719 576.914063 C 408.703125 576.914063 400.46875 584.339844 400.46875 595.707031 C 400.46875 606.878906 408.417969 614.230469 421.445313 614.230469 C 428.8125 614.230469 434.6875 611.890625 438.757813 607.671875 L 431.246094 600.789063 C 428.667969 602.988281 425.75 604.265625 422.667969 604.265625 C 418.9375 604.265625 416.21875 602.320313 415.082031 598.84375 L 441.28125 598.84375 C 442.128906 585.472656 434.6875 576.914063 421.011719 576.914063 Z M 427.027344 592.230469 L 414.792969 592.230469 C 415.515625 588.554688 417.730469 586.070313 421.15625 586.070313 C 424.667969 586.070313 427.101563 588.609375 427.027344 592.230469 "/>
<path style=" stroke:none;fill-rule:nonzero;fill:rgb(92.576599%,92.96875%,93.359375%);fill-opacity:1;" d="M 468.960938 576.914063 C 464.601563 576.914063 460.871094 578.574219 458.296875 581.601563 L 458.296875 577.382813 L 443.84375 577.382813 L 443.84375 626.734375 L 458.296875 626.734375 L 458.296875 609.546875 C 460.945313 612.554688 464.746094 614.230469 469.320313 614.230469 C 480.0625 614.230469 486.996094 606.933594 486.996094 595.761719 C 486.996094 584.390625 479.84375 576.914063 468.960938 576.914063 Z M 465.320313 603.527344 C 461.160156 603.527344 458.296875 600.25 458.296875 595.4375 C 458.296875 590.628906 461.160156 587.347656 465.320313 587.347656 C 469.609375 587.347656 472.402344 590.628906 472.402344 595.4375 C 472.402344 600.25 469.609375 603.527344 465.320313 603.527344 "/>
<path style=" stroke:none;fill-rule:nonzero;fill:rgb(92.576599%,92.96875%,93.359375%);fill-opacity:1;" d="M 513.195313 602.734375 C 511.484375 603.328125 509.898438 603.800781 508.765625 603.800781 C 506.746094 603.800781 505.46875 602.664063 505.46875 600.320313 L 505.46875 587.871094 L 515.050781 587.871094 L 515.050781 579.257813 L 505.46875 579.257813 L 505.46875 569.148438 L 491.089844 569.148438 L 491.089844 579.257813 L 485.71875 579.257813 L 485.71875 587.871094 L 491.089844 587.871094 L 491.089844 602.394531 C 491.089844 609.941406 496.65625 614.429688 504.960938 614.359375 C 508.910156 614.359375 513.050781 613.492188 515.773438 612.015625 L 513.195313 602.734375 "/>
<path style=" stroke:none;fill-rule:nonzero;fill:rgb(21.946716%,21.580505%,21.946716%);fill-opacity:1;" d="M 44.972656 921.207031 L 42.035156 924.234375 L 42.035156 925.625 L 48.199219 925.625 L 48.199219 923.929688 L 44.738281 923.929688 L 46.398438 922.273438 C 47.296875 921.351563 47.964844 920.453125 47.964844 919.570313 C 47.964844 918.289063 46.773438 917.441406 45.152344 917.441406 C 43.964844 917.441406 42.847656 917.894531 41.800781 918.652344 L 42.59375 920.21875 C 43.351563 919.585938 44.179688 919.191406 44.828125 919.191406 C 45.421875 919.191406 45.765625 919.441406 45.765625 919.875 C 45.765625 920.21875 45.421875 920.742188 44.972656 921.207031 "/>
<path style=" stroke:none;fill-rule:nonzero;fill:rgb(21.946716%,21.580505%,21.946716%);fill-opacity:1;" d="M 51.511719 921.207031 L 48.574219 924.234375 L 48.574219 925.625 L 54.738281 925.625 L 54.738281 923.929688 L 51.277344 923.929688 L 52.933594 922.273438 C 53.835938 921.351563 54.503906 920.453125 54.503906 919.570313 C 54.503906 918.289063 53.3125 917.441406 51.691406 917.441406 C 50.503906 917.441406 49.386719 917.894531 48.339844 918.652344 L 49.132813 920.21875 C 49.890625 919.585938 50.71875 919.191406 51.367188 919.191406 C 51.960938 919.191406 52.304688 919.441406 52.304688 919.875 C 52.304688 920.21875 51.960938 920.742188 51.511719 921.207031 "/>
<path style=" stroke:none;fill-rule:nonzero;fill:rgb(21.946716%,21.580505%,21.946716%);fill-opacity:1;" d="M 65.652344 917.535156 L 65.652344 925.625 L 67.761719 925.625 L 67.761719 922.703125 L 71.382813 922.703125 L 71.382813 921.027344 L 67.761719 921.027344 L 67.761719 919.226563 L 71.667969 919.226563 L 71.6875 917.535156 L 65.652344 917.535156 "/>
<path style=" stroke:none;fill-rule:nonzero;fill:rgb(21.946716%,21.580505%,21.946716%);fill-opacity:1;" d="M 74.109375 920.417969 L 74.109375 919.390625 L 72.074219 919.390625 L 72.074219 925.625 L 74.109375 925.625 L 74.109375 922.433594 C 74.21875 921.570313 74.976563 921.066406 76.128906 921.191406 L 76.128906 919.296875 C 75.246094 919.296875 74.542969 919.714844 74.109375 920.417969 "/>
<path style=" stroke:none;fill-rule:nonzero;fill:rgb(21.946716%,21.580505%,21.946716%);fill-opacity:1;" d="M 79.195313 919.316406 C 77.25 919.316406 75.933594 920.597656 75.933594 922.523438 C 75.933594 924.433594 77.195313 925.695313 79.230469 925.695313 C 80.382813 925.695313 81.320313 925.296875 81.953125 924.578125 L 80.890625 923.515625 C 80.476563 923.929688 79.953125 924.144531 79.429688 924.144531 C 78.726563 924.144531 78.203125 923.75 78.007813 923.046875 L 82.347656 923.046875 C 82.476563 920.777344 81.375 919.316406 79.195313 919.316406 Z M 77.953125 921.949219 C 78.097656 921.246094 78.527344 920.757813 79.195313 920.757813 C 79.898438 920.757813 80.347656 921.246094 80.347656 921.949219 L 77.953125 921.949219 "/>
<path style=" stroke:none;fill-rule:nonzero;fill:rgb(21.946716%,21.580505%,21.946716%);fill-opacity:1;" d="M 85.574219 919.316406 C 83.625 919.316406 82.3125 920.597656 82.3125 922.523438 C 82.3125 924.433594 83.574219 925.695313 85.609375 925.695313 C 86.761719 925.695313 87.699219 925.296875 88.328125 924.578125 L 87.265625 923.515625 C 86.851563 923.929688 86.328125 924.144531 85.808594 924.144531 C 85.105469 924.144531 84.582031 923.75 84.382813 923.046875 L 88.726563 923.046875 C 88.851563 920.777344 87.753906 919.316406 85.574219 919.316406 Z M 84.328125 921.949219 C 84.472656 921.246094 84.90625 920.757813 85.574219 920.757813 C 86.273438 920.757813 86.726563 921.246094 86.726563 921.949219 L 84.328125 921.949219 "/>
<path style=" stroke:none;fill-rule:nonzero;fill:rgb(21.946716%,21.580505%,21.946716%);fill-opacity:1;" d="M 93.230469 921.660156 L 94.707031 920.792969 C 94.164063 919.855469 93.175781 919.316406 91.929688 919.316406 C 89.984375 919.316406 88.6875 920.597656 88.6875 922.523438 C 88.6875 924.433594 89.96875 925.695313 91.894531 925.695313 C 93.230469 925.695313 94.238281 925.15625 94.742188 924.199219 L 93.230469 923.335938 C 92.976563 923.820313 92.542969 924.039063 92.003906 924.039063 C 91.265625 924.039063 90.761719 923.425781 90.761719 922.523438 C 90.761719 921.625 91.265625 921.011719 92.003906 921.011719 C 92.527344 921.011719 92.957031 921.246094 93.230469 921.660156 "/>
<path style=" stroke:none;fill-rule:nonzero;fill:rgb(21.946716%,21.580505%,21.946716%);fill-opacity:1;" d="M 97.824219 919.316406 C 95.769531 919.316406 94.417969 920.578125 94.417969 922.507813 C 94.417969 924.417969 95.769531 925.695313 97.824219 925.695313 C 99.878906 925.695313 101.25 924.417969 101.25 922.507813 C 101.25 920.578125 99.878906 919.316406 97.824219 919.316406 Z M 97.824219 920.976563 C 98.636719 920.976563 99.175781 921.605469 99.175781 922.523438 C 99.175781 923.460938 98.636719 924.074219 97.824219 924.074219 C 97.03125 924.074219 96.492188 923.460938 96.492188 922.523438 C 96.492188 921.605469 97.03125 920.976563 97.824219 920.976563 "/>
</g>
</svg>
