<?xml version="1.0" encoding="UTF-8"?>
<svg xmlns="http://www.w3.org/2000/svg" xmlns:xlink="http://www.w3.org/1999/xlink" width="707.04pt" height="1000.08pt" viewBox="0 0 707.04 1000.08" version="1.2">
<defs>
<clipPath id="clip1">
  <path d="M 0 0.21875 L 706.042969 0.21875 L 706.042969 998.792969 L 0 998.792969 Z M 0 0.21875 "/>
</clipPath>
<clipPath id="clip2">
  <path d="M 0 0.21875 L 706 0.21875 L 706 998 L 0 998 Z M 0 0.21875 "/>
</clipPath>
<clipPath id="clip3">
  <path d="M 0 42 L 705.734375 42 L 705.734375 956 L 0 956 Z M 0 42 "/>
</clipPath>
</defs>
<g id="surface1">
<g clip-path="url(#clip1)" clip-rule="nonzero">
<path style=" stroke:none;fill-rule:nonzero;fill:rgb(100%,100%,100%);fill-opacity:1;" d="M 0 998.792969 L 706.042969 998.792969 L 706.042969 0.21875 L 0 0.21875 Z M 0 998.792969 "/>
</g>
<g clip-path="url(#clip2)" clip-rule="nonzero">
<path style=" stroke:none;fill-rule:nonzero;fill:rgb(100%,100%,100%);fill-opacity:1;" d="M 0 997.429688 L 705.734375 997.429688 L 705.734375 0.21875 L 0 0.21875 Z M 0 997.429688 "/>
</g>
<g clip-path="url(#clip3)" clip-rule="nonzero">
<path style=" stroke:none;fill-rule:nonzero;fill:rgb(94.139099%,51.756287%,38.818359%);fill-opacity:1;" d="M 0 955.972656 L 705.734375 955.972656 L 705.734375 42.671875 L 0 42.671875 Z M 0 955.972656 "/>
</g>
<path style=" stroke:none;fill-rule:nonzero;fill:rgb(100%,100%,100%);fill-opacity:1;" d="M 134.871094 220.027344 L 134.871094 212.117188 L 162.203125 212.117188 L 162.203125 220.027344 Z M 162.203125 199.269531 L 162.203125 207.234375 L 134.871094 207.234375 L 134.871094 199.269531 Z M 162.203125 186.53125 L 162.203125 194.40625 L 134.871094 194.40625 L 134.871094 186.53125 Z M 129.664063 181.503906 L 129.664063 228.710938 L 134.871094 228.710938 L 134.871094 225.054688 L 162.203125 225.054688 L 162.203125 228.710938 L 167.628906 228.710938 L 167.628906 181.503906 L 129.664063 181.503906 "/>
<path style=" stroke:none;fill-rule:nonzero;fill:rgb(100%,100%,100%);fill-opacity:1;" d="M 226.261719 182.171875 L 202.296875 182.171875 L 202.296875 186.980469 L 226.261719 186.980469 Z M 199.574219 204.746094 C 198.636719 203.359375 193.933594 197.503906 192.277344 195.667969 L 192.277344 194.335938 L 199.070313 194.335938 L 199.070313 189.578125 L 192.277344 189.578125 L 192.277344 178.296875 L 187.179688 178.296875 L 187.179688 189.578125 L 179.140625 189.578125 L 179.140625 194.335938 L 186.132813 194.335938 C 184.457031 200.875 181.25 208.40625 177.933594 212.496094 C 178.816406 213.777344 180.152344 216.046875 180.636719 217.414063 C 183.089844 214.152344 185.414063 209.070313 187.179688 203.703125 L 187.179688 229.109375 L 192.277344 229.109375 L 192.277344 201.542969 C 193.933594 204.082031 195.863281 207.125 196.691406 208.839844 Z M 203.070313 205.6875 C 201.683594 211.449219 199.25 217.414063 196.3125 221.234375 C 197.46875 221.847656 199.519531 223.179688 200.402344 223.957031 C 203.339844 219.6875 206.113281 213.164063 207.71875 206.800781 Z M 229.25 200.046875 L 229.25 195.234375 L 199.84375 195.234375 L 199.84375 200.046875 L 211.140625 200.046875 L 211.140625 222.675781 C 211.140625 223.398438 210.925781 223.632813 210.152344 223.632813 C 209.429688 223.683594 206.996094 223.683594 204.386719 223.558594 C 205.105469 225.128906 205.773438 227.378906 205.933594 228.875 C 209.753906 228.875 212.367188 228.765625 214.132813 227.882813 C 215.898438 227.054688 216.402344 225.503906 216.402344 222.785156 L 216.402344 200.046875 Z M 219.285156 206.964844 C 221.773438 212.496094 224.152344 219.6875 224.871094 224.117188 L 229.574219 222.351563 C 228.691406 217.972656 226.152344 210.945313 223.59375 205.523438 L 219.285156 206.964844 "/>
<path style=" stroke:none;fill-rule:nonzero;fill:rgb(100%,100%,100%);fill-opacity:1;" d="M 278.890625 179.722656 C 277.683594 183 275.304688 187.359375 273.464844 190.191406 L 277.898438 191.957031 C 279.773438 189.308594 281.988281 185.324219 283.828125 181.613281 Z M 240.207031 228.660156 C 243.089844 223.34375 246.296875 216.640625 248.835938 210.785156 L 245.070313 207.632813 C 242.132813 214.046875 238.3125 221.125 235.664063 225.34375 Z M 246.90625 199.648438 C 244.746094 197.613281 240.421875 195 237 193.398438 L 234.0625 197.054688 C 237.539063 198.820313 241.753906 201.648438 243.808594 203.648438 Z M 236.601563 182.441406 C 240.042969 184.261719 244.132813 187.089844 246.078125 189.144531 L 249.285156 185.164063 C 247.230469 183.164063 243.035156 180.496094 239.648438 178.890625 Z M 261.179688 190.027344 C 260.242188 187.253906 257.863281 183.109375 255.59375 180.0625 L 251.214844 181.992188 C 253.484375 185.164063 255.699219 189.523438 256.53125 192.296875 Z M 257.863281 213.269531 L 257.863281 208.0625 L 276.566406 208.0625 L 276.566406 213.269531 Z M 276.566406 198.605469 L 276.566406 203.703125 L 257.863281 203.703125 L 257.863281 198.605469 Z M 281.609375 193.792969 L 269.988281 193.792969 L 269.988281 178.296875 L 264.78125 178.296875 L 264.78125 193.792969 L 252.816406 193.792969 L 252.816406 229.109375 L 257.863281 229.109375 L 257.863281 217.648438 L 276.566406 217.648438 L 276.566406 223.074219 C 276.566406 223.847656 276.296875 224.0625 275.46875 224.117188 C 274.636719 224.171875 271.648438 224.171875 268.816406 224.011719 C 269.484375 225.34375 270.207031 227.558594 270.421875 228.875 C 274.636719 228.875 277.449219 228.820313 279.234375 227.992188 C 281.050781 227.21875 281.609375 225.773438 281.609375 223.128906 L 281.609375 193.792969 "/>
<path style=" stroke:none;fill-rule:nonzero;fill:rgb(100%,100%,100%);fill-opacity:1;" d="M 306.457031 191.957031 C 306.351563 193.125 306.132813 194.226563 305.683594 195.289063 L 298.765625 195.289063 C 298.980469 194.171875 299.160156 193.125 299.324219 191.957031 Z M 311.214844 185.089844 L 318.855469 185.089844 L 318.855469 188.371094 L 311.214844 188.371094 Z M 330.765625 185.089844 L 330.765625 188.371094 L 323.738281 188.371094 L 323.738281 185.089844 Z M 318.855469 195.289063 L 310.726563 195.289063 C 310.945313 194.171875 311.105469 193.125 311.160156 191.957031 L 318.855469 191.957031 Z M 297.378906 220.964844 L 302.367188 220.964844 L 302.367188 210.0625 L 327.484375 210.0625 L 327.484375 220.460938 L 332.691406 220.460938 L 332.691406 205.792969 L 300.871094 205.792969 C 305.359375 203.917969 307.953125 201.542969 309.394531 198.820313 L 318.855469 198.820313 L 318.855469 204.640625 L 323.738281 204.640625 L 323.738281 198.820313 L 333.683594 198.820313 C 333.519531 200.097656 333.304688 200.660156 333.089844 200.984375 C 332.746094 201.324219 332.421875 201.378906 331.808594 201.378906 C 331.25 201.378906 329.9375 201.378906 328.386719 201.144531 C 328.820313 202.097656 329.214844 203.523438 329.269531 204.53125 C 331.359375 204.640625 333.25 204.640625 334.242188 204.585938 C 335.414063 204.53125 336.402344 204.191406 337.125 203.359375 C 338.007813 202.425781 338.40625 200.550781 338.726563 196.894531 C 338.78125 196.28125 338.835938 195.289063 338.835938 195.289063 L 323.738281 195.289063 L 323.738281 191.957031 L 335.46875 191.957031 L 335.46875 181.558594 L 323.738281 181.558594 L 323.738281 178.296875 L 318.855469 178.296875 L 318.855469 181.558594 L 311.214844 181.558594 L 311.214844 178.296875 L 306.566406 178.296875 L 306.566406 181.558594 L 293.339844 181.558594 L 293.339844 185.089844 L 306.566406 185.089844 L 306.566406 188.371094 L 297.105469 188.371094 L 297.105469 188.425781 L 295.160156 188.425781 C 294.78125 191.847656 294.117188 196.011719 293.503906 198.820313 L 303.304688 198.820313 C 300.980469 201.035156 297 202.875 290.402344 204.296875 C 291.285156 205.144531 292.566406 207.074219 293.015625 208.171875 C 294.566406 207.847656 295.988281 207.46875 297.378906 207.019531 Z M 313 212.117188 C 311.214844 219.414063 306.855469 222.964844 289.574219 224.675781 C 290.457031 225.722656 291.46875 227.777344 291.792969 229.054688 C 310.546875 226.730469 316.042969 221.738281 318.132813 212.117188 Z M 315.917969 221.847656 C 322.835938 223.683594 332.207031 226.894531 336.855469 229.109375 L 339.71875 225.128906 C 334.746094 222.910156 325.394531 219.972656 318.636719 218.371094 L 315.917969 221.847656 "/>
<path style=" stroke:none;fill-rule:nonzero;fill:rgb(100%,100%,100%);fill-opacity:1;" d="M 369.125 195.453125 L 369.125 189.253906 L 379.972656 189.253906 C 377.699219 191.414063 375.324219 193.503906 372.710938 195.453125 Z M 382.835938 214.097656 L 361.972656 214.097656 L 361.972656 209.503906 L 382.835938 209.503906 Z M 361.972656 223.019531 L 361.972656 218.136719 L 382.835938 218.136719 L 382.835938 223.019531 Z M 394.746094 200.046875 L 394.746094 195.453125 L 380.242188 195.453125 C 384.835938 191.46875 388.980469 187.144531 392.476563 182.386719 L 388.042969 180.0625 C 386.277344 182.550781 384.222656 184.929688 382.007813 187.199219 L 382.007813 184.765625 L 369.125 184.765625 L 369.125 178.296875 L 364.027344 178.296875 L 364.027344 184.765625 L 350.511719 184.765625 L 350.511719 189.253906 L 364.027344 189.253906 L 364.027344 195.453125 L 345.703125 195.453125 L 345.703125 200.046875 L 365.953125 200.046875 C 359.324219 204.242188 351.953125 207.683594 344.316406 210.226563 C 345.269531 211.289063 346.871094 213.324219 347.46875 214.496094 C 350.636719 213.269531 353.792969 211.9375 356.890625 210.496094 L 356.890625 229.109375 L 361.972656 229.109375 L 361.972656 227.378906 L 382.835938 227.378906 L 382.835938 228.875 L 388.152344 228.875 L 388.152344 205.253906 L 366.675781 205.253906 C 369.339844 203.578125 371.9375 201.917969 374.421875 200.046875 L 394.746094 200.046875 "/>
<path style=" stroke:none;fill-rule:nonzero;fill:rgb(100%,100%,100%);fill-opacity:1;" d="M 443.289063 221.632813 L 408.027344 221.632813 L 408.027344 195.613281 L 402.765625 195.613281 L 402.765625 226.441406 L 443.289063 226.441406 L 443.289063 228.929688 L 448.441406 228.929688 L 448.441406 195.289063 L 443.289063 195.289063 Z M 434.152344 202.316406 L 427.628906 202.316406 L 427.628906 196.28125 L 434.152344 196.28125 Z M 434.152344 212.496094 L 427.628906 212.496094 L 427.628906 206.351563 L 434.152344 206.351563 Z M 416.65625 206.351563 L 423.144531 206.351563 L 423.144531 212.496094 L 416.65625 212.496094 Z M 416.65625 196.28125 L 423.144531 196.28125 L 423.144531 202.316406 L 416.65625 202.316406 Z M 412.351563 192.007813 L 412.351563 216.710938 L 438.640625 216.710938 L 438.640625 192.007813 Z M 402.546875 181.773438 L 402.546875 186.53125 L 448.765625 186.53125 L 448.765625 181.773438 L 402.546875 181.773438 "/>
<path style=" stroke:none;fill-rule:nonzero;fill:rgb(100%,100%,100%);fill-opacity:1;" d="M 467.25 178.511719 C 464.496094 186.585938 459.847656 194.675781 454.855469 199.882813 C 455.738281 201.035156 457.234375 203.8125 457.683594 205.074219 C 459.125 203.523438 460.441406 201.8125 461.773438 199.992188 L 461.773438 228.929688 L 466.640625 228.929688 L 466.640625 192.007813 C 468.746094 188.1875 470.640625 184.097656 472.0625 180.007813 Z M 477.71875 193.738281 L 486.296875 193.738281 C 486.082031 195.054688 485.523438 196.65625 484.421875 198.332031 L 477.71875 198.332031 Z M 489.503906 186.152344 C 488.675781 187.414063 487.628906 188.800781 486.746094 189.863281 L 477.269531 189.863281 C 478.386719 188.640625 479.378906 187.359375 480.367188 186.152344 Z M 498.261719 198.332031 L 489.289063 198.332031 C 489.953125 196.65625 490.332031 195.054688 490.496094 193.738281 L 498.261719 193.738281 Z M 500.460938 204.027344 C 498.027344 205.847656 494.152344 208.171875 490.785156 209.847656 C 489.613281 207.46875 488.007813 205.253906 485.792969 203.414063 C 486.1875 202.980469 486.566406 202.585938 486.910156 202.152344 L 503.019531 202.152344 L 503.019531 189.863281 L 491.992188 189.863281 C 493.539063 188.082031 495.035156 186.097656 496.207031 184.152344 L 493.214844 181.9375 L 492.277344 182.226563 L 483.035156 182.226563 C 483.648438 181.21875 484.1875 180.226563 484.695313 179.234375 L 479.828125 178.351563 C 477.558594 182.894531 473.394531 188.476563 467.484375 192.566406 C 468.53125 193.234375 470.082031 194.839844 470.800781 195.828125 C 471.574219 195.179688 472.40625 194.566406 473.179688 193.902344 L 473.179688 202.152344 L 480.925781 202.152344 C 478.386719 204.242188 474.566406 206.242188 469.144531 207.957031 C 470.132813 208.785156 471.414063 210.171875 471.953125 211 C 476.65625 209.558594 480.207031 207.792969 482.875 205.917969 C 483.578125 206.515625 484.1875 207.179688 484.695313 207.902344 C 481.199219 210.945313 474.621094 214.097656 469.414063 215.59375 C 470.351563 216.371094 471.574219 217.863281 472.242188 218.804688 C 476.785156 217.199219 482.53125 213.992188 486.511719 210.785156 C 486.964844 211.613281 487.234375 212.496094 487.523438 213.324219 C 483.199219 217.488281 475.503906 221.46875 468.800781 223.398438 C 469.808594 224.226563 471.125 225.828125 471.738281 227 C 477.324219 225.054688 483.703125 221.523438 488.40625 217.59375 C 488.621094 220.40625 488.117188 222.730469 487.179688 223.683594 C 486.511719 224.675781 485.738281 224.785156 484.640625 224.785156 C 483.808594 224.785156 482.53125 224.730469 481.144531 224.566406 C 481.917969 225.828125 482.261719 227.777344 482.316406 229 C 483.578125 229.054688 484.695313 229.109375 485.683594 229.054688 C 487.792969 229.054688 489.339844 228.550781 490.730469 226.945313 C 493 224.675781 493.773438 218.910156 492.042969 213.269531 C 492.820313 212.945313 493.667969 212.550781 494.496094 212.171875 C 496.316406 217.972656 499.46875 223.128906 503.683594 225.902344 C 504.40625 224.730469 505.882813 223.019531 506.945313 222.136719 C 502.964844 219.917969 499.863281 215.378906 498.261719 210.386719 C 500.1875 209.34375 502.136719 208.351563 503.902344 207.234375 L 500.460938 204.027344 "/>
<path style=" stroke:none;fill-rule:nonzero;fill:rgb(100%,100%,100%);fill-opacity:1;" d="M 152.960938 282.351563 L 158.835938 275.324219 C 154.960938 271.214844 148.925781 268.675781 143.175781 268.675781 C 131.320313 268.675781 122.421875 277.089844 122.421875 288.28125 C 122.421875 299.667969 131.105469 308.207031 142.78125 308.207031 C 148.546875 308.207031 154.746094 305.378906 158.890625 301 L 152.960938 294.640625 C 150.257813 297.414063 146.546875 299.183594 143.339844 299.183594 C 137.359375 299.183594 132.816406 294.425781 132.816406 288.171875 C 132.816406 281.957031 137.359375 277.253906 143.339844 277.253906 C 146.710938 277.253906 150.421875 279.253906 152.960938 282.351563 "/>
<path style=" stroke:none;fill-rule:nonzero;fill:rgb(100%,100%,100%);fill-opacity:1;" d="M 176.4375 277.488281 C 166.582031 277.488281 160.113281 283.578125 160.113281 292.75 C 160.113281 302.011719 166.582031 308.082031 176.4375 308.082031 C 186.292969 308.082031 192.816406 302.011719 192.816406 292.75 C 192.816406 283.578125 186.292969 277.488281 176.4375 277.488281 Z M 176.4375 285.453125 C 180.3125 285.453125 182.90625 288.441406 182.90625 292.875 C 182.90625 297.34375 180.3125 300.335938 176.4375 300.335938 C 172.617188 300.335938 170.023438 297.34375 170.023438 292.875 C 170.023438 288.441406 172.617188 285.453125 176.4375 285.453125 "/>
<path style=" stroke:none;fill-rule:nonzero;fill:rgb(100%,100%,100%);fill-opacity:1;" d="M 217.625 277.433594 C 213.25 277.433594 209.808594 279.253906 207.71875 282.675781 L 207.71875 277.8125 L 197.859375 277.8125 L 197.859375 307.757813 L 207.71875 307.757813 L 207.71875 291.921875 C 208.09375 288.550781 210.257813 286.28125 213.574219 286.226563 C 216.671875 286.226563 218.671875 288.335938 218.671875 291.703125 L 218.671875 307.757813 L 228.472656 307.757813 L 228.472656 288.875 C 228.472656 281.847656 224.148438 277.433594 217.625 277.433594 "/>
<path style=" stroke:none;fill-rule:nonzero;fill:rgb(100%,100%,100%);fill-opacity:1;" d="M 255.148438 287.269531 L 258.464844 280.855469 C 254.699219 278.585938 250.339844 277.363281 246.015625 277.363281 C 238.988281 277.363281 233.726563 280.800781 233.726563 287.054688 C 233.726563 297.414063 249.167969 295.363281 249.167969 299.453125 C 249.167969 300.675781 247.835938 301.289063 246.015625 301.289063 C 242.699219 301.289063 238.824219 299.957031 235.382813 297.578125 L 232.285156 303.9375 C 235.941406 306.765625 240.753906 308.207031 245.796875 308.207031 C 253.09375 308.207031 258.464844 304.714844 258.464844 298.570313 C 258.519531 288.171875 242.808594 290.046875 242.808594 286.117188 C 242.808594 284.839844 243.960938 284.226563 245.636719 284.226563 C 248.066406 284.226563 251.4375 285.34375 255.148438 287.269531 "/>
<path style=" stroke:none;fill-rule:nonzero;fill:rgb(100%,100%,100%);fill-opacity:1;" d="M 283.15625 277.8125 L 283.15625 292.585938 C 283.15625 296.515625 281.046875 299.289063 277.566406 299.34375 C 274.632813 299.34375 272.757813 297.289063 272.757813 293.917969 L 272.757813 277.8125 L 262.902344 277.8125 L 262.902344 296.75 C 262.902344 303.722656 267.101563 308.207031 273.585938 308.207031 C 277.839844 308.15625 281.101563 306.371094 283.15625 302.894531 L 283.15625 307.757813 L 293.011719 307.757813 L 293.011719 277.8125 L 283.15625 277.8125 "/>
<path style=" stroke:none;fill-rule:nonzero;fill:rgb(100%,100%,100%);fill-opacity:1;" d="M 340.503906 277.433594 C 335.636719 277.433594 331.980469 279.683594 330.035156 284.117188 C 328.539063 279.917969 324.953125 277.433594 320.070313 277.433594 C 315.761719 277.433594 312.375 279.253906 310.339844 282.730469 L 310.339844 277.8125 L 300.539063 277.8125 L 300.539063 307.757813 L 310.339844 307.757813 L 310.339844 292.984375 C 310.339844 289.054688 312.554688 286.28125 316.035156 286.226563 C 319.078125 286.226563 320.953125 288.28125 320.953125 291.703125 L 320.953125 307.757813 L 330.808594 307.757813 L 330.808594 292.984375 C 330.808594 289.054688 332.972656 286.28125 336.464844 286.226563 C 339.511719 286.226563 341.386719 288.28125 341.386719 291.703125 L 341.386719 307.757813 L 351.242188 307.757813 L 351.242188 288.875 C 351.242188 281.847656 346.972656 277.433594 340.503906 277.433594 "/>
<path style=" stroke:none;fill-rule:nonzero;fill:rgb(100%,100%,100%);fill-opacity:1;" d="M 371.109375 277.488281 C 361.757813 277.488281 355.503906 283.632813 355.503906 292.929688 C 355.503906 302.0625 361.542969 308.082031 371.324219 308.082031 C 376.875 308.082031 381.34375 306.207031 384.390625 302.785156 L 379.253906 297.632813 C 377.253906 299.613281 374.765625 300.675781 372.207031 300.675781 C 368.839844 300.675781 366.351563 298.785156 365.414063 295.414063 L 386.226563 295.414063 C 386.894531 284.515625 381.578125 277.488281 371.109375 277.488281 Z M 365.179688 290.152344 C 365.847656 286.730469 367.957031 284.40625 371.164063 284.40625 C 374.480469 284.40625 376.695313 286.730469 376.695313 290.152344 L 365.179688 290.152344 "/>
<path style=" stroke:none;fill-rule:nonzero;fill:rgb(100%,100%,100%);fill-opacity:1;" d="M 401.171875 282.804688 L 401.171875 277.8125 L 391.316406 277.8125 L 391.316406 307.757813 L 401.171875 307.757813 L 401.171875 292.480469 C 401.65625 288.335938 405.316406 285.902344 410.792969 286.441406 L 410.792969 277.433594 C 406.59375 277.433594 403.207031 279.363281 401.171875 282.804688 "/>
<path style=" stroke:none;fill-rule:nonzero;fill:rgb(100%,100%,100%);fill-opacity:1;" d="M 141.953125 351.992188 L 124.90625 351.992188 L 124.90625 390.785156 L 135.035156 390.785156 L 135.035156 380.046875 L 141.953125 380.046875 C 151.863281 380.046875 157.554688 374.730469 157.554688 365.59375 C 157.554688 356.964844 151.863281 351.992188 141.953125 351.992188 Z M 141.449219 371.972656 L 135.035156 371.972656 L 135.035156 360.0625 L 141.449219 360.0625 C 145.554688 360.0625 147.933594 362.117188 147.933594 365.9375 C 147.933594 369.867188 145.554688 371.972656 141.449219 371.972656 "/>
<path style=" stroke:none;fill-rule:nonzero;fill:rgb(100%,100%,100%);fill-opacity:1;" d="M 172.402344 365.832031 L 172.402344 360.839844 L 162.546875 360.839844 L 162.546875 390.785156 L 172.402344 390.785156 L 172.402344 375.507813 C 172.890625 371.363281 176.546875 368.929688 182.023438 369.46875 L 182.023438 360.460938 C 177.828125 360.460938 174.4375 362.390625 172.402344 365.832031 "/>
<path style=" stroke:none;fill-rule:nonzero;fill:rgb(100%,100%,100%);fill-opacity:1;" d="M 200.238281 360.515625 C 190.382813 360.515625 183.914063 366.605469 183.914063 375.777344 C 183.914063 385.039063 190.382813 391.109375 200.238281 391.109375 C 210.097656 391.109375 216.617188 385.039063 216.617188 375.777344 C 216.617188 366.605469 210.097656 360.515625 200.238281 360.515625 Z M 200.238281 368.480469 C 204.113281 368.480469 206.707031 371.46875 206.707031 375.902344 C 206.707031 380.371094 204.113281 383.363281 200.238281 383.363281 C 196.421875 383.363281 193.824219 380.371094 193.824219 375.902344 C 193.824219 371.46875 196.421875 368.480469 200.238281 368.480469 "/>
<path style=" stroke:none;fill-rule:nonzero;fill:rgb(100%,100%,100%);fill-opacity:1;" d="M 247.722656 356.910156 C 250.335938 356.910156 252.210938 355.019531 252.210938 352.425781 C 252.210938 349.777344 250.335938 347.882813 247.722656 347.882813 C 245.128906 347.882813 243.253906 349.777344 243.253906 352.425781 C 243.253906 355.019531 245.128906 356.910156 247.722656 356.910156 Z M 222.984375 359.503906 L 222.984375 362.28125 L 218.949219 362.28125 L 218.949219 368.804688 L 222.984375 368.804688 L 222.984375 390.785156 L 232.785156 390.785156 L 232.785156 368.804688 L 239.4375 368.804688 L 239.4375 362.28125 L 232.785156 362.28125 L 232.785156 360.335938 C 232.785156 358.191406 234.175781 357.128906 236.15625 357.183594 C 237.328125 357.183594 238.769531 357.632813 240.03125 358.296875 L 240.371094 350.371094 C 238.824219 349.648438 236.605469 349.273438 234.5 349.273438 C 228.03125 349.21875 222.984375 352.875 222.984375 359.503906 Z M 242.804688 360.839844 L 242.804688 390.785156 L 252.605469 390.785156 L 252.605469 360.839844 L 242.804688 360.839844 "/>
<path style=" stroke:none;fill-rule:nonzero;fill:rgb(100%,100%,100%);fill-opacity:1;" d="M 260.457031 349.722656 L 260.457031 390.785156 L 270.3125 390.785156 L 270.3125 349.722656 L 260.457031 349.722656 "/>
<path style=" stroke:none;fill-rule:nonzero;fill:rgb(100%,100%,100%);fill-opacity:1;" d="M 291.292969 360.515625 C 281.941406 360.515625 275.6875 366.660156 275.6875 375.957031 C 275.6875 385.09375 281.722656 391.109375 291.507813 391.109375 C 297.058594 391.109375 301.527344 389.234375 304.570313 385.8125 L 299.4375 380.660156 C 297.4375 382.640625 294.949219 383.703125 292.390625 383.703125 C 289.023438 383.703125 286.535156 381.8125 285.597656 378.441406 L 306.410156 378.441406 C 307.074219 367.542969 301.761719 360.515625 291.292969 360.515625 Z M 285.363281 373.179688 C 286.03125 369.757813 288.140625 367.433594 291.347656 367.433594 C 294.660156 367.433594 296.878906 369.757813 296.878906 373.179688 L 285.363281 373.179688 "/>
<path style="fill:none;stroke-width:103.925;stroke-linecap:butt;stroke-linejoin:miter;stroke:rgb(100%,100%,100%);stroke-opacity:1;stroke-miterlimit:4;" d="M 1213.051065 2125.393861 L 2902.372921 2125.393861 " transform="matrix(0.0998644,0,0,-0.0998644,0,998.942603)"/>
<path style=" stroke:none;fill-rule:nonzero;fill:rgb(21.946716%,21.580505%,21.946716%);fill-opacity:1;" d="M 42.578125 917.535156 L 42.578125 919.261719 L 44.125 919.261719 L 44.125 925.625 L 46.234375 925.625 L 46.234375 917.535156 L 42.578125 917.535156 "/>
<path style=" stroke:none;fill-rule:nonzero;fill:rgb(21.946716%,21.580505%,21.946716%);fill-opacity:1;" d="M 51.621094 917.480469 C 49.566406 917.480469 48.449219 918.9375 48.449219 921.570313 C 48.449219 924.21875 49.566406 925.675781 51.621094 925.675781 C 53.636719 925.675781 54.773438 924.21875 54.773438 921.570313 C 54.773438 918.9375 53.636719 917.480469 51.621094 917.480469 Z M 51.621094 918.957031 C 52.429688 918.957031 52.753906 919.714844 52.753906 921.570313 C 52.753906 923.425781 52.429688 924.199219 51.621094 924.199219 C 50.789063 924.199219 50.464844 923.425781 50.464844 921.570313 C 50.464844 919.714844 50.789063 918.957031 51.621094 918.957031 "/>
<path style=" stroke:none;fill-rule:nonzero;fill:rgb(21.946716%,21.580505%,21.946716%);fill-opacity:1;" d="M 65.652344 917.535156 L 65.652344 925.625 L 67.761719 925.625 L 67.761719 922.703125 L 71.382813 922.703125 L 71.382813 921.027344 L 67.761719 921.027344 L 67.761719 919.226563 L 71.667969 919.226563 L 71.6875 917.535156 L 65.652344 917.535156 "/>
<path style=" stroke:none;fill-rule:nonzero;fill:rgb(21.946716%,21.580505%,21.946716%);fill-opacity:1;" d="M 74.109375 920.417969 L 74.109375 919.390625 L 72.074219 919.390625 L 72.074219 925.625 L 74.109375 925.625 L 74.109375 922.433594 C 74.21875 921.570313 74.976563 921.066406 76.128906 921.191406 L 76.128906 919.296875 C 75.246094 919.296875 74.542969 919.714844 74.109375 920.417969 "/>
<path style=" stroke:none;fill-rule:nonzero;fill:rgb(21.946716%,21.580505%,21.946716%);fill-opacity:1;" d="M 79.195313 919.316406 C 77.25 919.316406 75.933594 920.597656 75.933594 922.523438 C 75.933594 924.433594 77.195313 925.695313 79.230469 925.695313 C 80.382813 925.695313 81.320313 925.296875 81.953125 924.578125 L 80.890625 923.515625 C 80.476563 923.929688 79.953125 924.144531 79.429688 924.144531 C 78.726563 924.144531 78.203125 923.75 78.007813 923.046875 L 82.347656 923.046875 C 82.476563 920.777344 81.375 919.316406 79.195313 919.316406 Z M 77.953125 921.949219 C 78.097656 921.246094 78.527344 920.757813 79.195313 920.757813 C 79.898438 920.757813 80.347656 921.246094 80.347656 921.949219 L 77.953125 921.949219 "/>
<path style=" stroke:none;fill-rule:nonzero;fill:rgb(21.946716%,21.580505%,21.946716%);fill-opacity:1;" d="M 85.574219 919.316406 C 83.625 919.316406 82.3125 920.597656 82.3125 922.523438 C 82.3125 924.433594 83.574219 925.695313 85.609375 925.695313 C 86.761719 925.695313 87.699219 925.296875 88.328125 924.578125 L 87.265625 923.515625 C 86.851563 923.929688 86.328125 924.144531 85.808594 924.144531 C 85.105469 924.144531 84.582031 923.75 84.382813 923.046875 L 88.726563 923.046875 C 88.851563 920.777344 87.753906 919.316406 85.574219 919.316406 Z M 84.328125 921.949219 C 84.472656 921.246094 84.90625 920.757813 85.574219 920.757813 C 86.273438 920.757813 86.726563 921.246094 86.726563 921.949219 L 84.328125 921.949219 "/>
<path style=" stroke:none;fill-rule:nonzero;fill:rgb(21.946716%,21.580505%,21.946716%);fill-opacity:1;" d="M 93.230469 921.660156 L 94.707031 920.792969 C 94.164063 919.855469 93.175781 919.316406 91.929688 919.316406 C 89.984375 919.316406 88.6875 920.597656 88.6875 922.523438 C 88.6875 924.433594 89.96875 925.695313 91.894531 925.695313 C 93.230469 925.695313 94.238281 925.15625 94.742188 924.199219 L 93.230469 923.335938 C 92.976563 923.820313 92.542969 924.039063 92.003906 924.039063 C 91.265625 924.039063 90.761719 923.425781 90.761719 922.523438 C 90.761719 921.625 91.265625 921.011719 92.003906 921.011719 C 92.527344 921.011719 92.957031 921.246094 93.230469 921.660156 "/>
<path style=" stroke:none;fill-rule:nonzero;fill:rgb(21.946716%,21.580505%,21.946716%);fill-opacity:1;" d="M 97.824219 919.316406 C 95.769531 919.316406 94.417969 920.578125 94.417969 922.507813 C 94.417969 924.417969 95.769531 925.695313 97.824219 925.695313 C 99.878906 925.695313 101.25 924.417969 101.25 922.507813 C 101.25 920.578125 99.878906 919.316406 97.824219 919.316406 Z M 97.824219 920.976563 C 98.636719 920.976563 99.175781 921.605469 99.175781 922.523438 C 99.175781 923.460938 98.636719 924.074219 97.824219 924.074219 C 97.03125 924.074219 96.492188 923.460938 96.492188 922.523438 C 96.492188 921.605469 97.03125 920.976563 97.824219 920.976563 "/>
</g>
</svg>
