<?xml version="1.0" encoding="UTF-8"?>
<svg xmlns="http://www.w3.org/2000/svg" xmlns:xlink="http://www.w3.org/1999/xlink" width="707.04pt" height="1000.08pt" viewBox="0 0 707.04 1000.08" version="1.2">
<defs>
<clipPath id="clip1">
  <path d="M 0 0.21875 L 706.042969 0.21875 L 706.042969 998.792969 L 0 998.792969 Z M 0 0.21875 "/>
</clipPath>
<clipPath id="clip2">
  <path d="M 0 0.21875 L 706 0.21875 L 706 998 L 0 998 Z M 0 0.21875 "/>
</clipPath>
</defs>
<g id="surface1">
<g clip-path="url(#clip1)" clip-rule="nonzero">
<path style=" stroke:none;fill-rule:nonzero;fill:rgb(100%,100%,100%);fill-opacity:1;" d="M 0 998.792969 L 706.042969 998.792969 L 706.042969 0.21875 L 0 0.21875 Z M 0 998.792969 "/>
</g>
<g clip-path="url(#clip2)" clip-rule="nonzero">
<path style=" stroke:none;fill-rule:nonzero;fill:rgb(100%,100%,100%);fill-opacity:1;" d="M 0 997.429688 L 705.734375 997.429688 L 705.734375 0.21875 L 0 0.21875 Z M 0 997.429688 "/>
</g>
<path style=" stroke:none;fill-rule:nonzero;fill:rgb(21.946716%,21.580505%,21.946716%);fill-opacity:1;" d="M 651.628906 917.535156 L 651.628906 919.261719 L 653.179688 919.261719 L 653.179688 925.625 L 655.289063 925.625 L 655.289063 917.535156 L 651.628906 917.535156 "/>
<path style=" stroke:none;fill-rule:nonzero;fill:rgb(21.946716%,21.580505%,21.946716%);fill-opacity:1;" d="M 658.332031 923.585938 L 657.554688 925.046875 C 658.242188 925.441406 659.230469 925.714844 660.132813 925.714844 C 662.367188 925.714844 663.789063 924.039063 663.789063 921.441406 C 663.789063 918.972656 662.511719 917.441406 660.367188 917.441406 C 658.582031 917.441406 657.410156 918.523438 657.410156 920.21875 C 657.410156 921.804688 658.402344 922.847656 659.96875 922.847656 C 660.835938 922.847656 661.464844 922.523438 661.84375 921.984375 C 661.863281 923.296875 661.25 924.109375 660.007813 924.109375 C 659.394531 924.109375 658.796875 923.929688 658.332031 923.585938 Z M 660.457031 919.101563 C 661.25 919.101563 661.628906 919.625 661.609375 920.199219 C 661.628906 920.867188 661.195313 921.351563 660.421875 921.351563 C 659.699219 921.351563 659.304688 920.9375 659.304688 920.234375 C 659.304688 919.515625 659.734375 919.101563 660.457031 919.101563 "/>
<path style=" stroke:none;fill-rule:nonzero;fill:rgb(21.946716%,21.580505%,21.946716%);fill-opacity:1;" d="M 605.019531 917.535156 L 605.019531 925.625 L 607.128906 925.625 L 607.128906 922.703125 L 610.75 922.703125 L 610.75 921.027344 L 607.128906 921.027344 L 607.128906 919.226563 L 611.039063 919.226563 L 611.054688 917.535156 L 605.019531 917.535156 "/>
<path style=" stroke:none;fill-rule:nonzero;fill:rgb(21.946716%,21.580505%,21.946716%);fill-opacity:1;" d="M 613.480469 920.417969 L 613.480469 919.390625 L 611.445313 919.390625 L 611.445313 925.625 L 613.480469 925.625 L 613.480469 922.433594 C 613.585938 921.570313 614.34375 921.066406 615.5 921.191406 L 615.5 919.296875 C 614.617188 919.296875 613.914063 919.714844 613.480469 920.417969 "/>
<path style=" stroke:none;fill-rule:nonzero;fill:rgb(21.946716%,21.580505%,21.946716%);fill-opacity:1;" d="M 618.566406 919.316406 C 616.617188 919.316406 615.304688 920.597656 615.304688 922.523438 C 615.304688 924.433594 616.566406 925.695313 618.601563 925.695313 C 619.753906 925.695313 620.691406 925.296875 621.320313 924.578125 L 620.257813 923.515625 C 619.84375 923.929688 619.320313 924.144531 618.796875 924.144531 C 618.097656 924.144531 617.574219 923.75 617.375 923.046875 L 621.71875 923.046875 C 621.84375 920.777344 620.746094 919.316406 618.566406 919.316406 Z M 617.320313 921.949219 C 617.464844 921.246094 617.898438 920.757813 618.566406 920.757813 C 619.265625 920.757813 619.71875 921.246094 619.71875 921.949219 L 617.320313 921.949219 "/>
<path style=" stroke:none;fill-rule:nonzero;fill:rgb(21.946716%,21.580505%,21.946716%);fill-opacity:1;" d="M 624.941406 919.316406 C 622.996094 919.316406 621.679688 920.597656 621.679688 922.523438 C 621.679688 924.433594 622.941406 925.695313 624.976563 925.695313 C 626.128906 925.695313 627.066406 925.296875 627.699219 924.578125 L 626.636719 923.515625 C 626.222656 923.929688 625.699219 924.144531 625.175781 924.144531 C 624.472656 924.144531 623.949219 923.75 623.753906 923.046875 L 628.09375 923.046875 C 628.222656 920.777344 627.121094 919.316406 624.941406 919.316406 Z M 623.699219 921.949219 C 623.84375 921.246094 624.273438 920.757813 624.941406 920.757813 C 625.644531 920.757813 626.09375 921.246094 626.09375 921.949219 L 623.699219 921.949219 "/>
<path style=" stroke:none;fill-rule:nonzero;fill:rgb(21.946716%,21.580505%,21.946716%);fill-opacity:1;" d="M 632.597656 921.660156 L 634.074219 920.792969 C 633.535156 919.855469 632.542969 919.316406 631.300781 919.316406 C 629.355469 919.316406 628.058594 920.597656 628.058594 922.523438 C 628.058594 924.433594 629.335938 925.695313 631.265625 925.695313 C 632.597656 925.695313 633.605469 925.15625 634.109375 924.199219 L 632.597656 923.335938 C 632.34375 923.820313 631.914063 924.039063 631.371094 924.039063 C 630.632813 924.039063 630.128906 923.425781 630.128906 922.523438 C 630.128906 921.625 630.632813 921.011719 631.371094 921.011719 C 631.894531 921.011719 632.328125 921.246094 632.597656 921.660156 "/>
<path style=" stroke:none;fill-rule:nonzero;fill:rgb(21.946716%,21.580505%,21.946716%);fill-opacity:1;" d="M 637.195313 919.316406 C 635.140625 919.316406 633.789063 920.578125 633.789063 922.507813 C 633.789063 924.417969 635.140625 925.695313 637.195313 925.695313 C 639.246094 925.695313 640.617188 924.417969 640.617188 922.507813 C 640.617188 920.578125 639.246094 919.316406 637.195313 919.316406 Z M 637.195313 920.976563 C 638.003906 920.976563 638.546875 921.605469 638.546875 922.523438 C 638.546875 923.460938 638.003906 924.074219 637.195313 924.074219 C 636.402344 924.074219 635.859375 923.460938 635.859375 922.523438 C 635.859375 921.605469 636.402344 920.976563 637.195313 920.976563 "/>
</g>
</svg>
