<?xml version="1.0" encoding="UTF-8"?>
<svg xmlns="http://www.w3.org/2000/svg" xmlns:xlink="http://www.w3.org/1999/xlink" width="707.04pt" height="1000.08pt" viewBox="0 0 707.04 1000.08" version="1.2">
<defs>
<clipPath id="clip1">
  <path d="M 0 0.21875 L 706.042969 0.21875 L 706.042969 998.792969 L 0 998.792969 Z M 0 0.21875 "/>
</clipPath>
<clipPath id="clip2">
  <path d="M 0 0.21875 L 706 0.21875 L 706 998 L 0 998 Z M 0 0.21875 "/>
</clipPath>
</defs>
<g id="surface1">
<g clip-path="url(#clip1)" clip-rule="nonzero">
<path style=" stroke:none;fill-rule:nonzero;fill:rgb(100%,100%,100%);fill-opacity:1;" d="M 0 998.792969 L 706.042969 998.792969 L 706.042969 0.21875 L 0 0.21875 Z M 0 998.792969 "/>
</g>
<g clip-path="url(#clip2)" clip-rule="nonzero">
<path style=" stroke:none;fill-rule:nonzero;fill:rgb(100%,100%,100%);fill-opacity:1;" d="M 0 997.429688 L 705.734375 997.429688 L 705.734375 0.21875 L 0 0.21875 Z M 0 997.429688 "/>
</g>
<path style=" stroke:none;fill-rule:nonzero;fill:rgb(87.889099%,45.483398%,20.776367%);fill-opacity:1;" d="M 102.253906 103.109375 L 89.28125 103.109375 L 89.28125 97.46875 L 102.253906 97.46875 Z M 105.53125 94.390625 L 86.199219 94.390625 L 86.199219 106.171875 L 105.53125 106.171875 Z M 90.667969 112.621094 L 90.667969 119.8125 L 84.359375 119.8125 L 84.359375 112.621094 Z M 81.316406 124.695313 L 84.359375 124.695313 L 84.359375 122.894531 L 90.667969 122.894531 L 90.667969 124.441406 L 93.839844 124.441406 L 93.839844 109.542969 L 81.316406 109.542969 Z M 100.308594 119.8125 L 100.308594 112.621094 L 107.171875 112.621094 L 107.171875 119.8125 Z M 97.246094 109.542969 L 97.246094 124.695313 L 100.308594 124.695313 L 100.308594 122.894531 L 107.171875 122.894531 L 107.171875 124.515625 L 110.378906 124.515625 L 110.378906 109.542969 L 97.246094 109.542969 "/>
<path style=" stroke:none;fill-rule:nonzero;fill:rgb(87.889099%,45.483398%,20.776367%);fill-opacity:1;" d="M 119.0625 105 L 126.648438 105 L 126.648438 102.28125 L 124.324219 102.28125 L 124.324219 92.964844 L 121.621094 92.964844 L 121.621094 102.28125 L 119.0625 102.28125 L 119.0625 93.722656 L 116.269531 93.722656 L 116.269531 106.695313 C 116.269531 111.613281 115.945313 118.839844 114.019531 123.757813 C 114.847656 123.957031 116.128906 124.441406 116.777344 124.785156 C 118.128906 121.164063 118.6875 116.53125 118.921875 112.226563 L 122.59375 112.226563 L 122.59375 124.695313 L 125.371094 124.695313 L 125.371094 109.503906 L 119.027344 109.503906 C 119.0625 108.496094 119.0625 107.597656 119.0625 106.695313 Z M 130.972656 107.074219 L 130.972656 104.066406 L 134.777344 104.066406 C 134.597656 105.039063 134.324219 106.082031 133.875 107.074219 Z M 130.972656 98.714844 L 135.046875 98.714844 L 135.046875 101.648438 L 130.972656 101.648438 Z M 141.660156 101.648438 L 137.945313 101.648438 L 137.945313 98.714844 L 141.660156 98.714844 Z M 141.660156 107.074219 L 137.046875 107.074219 C 137.371094 106.082031 137.605469 105.039063 137.75 104.066406 L 141.660156 104.066406 Z M 146.128906 115.179688 L 139.929688 115.179688 L 139.929688 110.15625 L 136.847656 110.15625 L 136.847656 115.179688 L 130.414063 115.179688 C 133.046875 113.542969 134.738281 111.613281 135.875 109.632813 L 144.703125 109.632813 L 144.703125 96.15625 L 136.398438 96.15625 C 136.847656 95.289063 137.296875 94.28125 137.640625 93.34375 L 133.945313 92.964844 C 133.804688 93.867188 133.496094 95.074219 133.152344 96.15625 L 128.019531 96.15625 L 128.019531 109.632813 L 132.289063 109.632813 C 131.207031 111.019531 129.710938 112.371094 127.605469 113.523438 C 128.273438 113.9375 129.136719 114.621094 129.710938 115.179688 L 126.503906 115.179688 L 126.503906 117.9375 L 136.847656 117.9375 L 136.847656 124.695313 L 139.929688 124.695313 L 139.929688 117.9375 L 146.128906 117.9375 L 146.128906 115.179688 "/>
<path style=" stroke:none;fill-rule:nonzero;fill:rgb(87.889099%,45.483398%,20.776367%);fill-opacity:1;" d="M 151.066406 109.21875 C 151.894531 106.660156 152.523438 102.660156 152.6875 99.8125 L 150.378906 99.46875 C 150.128906 102.28125 149.480469 106.082031 148.648438 108.390625 Z M 172.128906 120.460938 L 172.128906 112.621094 L 178.847656 112.621094 L 178.847656 109.613281 L 172.128906 109.613281 L 172.128906 103.109375 L 179.605469 103.109375 L 179.605469 100.0625 L 172.128906 100.0625 L 172.128906 93.074219 L 168.921875 93.074219 L 168.921875 100.0625 L 165.28125 100.0625 C 165.695313 98.425781 166.074219 96.730469 166.324219 95 L 163.171875 94.496094 C 162.722656 97.738281 161.964844 100.984375 160.882813 103.6875 C 160.46875 102.242188 159.515625 100.117188 158.648438 98.496094 L 156.597656 99.324219 L 156.597656 92.929688 L 153.390625 92.929688 L 153.390625 124.660156 L 156.597656 124.660156 L 156.597656 99.847656 C 157.460938 101.6875 158.363281 103.902344 158.667969 105.289063 L 160.613281 104.351563 C 160.234375 105.253906 159.785156 106.046875 159.335938 106.730469 C 160.128906 107.039063 161.550781 107.777344 162.199219 108.226563 C 162.992188 106.804688 163.765625 105.039063 164.414063 103.109375 L 168.921875 103.109375 L 168.921875 109.613281 L 161.894531 109.613281 L 161.894531 112.621094 L 168.921875 112.621094 L 168.921875 120.460938 L 159.296875 120.460938 L 159.296875 123.507813 L 180.507813 123.507813 L 180.507813 120.460938 L 172.128906 120.460938 "/>
<path style=" stroke:none;fill-rule:nonzero;fill:rgb(87.889099%,45.483398%,20.776367%);fill-opacity:1;" d="M 209.460938 114.660156 L 209.460938 119.957031 L 200.054688 119.957031 L 200.054688 114.660156 Z M 197.011719 124.585938 L 200.054688 124.585938 L 200.054688 122.785156 L 209.460938 122.785156 L 209.460938 124.515625 L 212.648438 124.515625 L 212.648438 111.8125 L 197.011719 111.8125 Z M 195.804688 108.152344 C 195.136719 107.289063 192.433594 103.722656 191.570313 102.855469 L 191.570313 102.441406 L 195.0625 102.441406 L 195.0625 102.136719 C 195.660156 102.785156 196.453125 103.9375 196.757813 104.476563 C 197.621094 103.648438 198.453125 102.714844 199.261719 101.6875 C 200.183594 103.109375 201.371094 104.425781 202.6875 105.59375 C 200.398438 107.019531 197.804688 108.117188 195.101563 108.984375 Z M 209.460938 99.089844 C 208.324219 100.929688 206.832031 102.550781 205.066406 103.9375 C 203.371094 102.550781 201.949219 100.964844 200.921875 99.164063 L 200.992188 99.089844 Z M 211.855469 96.117188 L 211.335938 96.246094 L 202.507813 96.246094 C 202.957031 95.378906 203.335938 94.460938 203.675781 93.558594 L 200.847656 92.765625 C 199.605469 96.246094 197.496094 99.542969 195.0625 101.757813 L 195.0625 99.46875 L 191.570313 99.46875 L 191.570313 92.964844 L 188.523438 92.964844 L 188.523438 99.46875 L 184 99.46875 L 184 102.441406 L 188.074219 102.441406 C 187.191406 106.804688 185.246094 111.921875 183.246094 114.660156 C 183.785156 115.488281 184.488281 116.945313 184.792969 117.867188 C 186.179688 115.757813 187.535156 112.476563 188.523438 108.984375 L 188.523438 124.695313 L 191.570313 124.695313 L 191.570313 106.605469 C 192.433594 108.046875 193.335938 109.667969 193.785156 110.605469 L 194.128906 110.191406 C 194.558594 110.855469 195.027344 111.6875 195.246094 112.261719 C 198.777344 111.199219 202.199219 109.632813 205.246094 107.597656 C 207.949219 109.46875 211.117188 110.929688 214.578125 111.882813 C 214.792969 111.019531 215.246094 109.667969 215.730469 108.910156 C 212.738281 108.226563 210.019531 107.144531 207.625 105.738281 C 210.253906 103.453125 212.433594 100.640625 213.894531 97.324219 L 211.855469 96.117188 "/>
<path style=" stroke:none;fill-rule:nonzero;fill:rgb(87.889099%,45.483398%,20.776367%);fill-opacity:1;" d="M 81.800781 163.46875 L 90.324219 163.46875 C 95.964844 163.46875 100.074219 161.054688 100.074219 155.992188 C 100.074219 152.53125 97.964844 150.570313 95.0625 149.9375 L 95.0625 149.777344 C 97.335938 149 98.683594 146.695313 98.683594 144.261719 C 98.683594 139.667969 94.917969 138.011719 89.695313 138.011719 L 81.800781 138.011719 Z M 85.820313 148.625 L 85.820313 141.128906 L 89.351563 141.128906 C 92.9375 141.128906 94.738281 142.117188 94.738281 144.785156 C 94.738281 147.179688 93.117188 148.625 89.242188 148.625 Z M 85.820313 160.316406 L 85.820313 151.667969 L 89.875 151.667969 C 93.910156 151.667969 96.125 152.910156 96.125 155.792969 C 96.125 158.910156 93.839844 160.316406 89.875 160.316406 L 85.820313 160.316406 "/>
<path style=" stroke:none;fill-rule:nonzero;fill:rgb(87.889099%,45.483398%,20.776367%);fill-opacity:1;" d="M 104.535156 163.46875 L 108.480469 163.46875 L 108.480469 151.597656 C 109.6875 148.585938 111.5625 147.523438 113.113281 147.523438 C 113.867188 147.523438 114.355469 147.632813 115.023438 147.832031 L 115.742188 144.371094 C 115.148438 144.101563 114.535156 143.957031 113.597656 143.957031 C 111.5625 143.957031 109.542969 145.414063 108.210938 147.867188 L 108.101563 147.867188 L 107.796875 144.441406 L 104.535156 144.441406 L 104.535156 163.46875 "/>
<path style=" stroke:none;fill-rule:nonzero;fill:rgb(87.889099%,45.483398%,20.776367%);fill-opacity:1;" d="M 122.21875 163.921875 C 124.492188 163.921875 126.542969 162.785156 128.273438 161.289063 L 128.363281 161.289063 L 128.726563 163.46875 L 131.96875 163.46875 L 131.96875 152.011719 C 131.96875 146.964844 129.789063 143.957031 125.050781 143.957031 C 122.003906 143.957031 119.339844 145.199219 117.375 146.441406 L 118.851563 149.144531 C 120.492188 148.117188 122.347656 147.21875 124.363281 147.21875 C 127.15625 147.21875 127.949219 149.144531 127.984375 151.363281 C 120.074219 152.226563 116.617188 154.335938 116.617188 158.425781 C 116.617188 161.777344 118.921875 163.921875 122.21875 163.921875 Z M 123.425781 160.769531 C 121.734375 160.769531 120.453125 160.011719 120.453125 158.136719 C 120.453125 155.992188 122.347656 154.585938 127.984375 153.882813 L 127.984375 158.550781 C 126.4375 159.976563 125.085938 160.769531 123.425781 160.769531 "/>
<path style=" stroke:none;fill-rule:nonzero;fill:rgb(87.889099%,45.483398%,20.776367%);fill-opacity:1;" d="M 137.609375 163.46875 L 141.554688 163.46875 L 141.554688 149.972656 C 143.246094 148.28125 144.453125 147.378906 146.21875 147.378906 C 148.472656 147.378906 149.445313 148.695313 149.445313 151.992188 L 149.445313 163.46875 L 153.410156 163.46875 L 153.410156 151.503906 C 153.410156 146.660156 151.625 143.957031 147.570313 143.957031 C 144.976563 143.957031 143.03125 145.378906 141.28125 147.074219 L 141.175781 147.074219 L 140.867188 144.441406 L 137.609375 144.441406 L 137.609375 163.46875 "/>
<path style=" stroke:none;fill-rule:nonzero;fill:rgb(87.889099%,45.483398%,20.776367%);fill-opacity:1;" d="M 165.769531 163.921875 C 167.914063 163.921875 169.878906 162.785156 171.304688 161.324219 L 171.410156 161.324219 L 171.753906 163.46875 L 174.996094 163.46875 L 174.996094 135.902344 L 171.03125 135.902344 L 171.03125 142.949219 L 171.195313 146.101563 C 169.644531 144.785156 168.257813 143.957031 166.078125 143.957031 C 161.824219 143.957031 157.914063 147.792969 157.914063 153.992188 C 157.914063 160.28125 160.996094 163.921875 165.769531 163.921875 Z M 166.707031 160.640625 C 163.734375 160.640625 162.023438 158.246094 162.023438 153.921875 C 162.023438 149.8125 164.1875 147.273438 166.835938 147.273438 C 168.257813 147.273438 169.609375 147.722656 171.03125 149 L 171.03125 158.316406 C 169.644531 159.902344 168.292969 160.640625 166.707031 160.640625 "/>
<path style=" stroke:none;fill-rule:nonzero;fill:rgb(87.889099%,45.483398%,20.776367%);fill-opacity:1;" d="M 196.519531 163.921875 C 198.703125 163.921875 200.953125 163.128906 202.683594 161.558594 L 201.0625 158.929688 C 199.910156 159.902344 198.503906 160.660156 196.898438 160.660156 C 193.726563 160.660156 191.546875 158.011719 191.546875 153.992188 C 191.546875 149.9375 193.820313 147.253906 197.007813 147.253906 C 198.324219 147.253906 199.386719 147.792969 200.429688 148.730469 L 202.414063 146.136719 C 201.027344 144.929688 199.257813 143.957031 196.828125 143.957031 C 191.820313 143.957031 187.421875 147.632813 187.421875 153.992188 C 187.421875 160.28125 191.367188 163.921875 196.519531 163.921875 "/>
<path style=" stroke:none;fill-rule:nonzero;fill:rgb(87.889099%,45.483398%,20.776367%);fill-opacity:1;" d="M 206.660156 163.46875 L 210.605469 163.46875 L 210.605469 149.972656 C 212.296875 148.28125 213.507813 147.378906 215.273438 147.378906 C 217.523438 147.378906 218.496094 148.695313 218.496094 151.992188 L 218.496094 163.46875 L 222.460938 163.46875 L 222.460938 151.503906 C 222.460938 146.660156 220.675781 143.957031 216.621094 143.957031 C 214.027344 143.957031 212.117188 145.378906 210.460938 146.964844 L 210.605469 143.199219 L 210.605469 135.902344 L 206.660156 135.902344 L 206.660156 163.46875 "/>
<path style=" stroke:none;fill-rule:nonzero;fill:rgb(87.889099%,45.483398%,20.776367%);fill-opacity:1;" d="M 232.648438 163.921875 C 234.917969 163.921875 236.972656 162.785156 238.699219 161.289063 L 238.789063 161.289063 L 239.152344 163.46875 L 242.394531 163.46875 L 242.394531 152.011719 C 242.394531 146.964844 240.214844 143.957031 235.476563 143.957031 C 232.429688 143.957031 229.765625 145.199219 227.800781 146.441406 L 229.277344 149.144531 C 230.917969 148.117188 232.773438 147.21875 234.792969 147.21875 C 237.582031 147.21875 238.375 149.144531 238.414063 151.363281 C 230.503906 152.226563 227.042969 154.335938 227.042969 158.425781 C 227.042969 161.777344 229.347656 163.921875 232.648438 163.921875 Z M 233.851563 160.769531 C 232.160156 160.769531 230.882813 160.011719 230.882813 158.136719 C 230.882813 155.992188 232.773438 154.585938 238.414063 153.882813 L 238.414063 158.550781 C 236.863281 159.976563 235.511719 160.769531 233.851563 160.769531 "/>
<path style=" stroke:none;fill-rule:nonzero;fill:rgb(87.889099%,45.483398%,20.776367%);fill-opacity:1;" d="M 248.035156 163.46875 L 251.980469 163.46875 L 251.980469 151.597656 C 253.1875 148.585938 255.0625 147.523438 256.609375 147.523438 C 257.367188 147.523438 257.855469 147.632813 258.519531 147.832031 L 259.242188 144.371094 C 258.648438 144.101563 258.035156 143.957031 257.097656 143.957031 C 255.0625 143.957031 253.042969 145.414063 251.710938 147.867188 L 251.601563 147.867188 L 251.296875 144.441406 L 248.035156 144.441406 L 248.035156 163.46875 "/>
<path style=" stroke:none;fill-rule:nonzero;fill:rgb(87.889099%,45.483398%,20.776367%);fill-opacity:1;" d="M 265.714844 163.921875 C 267.984375 163.921875 270.039063 162.785156 271.769531 161.289063 L 271.859375 161.289063 L 272.21875 163.46875 L 275.464844 163.46875 L 275.464844 152.011719 C 275.464844 146.964844 273.285156 143.957031 268.542969 143.957031 C 265.5 143.957031 262.832031 145.199219 260.867188 146.441406 L 262.347656 149.144531 C 263.988281 148.117188 265.84375 147.21875 267.859375 147.21875 C 270.652344 147.21875 271.445313 149.144531 271.480469 151.363281 C 263.570313 152.226563 260.113281 154.335938 260.113281 158.425781 C 260.113281 161.777344 262.417969 163.921875 265.714844 163.921875 Z M 266.921875 160.769531 C 265.230469 160.769531 263.949219 160.011719 263.949219 158.136719 C 263.949219 155.992188 265.84375 154.585938 271.480469 153.882813 L 271.480469 158.550781 C 269.933594 159.976563 268.582031 160.769531 266.921875 160.769531 "/>
<path style=" stroke:none;fill-rule:nonzero;fill:rgb(87.889099%,45.483398%,20.776367%);fill-opacity:1;" d="M 288.851563 163.921875 C 291.03125 163.921875 293.285156 163.128906 295.011719 161.558594 L 293.390625 158.929688 C 292.238281 159.902344 290.832031 160.660156 289.230469 160.660156 C 286.058594 160.660156 283.878906 158.011719 283.878906 153.992188 C 283.878906 149.9375 286.148438 147.253906 289.335938 147.253906 C 290.652344 147.253906 291.714844 147.792969 292.761719 148.730469 L 294.742188 146.136719 C 293.355469 144.929688 291.589844 143.957031 289.15625 143.957031 C 284.148438 143.957031 279.753906 147.632813 279.753906 153.992188 C 279.753906 160.28125 283.699219 163.921875 288.851563 163.921875 "/>
<path style=" stroke:none;fill-rule:nonzero;fill:rgb(87.889099%,45.483398%,20.776367%);fill-opacity:1;" d="M 305.007813 163.921875 C 306.394531 163.921875 307.675781 163.578125 308.753906 163.234375 L 308.015625 160.28125 C 307.476563 160.53125 306.628906 160.730469 305.980469 160.730469 C 304.015625 160.730469 303.207031 159.558594 303.207031 157.269531 L 303.207031 147.632813 L 308.160156 147.632813 L 308.160156 144.441406 L 303.207031 144.441406 L 303.207031 139.179688 L 299.855469 139.179688 L 299.40625 144.441406 L 296.46875 144.660156 L 296.46875 147.632813 L 299.242188 147.632813 L 299.242188 157.234375 C 299.242188 161.253906 300.71875 163.921875 305.007813 163.921875 "/>
<path style=" stroke:none;fill-rule:nonzero;fill:rgb(87.889099%,45.483398%,20.776367%);fill-opacity:1;" d="M 319.648438 163.921875 C 322.132813 163.921875 324.316406 163.089844 326.082031 161.921875 L 324.691406 159.378906 C 323.304688 160.28125 321.863281 160.804688 320.171875 160.804688 C 316.871094 160.804688 314.585938 158.621094 314.277344 155 L 326.636719 155 C 326.730469 154.550781 326.800781 153.738281 326.800781 152.984375 C 326.800781 147.59375 324.097656 143.957031 319.054688 143.957031 C 314.585938 143.957031 310.367188 147.792969 310.367188 153.992188 C 310.367188 160.246094 314.492188 163.921875 319.648438 163.921875 Z M 314.242188 152.261719 C 314.621094 148.910156 316.730469 147.074219 319.125 147.074219 C 321.898438 147.074219 323.378906 148.984375 323.378906 152.261719 L 314.242188 152.261719 "/>
<path style=" stroke:none;fill-rule:nonzero;fill:rgb(87.889099%,45.483398%,20.776367%);fill-opacity:1;" d="M 331.265625 163.46875 L 335.210938 163.46875 L 335.210938 151.597656 C 336.417969 148.585938 338.292969 147.523438 339.84375 147.523438 C 340.597656 147.523438 341.085938 147.632813 341.753906 147.832031 L 342.472656 144.371094 C 341.878906 144.101563 341.265625 143.957031 340.328125 143.957031 C 338.292969 143.957031 336.277344 145.414063 334.941406 147.867188 L 334.832031 147.867188 L 334.527344 144.441406 L 331.265625 144.441406 L 331.265625 163.46875 "/>
<path style=" stroke:none;fill-rule:nonzero;fill:rgb(16.868591%,15.696716%,16.088867%);fill-opacity:1;" d="M 96.074219 347.089844 L 90.957031 347.089844 L 90.957031 345.773438 L 96.074219 345.773438 Z M 90.957031 349.792969 L 90.957031 348.441406 L 96.074219 348.441406 L 96.074219 349.792969 Z M 83.785156 349.792969 L 83.785156 348.441406 L 88.9375 348.441406 L 88.9375 349.792969 Z M 88.9375 345.773438 L 88.9375 347.089844 L 83.785156 347.089844 L 83.785156 345.773438 Z M 85.027344 343.25 C 86.882813 343.484375 89.082031 343.898438 90.921875 344.367188 L 81.800781 344.367188 L 81.800781 352.585938 L 83.785156 352.585938 L 83.785156 351.144531 L 88.9375 351.144531 L 88.9375 352.117188 L 90.957031 352.117188 L 90.957031 351.144531 L 96.074219 351.144531 L 96.074219 352.585938 L 98.144531 352.585938 L 98.144531 344.367188 L 94.234375 344.367188 L 94.683594 343.808594 C 94.179688 343.628906 93.605469 343.46875 92.9375 343.285156 C 94.738281 342.640625 96.503906 341.828125 97.894531 340.980469 L 96.59375 339.773438 L 96.144531 339.898438 L 81.386719 339.898438 L 81.386719 341.519531 L 93.335938 341.519531 C 92.34375 341.988281 91.242188 342.386719 90.234375 342.710938 C 88.8125 342.421875 87.316406 342.207031 86.035156 342.0625 Z M 90.46875 353.628906 C 90.558594 353.25 90.648438 352.855469 90.722656 352.421875 L 88.578125 352.421875 C 88.503906 352.855469 88.414063 353.25 88.308594 353.628906 L 81.011719 353.628906 L 81.011719 355.359375 L 87.441406 355.359375 C 86.308594 356.890625 84.199219 357.863281 79.855469 358.441406 C 80.199219 358.855469 80.683594 359.683594 80.847656 360.1875 C 86.253906 359.359375 88.667969 357.808594 89.839844 355.359375 L 96.34375 355.359375 C 96.089844 356.980469 95.820313 357.738281 95.496094 358.042969 C 95.316406 358.222656 95.082031 358.242188 94.648438 358.242188 C 94.179688 358.242188 93.027344 358.222656 91.875 358.117188 C 92.199219 358.640625 92.433594 359.394531 92.46875 359.953125 C 93.710938 360.027344 94.9375 360.027344 95.570313 359.972656 C 96.269531 359.9375 96.792969 359.792969 97.261719 359.378906 C 97.875 358.78125 98.289063 357.449219 98.683594 354.496094 C 98.722656 354.1875 98.777344 353.628906 98.777344 353.628906 L 90.46875 353.628906 "/>
<path style=" stroke:none;fill-rule:nonzero;fill:rgb(16.868591%,15.696716%,16.088867%);fill-opacity:1;" d="M 106.453125 353.035156 L 110.144531 353.035156 L 110.144531 354.746094 C 108.867188 354.925781 107.621094 355.105469 106.453125 355.269531 Z M 110.144531 345.792969 L 110.144531 347.753906 L 106.453125 347.753906 L 106.453125 345.792969 Z M 106.453125 349.394531 L 110.144531 349.394531 L 110.144531 351.394531 L 106.453125 351.394531 Z M 113.875 356.078125 L 113.800781 354.207031 L 112.144531 354.476563 L 112.144531 345.792969 L 113.855469 345.792969 L 113.855469 343.898438 L 111.390625 343.898438 C 111.675781 342.78125 112 341.519531 112.234375 340.3125 L 110.757813 340.0625 L 110.46875 340.152344 L 103.929688 340.152344 L 103.929688 341.917969 L 109.894531 341.917969 C 109.730469 342.566406 109.53125 343.285156 109.40625 343.898438 L 102.832031 343.898438 L 102.832031 345.792969 L 104.46875 345.792969 L 104.46875 355.558594 C 103.714844 355.667969 102.972656 355.757813 102.34375 355.828125 L 102.738281 357.898438 C 104.8125 357.574219 107.425781 357.144531 110.144531 356.710938 L 110.144531 360.132813 L 112.144531 360.132813 L 112.144531 356.386719 Z M 119.984375 345.378906 C 119.695313 348.097656 119.207031 350.441406 118.34375 352.421875 C 117.386719 350.3125 116.847656 348.007813 116.488281 345.828125 C 116.523438 345.683594 116.59375 345.523438 116.648438 345.378906 Z M 123.660156 345.378906 L 123.660156 343.285156 L 117.316406 343.285156 C 117.714844 341.988281 118.019531 340.675781 118.289063 339.449219 L 116 339.015625 C 115.515625 342.222656 114.453125 346.40625 112.613281 348.980469 C 112.972656 349.46875 113.476563 350.457031 113.730469 351.015625 C 114.273438 350.3125 114.777344 349.484375 115.207031 348.636719 C 115.675781 350.65625 116.289063 352.710938 117.246094 354.566406 C 116.164063 356.261719 114.703125 357.628906 112.738281 358.65625 C 113.226563 359.035156 114.019531 359.847656 114.289063 360.242188 C 116 359.214844 117.316406 357.972656 118.398438 356.476563 C 119.441406 357.9375 120.777344 359.214844 122.453125 360.167969 C 122.757813 359.59375 123.425781 358.710938 123.894531 358.3125 C 122.039063 357.394531 120.632813 356.097656 119.570313 354.53125 C 120.847656 352.0625 121.605469 349.070313 122.039063 345.378906 L 123.660156 345.378906 "/>
<path style=" stroke:none;fill-rule:nonzero;fill:rgb(16.868591%,15.696716%,16.088867%);fill-opacity:1;" d="M 80.683594 385.972656 L 86.359375 385.972656 C 90.125 385.972656 92.867188 384.351563 92.867188 381 C 92.867188 378.691406 91.460938 377.378906 89.515625 376.964844 L 89.515625 376.835938 C 91.046875 376.332031 91.945313 374.78125 91.945313 373.179688 C 91.945313 370.097656 89.425781 369 85.945313 369 L 80.683594 369 Z M 83.371094 376.082031 L 83.371094 371.070313 L 85.710938 371.070313 C 88.109375 371.070313 89.316406 371.738281 89.316406 373.523438 C 89.316406 375.109375 88.234375 376.082031 85.640625 376.082031 Z M 83.371094 383.882813 L 83.371094 378.117188 L 86.054688 378.117188 C 88.757813 378.117188 90.234375 378.945313 90.234375 380.855469 C 90.234375 382.925781 88.722656 383.882813 86.054688 383.882813 L 83.371094 383.882813 "/>
<path style=" stroke:none;fill-rule:nonzero;fill:rgb(16.868591%,15.696716%,16.088867%);fill-opacity:1;" d="M 95.835938 385.972656 L 98.464844 385.972656 L 98.464844 378.0625 C 99.277344 376.0625 100.519531 375.339844 101.5625 375.339844 C 102.070313 375.339844 102.394531 375.414063 102.824219 375.539063 L 103.3125 373.234375 C 102.914063 373.054688 102.5 372.960938 101.886719 372.960938 C 100.519531 372.960938 99.1875 373.9375 98.285156 375.574219 L 98.210938 375.574219 L 98.015625 373.285156 L 95.835938 373.285156 L 95.835938 385.972656 "/>
<path style=" stroke:none;fill-rule:nonzero;fill:rgb(16.868591%,15.696716%,16.088867%);fill-opacity:1;" d="M 107.632813 386.277344 C 109.144531 386.277344 110.511719 385.503906 111.667969 384.511719 L 111.738281 384.511719 L 111.953125 385.972656 L 114.136719 385.972656 L 114.136719 378.332031 C 114.136719 374.960938 112.675781 372.960938 109.523438 372.960938 C 107.484375 372.960938 105.71875 373.792969 104.40625 374.621094 L 105.394531 376.421875 C 106.476563 375.738281 107.722656 375.125 109.054688 375.125 C 110.929688 375.125 111.449219 376.421875 111.488281 377.898438 C 106.1875 378.476563 103.882813 379.882813 103.882813 382.601563 C 103.882813 384.835938 105.433594 386.277344 107.632813 386.277344 Z M 108.441406 384.171875 C 107.304688 384.171875 106.441406 383.664063 106.441406 382.421875 C 106.441406 381 107.722656 380.042969 111.488281 379.574219 L 111.488281 382.691406 C 110.441406 383.648438 109.539063 384.171875 108.441406 384.171875 "/>
<path style=" stroke:none;fill-rule:nonzero;fill:rgb(16.868591%,15.696716%,16.088867%);fill-opacity:1;" d="M 120.675781 385.972656 L 123.738281 385.972656 L 128.136719 373.285156 L 125.539063 373.285156 L 123.378906 380.117188 C 123.035156 381.359375 122.640625 382.65625 122.277344 383.898438 L 122.171875 383.898438 C 121.8125 382.65625 121.414063 381.359375 121.070313 380.117188 L 118.910156 373.285156 L 116.1875 373.285156 L 120.675781 385.972656 "/>
<path style=" stroke:none;fill-rule:nonzero;fill:rgb(16.868591%,15.696716%,16.088867%);fill-opacity:1;" d="M 135.59375 386.277344 C 137.269531 386.277344 138.710938 385.71875 139.898438 384.925781 L 138.960938 383.25 C 138.042969 383.847656 137.070313 384.1875 135.953125 384.1875 C 133.753906 384.1875 132.242188 382.746094 132.027344 380.316406 L 140.257813 380.316406 C 140.332031 380.027344 140.367188 379.484375 140.367188 378.980469 C 140.367188 375.378906 138.582031 372.960938 135.214844 372.960938 C 132.242188 372.960938 129.414063 375.519531 129.414063 379.648438 C 129.414063 383.828125 132.167969 386.277344 135.59375 386.277344 Z M 132.007813 378.492188 C 132.257813 376.261719 133.664063 375.035156 135.25 375.035156 C 137.105469 375.035156 138.097656 376.316406 138.097656 378.492188 L 132.007813 378.492188 "/>
<path style=" stroke:none;fill-rule:nonzero;fill:rgb(16.868591%,15.696716%,16.088867%);fill-opacity:1;" d="M 84.8125 459.699219 L 95.191406 459.699219 L 95.191406 461.410156 L 84.8125 461.410156 Z M 95.191406 450.042969 L 95.191406 451.664063 L 84.8125 451.664063 L 84.8125 450.042969 Z M 95.191406 454.816406 L 84.8125 454.816406 L 84.8125 453.265625 L 95.191406 453.265625 Z M 84.8125 456.4375 L 95.191406 456.4375 L 95.191406 458.097656 L 84.8125 458.097656 Z M 97.371094 461.410156 L 97.371094 448.257813 L 90.199219 448.257813 C 90.308594 447.753906 90.414063 447.25 90.503906 446.691406 L 99.765625 446.691406 L 99.765625 444.800781 L 90.867188 444.800781 L 91.152344 443.140625 L 88.777344 442.941406 C 88.738281 443.5 88.683594 444.167969 88.59375 444.800781 L 80.234375 444.800781 L 80.234375 446.691406 L 88.359375 446.691406 C 88.308594 447.25 88.199219 447.789063 88.109375 448.257813 L 82.738281 448.257813 L 82.738281 461.410156 L 79.605469 461.410156 L 79.605469 463.375 L 100.414063 463.375 L 100.414063 461.410156 L 97.371094 461.410156 "/>
<path style=" stroke:none;fill-rule:nonzero;fill:rgb(16.868591%,15.696716%,16.088867%);fill-opacity:1;" d="M 118.324219 455.554688 C 117.894531 454.402344 116.777344 452.78125 115.765625 451.574219 L 114.199219 452.167969 C 114.523438 452.582031 114.847656 453.015625 115.136719 453.5 L 111.839844 453.753906 C 113.765625 452.203125 115.695313 450.3125 117.386719 448.3125 L 115.710938 447.339844 C 115.246094 447.96875 114.722656 448.617188 114.199219 449.214844 L 111.640625 449.320313 C 112.308594 448.617188 112.957031 447.734375 113.550781 446.886719 L 123.117188 446.886719 L 123.117188 444.925781 L 114.777344 444.925781 C 114.453125 444.292969 113.929688 443.464844 113.460938 442.816406 L 111.316406 443.339844 C 111.621094 443.808594 111.964844 444.367188 112.234375 444.925781 L 103.226563 444.925781 L 103.226563 446.886719 L 111.371094 446.886719 C 110.757813 447.824219 110.144531 448.636719 109.855469 448.886719 C 109.496094 449.304688 109.152344 449.609375 108.832031 449.679688 C 109.011719 450.132813 109.316406 451.015625 109.425781 451.410156 C 109.765625 451.265625 110.269531 451.140625 112.523438 450.996094 C 111.550781 451.953125 110.6875 452.726563 110.269531 453.015625 C 109.515625 453.664063 108.9375 454.097656 108.378906 454.167969 C 108.59375 454.671875 108.902344 455.609375 108.957031 455.96875 C 109.496094 455.71875 110.308594 455.609375 116.089844 455.050781 C 116.324219 455.484375 116.503906 455.878906 116.648438 456.222656 Z M 123.0625 454.980469 C 122.019531 454.078125 120.019531 452.761719 118.488281 451.914063 L 116.992188 453.085938 C 118.558594 454.003906 120.523438 455.375 121.476563 456.277344 Z M 120.433594 447.554688 C 119.660156 448.472656 118.308594 449.699219 117.316406 450.457031 L 118.882813 451.464844 C 119.894531 450.726563 121.207031 449.679688 122.21875 448.617188 Z M 108.363281 450.148438 C 107.605469 449.394531 106.054688 448.332031 104.867188 447.628906 L 103.40625 448.796875 C 104.632813 449.554688 106.125 450.671875 106.847656 451.445313 Z M 108.433594 451.878906 C 106.363281 452.851563 104.179688 453.808594 102.738281 454.347656 L 103.820313 456.078125 C 105.316406 455.375 107.136719 454.402344 108.847656 453.484375 Z M 123.371094 457.589844 L 114.179688 457.589844 L 114.179688 455.863281 L 111.910156 455.863281 L 111.910156 457.589844 L 102.722656 457.589844 L 102.722656 459.574219 L 111.910156 459.574219 L 111.910156 464.132813 L 114.179688 464.132813 L 114.179688 459.574219 L 123.371094 459.574219 L 123.371094 457.589844 "/>
<path style=" stroke:none;fill-rule:nonzero;fill:rgb(16.868591%,15.696716%,16.088867%);fill-opacity:1;" d="M 80.683594 489.988281 L 83.371094 489.988281 L 83.371094 482.671875 L 89.640625 482.671875 L 89.640625 480.4375 L 83.371094 480.4375 L 83.371094 475.25 L 90.738281 475.25 L 90.738281 473.015625 L 80.683594 473.015625 L 80.683594 489.988281 "/>
<path style=" stroke:none;fill-rule:nonzero;fill:rgb(16.868591%,15.696716%,16.088867%);fill-opacity:1;" d="M 98.195313 490.292969 C 101.328125 490.292969 104.160156 487.863281 104.160156 483.664063 C 104.160156 479.429688 101.328125 476.980469 98.195313 476.980469 C 95.058594 476.980469 92.210938 479.429688 92.210938 483.664063 C 92.210938 487.863281 95.058594 490.292969 98.195313 490.292969 Z M 98.195313 488.113281 C 96.210938 488.113281 94.96875 486.347656 94.96875 483.664063 C 94.96875 480.980469 96.210938 479.175781 98.195313 479.175781 C 100.195313 479.175781 101.4375 480.980469 101.4375 483.664063 C 101.4375 486.347656 100.195313 488.113281 98.195313 488.113281 "/>
<path style=" stroke:none;fill-rule:nonzero;fill:rgb(16.868591%,15.696716%,16.088867%);fill-opacity:1;" d="M 107.273438 489.988281 L 109.90625 489.988281 L 109.90625 482.078125 C 110.714844 480.078125 111.960938 479.355469 113.003906 479.355469 C 113.507813 479.355469 113.832031 479.429688 114.265625 479.554688 L 114.75 477.25 C 114.355469 477.070313 113.941406 476.980469 113.328125 476.980469 C 111.960938 476.980469 110.625 477.953125 109.722656 479.589844 L 109.652344 479.589844 L 109.453125 477.304688 L 107.273438 477.304688 L 107.273438 489.988281 "/>
<path style=" stroke:none;fill-rule:nonzero;fill:rgb(16.868591%,15.696716%,16.088867%);fill-opacity:1;" d="M 120.976563 490.292969 C 121.894531 490.292969 122.761719 490.0625 123.464844 489.824219 L 122.996094 487.863281 C 122.617188 488.023438 122.058594 488.167969 121.625 488.167969 C 120.3125 488.167969 119.789063 487.375 119.789063 485.863281 L 119.789063 479.429688 L 123.085938 479.429688 L 123.085938 477.304688 L 119.789063 477.304688 L 119.789063 473.789063 L 117.535156 473.789063 L 117.246094 477.304688 L 115.285156 477.449219 L 115.285156 479.429688 L 117.121094 479.429688 L 117.121094 485.84375 C 117.121094 488.511719 118.113281 490.292969 120.976563 490.292969 "/>
<path style=" stroke:none;fill-rule:nonzero;fill:rgb(16.868591%,15.696716%,16.088867%);fill-opacity:1;" d="M 125.839844 489.988281 L 128.46875 489.988281 L 128.46875 480.996094 C 129.605469 479.863281 130.414063 479.265625 131.585938 479.265625 C 133.082031 479.265625 133.730469 480.132813 133.730469 482.328125 L 133.730469 489.988281 L 136.378906 489.988281 L 136.378906 482.003906 C 136.378906 478.78125 135.191406 476.980469 132.488281 476.980469 C 130.757813 476.980469 129.496094 477.933594 128.378906 478.980469 L 128.46875 476.472656 L 128.46875 471.609375 L 125.839844 471.609375 L 125.839844 489.988281 "/>
<path style=" stroke:none;fill-rule:nonzero;fill:rgb(16.868591%,15.696716%,16.088867%);fill-opacity:1;" d="M 140.160156 489.988281 L 142.792969 489.988281 L 142.792969 482.078125 C 143.601563 480.078125 144.847656 479.355469 145.890625 479.355469 C 146.394531 479.355469 146.722656 479.429688 147.152344 479.554688 L 147.640625 477.25 C 147.242188 477.070313 146.828125 476.980469 146.214844 476.980469 C 144.847656 476.980469 143.511719 477.953125 142.613281 479.589844 L 142.539063 479.589844 L 142.34375 477.304688 L 140.160156 477.304688 L 140.160156 489.988281 "/>
<path style=" stroke:none;fill-rule:nonzero;fill:rgb(16.868591%,15.696716%,16.088867%);fill-opacity:1;" d="M 149.59375 489.988281 L 152.226563 489.988281 L 152.226563 477.304688 L 149.59375 477.304688 Z M 150.910156 474.925781 C 151.882813 474.925781 152.621094 474.277344 152.621094 473.355469 C 152.621094 472.421875 151.882813 471.789063 150.910156 471.789063 C 149.957031 471.789063 149.234375 472.421875 149.234375 473.355469 C 149.234375 474.277344 149.957031 474.925781 150.910156 474.925781 "/>
<path style=" stroke:none;fill-rule:nonzero;fill:rgb(16.868591%,15.696716%,16.088867%);fill-opacity:1;" d="M 160.554688 495.683594 C 164.609375 495.683594 167.203125 493.699219 167.203125 491.25 C 167.203125 489.085938 165.636719 488.167969 162.628906 488.167969 L 160.304688 488.167969 C 158.683594 488.167969 158.179688 487.683594 158.179688 486.925781 C 158.179688 486.3125 158.464844 485.953125 158.878906 485.589844 C 159.421875 485.84375 160.070313 485.96875 160.644531 485.96875 C 163.296875 485.96875 165.402344 484.382813 165.402344 481.609375 C 165.402344 480.65625 165.0625 479.789063 164.574219 479.285156 L 166.988281 479.285156 L 166.988281 477.304688 L 162.503906 477.304688 C 162.015625 477.125 161.367188 476.980469 160.644531 476.980469 C 158.015625 476.980469 155.726563 478.671875 155.726563 481.554688 C 155.726563 483.050781 156.539063 484.242188 157.402344 484.90625 L 157.402344 485.015625 C 156.699219 485.519531 156 486.367188 156 487.355469 C 156 488.402344 156.503906 489.070313 157.152344 489.464844 L 157.152344 489.574219 C 155.960938 490.292969 155.296875 491.285156 155.296875 492.347656 C 155.296875 494.546875 157.511719 495.683594 160.554688 495.683594 Z M 160.644531 484.277344 C 159.332031 484.277344 158.25 483.230469 158.25 481.554688 C 158.25 479.824219 159.3125 478.851563 160.644531 478.851563 C 161.980469 478.851563 163.042969 479.84375 163.042969 481.554688 C 163.042969 483.230469 161.960938 484.277344 160.644531 484.277344 Z M 160.953125 493.933594 C 158.84375 493.933594 157.566406 493.195313 157.566406 491.953125 C 157.566406 491.304688 157.890625 490.65625 158.648438 490.09375 C 159.167969 490.222656 159.746094 490.292969 160.339844 490.292969 L 162.269531 490.292969 C 163.800781 490.292969 164.644531 490.617188 164.644531 491.664063 C 164.644531 492.851563 163.167969 493.933594 160.953125 493.933594 "/>
<path style=" stroke:none;fill-rule:nonzero;fill:rgb(16.868591%,15.696716%,16.088867%);fill-opacity:1;" d="M 169.542969 489.988281 L 172.175781 489.988281 L 172.175781 480.996094 C 173.3125 479.863281 174.121094 479.265625 175.292969 479.265625 C 176.789063 479.265625 177.4375 480.132813 177.4375 482.328125 L 177.4375 489.988281 L 180.085938 489.988281 L 180.085938 482.003906 C 180.085938 478.78125 178.894531 476.980469 176.191406 476.980469 C 174.464844 476.980469 173.203125 477.933594 172.085938 478.980469 L 172.175781 476.472656 L 172.175781 471.609375 L 169.542969 471.609375 L 169.542969 489.988281 "/>
<path style=" stroke:none;fill-rule:nonzero;fill:rgb(16.868591%,15.696716%,16.088867%);fill-opacity:1;" d="M 188.136719 490.292969 C 189.054688 490.292969 189.921875 490.0625 190.625 489.824219 L 190.15625 487.863281 C 189.777344 488.023438 189.21875 488.167969 188.785156 488.167969 C 187.46875 488.167969 186.949219 487.375 186.949219 485.863281 L 186.949219 479.429688 L 190.246094 479.429688 L 190.246094 477.304688 L 186.949219 477.304688 L 186.949219 473.789063 L 184.695313 473.789063 L 184.40625 477.304688 L 182.441406 477.449219 L 182.441406 479.429688 L 184.28125 479.429688 L 184.28125 485.84375 C 184.28125 488.511719 185.273438 490.292969 188.136719 490.292969 "/>
<path style=" stroke:none;fill-rule:nonzero;fill:rgb(16.868591%,15.696716%,16.088867%);fill-opacity:1;" d="M 84.269531 564.941406 L 84.269531 561.96875 L 95.929688 561.96875 L 95.929688 564.941406 Z M 95.929688 557.03125 L 95.929688 559.984375 L 84.269531 559.984375 L 84.269531 557.03125 Z M 95.929688 552.09375 L 95.929688 555.046875 L 84.269531 555.046875 L 84.269531 552.09375 Z M 90.125 550.039063 C 90.503906 549.210938 90.882813 548.21875 91.242188 547.246094 L 88.683594 546.957031 C 88.523438 547.859375 88.253906 549.046875 87.929688 550.039063 L 82.128906 550.039063 L 82.128906 568.164063 L 84.269531 568.164063 L 84.269531 566.921875 L 95.929688 566.921875 L 95.929688 568.074219 L 98.199219 568.074219 L 98.199219 550.039063 L 90.125 550.039063 "/>
<path style=" stroke:none;fill-rule:nonzero;fill:rgb(16.868591%,15.696716%,16.088867%);fill-opacity:1;" d="M 114.054688 564.707031 L 114.054688 560.128906 L 119.804688 560.128906 L 119.804688 564.707031 Z M 106.273438 560.128906 L 111.875 560.128906 L 111.875 564.707031 L 106.273438 564.707031 Z M 111.875 553.550781 L 111.875 558.019531 L 106.273438 558.019531 L 106.273438 553.550781 Z M 119.804688 553.550781 L 119.804688 558.019531 L 114.054688 558.019531 L 114.054688 553.550781 Z M 114.054688 551.390625 L 114.054688 546.996094 L 111.875 546.996094 L 111.875 551.390625 L 104.125 551.390625 L 104.125 568.164063 L 106.273438 568.164063 L 106.273438 566.8125 L 119.804688 566.8125 L 119.804688 568.074219 L 122.039063 568.074219 L 122.039063 551.390625 L 114.054688 551.390625 "/>
<path style=" stroke:none;fill-rule:nonzero;fill:rgb(16.868591%,15.696716%,16.088867%);fill-opacity:1;" d="M 80.683594 594.003906 L 83.371094 594.003906 L 83.371094 586.6875 L 89.640625 586.6875 L 89.640625 584.453125 L 83.371094 584.453125 L 83.371094 579.265625 L 90.738281 579.265625 L 90.738281 577.03125 L 80.683594 577.03125 L 80.683594 594.003906 "/>
<path style=" stroke:none;fill-rule:nonzero;fill:rgb(16.868591%,15.696716%,16.088867%);fill-opacity:1;" d="M 92.996094 594.003906 L 95.628906 594.003906 L 95.628906 586.09375 C 96.4375 584.09375 97.683594 583.371094 98.726563 583.371094 C 99.230469 583.371094 99.554688 583.445313 99.988281 583.570313 L 100.476563 581.265625 C 100.078125 581.085938 99.664063 580.992188 99.050781 580.992188 C 97.683594 580.992188 96.347656 581.96875 95.449219 583.605469 L 95.375 583.605469 L 95.179688 581.320313 L 92.996094 581.320313 L 92.996094 594.003906 "/>
<path style=" stroke:none;fill-rule:nonzero;fill:rgb(16.868591%,15.696716%,16.088867%);fill-opacity:1;" d="M 107.457031 594.308594 C 109.132813 594.308594 110.574219 593.75 111.761719 592.957031 L 110.824219 591.28125 C 109.90625 591.878906 108.933594 592.21875 107.816406 592.21875 C 105.617188 592.21875 104.105469 590.777344 103.890625 588.347656 L 112.121094 588.347656 C 112.195313 588.058594 112.230469 587.515625 112.230469 587.011719 C 112.230469 583.410156 110.445313 580.992188 107.078125 580.992188 C 104.105469 580.992188 101.277344 583.550781 101.277344 587.679688 C 101.277344 591.859375 104.03125 594.308594 107.457031 594.308594 Z M 103.871094 586.527344 C 104.121094 584.292969 105.527344 583.066406 107.113281 583.066406 C 108.96875 583.066406 109.960938 584.34375 109.960938 586.527344 L 103.871094 586.527344 "/>
<path style=" stroke:none;fill-rule:nonzero;fill:rgb(16.868591%,15.696716%,16.088867%);fill-opacity:1;" d="M 120.488281 594.308594 C 122.164063 594.308594 123.605469 593.75 124.792969 592.957031 L 123.855469 591.28125 C 122.9375 591.878906 121.964844 592.21875 120.847656 592.21875 C 118.648438 592.21875 117.136719 590.777344 116.917969 588.347656 L 125.152344 588.347656 C 125.226563 588.058594 125.261719 587.515625 125.261719 587.011719 C 125.261719 583.410156 123.476563 580.992188 120.109375 580.992188 C 117.136719 580.992188 114.308594 583.550781 114.308594 587.679688 C 114.308594 591.859375 117.0625 594.308594 120.488281 594.308594 Z M 116.902344 586.527344 C 117.152344 584.292969 118.558594 583.066406 120.144531 583.066406 C 122 583.066406 122.992188 584.34375 122.992188 586.527344 L 116.902344 586.527344 "/>
<path style=" stroke:none;fill-rule:nonzero;fill:rgb(16.868591%,15.696716%,16.088867%);fill-opacity:1;" d="M 85.730469 654.332031 L 85.730469 658.871094 L 82.308594 658.871094 L 82.308594 654.332031 Z M 82.308594 665.539063 L 82.308594 660.765625 L 85.730469 660.765625 L 85.730469 665.539063 Z M 87.75 652.402344 L 80.289063 652.402344 L 80.289063 669.304688 L 82.308594 669.304688 L 82.308594 667.464844 L 87.75 667.464844 Z M 100.613281 654.960938 L 98.035156 654.960938 L 98.035156 650.691406 L 95.839844 650.691406 L 95.839844 654.960938 L 88.683594 654.960938 L 88.683594 657.085938 L 95.839844 657.085938 L 95.839844 668.65625 C 95.839844 669.140625 95.660156 669.285156 95.191406 669.304688 C 94.683594 669.304688 92.972656 669.304688 91.296875 669.25 C 91.621094 669.863281 91.945313 670.816406 92.054688 671.429688 C 94.34375 671.449219 95.855469 671.375 96.792969 671.035156 C 97.660156 670.710938 98.035156 670.097656 98.035156 668.65625 L 98.035156 657.085938 L 100.613281 657.085938 Z M 94.523438 664.023438 C 93.765625 662.691406 92.199219 660.421875 90.992188 658.761719 L 89.242188 659.683594 C 90.414063 661.410156 91.929688 663.773438 92.632813 665.125 L 94.523438 664.023438 "/>
<path style=" stroke:none;fill-rule:nonzero;fill:rgb(16.868591%,15.696716%,16.088867%);fill-opacity:1;" d="M 119.75 651.015625 C 119.0625 652.566406 117.804688 654.636719 116.777344 655.898438 L 118.558594 656.636719 C 119.605469 655.410156 120.867188 653.5 121.910156 651.789063 Z M 109.117188 655.699219 C 108.542969 654.402344 107.335938 652.566406 106.125 651.195313 L 104.253906 652.007813 C 105.390625 653.410156 106.613281 655.375 107.117188 656.636719 Z M 115.28125 662.945313 L 115.28125 666.007813 L 110.8125 666.007813 L 110.8125 662.945313 Z M 117.261719 667.808594 L 117.261719 661.140625 L 108.847656 661.140625 L 108.847656 669.285156 L 110.8125 669.285156 L 110.8125 667.808594 Z M 121.875 657.140625 L 114.109375 657.140625 L 114.109375 650.546875 L 111.910156 650.546875 L 111.910156 657.140625 L 104.308594 657.140625 L 104.308594 671.699219 L 106.433594 671.699219 L 106.433594 659.160156 L 119.785156 659.160156 L 119.785156 669.160156 C 119.785156 669.484375 119.660156 669.609375 119.300781 669.628906 C 118.921875 669.628906 117.660156 669.648438 116.398438 669.609375 C 116.6875 670.132813 117.011719 671.050781 117.082031 671.664063 C 118.867188 671.664063 120.074219 671.609375 120.867188 671.265625 C 121.675781 670.941406 121.875 670.3125 121.875 669.195313 L 121.875 657.140625 "/>
<path style=" stroke:none;fill-rule:nonzero;fill:rgb(16.868591%,15.696716%,16.088867%);fill-opacity:1;" d="M 87.152344 679.320313 C 86.578125 679.050781 85.765625 678.871094 84.902344 678.871094 C 82.074219 678.871094 80.902344 680.671875 80.902344 683.285156 L 80.902344 684.871094 L 79.171875 685.015625 L 79.171875 687 L 80.902344 687 L 80.902344 697.558594 L 83.550781 697.558594 L 83.550781 687 L 86.109375 687 L 86.109375 684.871094 L 83.550781 684.871094 L 83.550781 683.25 C 83.550781 681.71875 84.109375 680.980469 85.226563 680.980469 C 85.675781 680.980469 86.164063 681.089844 86.613281 681.304688 L 87.152344 679.320313 "/>
<path style=" stroke:none;fill-rule:nonzero;fill:rgb(16.868591%,15.696716%,16.088867%);fill-opacity:1;" d="M 90.910156 697.863281 C 92.421875 697.863281 93.792969 697.089844 94.945313 696.097656 L 95.019531 696.097656 L 95.234375 697.558594 L 97.414063 697.558594 L 97.414063 689.917969 C 97.414063 686.546875 95.953125 684.546875 92.800781 684.546875 C 90.765625 684.546875 89 685.375 87.683594 686.207031 L 88.675781 688.007813 C 89.757813 687.320313 91 686.710938 92.332031 686.710938 C 94.207031 686.710938 94.730469 688.007813 94.765625 689.484375 C 89.46875 690.0625 87.164063 691.464844 87.164063 694.1875 C 87.164063 696.421875 88.710938 697.863281 90.910156 697.863281 Z M 91.722656 695.753906 C 90.585938 695.753906 89.722656 695.25 89.722656 694.007813 C 89.722656 692.582031 91 691.628906 94.765625 691.160156 L 94.765625 694.277344 C 93.722656 695.230469 92.820313 695.753906 91.722656 695.753906 "/>
<path style=" stroke:none;fill-rule:nonzero;fill:rgb(16.868591%,15.696716%,16.088867%);fill-opacity:1;" d="M 104.605469 697.863281 C 107.738281 697.863281 109.433594 696.132813 109.433594 694.007813 C 109.433594 691.609375 107.46875 690.816406 105.683594 690.152344 C 104.296875 689.648438 102.980469 689.230469 102.980469 688.152344 C 102.980469 687.269531 103.628906 686.582031 105.019531 686.582031 C 106.082031 686.582031 106.980469 687.035156 107.863281 687.683594 L 109.109375 686.042969 C 108.0625 685.230469 106.675781 684.546875 104.984375 684.546875 C 102.1875 684.546875 100.476563 686.132813 100.476563 688.257813 C 100.476563 690.402344 102.40625 691.304688 104.101563 691.953125 C 105.488281 692.476563 106.910156 692.996094 106.910156 694.152344 C 106.910156 695.105469 106.191406 695.84375 104.675781 695.84375 C 103.304688 695.84375 102.207031 695.304688 101.070313 694.402344 L 99.828125 696.097656 C 101.054688 697.125 102.855469 697.863281 104.605469 697.863281 "/>
<path style=" stroke:none;fill-rule:nonzero;fill:rgb(16.868591%,15.696716%,16.088867%);fill-opacity:1;" d="M 112.234375 697.558594 L 114.863281 697.558594 L 114.863281 688.566406 C 116 687.429688 116.808594 686.835938 117.980469 686.835938 C 119.476563 686.835938 120.125 687.699219 120.125 689.898438 L 120.125 697.558594 L 122.773438 697.558594 L 122.773438 689.574219 C 122.773438 686.347656 121.582031 684.546875 118.882813 684.546875 C 117.152344 684.546875 115.890625 685.503906 114.773438 686.546875 L 114.863281 684.042969 L 114.863281 679.179688 L 112.234375 679.179688 L 112.234375 697.558594 "/>
<path style=" stroke:none;fill-rule:nonzero;fill:rgb(16.868591%,15.696716%,16.088867%);fill-opacity:1;" d="M 126.554688 697.558594 L 129.1875 697.558594 L 129.1875 684.871094 L 126.554688 684.871094 Z M 127.871094 682.492188 C 128.84375 682.492188 129.582031 681.84375 129.582031 680.925781 C 129.582031 679.988281 128.84375 679.359375 127.871094 679.359375 C 126.914063 679.359375 126.195313 679.988281 126.195313 680.925781 C 126.195313 681.84375 126.914063 682.492188 127.871094 682.492188 "/>
<path style=" stroke:none;fill-rule:nonzero;fill:rgb(16.868591%,15.696716%,16.088867%);fill-opacity:1;" d="M 138.253906 697.863281 C 141.390625 697.863281 144.21875 695.429688 144.21875 691.230469 C 144.21875 687 141.390625 684.546875 138.253906 684.546875 C 135.121094 684.546875 132.273438 687 132.273438 691.230469 C 132.273438 695.429688 135.121094 697.863281 138.253906 697.863281 Z M 138.253906 695.683594 C 136.273438 695.683594 135.03125 693.917969 135.03125 691.230469 C 135.03125 688.546875 136.273438 686.746094 138.253906 686.746094 C 140.253906 686.746094 141.5 688.546875 141.5 691.230469 C 141.5 693.917969 140.253906 695.683594 138.253906 695.683594 "/>
<path style=" stroke:none;fill-rule:nonzero;fill:rgb(16.868591%,15.696716%,16.088867%);fill-opacity:1;" d="M 147.335938 697.558594 L 149.964844 697.558594 L 149.964844 688.566406 C 151.101563 687.429688 151.910156 686.835938 153.082031 686.835938 C 154.578125 686.835938 155.226563 687.699219 155.226563 689.898438 L 155.226563 697.558594 L 157.875 697.558594 L 157.875 689.574219 C 157.875 686.347656 156.6875 684.546875 153.984375 684.546875 C 152.253906 684.546875 150.957031 685.503906 149.785156 686.621094 L 149.710938 686.621094 L 149.515625 684.871094 L 147.335938 684.871094 L 147.335938 697.558594 "/>
<path style=" stroke:none;fill-rule:nonzero;fill:rgb(16.868591%,15.696716%,16.088867%);fill-opacity:1;" d="M 86.054688 757.851563 C 85.0625 757.203125 83.117188 756.175781 81.765625 755.527344 L 80.578125 757.039063 C 81.929688 757.8125 83.855469 758.914063 84.792969 759.578125 Z M 84.882813 764.03125 C 83.910156 763.417969 81.964844 762.390625 80.648438 761.761719 L 79.460938 763.34375 C 80.847656 764.066406 82.757813 765.164063 83.710938 765.8125 Z M 81.730469 776.066406 C 83.082031 773.921875 84.632813 771.164063 85.800781 768.785156 L 84.269531 767.363281 C 82.917969 769.957031 81.152344 772.914063 79.929688 774.644531 Z M 97.117188 773.453125 L 89.476563 773.453125 L 89.476563 769.292969 L 97.117188 769.292969 Z M 100.503906 763.941406 L 100.503906 761.886719 L 94.378906 761.886719 L 94.378906 758.265625 C 96.308594 757.921875 98.109375 757.492188 99.570313 756.929688 L 97.894531 755.273438 C 95.351563 756.210938 90.882813 756.949219 86.9375 757.363281 C 87.191406 757.851563 87.460938 758.660156 87.570313 759.164063 C 89.082031 759.058594 90.738281 758.878906 92.359375 758.625 L 92.359375 761.886719 L 85.945313 761.886719 L 85.945313 763.941406 L 92.359375 763.941406 L 92.359375 767.363281 L 87.515625 767.363281 L 87.515625 776.355469 L 89.476563 776.355469 L 89.476563 775.382813 L 97.117188 775.382813 L 97.117188 776.230469 L 99.136719 776.230469 L 99.136719 767.363281 L 94.378906 767.363281 L 94.378906 763.941406 L 100.503906 763.941406 "/>
<path style=" stroke:none;fill-rule:nonzero;fill:rgb(16.868591%,15.696716%,16.088867%);fill-opacity:1;" d="M 112.972656 760.085938 L 112.972656 755.253906 L 110.722656 755.253906 L 110.722656 760.085938 L 103.460938 760.085938 L 103.460938 762.28125 L 110.597656 762.28125 C 110.253906 766.425781 108.757813 771.328125 102.757813 774.769531 C 103.261719 775.148438 104.074219 775.957031 104.414063 776.5 C 110.972656 772.605469 112.542969 767.039063 112.882813 762.28125 L 120.109375 762.28125 C 119.710938 769.832031 119.226563 772.984375 118.453125 773.722656 C 118.164063 773.992188 117.894531 774.066406 117.386719 774.066406 C 116.8125 774.066406 115.40625 774.066406 113.875 773.921875 C 114.289063 774.570313 114.59375 775.527344 114.632813 776.140625 C 116 776.210938 117.476563 776.230469 118.308594 776.140625 C 119.207031 776.050781 119.804688 775.816406 120.433594 775.074219 C 121.441406 773.902344 121.875 770.5 122.378906 761.148438 C 122.414063 760.859375 122.433594 760.085938 122.433594 760.085938 L 112.972656 760.085938 "/>
<path style=" stroke:none;fill-rule:nonzero;fill:rgb(16.868591%,15.696716%,16.088867%);fill-opacity:1;" d="M 83.242188 802.230469 L 86.308594 802.230469 L 90.703125 789.542969 L 88.109375 789.542969 L 85.945313 796.371094 C 85.605469 797.617188 85.207031 798.914063 84.847656 800.15625 L 84.738281 800.15625 C 84.378906 798.914063 83.984375 797.617188 83.640625 796.371094 L 81.476563 789.542969 L 78.757813 789.542969 L 83.242188 802.230469 "/>
<path style=" stroke:none;fill-rule:nonzero;fill:rgb(16.868591%,15.696716%,16.088867%);fill-opacity:1;" d="M 93.019531 802.230469 L 95.652344 802.230469 L 95.652344 789.542969 L 93.019531 789.542969 Z M 94.335938 787.167969 C 95.308594 787.167969 96.046875 786.515625 96.046875 785.597656 C 96.046875 784.660156 95.308594 784.03125 94.335938 784.03125 C 93.382813 784.03125 92.660156 784.660156 92.660156 785.597656 C 92.660156 786.515625 93.382813 787.167969 94.335938 787.167969 "/>
<path style=" stroke:none;fill-rule:nonzero;fill:rgb(16.868591%,15.696716%,16.088867%);fill-opacity:1;" d="M 103.910156 802.535156 C 104.828125 802.535156 105.695313 802.300781 106.398438 802.066406 L 105.929688 800.101563 C 105.550781 800.265625 104.992188 800.410156 104.558594 800.410156 C 103.242188 800.410156 102.722656 799.617188 102.722656 798.101563 L 102.722656 791.671875 L 106.019531 791.671875 L 106.019531 789.542969 L 102.722656 789.542969 L 102.722656 786.03125 L 100.46875 786.03125 L 100.179688 789.542969 L 98.214844 789.6875 L 98.214844 791.671875 L 100.054688 791.671875 L 100.054688 798.085938 C 100.054688 800.75 101.042969 802.535156 103.910156 802.535156 "/>
<path style=" stroke:none;fill-rule:nonzero;fill:rgb(16.868591%,15.696716%,16.088867%);fill-opacity:1;" d="M 111.226563 802.535156 C 112.742188 802.535156 114.109375 801.761719 115.265625 800.769531 L 115.335938 800.769531 L 115.550781 802.230469 L 117.734375 802.230469 L 117.734375 794.589844 C 117.734375 791.21875 116.273438 789.21875 113.121094 789.21875 C 111.085938 789.21875 109.320313 790.046875 108.003906 790.878906 L 108.992188 792.679688 C 110.074219 791.996094 111.320313 791.382813 112.652344 791.382813 C 114.527344 791.382813 115.046875 792.679688 115.082031 794.15625 C 109.785156 794.734375 107.480469 796.140625 107.480469 798.859375 C 107.480469 801.09375 109.03125 802.535156 111.226563 802.535156 Z M 112.039063 800.425781 C 110.90625 800.425781 110.039063 799.921875 110.039063 798.679688 C 110.039063 797.253906 111.320313 796.300781 115.082031 795.832031 L 115.082031 798.949219 C 114.039063 799.90625 113.136719 800.425781 112.039063 800.425781 "/>
<path style=" stroke:none;fill-rule:nonzero;fill:rgb(16.868591%,15.696716%,16.088867%);fill-opacity:1;" d="M 124.113281 802.535156 C 124.757813 802.535156 125.226563 802.445313 125.550781 802.320313 L 125.191406 800.320313 C 124.976563 800.355469 124.886719 800.355469 124.757813 800.355469 C 124.433594 800.355469 124.113281 800.101563 124.113281 799.398438 L 124.113281 783.851563 L 121.480469 783.851563 L 121.480469 799.253906 C 121.480469 801.308594 122.199219 802.535156 124.113281 802.535156 "/>
<path style=" stroke:none;fill-rule:nonzero;fill:rgb(16.868591%,15.696716%,16.088867%);fill-opacity:1;" d="M 128.355469 802.230469 L 130.984375 802.230469 L 130.984375 789.542969 L 128.355469 789.542969 Z M 129.667969 787.167969 C 130.640625 787.167969 131.378906 786.515625 131.378906 785.597656 C 131.378906 784.660156 130.640625 784.03125 129.667969 784.03125 C 128.714844 784.03125 127.992188 784.660156 127.992188 785.597656 C 127.992188 786.515625 128.714844 787.167969 129.667969 787.167969 "/>
<path style=" stroke:none;fill-rule:nonzero;fill:rgb(16.868591%,15.696716%,16.088867%);fill-opacity:1;" d="M 139.242188 802.535156 C 140.160156 802.535156 141.027344 802.300781 141.730469 802.066406 L 141.261719 800.101563 C 140.882813 800.265625 140.324219 800.410156 139.890625 800.410156 C 138.574219 800.410156 138.054688 799.617188 138.054688 798.101563 L 138.054688 791.671875 L 141.351563 791.671875 L 141.351563 789.542969 L 138.054688 789.542969 L 138.054688 786.03125 L 135.800781 786.03125 L 135.511719 789.542969 L 133.546875 789.6875 L 133.546875 791.671875 L 135.386719 791.671875 L 135.386719 798.085938 C 135.386719 800.75 136.378906 802.535156 139.242188 802.535156 "/>
<path style=" stroke:none;fill-rule:nonzero;fill:rgb(16.868591%,15.696716%,16.088867%);fill-opacity:1;" d="M 154.359375 789.542969 L 151.761719 789.542969 L 149.746094 796.066406 L 148.753906 799.652344 L 148.628906 799.652344 C 148.230469 798.460938 147.851563 797.203125 147.476563 796.066406 L 145.132813 789.542969 L 142.410156 789.542969 L 147.4375 802.140625 L 147.1875 803.023438 C 146.71875 804.371094 145.90625 805.382813 144.519531 805.382813 C 144.195313 805.382813 143.835938 805.273438 143.601563 805.203125 L 143.097656 807.273438 C 143.527344 807.4375 144.050781 807.527344 144.683594 807.527344 C 147.367188 807.527344 148.699219 805.707031 149.691406 802.984375 L 154.359375 789.542969 "/>
<path style=" stroke:none;fill-rule:nonzero;fill:rgb(16.868591%,15.696716%,16.088867%);fill-opacity:1;" d="M 99.855469 862.679688 L 99.855469 860.484375 L 80.109375 860.484375 L 80.109375 862.679688 L 89.839844 862.679688 C 87.621094 866.429688 83.855469 870.121094 79.460938 872.265625 C 79.929688 872.734375 80.59375 873.601563 80.9375 874.175781 C 83.910156 872.609375 86.59375 870.429688 88.8125 867.960938 L 88.8125 880.066406 L 91.136719 880.066406 L 91.136719 865.058594 C 91.695313 864.265625 92.179688 863.457031 92.648438 862.679688 Z M 91.226563 867.5625 C 93.855469 869.4375 97.261719 872.175781 98.8125 873.960938 L 100.613281 872.285156 C 98.9375 870.519531 95.425781 867.90625 92.847656 866.175781 L 91.226563 867.5625 "/>
<path style=" stroke:none;fill-rule:nonzero;fill:rgb(16.868591%,15.696716%,16.088867%);fill-opacity:1;" d="M 120.542969 859.148438 C 116.433594 860.03125 109.476563 860.574219 103.640625 860.808594 C 103.839844 861.277344 104.089844 862.105469 104.144531 862.625 C 109.945313 862.464844 116.992188 861.941406 121.605469 860.988281 Z M 118.074219 868.230469 C 119.152344 866.84375 120.453125 864.824219 121.515625 863.003906 L 119.40625 862.070313 C 118.667969 863.707031 117.316406 865.925781 116.253906 867.3125 Z M 114.503906 866.734375 C 114.34375 865.582031 113.675781 863.90625 112.9375 862.609375 L 111.011719 863.132813 C 111.710938 864.445313 112.308594 866.210938 112.453125 867.3125 Z M 108.613281 867.332031 C 108.21875 866.175781 107.261719 864.429688 106.34375 863.167969 L 104.503906 863.851563 C 105.40625 865.183594 106.34375 866.988281 106.648438 868.140625 Z M 116.453125 871.617188 C 115.785156 873.132813 114.847656 874.285156 113.605469 875.203125 C 112.164063 874.734375 110.667969 874.320313 109.191406 873.925781 C 109.695313 873.242188 110.21875 872.429688 110.722656 871.617188 Z M 123.207031 871.617188 L 123.207031 869.671875 L 111.875 869.671875 C 112.21875 869.058594 112.488281 868.445313 112.777344 867.871094 L 110.597656 867.402344 C 110.269531 868.121094 109.910156 868.898438 109.476563 869.671875 L 102.832031 869.671875 L 102.832031 871.617188 L 108.289063 871.617188 C 107.496094 872.84375 106.648438 874.015625 105.894531 874.914063 C 107.765625 875.402344 109.585938 875.90625 111.316406 876.484375 C 109.191406 877.382813 106.453125 877.871094 102.972656 878.160156 C 103.316406 878.628906 103.660156 879.402344 103.839844 880.015625 C 108.199219 879.582031 111.496094 878.789063 113.984375 877.367188 C 116.523438 878.25 118.792969 879.148438 120.46875 879.980469 L 122.019531 878.25 C 120.378906 877.527344 118.253906 876.71875 115.910156 875.941406 C 117.152344 874.808594 118.089844 873.382813 118.792969 871.617188 L 123.207031 871.617188 "/>
<path style=" stroke:none;fill-rule:nonzero;fill:rgb(16.868591%,15.696716%,16.088867%);fill-opacity:1;" d="M 132.542969 866.265625 L 132.542969 864.285156 L 130.179688 864.285156 L 130.179688 858.933594 L 128.128906 858.933594 L 128.128906 864.285156 L 125.714844 864.285156 L 125.714844 866.265625 L 128.128906 866.265625 L 128.128906 880.085938 L 130.179688 880.085938 L 130.179688 866.265625 Z M 133.242188 867.332031 C 132.882813 869.457031 132.144531 871.5625 131.152344 872.96875 C 131.605469 873.222656 132.414063 873.761719 132.792969 874.050781 C 133.820313 872.5 134.6875 870.105469 135.191406 867.726563 Z M 146.992188 873.90625 C 146.738281 872.285156 146.054688 869.511719 145.40625 867.382813 L 143.695313 867.726563 C 143.710938 866.664063 143.765625 865.511719 143.785156 864.25 L 143.785156 863.222656 L 139.011719 863.222656 L 139.011719 859.132813 L 136.992188 859.132813 L 136.992188 863.222656 L 133.152344 863.222656 L 133.152344 865.3125 L 136.957031 865.3125 C 136.792969 869.601563 135.855469 874.753906 131.0625 878.628906 C 131.585938 878.953125 132.34375 879.65625 132.722656 880.140625 C 137.855469 875.816406 138.828125 870.085938 138.992188 865.3125 L 141.710938 865.3125 C 141.53125 873.671875 141.296875 876.808594 140.738281 877.511719 C 140.503906 877.796875 140.289063 877.871094 139.875 877.871094 C 139.390625 877.871094 138.269531 877.851563 137.027344 877.761719 C 137.40625 878.339844 137.625 879.203125 137.675781 879.816406 C 138.882813 879.851563 140.074219 879.886719 140.8125 879.78125 C 141.570313 879.671875 142.109375 879.472656 142.558594 878.753906 C 143.261719 877.851563 143.496094 875.148438 143.695313 867.976563 C 144.324219 870.121094 144.902344 872.808594 145.101563 874.394531 L 146.992188 873.90625 "/>
<path style=" stroke:none;fill-rule:nonzero;fill:rgb(16.868591%,15.696716%,16.088867%);fill-opacity:1;" d="M 169.046875 862.679688 L 169.046875 860.484375 L 149.296875 860.484375 L 149.296875 862.679688 L 159.027344 862.679688 C 156.8125 866.429688 153.046875 870.121094 148.648438 872.265625 C 149.117188 872.734375 149.785156 873.601563 150.128906 874.175781 C 153.101563 872.609375 155.785156 870.429688 158 867.960938 L 158 880.066406 L 160.324219 880.066406 L 160.324219 865.058594 C 160.882813 864.265625 161.371094 863.457031 161.839844 862.679688 Z M 160.417969 867.5625 C 163.046875 869.4375 166.453125 872.175781 168 873.960938 L 169.804688 872.285156 C 168.128906 870.519531 164.613281 867.90625 162.035156 866.175781 L 160.417969 867.5625 "/>
<path style=" stroke:none;fill-rule:nonzero;fill:rgb(16.868591%,15.696716%,16.088867%);fill-opacity:1;" d="M 174.722656 863.457031 L 189.675781 863.457031 L 189.675781 866.71875 L 191.875 866.71875 L 191.875 861.4375 L 183.804688 861.4375 C 183.53125 860.644531 182.992188 859.5625 182.507813 858.71875 L 180.398438 859.332031 C 180.722656 859.976563 181.082031 860.753906 181.316406 861.4375 L 172.613281 861.4375 L 172.613281 866.71875 L 174.722656 866.71875 Z M 183.316406 873.332031 L 189.910156 873.332031 L 189.910156 871.328125 L 183.316406 871.328125 L 183.316406 867.976563 L 188.757813 867.976563 L 188.757813 865.941406 L 175.785156 865.941406 L 175.785156 867.976563 L 181.101563 867.976563 L 181.101563 876.769531 C 179.496094 876.050781 178.199219 874.824219 177.371094 872.664063 C 177.605469 871.761719 177.769531 870.773438 177.894531 869.761719 L 175.730469 869.527344 C 175.261719 873.582031 174.089844 876.808594 171.585938 878.699219 C 172.074219 879.023438 172.957031 879.761719 173.28125 880.160156 C 174.722656 878.914063 175.804688 877.277344 176.558594 875.3125 C 178.667969 878.988281 181.964844 879.746094 186.503906 879.746094 L 192.019531 879.746094 C 192.109375 879.09375 192.453125 878.085938 192.792969 877.582031 C 191.480469 877.601563 187.640625 877.601563 186.613281 877.601563 C 185.441406 877.601563 184.324219 877.546875 183.316406 877.367188 L 183.316406 873.332031 "/>
<path style=" stroke:none;fill-rule:nonzero;fill:rgb(16.868591%,15.696716%,16.088867%);fill-opacity:1;" d="M 207.335938 864.339844 C 206.8125 862.84375 205.804688 860.609375 204.902344 858.84375 L 203.0625 859.511719 C 203.894531 861.292969 204.9375 863.636719 205.351563 865.148438 Z M 211.820313 860.628906 C 210.488281 864.953125 208.488281 868.789063 205.390625 871.871094 C 202.597656 869.058594 200.46875 865.601563 199.066406 861.726563 L 197.0625 862.355469 C 198.648438 866.644531 200.847656 870.410156 203.75 873.421875 C 201.316406 875.457031 198.324219 877.09375 194.648438 878.25 C 195.027344 878.734375 195.550781 879.5625 195.804688 880.105469 C 199.675781 878.824219 202.777344 877.058594 205.300781 874.914063 C 207.875 877.1875 210.921875 878.933594 214.503906 880.066406 C 214.832031 879.492188 215.496094 878.574219 215.984375 878.121094 C 212.523438 877.132813 209.550781 875.472656 207.011719 873.347656 C 210.253906 870.03125 212.453125 865.941406 214.039063 861.292969 L 211.820313 860.628906 "/>
<path style=" stroke:none;fill-rule:nonzero;fill:rgb(16.868591%,15.696716%,16.088867%);fill-opacity:1;" d="M 80.683594 905.941406 L 83.226563 905.941406 L 83.226563 897.941406 C 83.226563 896.085938 83.011719 894.140625 82.882813 892.375 L 82.992188 892.375 L 84.777344 895.925781 L 90.398438 905.941406 L 93.136719 905.941406 L 93.136719 888.96875 L 90.613281 888.96875 L 90.613281 896.878906 C 90.613281 898.71875 90.8125 900.773438 90.957031 902.539063 L 90.828125 902.539063 L 89.0625 898.933594 L 83.425781 888.96875 L 80.683594 888.96875 L 80.683594 905.941406 "/>
<path style=" stroke:none;fill-rule:nonzero;fill:rgb(16.868591%,15.696716%,16.088867%);fill-opacity:1;" d="M 102.460938 906.25 C 105.59375 906.25 108.425781 903.816406 108.425781 899.617188 C 108.425781 895.382813 105.59375 892.933594 102.460938 892.933594 C 99.324219 892.933594 96.480469 895.382813 96.480469 899.617188 C 96.480469 903.816406 99.324219 906.25 102.460938 906.25 Z M 102.460938 904.070313 C 100.480469 904.070313 99.234375 902.304688 99.234375 899.617188 C 99.234375 896.933594 100.480469 895.132813 102.460938 895.132813 C 104.460938 895.132813 105.703125 896.933594 105.703125 899.617188 C 105.703125 902.304688 104.460938 904.070313 102.460938 904.070313 "/>
<path style=" stroke:none;fill-rule:nonzero;fill:rgb(16.868591%,15.696716%,16.088867%);fill-opacity:1;" d="M 121.902344 906.25 C 123.359375 906.25 124.855469 905.707031 126.007813 904.679688 L 124.929688 902.914063 C 124.171875 903.5625 123.214844 904.070313 122.152344 904.070313 C 120.027344 904.070313 118.585938 902.304688 118.585938 899.617188 C 118.585938 896.933594 120.097656 895.132813 122.226563 895.132813 C 123.109375 895.132813 123.8125 895.492188 124.511719 896.125 L 125.828125 894.394531 C 124.890625 893.582031 123.722656 892.933594 122.117188 892.933594 C 118.765625 892.933594 115.828125 895.382813 115.828125 899.617188 C 115.828125 903.816406 118.460938 906.25 121.902344 906.25 "/>
<path style=" stroke:none;fill-rule:nonzero;fill:rgb(16.868591%,15.696716%,16.088867%);fill-opacity:1;" d="M 133.136719 906.25 C 136.269531 906.25 139.097656 903.816406 139.097656 899.617188 C 139.097656 895.382813 136.269531 892.933594 133.136719 892.933594 C 130 892.933594 127.152344 895.382813 127.152344 899.617188 C 127.152344 903.816406 130 906.25 133.136719 906.25 Z M 133.136719 904.070313 C 131.152344 904.070313 129.910156 902.304688 129.910156 899.617188 C 129.910156 896.933594 131.152344 895.132813 133.136719 895.132813 C 135.132813 895.132813 136.378906 896.933594 136.378906 899.617188 C 136.378906 902.304688 135.132813 904.070313 133.136719 904.070313 "/>
<path style=" stroke:none;fill-rule:nonzero;fill:rgb(16.868591%,15.696716%,16.088867%);fill-opacity:1;" d="M 142.214844 905.941406 L 144.84375 905.941406 L 144.84375 896.949219 C 145.90625 895.796875 146.863281 895.222656 147.710938 895.222656 C 149.167969 895.222656 149.835938 896.085938 149.835938 898.285156 L 149.835938 905.941406 L 152.484375 905.941406 L 152.484375 896.949219 C 153.546875 895.796875 154.46875 895.222656 155.351563 895.222656 C 156.773438 895.222656 157.457031 896.085938 157.457031 898.285156 L 157.457031 905.941406 L 160.125 905.941406 L 160.125 897.960938 C 160.125 894.734375 158.882813 892.933594 156.214844 892.933594 C 154.628906 892.933594 153.332031 893.925781 152.089844 895.257813 C 151.53125 893.816406 150.484375 892.933594 148.59375 892.933594 C 147.023438 892.933594 145.746094 893.886719 144.664063 895.042969 L 144.59375 895.042969 L 144.394531 893.257813 L 142.214844 893.257813 L 142.214844 905.941406 "/>
<path style=" stroke:none;fill-rule:nonzero;fill:rgb(16.868591%,15.696716%,16.088867%);fill-opacity:1;" d="M 163.941406 911.078125 L 166.570313 911.078125 L 166.570313 906.988281 L 166.5 904.808594 C 167.597656 905.726563 168.714844 906.25 169.847656 906.25 C 172.714844 906.25 175.308594 903.746094 175.308594 899.382813 C 175.308594 895.492188 173.527344 892.933594 170.28125 892.933594 C 168.875 892.933594 167.488281 893.726563 166.390625 894.644531 L 166.316406 894.644531 L 166.121094 893.257813 L 163.941406 893.257813 Z M 169.34375 904.050781 C 168.554688 904.050781 167.5625 903.746094 166.570313 902.898438 L 166.570313 896.699219 C 167.652344 895.652344 168.605469 895.148438 169.597656 895.148438 C 171.722656 895.148438 172.570313 896.789063 172.570313 899.4375 C 172.570313 902.410156 171.183594 904.050781 169.34375 904.050781 "/>
<path style=" stroke:none;fill-rule:nonzero;fill:rgb(16.868591%,15.696716%,16.088867%);fill-opacity:1;" d="M 178.46875 905.941406 L 181.101563 905.941406 L 181.101563 898.03125 C 181.910156 896.03125 183.15625 895.3125 184.199219 895.3125 C 184.703125 895.3125 185.027344 895.382813 185.460938 895.511719 L 185.949219 893.203125 C 185.550781 893.023438 185.136719 892.933594 184.523438 892.933594 C 183.15625 892.933594 181.820313 893.90625 180.921875 895.546875 L 180.847656 895.546875 L 180.648438 893.257813 L 178.46875 893.257813 L 178.46875 905.941406 "/>
<path style=" stroke:none;fill-rule:nonzero;fill:rgb(16.868591%,15.696716%,16.088867%);fill-opacity:1;" d="M 192.730469 906.25 C 195.863281 906.25 198.695313 903.816406 198.695313 899.617188 C 198.695313 895.382813 195.863281 892.933594 192.730469 892.933594 C 189.59375 892.933594 186.75 895.382813 186.75 899.617188 C 186.75 903.816406 189.59375 906.25 192.730469 906.25 Z M 192.730469 904.070313 C 190.746094 904.070313 189.503906 902.304688 189.503906 899.617188 C 189.503906 896.933594 190.746094 895.132813 192.730469 895.132813 C 194.730469 895.132813 195.972656 896.933594 195.972656 899.617188 C 195.972656 902.304688 194.730469 904.070313 192.730469 904.070313 "/>
<path style=" stroke:none;fill-rule:nonzero;fill:rgb(16.868591%,15.696716%,16.088867%);fill-opacity:1;" d="M 201.808594 905.941406 L 204.441406 905.941406 L 204.441406 896.949219 C 205.503906 895.796875 206.457031 895.222656 207.304688 895.222656 C 208.765625 895.222656 209.429688 896.085938 209.429688 898.285156 L 209.429688 905.941406 L 212.078125 905.941406 L 212.078125 896.949219 C 213.144531 895.796875 214.0625 895.222656 214.945313 895.222656 C 216.371094 895.222656 217.054688 896.085938 217.054688 898.285156 L 217.054688 905.941406 L 219.71875 905.941406 L 219.71875 897.960938 C 219.71875 894.734375 218.476563 892.933594 215.808594 892.933594 C 214.222656 892.933594 212.925781 893.925781 211.683594 895.257813 C 211.125 893.816406 210.082031 892.933594 208.1875 892.933594 C 206.621094 892.933594 205.339844 893.886719 204.261719 895.042969 L 204.1875 895.042969 L 203.988281 893.257813 L 201.808594 893.257813 L 201.808594 905.941406 "/>
<path style=" stroke:none;fill-rule:nonzero;fill:rgb(16.868591%,15.696716%,16.088867%);fill-opacity:1;" d="M 223.535156 905.941406 L 226.164063 905.941406 L 226.164063 893.257813 L 223.535156 893.257813 Z M 224.851563 890.878906 C 225.824219 890.878906 226.5625 890.230469 226.5625 889.3125 C 226.5625 888.375 225.824219 887.746094 224.851563 887.746094 C 223.894531 887.746094 223.175781 888.375 223.175781 889.3125 C 223.175781 890.230469 223.894531 890.878906 224.851563 890.878906 "/>
<path style=" stroke:none;fill-rule:nonzero;fill:rgb(16.868591%,15.696716%,16.088867%);fill-opacity:1;" d="M 233.597656 906.25 C 236.730469 906.25 238.425781 904.519531 238.425781 902.394531 C 238.425781 899.996094 236.460938 899.203125 234.675781 898.535156 C 233.289063 898.03125 231.972656 897.617188 231.972656 896.535156 C 231.972656 895.652344 232.625 894.96875 234.011719 894.96875 C 235.074219 894.96875 235.972656 895.421875 236.855469 896.066406 L 238.101563 894.429688 C 237.054688 893.617188 235.667969 892.933594 233.972656 892.933594 C 231.179688 892.933594 229.46875 894.519531 229.46875 896.644531 C 229.46875 898.789063 231.398438 899.691406 233.089844 900.339844 C 234.480469 900.863281 235.902344 901.382813 235.902344 902.539063 C 235.902344 903.492188 235.183594 904.230469 233.667969 904.230469 C 232.296875 904.230469 231.199219 903.691406 230.066406 902.789063 L 228.820313 904.484375 C 230.046875 905.511719 231.847656 906.25 233.597656 906.25 "/>
<path style=" stroke:none;fill-rule:nonzero;fill:rgb(16.868591%,15.696716%,16.088867%);fill-opacity:1;" d="M 246.503906 906.25 C 248.179688 906.25 249.621094 905.691406 250.808594 904.898438 L 249.875 903.222656 C 248.953125 903.816406 247.980469 904.160156 246.863281 904.160156 C 244.664063 904.160156 243.152344 902.71875 242.9375 900.285156 L 251.171875 900.285156 C 251.242188 899.996094 251.277344 899.457031 251.277344 898.953125 C 251.277344 895.347656 249.496094 892.933594 246.125 892.933594 C 243.152344 892.933594 240.324219 895.492188 240.324219 899.617188 C 240.324219 903.796875 243.082031 906.25 246.503906 906.25 Z M 242.917969 898.464844 C 243.171875 896.230469 244.574219 895.003906 246.160156 895.003906 C 248.019531 895.003906 249.007813 896.285156 249.007813 898.464844 L 242.917969 898.464844 "/>
<path style=" stroke:none;fill-rule:nonzero;fill:rgb(16.868591%,15.696716%,16.088867%);fill-opacity:1;" d="M 254.074219 910.554688 C 256.453125 909.65625 257.859375 907.78125 257.859375 905.367188 C 257.859375 903.582031 257.101563 902.5 255.804688 902.5 C 254.796875 902.5 253.96875 903.167969 253.96875 904.214844 C 253.96875 905.3125 254.796875 905.925781 255.734375 905.925781 C 255.824219 905.925781 255.894531 905.925781 255.984375 905.886719 C 255.96875 907.257813 255.046875 908.410156 253.480469 909.058594 L 254.074219 910.554688 "/>
<path style=" stroke:none;fill-rule:nonzero;fill:rgb(16.868591%,15.696716%,16.088867%);fill-opacity:1;" d="M 266.316406 905.941406 L 268.949219 905.941406 L 268.949219 896.949219 C 270.082031 895.816406 270.894531 895.222656 272.066406 895.222656 C 273.5625 895.222656 274.210938 896.085938 274.210938 898.285156 L 274.210938 905.941406 L 276.859375 905.941406 L 276.859375 897.960938 C 276.859375 894.734375 275.667969 892.933594 272.964844 892.933594 C 271.238281 892.933594 269.941406 893.886719 268.769531 895.003906 L 268.695313 895.003906 L 268.5 893.257813 L 266.316406 893.257813 L 266.316406 905.941406 "/>
<path style=" stroke:none;fill-rule:nonzero;fill:rgb(16.868591%,15.696716%,16.088867%);fill-opacity:1;" d="M 285.789063 906.25 C 288.925781 906.25 291.753906 903.816406 291.753906 899.617188 C 291.753906 895.382813 288.925781 892.933594 285.789063 892.933594 C 282.65625 892.933594 279.808594 895.382813 279.808594 899.617188 C 279.808594 903.816406 282.65625 906.25 285.789063 906.25 Z M 285.789063 904.070313 C 283.808594 904.070313 282.5625 902.304688 282.5625 899.617188 C 282.5625 896.933594 283.808594 895.132813 285.789063 895.132813 C 287.789063 895.132813 289.035156 896.933594 289.035156 899.617188 C 289.035156 902.304688 287.789063 904.070313 285.789063 904.070313 "/>
<path style=" stroke:none;fill-rule:nonzero;fill:rgb(16.868591%,15.696716%,16.088867%);fill-opacity:1;" d="M 304.457031 906.25 C 305.878906 906.25 307.195313 905.472656 308.132813 904.519531 L 308.203125 904.519531 L 308.4375 905.941406 L 310.597656 905.941406 L 310.597656 887.5625 L 307.949219 887.5625 L 307.949219 892.265625 L 308.078125 894.355469 C 307.03125 893.492188 306.113281 892.933594 304.652344 892.933594 C 301.824219 892.933594 299.210938 895.492188 299.210938 899.617188 C 299.210938 903.816406 301.265625 906.25 304.457031 906.25 Z M 305.066406 904.050781 C 303.085938 904.050781 301.949219 902.464844 301.949219 899.582031 C 301.949219 896.824219 303.390625 895.148438 305.160156 895.148438 C 306.113281 895.148438 307.015625 895.457031 307.949219 896.304688 L 307.949219 902.5 C 307.03125 903.5625 306.132813 904.050781 305.066406 904.050781 "/>
<path style=" stroke:none;fill-rule:nonzero;fill:rgb(16.868591%,15.696716%,16.088867%);fill-opacity:1;" d="M 319.867188 906.25 C 321.542969 906.25 322.984375 905.691406 324.175781 904.898438 L 323.238281 903.222656 C 322.320313 903.816406 321.34375 904.160156 320.226563 904.160156 C 318.03125 904.160156 316.515625 902.71875 316.300781 900.285156 L 324.535156 900.285156 C 324.605469 899.996094 324.644531 899.457031 324.644531 898.953125 C 324.644531 895.347656 322.859375 892.933594 319.488281 892.933594 C 316.515625 892.933594 313.6875 895.492188 313.6875 899.617188 C 313.6875 903.796875 316.445313 906.25 319.867188 906.25 Z M 316.28125 898.464844 C 316.535156 896.230469 317.941406 895.003906 319.527344 895.003906 C 321.382813 895.003906 322.375 896.285156 322.375 898.464844 L 316.28125 898.464844 "/>
<path style=" stroke:none;fill-rule:nonzero;fill:rgb(16.868591%,15.696716%,16.088867%);fill-opacity:1;" d="M 328 893.257813 L 326.269531 893.402344 L 326.269531 895.382813 L 328 895.382813 L 328 905.941406 L 330.648438 905.941406 L 330.648438 895.382813 L 333.207031 895.382813 L 333.207031 893.257813 L 330.648438 893.257813 L 330.648438 891.636719 C 330.648438 890.105469 331.207031 889.367188 332.324219 889.367188 C 332.773438 889.367188 333.257813 889.472656 333.710938 889.691406 L 334.25 887.707031 C 333.675781 887.4375 332.863281 887.257813 332 887.257813 C 329.171875 887.257813 328 889.058594 328 891.671875 Z M 337.3125 890.878906 C 338.285156 890.878906 339.027344 890.230469 339.027344 889.3125 C 339.027344 888.375 338.285156 887.746094 337.3125 887.746094 C 336.339844 887.746094 335.601563 888.375 335.601563 889.3125 C 335.601563 890.230469 336.339844 890.878906 337.3125 890.878906 Z M 335.980469 905.941406 L 338.628906 905.941406 L 338.628906 893.257813 L 335.980469 893.257813 L 335.980469 905.941406 "/>
<path style=" stroke:none;fill-rule:nonzero;fill:rgb(16.868591%,15.696716%,16.088867%);fill-opacity:1;" d="M 342.609375 905.941406 L 345.238281 905.941406 L 345.238281 896.949219 C 346.375 895.816406 347.183594 895.222656 348.355469 895.222656 C 349.851563 895.222656 350.5 896.085938 350.5 898.285156 L 350.5 905.941406 L 353.148438 905.941406 L 353.148438 897.960938 C 353.148438 894.734375 351.960938 892.933594 349.257813 892.933594 C 347.527344 892.933594 346.230469 893.886719 345.058594 895.003906 L 344.988281 895.003906 L 344.789063 893.257813 L 342.609375 893.257813 L 342.609375 905.941406 "/>
<path style=" stroke:none;fill-rule:nonzero;fill:rgb(16.868591%,15.696716%,16.088867%);fill-opacity:1;" d="M 357 905.941406 L 359.628906 905.941406 L 359.628906 893.257813 L 357 893.257813 Z M 358.316406 890.878906 C 359.289063 890.878906 360.027344 890.230469 360.027344 889.3125 C 360.027344 888.375 359.289063 887.746094 358.316406 887.746094 C 357.359375 887.746094 356.640625 888.375 356.640625 889.3125 C 356.640625 890.230469 357.359375 890.878906 358.316406 890.878906 "/>
<path style=" stroke:none;fill-rule:nonzero;fill:rgb(16.868591%,15.696716%,16.088867%);fill-opacity:1;" d="M 367.890625 906.25 C 368.808594 906.25 369.671875 906.015625 370.375 905.78125 L 369.90625 903.816406 C 369.527344 903.980469 368.96875 904.121094 368.539063 904.121094 C 367.222656 904.121094 366.699219 903.328125 366.699219 901.816406 L 366.699219 895.382813 L 369.996094 895.382813 L 369.996094 893.257813 L 366.699219 893.257813 L 366.699219 889.746094 L 364.449219 889.746094 L 364.160156 893.257813 L 362.195313 893.402344 L 362.195313 895.382813 L 364.03125 895.382813 L 364.03125 901.796875 C 364.03125 904.464844 365.023438 906.25 367.890625 906.25 "/>
<path style=" stroke:none;fill-rule:nonzero;fill:rgb(16.868591%,15.696716%,16.088867%);fill-opacity:1;" d="M 372.75 905.941406 L 375.382813 905.941406 L 375.382813 893.257813 L 372.75 893.257813 Z M 374.066406 890.878906 C 375.039063 890.878906 375.777344 890.230469 375.777344 889.3125 C 375.777344 888.375 375.039063 887.746094 374.066406 887.746094 C 373.113281 887.746094 372.390625 888.375 372.390625 889.3125 C 372.390625 890.230469 373.113281 890.878906 374.066406 890.878906 "/>
<path style=" stroke:none;fill-rule:nonzero;fill:rgb(16.868591%,15.696716%,16.088867%);fill-opacity:1;" d="M 384.453125 906.25 C 387.585938 906.25 390.414063 903.816406 390.414063 899.617188 C 390.414063 895.382813 387.585938 892.933594 384.453125 892.933594 C 381.316406 892.933594 378.46875 895.382813 378.46875 899.617188 C 378.46875 903.816406 381.316406 906.25 384.453125 906.25 Z M 384.453125 904.070313 C 382.46875 904.070313 381.226563 902.304688 381.226563 899.617188 C 381.226563 896.933594 382.46875 895.132813 384.453125 895.132813 C 386.453125 895.132813 387.695313 896.933594 387.695313 899.617188 C 387.695313 902.304688 386.453125 904.070313 384.453125 904.070313 "/>
<path style=" stroke:none;fill-rule:nonzero;fill:rgb(16.868591%,15.696716%,16.088867%);fill-opacity:1;" d="M 393.53125 905.941406 L 396.160156 905.941406 L 396.160156 896.949219 C 397.296875 895.816406 398.109375 895.222656 399.28125 895.222656 C 400.773438 895.222656 401.425781 896.085938 401.425781 898.285156 L 401.425781 905.941406 L 404.074219 905.941406 L 404.074219 897.960938 C 404.074219 894.734375 402.882813 892.933594 400.179688 892.933594 C 398.449219 892.933594 397.152344 893.886719 395.980469 895.003906 L 395.910156 895.003906 L 395.710938 893.257813 L 393.53125 893.257813 L 393.53125 905.941406 "/>
<path style=" stroke:none;fill-rule:nonzero;fill:rgb(21.946716%,21.580505%,21.946716%);fill-opacity:1;" d="M 654.027344 921.207031 L 651.089844 924.234375 L 651.089844 925.625 L 657.25 925.625 L 657.25 923.929688 L 653.792969 923.929688 L 655.449219 922.273438 C 656.351563 921.351563 657.015625 920.453125 657.015625 919.570313 C 657.015625 918.289063 655.828125 917.441406 654.207031 917.441406 C 653.015625 917.441406 651.898438 917.894531 650.855469 918.652344 L 651.648438 920.21875 C 652.402344 919.585938 653.234375 919.191406 653.882813 919.191406 C 654.476563 919.191406 654.820313 919.441406 654.820313 919.875 C 654.820313 920.21875 654.476563 920.742188 654.027344 921.207031 "/>
<path style=" stroke:none;fill-rule:nonzero;fill:rgb(21.946716%,21.580505%,21.946716%);fill-opacity:1;" d="M 657.539063 917.535156 L 657.539063 920.363281 L 659.394531 920.363281 L 659.394531 919.226563 L 661.664063 919.226563 L 658.707031 925.625 L 660.925781 925.625 L 663.96875 918.992188 L 663.96875 917.535156 L 657.539063 917.535156 "/>
<path style=" stroke:none;fill-rule:nonzero;fill:rgb(21.946716%,21.580505%,21.946716%);fill-opacity:1;" d="M 605.019531 917.535156 L 605.019531 925.625 L 607.128906 925.625 L 607.128906 922.703125 L 610.75 922.703125 L 610.75 921.027344 L 607.128906 921.027344 L 607.128906 919.226563 L 611.039063 919.226563 L 611.054688 917.535156 L 605.019531 917.535156 "/>
<path style=" stroke:none;fill-rule:nonzero;fill:rgb(21.946716%,21.580505%,21.946716%);fill-opacity:1;" d="M 613.480469 920.417969 L 613.480469 919.390625 L 611.445313 919.390625 L 611.445313 925.625 L 613.480469 925.625 L 613.480469 922.433594 C 613.585938 921.570313 614.34375 921.066406 615.5 921.191406 L 615.5 919.296875 C 614.617188 919.296875 613.914063 919.714844 613.480469 920.417969 "/>
<path style=" stroke:none;fill-rule:nonzero;fill:rgb(21.946716%,21.580505%,21.946716%);fill-opacity:1;" d="M 618.566406 919.316406 C 616.617188 919.316406 615.304688 920.597656 615.304688 922.523438 C 615.304688 924.433594 616.566406 925.695313 618.601563 925.695313 C 619.753906 925.695313 620.691406 925.296875 621.320313 924.578125 L 620.257813 923.515625 C 619.84375 923.929688 619.320313 924.144531 618.796875 924.144531 C 618.097656 924.144531 617.574219 923.75 617.375 923.046875 L 621.71875 923.046875 C 621.84375 920.777344 620.746094 919.316406 618.566406 919.316406 Z M 617.320313 921.949219 C 617.464844 921.246094 617.898438 920.757813 618.566406 920.757813 C 619.265625 920.757813 619.71875 921.246094 619.71875 921.949219 L 617.320313 921.949219 "/>
<path style=" stroke:none;fill-rule:nonzero;fill:rgb(21.946716%,21.580505%,21.946716%);fill-opacity:1;" d="M 624.941406 919.316406 C 622.996094 919.316406 621.679688 920.597656 621.679688 922.523438 C 621.679688 924.433594 622.941406 925.695313 624.976563 925.695313 C 626.128906 925.695313 627.066406 925.296875 627.699219 924.578125 L 626.636719 923.515625 C 626.222656 923.929688 625.699219 924.144531 625.175781 924.144531 C 624.472656 924.144531 623.949219 923.75 623.753906 923.046875 L 628.09375 923.046875 C 628.222656 920.777344 627.121094 919.316406 624.941406 919.316406 Z M 623.699219 921.949219 C 623.84375 921.246094 624.273438 920.757813 624.941406 920.757813 C 625.644531 920.757813 626.09375 921.246094 626.09375 921.949219 L 623.699219 921.949219 "/>
<path style=" stroke:none;fill-rule:nonzero;fill:rgb(21.946716%,21.580505%,21.946716%);fill-opacity:1;" d="M 632.597656 921.660156 L 634.074219 920.792969 C 633.535156 919.855469 632.542969 919.316406 631.300781 919.316406 C 629.355469 919.316406 628.058594 920.597656 628.058594 922.523438 C 628.058594 924.433594 629.335938 925.695313 631.265625 925.695313 C 632.597656 925.695313 633.605469 925.15625 634.109375 924.199219 L 632.597656 923.335938 C 632.34375 923.820313 631.914063 924.039063 631.371094 924.039063 C 630.632813 924.039063 630.128906 923.425781 630.128906 922.523438 C 630.128906 921.625 630.632813 921.011719 631.371094 921.011719 C 631.894531 921.011719 632.328125 921.246094 632.597656 921.660156 "/>
<path style=" stroke:none;fill-rule:nonzero;fill:rgb(21.946716%,21.580505%,21.946716%);fill-opacity:1;" d="M 637.195313 919.316406 C 635.140625 919.316406 633.789063 920.578125 633.789063 922.507813 C 633.789063 924.417969 635.140625 925.695313 637.195313 925.695313 C 639.246094 925.695313 640.617188 924.417969 640.617188 922.507813 C 640.617188 920.578125 639.246094 919.316406 637.195313 919.316406 Z M 637.195313 920.976563 C 638.003906 920.976563 638.546875 921.605469 638.546875 922.523438 C 638.546875 923.460938 638.003906 924.074219 637.195313 924.074219 C 636.402344 924.074219 635.859375 923.460938 635.859375 922.523438 C 635.859375 921.605469 636.402344 920.976563 637.195313 920.976563 "/>
</g>
</svg>
