<?xml version="1.0" encoding="UTF-8"?>
<svg xmlns="http://www.w3.org/2000/svg" xmlns:xlink="http://www.w3.org/1999/xlink" width="707.04pt" height="1000.08pt" viewBox="0 0 707.04 1000.08" version="1.2">
<defs>
<clipPath id="clip1">
  <path d="M 0 0.21875 L 706.042969 0.21875 L 706.042969 998.792969 L 0 998.792969 Z M 0 0.21875 "/>
</clipPath>
<clipPath id="clip2">
  <path d="M 0 0.21875 L 706 0.21875 L 706 998 L 0 998 Z M 0 0.21875 "/>
</clipPath>
<clipPath id="clip3">
  <path d="M 0 0.21875 L 705.734375 0.21875 L 705.734375 997.429688 L 0 997.429688 Z M 0 0.21875 "/>
</clipPath>
<clipPath id="clip4">
  <path d="M 0 349 L 704.878906 349 L 704.878906 745.984375 L 0 745.984375 Z M 0 349 "/>
</clipPath>
</defs>
<g id="surface1">
<g clip-path="url(#clip1)" clip-rule="nonzero">
<path style=" stroke:none;fill-rule:nonzero;fill:rgb(100%,100%,100%);fill-opacity:1;" d="M 0 998.792969 L 706.042969 998.792969 L 706.042969 0.21875 L 0 0.21875 Z M 0 998.792969 "/>
</g>
<g clip-path="url(#clip2)" clip-rule="nonzero">
<path style=" stroke:none;fill-rule:nonzero;fill:rgb(100%,100%,100%);fill-opacity:1;" d="M 0 997.429688 L 705.734375 997.429688 L 705.734375 0.21875 L 0 0.21875 Z M 0 997.429688 "/>
</g>
<g clip-path="url(#clip3)" clip-rule="nonzero">
<path style=" stroke:none;fill-rule:nonzero;fill:rgb(100%,100%,100%);fill-opacity:1;" d="M 0 997.429688 L 705.734375 997.429688 L 705.734375 0.21875 L 0 0.21875 Z M 0 997.429688 "/>
</g>
<g clip-path="url(#clip4)" clip-rule="nonzero">
<path style=" stroke:none;fill-rule:nonzero;fill:rgb(94.139099%,51.756287%,38.818359%);fill-opacity:1;" d="M 0 745.292969 L 704.875 745.292969 L 704.875 349.222656 L 0 349.222656 L 0 745.292969 "/>
</g>
<path style=" stroke:none;fill-rule:nonzero;fill:rgb(94.139099%,51.756287%,38.818359%);fill-opacity:1;" d="M 43.632813 955.078125 L 663.253906 955.078125 L 663.253906 43.441406 L 43.632813 43.441406 L 43.632813 955.078125 "/>
<path style=" stroke:none;fill-rule:nonzero;fill:rgb(100%,100%,100%);fill-opacity:1;" d="M 97.671875 750.445313 C 96.007813 748.277344 94.726563 743.925781 94.726563 737.199219 L 94.726563 718.863281 C 95.507813 718.863281 96.96875 719.046875 97.933594 719.4375 C 101.25 720.714844 103.933594 723.84375 109.046875 729.347656 L 109.121094 729.347656 L 109.121094 719.695313 L 103.675781 719.695313 C 96.394531 719.695313 94.46875 716.101563 94.46875 712.46875 C 94.46875 708.878906 96.710938 706.449219 100.101563 706.449219 C 105.859375 706.449219 109.695313 711.25 112.121094 716.230469 L 112.253906 716.230469 L 111.808594 705.691406 L 81.5 705.691406 C 83.152344 707.859375 84.429688 712.210938 84.429688 718.917969 L 84.429688 737.199219 C 84.429688 743.925781 83.152344 748.277344 81.5 750.445313 L 97.671875 750.445313 "/>
<path style=" stroke:none;fill-rule:nonzero;fill:rgb(100%,100%,100%);fill-opacity:1;" d="M 110.082031 724.03125 C 111.101563 724.734375 113.136719 727.234375 113.007813 733.625 L 112.636719 750.445313 L 125.605469 750.445313 C 124.140625 749.222656 122.605469 745.648438 122.605469 739.257813 L 122.605469 734.328125 C 122.605469 727.550781 129.699219 726.53125 133.921875 727.421875 L 135.90625 717.953125 C 127.847656 718.730469 124.011719 723.140625 122.605469 730.550781 L 122.605469 717.953125 L 110.082031 723.789063 L 110.082031 724.03125 "/>
<path style=" stroke:none;fill-rule:nonzero;fill:rgb(100%,100%,100%);fill-opacity:1;" d="M 132.398438 734.589844 C 132.398438 743.925781 139.679688 750.964844 149.070313 750.964844 C 157.777344 750.964844 163.855469 744.109375 164.558594 736.050781 C 165.261719 744.628906 172.300781 750.964844 181.175781 750.964844 C 190.324219 750.964844 196.585938 743.351563 196.71875 734.773438 L 196.585938 734.773438 C 195.699219 740.222656 191.605469 743.351563 186.417969 743.351563 C 179.453125 743.351563 173.894531 738.683594 173.894531 731.585938 C 173.894531 731.125 173.949219 730.679688 173.949219 730.238281 L 193.976563 730.238281 C 193.976563 721.679688 187.324219 717.953125 181.046875 717.953125 C 171.914063 717.953125 164.484375 724.808594 164.484375 734.589844 C 163.59375 740.144531 159.628906 743.351563 154.332031 743.351563 C 147.347656 743.351563 141.792969 738.683594 141.792969 731.585938 C 141.792969 731.125 141.847656 730.679688 141.847656 730.238281 L 161.871094 730.238281 C 161.871094 721.679688 155.222656 717.953125 148.960938 717.953125 C 139.808594 717.953125 132.398438 724.808594 132.398438 734.589844 Z M 141.847656 729.605469 C 142.421875 723.898438 145.183594 718.863281 149.847656 718.863281 C 152.664063 718.863281 154 720.972656 154 723.011719 C 154 727.625 151.257813 729.605469 145.109375 729.605469 Z M 173.949219 729.605469 C 174.523438 723.898438 177.285156 718.863281 181.953125 718.863281 C 184.769531 718.863281 186.101563 720.972656 186.101563 723.011719 C 186.101563 727.625 183.359375 729.605469 177.210938 729.605469 L 173.949219 729.605469 "/>
<path style=" stroke:none;fill-rule:nonzero;fill:rgb(100%,100%,100%);fill-opacity:1;" d="M 205.550781 728.070313 C 205.550781 741.683594 216.480469 750.964844 230.167969 750.964844 C 242.191406 750.964844 248.582031 742.574219 251.136719 735.609375 L 250.878906 735.476563 C 247.75 742.703125 240.78125 744.109375 237.1875 744.109375 C 225.167969 744.109375 215.386719 734.976563 215.386719 721.679688 C 215.386719 713.042969 219.609375 706.503906 227.667969 706.503906 C 237.449219 706.503906 245.449219 717.25 248.324219 726.53125 L 248.453125 726.53125 L 248.453125 710.101563 C 243.785156 707.210938 237.632813 705.171875 230.984375 705.171875 C 216.738281 705.171875 205.550781 714.507813 205.550781 728.070313 "/>
<path style=" stroke:none;fill-rule:nonzero;fill:rgb(100%,100%,100%);fill-opacity:1;" d="M 247.625 734.402344 C 247.625 743.667969 254.957031 750.964844 264.109375 750.964844 C 273.316406 750.964844 280.613281 743.609375 280.613281 734.460938 C 280.613281 725.308594 273.261719 717.953125 264.183594 717.953125 C 255.035156 717.953125 247.625 725.253906 247.625 734.402344 Z M 255.867188 725.566406 C 255.867188 721.992188 257.070313 719.492188 259.386719 719.492188 C 265.832031 719.492188 272.429688 734.71875 272.429688 743.148438 C 272.429688 747.054688 271.074219 749.554688 268.648438 749.425781 C 262.3125 748.90625 255.867188 733.8125 255.867188 725.566406 "/>
<path style=" stroke:none;fill-rule:nonzero;fill:rgb(100%,100%,100%);fill-opacity:1;" d="M 283.671875 751.539063 C 287.003906 751.539063 289.375 749.039063 289.375 745.832031 C 289.375 742.703125 287.003906 740.015625 283.671875 740.015625 C 280.410156 740.015625 277.855469 742.703125 277.855469 745.832031 C 277.855469 749.039063 280.410156 751.539063 283.671875 751.539063 "/>
</g>
</svg>
