<?xml version="1.0" encoding="UTF-8"?>
<svg xmlns="http://www.w3.org/2000/svg" xmlns:xlink="http://www.w3.org/1999/xlink" width="707.04pt" height="1000.08pt" viewBox="0 0 707.04 1000.08" version="1.2">
<defs>
<clipPath id="clip1">
  <path d="M 0 0.21875 L 706.042969 0.21875 L 706.042969 998.792969 L 0 998.792969 Z M 0 0.21875 "/>
</clipPath>
<clipPath id="clip2">
  <path d="M 0 0.21875 L 706 0.21875 L 706 998 L 0 998 Z M 0 0.21875 "/>
</clipPath>
</defs>
<g id="surface1">
<g clip-path="url(#clip1)" clip-rule="nonzero">
<path style=" stroke:none;fill-rule:nonzero;fill:rgb(100%,100%,100%);fill-opacity:1;" d="M 0 998.792969 L 706.042969 998.792969 L 706.042969 0.21875 L 0 0.21875 Z M 0 998.792969 "/>
</g>
<g clip-path="url(#clip2)" clip-rule="nonzero">
<path style=" stroke:none;fill-rule:nonzero;fill:rgb(100%,100%,100%);fill-opacity:1;" d="M 0 997.429688 L 705.734375 997.429688 L 705.734375 0.21875 L 0 0.21875 Z M 0 997.429688 "/>
</g>
<path style=" stroke:none;fill-rule:nonzero;fill:rgb(16.868591%,15.696716%,16.088867%);fill-opacity:1;" d="M 93.4375 243.933594 C 92.390625 246.777344 90.96875 249.121094 89.09375 251.066406 C 87.128906 249.03125 85.597656 246.652344 84.480469 243.933594 Z M 99.398438 243.933594 L 99.398438 241.859375 L 89.058594 241.859375 L 91.09375 241.210938 C 90.804688 240.273438 90.066406 238.796875 89.398438 237.714844 L 87.128906 238.382813 C 87.757813 239.460938 88.410156 240.921875 88.679688 241.859375 L 78.695313 241.859375 L 78.695313 243.933594 L 82.246094 243.933594 C 83.542969 247.300781 85.238281 250.183594 87.488281 252.5625 C 85.039063 254.582031 82.011719 256.003906 78.300781 256.996094 C 78.734375 257.5 79.382813 258.492188 79.632813 259.050781 C 83.382813 257.894531 86.515625 256.273438 89.074219 254.113281 C 91.5625 256.273438 94.625 257.914063 98.300781 258.90625 C 98.644531 258.292969 99.273438 257.390625 99.742188 256.921875 C 96.191406 256.039063 93.203125 254.542969 90.734375 252.542969 C 92.894531 250.238281 94.605469 247.425781 95.832031 243.933594 L 99.398438 243.933594 "/>
<path style=" stroke:none;fill-rule:nonzero;fill:rgb(16.868591%,15.696716%,16.088867%);fill-opacity:1;" d="M 112.011719 252.796875 L 112.011719 244.726563 L 112.28125 244.726563 C 113.398438 247.714844 115.019531 250.582031 116.949219 252.796875 Z M 104.734375 252.796875 C 106.695313 250.582031 108.335938 247.75 109.453125 244.726563 L 109.761719 244.726563 L 109.761719 252.796875 Z M 120.96875 244.726563 L 120.96875 242.5625 L 112.011719 242.5625 L 112.011719 237.894531 L 109.761719 237.894531 L 109.761719 242.5625 L 100.929688 242.5625 L 100.929688 244.726563 L 107.292969 244.726563 C 105.722656 248.4375 103.109375 251.949219 100.210938 253.789063 C 100.75 254.21875 101.433594 254.996094 101.796875 255.535156 C 102.789063 254.796875 103.742188 253.933594 104.660156 252.90625 L 104.660156 254.957031 L 109.761719 254.957031 L 109.761719 259.050781 L 112.011719 259.050781 L 112.011719 254.957031 L 117.109375 254.957031 L 117.109375 252.960938 C 117.976563 253.933594 118.914063 254.777344 119.902344 255.464844 C 120.28125 254.851563 121.058594 254.023438 121.597656 253.570313 C 118.644531 251.789063 116.011719 248.363281 114.425781 244.726563 L 120.96875 244.726563 "/>
<path style=" stroke:none;fill-rule:nonzero;fill:rgb(16.868591%,15.696716%,16.088867%);fill-opacity:1;" d="M 125.238281 242.203125 L 140.300781 242.203125 L 140.300781 245.121094 L 142.480469 245.121094 L 142.480469 240.183594 L 134.480469 240.183594 C 134.15625 239.429688 133.578125 238.472656 133.003906 237.714844 L 130.914063 238.382813 C 131.273438 238.90625 131.652344 239.589844 131.941406 240.183594 L 123.128906 240.183594 L 123.128906 245.121094 L 125.238281 245.121094 Z M 142.695313 250.183594 L 133.957031 250.183594 L 133.957031 249.570313 C 135.921875 248.4375 137.851563 246.941406 139.257813 245.5 L 137.796875 244.398438 L 137.328125 244.507813 L 126.75 244.507813 L 126.75 246.507813 L 135.148438 246.507813 C 134.121094 247.375 132.839844 248.273438 131.671875 248.851563 L 131.671875 250.183594 L 122.929688 250.183594 L 122.929688 252.238281 L 131.671875 252.238281 L 131.671875 256.492188 C 131.671875 256.8125 131.527344 256.921875 131.109375 256.921875 C 130.679688 256.941406 129.09375 256.941406 127.632813 256.90625 C 127.976563 257.464844 128.425781 258.417969 128.550781 259.050781 C 130.445313 259.050781 131.777344 259.03125 132.714844 258.671875 C 133.652344 258.347656 133.957031 257.753906 133.957031 256.5625 L 133.957031 252.238281 L 142.695313 252.238281 L 142.695313 250.183594 "/>
<path style=" stroke:none;fill-rule:nonzero;fill:rgb(16.868591%,15.696716%,16.088867%);fill-opacity:1;" d="M 148.75 238.003906 C 147.652344 241.355469 145.851563 244.726563 143.867188 246.886719 C 144.246094 247.375 144.859375 248.542969 145.074219 249.066406 C 145.652344 248.363281 146.191406 247.625 146.769531 246.796875 L 146.769531 259.03125 L 148.824219 259.03125 L 148.824219 243.246094 C 149.5625 241.734375 150.265625 240.164063 150.769531 238.578125 Z M 165.128906 244.328125 L 165.128906 242.308594 L 158.535156 242.308594 L 158.535156 238.003906 L 156.445313 238.003906 L 156.445313 242.308594 L 150.265625 242.308594 L 150.265625 244.328125 L 155.308594 244.328125 C 153.941406 248.113281 151.6875 251.878906 149.238281 253.894531 C 149.707031 254.273438 150.445313 255.011719 150.769531 255.535156 C 153.019531 253.371094 155.039063 249.894531 156.445313 246.113281 L 156.445313 253.050781 L 153.003906 253.050781 L 153.003906 254.996094 L 156.445313 254.996094 L 156.445313 258.921875 L 158.535156 258.921875 L 158.535156 254.996094 L 161.960938 254.996094 L 161.960938 253.050781 L 158.535156 253.050781 L 158.535156 245.96875 C 159.902344 249.734375 161.886719 253.320313 164.046875 255.464844 C 164.445313 254.886719 165.164063 254.148438 165.6875 253.769531 C 163.308594 251.753906 161.058594 248.039063 159.742188 244.328125 L 165.128906 244.328125 "/>
<path style=" stroke:none;fill-rule:nonzero;fill:rgb(16.868591%,15.696716%,16.088867%);fill-opacity:1;" d="M 83.164063 284.921875 L 85.851563 284.921875 L 85.851563 270.183594 L 90.839844 270.183594 L 90.839844 267.949219 L 78.191406 267.949219 L 78.191406 270.183594 L 83.164063 270.183594 L 83.164063 284.921875 "/>
<path style=" stroke:none;fill-rule:nonzero;fill:rgb(16.868591%,15.696716%,16.088867%);fill-opacity:1;" d="M 95.867188 285.230469 C 97.542969 285.230469 98.984375 284.671875 100.171875 283.878906 L 99.238281 282.203125 C 98.316406 282.796875 97.34375 283.140625 96.226563 283.140625 C 94.03125 283.140625 92.515625 281.699219 92.300781 279.265625 L 100.535156 279.265625 C 100.605469 278.976563 100.640625 278.4375 100.640625 277.933594 C 100.640625 274.328125 98.859375 271.914063 95.488281 271.914063 C 92.515625 271.914063 89.6875 274.472656 89.6875 278.597656 C 89.6875 282.777344 92.445313 285.230469 95.867188 285.230469 Z M 92.28125 277.445313 C 92.535156 275.210938 93.9375 273.984375 95.523438 273.984375 C 97.378906 273.984375 98.371094 275.265625 98.371094 277.445313 L 92.28125 277.445313 "/>
<path style=" stroke:none;fill-rule:nonzero;fill:rgb(16.868591%,15.696716%,16.088867%);fill-opacity:1;" d="M 100.554688 284.921875 L 103.347656 284.921875 L 104.824219 282.257813 C 105.222656 281.464844 105.617188 280.707031 105.996094 279.984375 L 106.121094 279.984375 C 106.574219 280.707031 107.023438 281.480469 107.4375 282.257813 L 109.09375 284.921875 L 111.976563 284.921875 L 107.886719 278.597656 L 111.6875 272.238281 L 108.933594 272.238281 L 107.597656 274.796875 C 107.238281 275.480469 106.878906 276.203125 106.535156 276.921875 L 106.445313 276.921875 C 106.03125 276.203125 105.617188 275.480469 105.238281 274.796875 L 103.726563 272.238281 L 100.859375 272.238281 L 104.660156 278.308594 L 100.554688 284.921875 "/>
<path style=" stroke:none;fill-rule:nonzero;fill:rgb(16.868591%,15.696716%,16.088867%);fill-opacity:1;" d="M 116.8125 285.230469 C 117.734375 285.230469 118.597656 284.996094 119.300781 284.761719 L 118.832031 282.796875 C 118.453125 282.957031 117.894531 283.105469 117.464844 283.105469 C 116.148438 283.105469 115.625 282.3125 115.625 280.796875 L 115.625 274.363281 L 118.921875 274.363281 L 118.921875 272.238281 L 115.625 272.238281 L 115.625 268.726563 L 113.375 268.726563 L 113.085938 272.238281 L 111.121094 272.382813 L 111.121094 274.363281 L 112.957031 274.363281 L 112.957031 280.777344 C 112.957031 283.445313 113.949219 285.230469 116.8125 285.230469 "/>
<path style=" stroke:none;fill-rule:nonzero;fill:rgb(16.868591%,15.696716%,16.088867%);fill-opacity:1;" d="M 131.261719 266.6875 C 130.6875 266.417969 129.875 266.238281 129.011719 266.238281 C 126.183594 266.238281 125.011719 268.039063 125.011719 270.652344 L 125.011719 272.238281 L 123.28125 272.382813 L 123.28125 274.363281 L 125.011719 274.363281 L 125.011719 284.921875 L 127.660156 284.921875 L 127.660156 274.363281 L 130.21875 274.363281 L 130.21875 272.238281 L 127.660156 272.238281 L 127.660156 270.617188 C 127.660156 269.085938 128.21875 268.347656 129.335938 268.347656 C 129.785156 268.347656 130.273438 268.453125 130.722656 268.671875 L 131.261719 266.6875 "/>
<path style=" stroke:none;fill-rule:nonzero;fill:rgb(16.868591%,15.696716%,16.088867%);fill-opacity:1;" d="M 136.191406 285.230469 C 139.328125 285.230469 142.15625 282.796875 142.15625 278.597656 C 142.15625 274.363281 139.328125 271.914063 136.191406 271.914063 C 133.054688 271.914063 130.210938 274.363281 130.210938 278.597656 C 130.210938 282.796875 133.054688 285.230469 136.191406 285.230469 Z M 136.191406 283.046875 C 134.207031 283.046875 132.964844 281.28125 132.964844 278.597656 C 132.964844 275.914063 134.207031 274.113281 136.191406 274.113281 C 138.191406 274.113281 139.433594 275.914063 139.433594 278.597656 C 139.433594 281.28125 138.191406 283.046875 136.191406 283.046875 "/>
<path style=" stroke:none;fill-rule:nonzero;fill:rgb(16.868591%,15.696716%,16.088867%);fill-opacity:1;" d="M 144.117188 284.921875 L 146.75 284.921875 L 146.75 275.933594 C 147.882813 274.796875 148.695313 274.203125 149.867188 274.203125 C 151.363281 274.203125 152.007813 275.066406 152.007813 277.265625 L 152.007813 284.921875 L 154.65625 284.921875 L 154.65625 276.941406 C 154.65625 273.714844 153.46875 271.914063 150.765625 271.914063 C 149.035156 271.914063 147.738281 272.871094 146.566406 273.984375 L 146.496094 273.984375 L 146.296875 272.238281 L 144.117188 272.238281 L 144.117188 284.921875 "/>
<path style=" stroke:none;fill-rule:nonzero;fill:rgb(16.868591%,15.696716%,16.088867%);fill-opacity:1;" d="M 161.625 285.230469 C 162.546875 285.230469 163.410156 284.996094 164.113281 284.761719 L 163.644531 282.796875 C 163.265625 282.957031 162.707031 283.105469 162.273438 283.105469 C 160.960938 283.105469 160.4375 282.3125 160.4375 280.796875 L 160.4375 274.363281 L 163.734375 274.363281 L 163.734375 272.238281 L 160.4375 272.238281 L 160.4375 268.726563 L 158.183594 268.726563 L 157.898438 272.238281 L 155.933594 272.382813 L 155.933594 274.363281 L 157.769531 274.363281 L 157.769531 280.777344 C 157.769531 283.445313 158.761719 285.230469 161.625 285.230469 "/>
<path style=" stroke:none;fill-rule:nonzero;fill:rgb(16.868591%,15.696716%,16.088867%);fill-opacity:1;" d="M 93.503906 660.402344 L 95.574219 653.554688 C 97.230469 648.023438 98.816406 642.421875 100.277344 636.601563 L 100.546875 636.601563 C 102.152344 642.347656 103.664063 648.023438 105.394531 653.554688 L 107.414063 660.402344 Z M 113.628906 681.230469 L 122.132813 681.230469 L 105.269531 630.3125 L 95.988281 630.3125 L 79.105469 681.230469 L 87.269531 681.230469 L 91.628906 666.707031 L 109.339844 666.707031 L 113.628906 681.230469 "/>
<path style=" stroke:none;fill-rule:nonzero;fill:rgb(16.868591%,15.696716%,16.088867%);fill-opacity:1;" d="M 135.28125 682.132813 C 139.859375 682.132813 143.929688 679.84375 147.390625 676.871094 L 147.605469 676.871094 L 148.292969 681.230469 L 154.796875 681.230469 L 154.796875 658.328125 C 154.796875 648.222656 150.4375 642.203125 140.957031 642.203125 C 134.867188 642.203125 129.554688 644.691406 125.605469 647.195313 L 128.582031 652.582031 C 131.824219 650.511719 135.570313 648.710938 139.570313 648.710938 C 145.175781 648.710938 146.777344 652.582031 146.851563 657.015625 C 130.992188 658.746094 124.074219 662.960938 124.074219 671.125 C 124.074219 677.84375 128.707031 682.132813 135.28125 682.132813 Z M 137.714844 675.828125 C 134.328125 675.828125 131.75 674.3125 131.75 670.582031 C 131.75 666.292969 135.570313 663.449219 146.851563 662.0625 L 146.851563 671.414063 C 143.734375 674.242188 141.03125 675.828125 137.714844 675.828125 "/>
<path style=" stroke:none;fill-rule:nonzero;fill:rgb(16.868591%,15.696716%,16.088867%);fill-opacity:1;" d="M 163.300781 681.230469 L 180.328125 681.230469 C 191.609375 681.230469 199.839844 676.382813 199.839844 666.292969 C 199.839844 659.375 195.625 655.429688 189.804688 654.1875 L 189.804688 653.828125 C 194.382813 652.3125 197.066406 647.679688 197.066406 642.835938 C 197.066406 633.628906 189.535156 630.3125 179.085938 630.3125 L 163.300781 630.3125 Z M 171.335938 651.554688 L 171.335938 636.527344 L 178.398438 636.527344 C 185.589844 636.527344 189.191406 638.546875 189.191406 643.863281 C 189.191406 648.636719 185.929688 651.554688 178.183594 651.554688 Z M 171.335938 674.945313 L 171.335938 657.644531 L 179.425781 657.644531 C 187.515625 657.644531 191.949219 660.132813 191.949219 665.878906 C 191.949219 672.097656 187.390625 674.945313 179.425781 674.945313 L 171.335938 674.945313 "/>
<path style=" stroke:none;fill-rule:nonzero;fill:rgb(16.868591%,15.696716%,16.088867%);fill-opacity:1;" d="M 223.019531 682.132813 C 231.59375 682.132813 239.414063 674.65625 239.414063 661.574219 C 239.414063 649.878906 233.957031 642.203125 224.332031 642.203125 C 220.316406 642.203125 216.242188 644.347656 212.980469 647.195313 L 213.199219 640.691406 L 213.199219 626.097656 L 205.304688 626.097656 L 205.304688 681.230469 L 211.539063 681.230469 L 212.296875 677.285156 L 212.496094 677.285156 C 215.757813 680.402344 219.558594 682.132813 223.019531 682.132813 Z M 221.503906 675.554688 C 219.144531 675.554688 216.097656 674.65625 213.199219 672.097656 L 213.199219 653.484375 C 216.371094 650.367188 219.289063 648.851563 222.261719 648.851563 C 228.621094 648.851563 231.179688 653.773438 231.179688 661.71875 C 231.179688 670.636719 227.035156 675.554688 221.503906 675.554688 "/>
<path style=" stroke:none;fill-rule:nonzero;fill:rgb(16.868591%,15.696716%,16.088867%);fill-opacity:1;" d="M 265.925781 682.132813 C 272.484375 682.132813 277.671875 679.503906 281.761719 674.796875 L 277.476563 669.753906 C 274.429688 673.070313 270.828125 675.140625 266.195313 675.140625 C 257.203125 675.140625 251.53125 667.734375 251.53125 655.628906 C 251.53125 643.664063 257.621094 636.332031 266.394531 636.332031 C 270.558594 636.332031 273.726563 638.203125 276.359375 640.890625 L 280.71875 635.773438 C 277.617188 632.382813 272.628906 629.339844 266.269531 629.339844 C 253.402344 629.339844 243.292969 639.304688 243.292969 655.917969 C 243.292969 672.582031 253.117188 682.132813 265.925781 682.132813 "/>
<path style=" stroke:none;fill-rule:nonzero;fill:rgb(16.868591%,15.696716%,16.088867%);fill-opacity:1;" d="M 302.101563 682.132813 C 306.460938 682.132813 310.964844 680.546875 314.425781 677.429688 L 311.164063 672.167969 C 308.894531 674.097656 306.046875 675.628906 302.855469 675.628906 C 296.496094 675.628906 292.136719 670.292969 292.136719 662.277344 C 292.136719 654.1875 296.710938 648.78125 303.074219 648.78125 C 305.703125 648.78125 307.847656 649.878906 309.917969 651.753906 L 313.863281 646.566406 C 311.089844 644.148438 307.578125 642.203125 302.730469 642.203125 C 292.695313 642.203125 283.902344 649.539063 283.902344 662.277344 C 283.902344 674.871094 291.792969 682.132813 302.101563 682.132813 "/>
<path style=" stroke:none;fill-rule:nonzero;fill:rgb(16.868591%,15.696716%,16.088867%);fill-opacity:1;" d="M 319.601563 681.230469 L 333.238281 681.230469 C 348.464844 681.230469 357.382813 672.097656 357.382813 655.554688 C 357.382813 638.960938 348.464844 630.3125 332.824219 630.3125 L 319.601563 630.3125 Z M 327.636719 674.65625 L 327.636719 636.816406 L 332.265625 636.816406 C 343.203125 636.816406 349.078125 642.835938 349.078125 655.554688 C 349.078125 668.222656 343.203125 674.65625 332.265625 674.65625 L 327.636719 674.65625 "/>
<path style=" stroke:none;fill-rule:nonzero;fill:rgb(16.868591%,15.696716%,16.088867%);fill-opacity:1;" d="M 376.972656 682.132813 C 381.261719 682.132813 385.207031 679.84375 388.035156 676.945313 L 388.25 676.945313 L 388.9375 681.230469 L 395.441406 681.230469 L 395.441406 626.097656 L 387.476563 626.097656 L 387.476563 640.203125 L 387.835938 646.492188 C 384.71875 643.863281 381.945313 642.203125 377.585938 642.203125 C 369.082031 642.203125 361.261719 649.878906 361.261719 662.277344 C 361.261719 674.871094 367.421875 682.132813 376.972656 682.132813 Z M 378.828125 675.554688 C 372.882813 675.554688 369.496094 670.78125 369.496094 662.132813 C 369.496094 653.898438 373.785156 648.851563 379.117188 648.851563 C 381.945313 648.851563 384.648438 649.753906 387.476563 652.3125 L 387.476563 670.925781 C 384.71875 674.097656 382.015625 675.554688 378.828125 675.554688 "/>
<path style=" stroke:none;fill-rule:nonzero;fill:rgb(16.868591%,15.696716%,16.088867%);fill-opacity:1;" d="M 416.742188 681.230469 L 447.605469 681.230469 L 447.605469 674.457031 L 424.777344 674.457031 L 424.777344 657.988281 L 443.460938 657.988281 L 443.460938 651.195313 L 424.777344 651.195313 L 424.777344 637.015625 L 446.851563 637.015625 L 446.851563 630.3125 L 416.742188 630.3125 L 416.742188 681.230469 "/>
<path style=" stroke:none;fill-rule:nonzero;fill:rgb(16.868591%,15.696716%,16.088867%);fill-opacity:1;" d="M 469.1875 682.132813 C 474.179688 682.132813 478.539063 680.476563 482.070313 678.113281 L 479.296875 673.070313 C 476.523438 674.871094 473.621094 675.898438 470.234375 675.898438 C 463.65625 675.898438 459.097656 671.539063 458.46875 664.277344 L 483.171875 664.277344 C 483.386719 663.375 483.511719 661.789063 483.511719 660.257813 C 483.511719 649.464844 478.125 642.203125 468.015625 642.203125 C 459.097656 642.203125 450.648438 649.878906 450.648438 662.277344 C 450.648438 674.796875 458.882813 682.132813 469.1875 682.132813 Z M 458.394531 658.816406 C 459.171875 652.097656 463.386719 648.4375 468.160156 648.4375 C 473.691406 648.4375 476.664063 652.242188 476.664063 658.816406 L 458.394531 658.816406 "/>
<path style=" stroke:none;fill-rule:nonzero;fill:rgb(16.868591%,15.696716%,16.088867%);fill-opacity:1;" d="M 489.667969 681.230469 L 497.703125 681.230469 L 497.703125 659.304688 L 516.515625 659.304688 L 516.515625 652.582031 L 497.703125 652.582031 L 497.703125 637.015625 L 519.847656 637.015625 L 519.847656 630.3125 L 489.667969 630.3125 L 489.667969 681.230469 "/>
<path style=" stroke:none;fill-rule:nonzero;fill:rgb(16.868591%,15.696716%,16.088867%);fill-opacity:1;" d="M 544.757813 626.511719 C 543.027344 625.738281 540.59375 625.195313 538.035156 625.195313 C 529.53125 625.195313 526 630.582031 526 638.402344 L 526 643.175781 L 520.8125 643.59375 L 520.8125 649.539063 L 526 649.539063 L 526 681.230469 L 533.964844 681.230469 L 533.964844 649.539063 L 541.640625 649.539063 L 541.640625 643.175781 L 533.964844 643.175781 L 533.964844 638.332031 C 533.964844 633.699219 535.621094 631.484375 539.007813 631.484375 C 540.324219 631.484375 541.785156 631.824219 543.152344 632.457031 L 544.757813 626.511719 "/>
<path style=" stroke:none;fill-rule:nonzero;fill:rgb(16.868591%,15.696716%,16.088867%);fill-opacity:1;" d="M 566.539063 682.132813 C 573.527344 682.132813 579.277344 679.574219 582.664063 676.1875 L 582.664063 654.113281 L 565.292969 654.113281 L 565.292969 660.691406 L 575.402344 660.691406 L 575.402344 672.65625 C 573.601563 674.242188 570.484375 675.140625 567.382813 675.140625 C 556.863281 675.140625 551.257813 667.734375 551.257813 655.628906 C 551.257813 643.664063 557.546875 636.332031 567.023438 636.332031 C 571.945313 636.332031 575.058594 638.332031 577.546875 640.890625 L 581.90625 635.773438 C 578.789063 632.527344 573.941406 629.339844 566.753906 629.339844 C 553.257813 629.339844 543.023438 639.304688 543.023438 655.917969 C 543.023438 672.582031 552.917969 682.132813 566.539063 682.132813 "/>
<path style=" stroke:none;fill-rule:nonzero;fill:rgb(16.868591%,15.696716%,16.088867%);fill-opacity:1;" d="M 603.148438 698.3125 C 615.328125 698.3125 623.074219 692.367188 623.074219 685.035156 C 623.074219 678.527344 618.375 675.773438 609.382813 675.773438 L 602.390625 675.773438 C 597.542969 675.773438 596.011719 674.3125 596.011719 672.023438 C 596.011719 670.222656 596.859375 669.125 598.101563 668.023438 C 599.761719 668.78125 601.6875 669.195313 603.417969 669.195313 C 611.382813 669.195313 617.671875 664.421875 617.671875 656.113281 C 617.671875 653.214844 616.644531 650.65625 615.183594 649.125 L 622.445313 649.125 L 622.445313 643.175781 L 608.96875 643.175781 C 607.507813 642.621094 605.5625 642.203125 603.417969 642.203125 C 595.542969 642.203125 588.679688 647.265625 588.679688 655.917969 C 588.679688 660.402344 591.113281 664.007813 593.671875 666.007813 L 593.671875 666.292969 C 591.597656 667.808594 589.453125 670.367188 589.453125 673.339844 C 589.453125 676.457031 590.96875 678.457031 592.914063 679.644531 L 592.914063 679.988281 C 589.382813 682.132813 587.363281 685.105469 587.363281 688.292969 C 587.363281 694.925781 594.011719 698.3125 603.148438 698.3125 Z M 603.417969 664.078125 C 599.472656 664.078125 596.226563 660.960938 596.226563 655.917969 C 596.226563 650.726563 599.417969 647.808594 603.417969 647.808594 C 607.4375 647.808594 610.625 650.78125 610.625 655.917969 C 610.625 660.960938 607.363281 664.078125 603.417969 664.078125 Z M 604.320313 693.070313 C 598.03125 693.070313 594.15625 690.855469 594.15625 687.105469 C 594.15625 685.175781 595.128906 683.230469 597.398438 681.574219 C 599.003906 681.917969 600.734375 682.132813 602.515625 682.132813 L 608.265625 682.132813 C 612.894531 682.132813 615.402344 683.105469 615.402344 686.277344 C 615.402344 689.808594 610.96875 693.070313 604.320313 693.070313 "/>
<path style=" stroke:none;fill-rule:nonzero;fill:rgb(16.868591%,15.696716%,16.088867%);fill-opacity:1;" d="M 85.808594 742.347656 L 93.84375 742.347656 L 93.84375 719.175781 L 115.648438 719.175781 L 115.648438 742.347656 L 123.664063 742.347656 L 123.664063 691.429688 L 115.648438 691.429688 L 115.648438 712.1875 L 93.84375 712.1875 L 93.84375 691.429688 L 85.808594 691.429688 L 85.808594 742.347656 "/>
<path style=" stroke:none;fill-rule:nonzero;fill:rgb(16.868591%,15.696716%,16.088867%);fill-opacity:1;" d="M 132.863281 742.347656 L 140.757813 742.347656 L 140.757813 715.359375 C 144.144531 711.96875 146.558594 710.167969 150.089844 710.167969 C 154.59375 710.167969 156.523438 712.800781 156.523438 719.375 L 156.523438 742.347656 L 164.488281 742.347656 L 164.488281 718.402344 C 164.488281 708.726563 160.882813 703.320313 152.792969 703.320313 C 147.605469 703.320313 143.800781 706.167969 140.46875 709.339844 L 140.757813 701.808594 L 140.757813 687.214844 L 132.863281 687.214844 L 132.863281 742.347656 "/>
<path style=" stroke:none;fill-rule:nonzero;fill:rgb(16.868591%,15.696716%,16.088867%);fill-opacity:1;" d="M 173.054688 742.347656 L 181.09375 742.347656 L 181.09375 691.429688 L 173.054688 691.429688 L 173.054688 742.347656 "/>
<path style=" stroke:none;fill-rule:nonzero;fill:rgb(16.868591%,15.696716%,16.088867%);fill-opacity:1;" d="M 190.292969 742.347656 L 198.183594 742.347656 L 198.183594 704.292969 L 190.292969 704.292969 Z M 194.238281 697.160156 C 197.140625 697.160156 199.355469 695.230469 199.355469 692.457031 C 199.355469 689.628906 197.140625 687.753906 194.238281 687.753906 C 191.335938 687.753906 189.191406 689.628906 189.191406 692.457031 C 189.191406 695.230469 191.335938 697.160156 194.238281 697.160156 "/>
<path style=" stroke:none;fill-rule:nonzero;fill:rgb(16.868591%,15.696716%,16.088867%);fill-opacity:1;" d="M 220.382813 743.25 C 230.347656 743.25 236.851563 734.386719 236.851563 716.675781 C 236.851563 699.105469 230.347656 690.457031 220.382813 690.457031 C 210.367188 690.457031 203.914063 699.035156 203.914063 716.675781 C 203.914063 734.386719 210.367188 743.25 220.382813 743.25 Z M 220.382813 736.941406 C 215.195313 736.941406 211.535156 731.410156 211.535156 716.675781 C 211.535156 702.078125 215.195313 696.746094 220.382813 696.746094 C 225.574219 696.746094 229.25 702.078125 229.25 716.675781 C 229.25 731.410156 225.574219 736.941406 220.382813 736.941406 "/>
<path style=" stroke:none;fill-rule:nonzero;fill:rgb(16.868591%,15.696716%,16.088867%);fill-opacity:1;" d="M 242.597656 742.347656 L 271.660156 742.347656 L 271.660156 735.773438 L 261.695313 735.773438 L 261.695313 691.429688 L 255.679688 691.429688 C 252.777344 693.230469 249.390625 694.402344 244.613281 695.304688 L 244.613281 700.347656 L 253.730469 700.347656 L 253.730469 735.773438 L 242.597656 735.773438 L 242.597656 742.347656 "/>
<path style=" stroke:none;fill-rule:nonzero;fill:rgb(16.868591%,15.696716%,16.088867%);fill-opacity:1;" d="M 275.671875 742.347656 L 308.539063 742.347656 L 308.539063 735.574219 L 295.800781 735.574219 C 293.3125 735.574219 290.144531 735.773438 287.511719 736.058594 C 298.304688 725.738281 306.125 715.574219 306.125 705.753906 C 306.125 696.546875 300.089844 690.457031 290.753906 690.457031 C 284.105469 690.457031 279.621094 693.359375 275.261719 698.058594 L 279.765625 702.492188 C 282.449219 699.375 285.78125 696.816406 289.78125 696.816406 C 295.457031 696.816406 298.429688 700.617188 298.429688 706.167969 C 298.429688 714.527344 290.683594 724.421875 275.671875 737.71875 L 275.671875 742.347656 "/>
<path style=" stroke:none;fill-rule:nonzero;fill:rgb(16.868591%,15.696716%,16.088867%);fill-opacity:1;" d="M 327.148438 743.25 C 336.5 743.25 344.175781 737.84375 344.175781 728.65625 C 344.175781 721.808594 339.527344 717.375 333.652344 715.917969 L 333.652344 715.574219 C 339.058594 713.574219 342.445313 709.484375 342.445313 703.609375 C 342.445313 695.160156 336.015625 690.457031 326.878906 690.457031 C 320.984375 690.457031 316.285156 693.015625 312.28125 696.617188 L 316.425781 701.59375 C 319.328125 698.761719 322.660156 696.816406 326.589844 696.746094 C 331.4375 696.816406 334.410156 699.664063 334.410156 704.152344 C 334.410156 709.269531 331.09375 713.085938 321.058594 713.085938 L 321.058594 718.960938 C 332.554688 718.960938 336.140625 722.636719 336.140625 728.296875 C 336.140625 733.558594 332.195313 736.746094 326.464844 736.746094 C 321.203125 736.746094 317.402344 734.1875 314.425781 731.140625 L 310.554688 736.257813 C 313.941406 740.0625 319.128906 743.25 327.148438 743.25 "/>
<path style=" stroke:none;fill-rule:nonzero;fill:rgb(16.868591%,15.696716%,16.088867%);fill-opacity:1;" d="M 353.992188 722.492188 L 364.027344 707.125 C 365.488281 704.511719 366.855469 701.878906 368.117188 699.324219 L 368.386719 699.324219 C 368.242188 702.078125 367.972656 706.367188 367.972656 709.140625 L 367.972656 722.492188 Z M 381.957031 722.492188 L 375.453125 722.492188 L 375.453125 691.429688 L 366.242188 691.429688 L 345.972656 723.320313 L 345.972656 728.65625 L 367.972656 728.65625 L 367.972656 742.347656 L 375.453125 742.347656 L 375.453125 728.65625 L 381.957031 728.65625 L 381.957031 722.492188 "/>
<path style=" stroke:none;fill-rule:nonzero;fill:rgb(16.868591%,15.696716%,16.088867%);fill-opacity:1;" d="M 399.105469 743.25 C 408.023438 743.25 416.257813 736.890625 416.257813 725.609375 C 416.257813 714.457031 409.285156 709.410156 400.761719 709.410156 C 398.007813 709.410156 395.917969 710.113281 393.773438 711.214844 L 394.960938 698.132813 L 413.84375 698.132813 L 413.84375 691.429688 L 388.042969 691.429688 L 386.511719 715.574219 L 390.386719 718.132813 C 393.359375 716.1875 395.304688 715.230469 398.546875 715.230469 C 404.367188 715.230469 408.242188 719.105469 408.242188 725.878906 C 408.242188 732.65625 403.878906 736.746094 398.132813 736.746094 C 392.816406 736.746094 389.140625 734.1875 386.242188 731.285156 L 382.4375 736.476563 C 386.023438 739.988281 391.085938 743.25 399.105469 743.25 "/>
<path style=" stroke:none;fill-rule:nonzero;fill:rgb(16.868591%,15.696716%,16.088867%);fill-opacity:1;" d="M 437.714844 737.160156 C 432.253906 737.160156 428.578125 732.382813 427.75 722.277344 C 430.796875 717.917969 434.253906 716.332031 437.226563 716.332031 C 442.707031 716.332031 445.605469 720.007813 445.605469 726.566406 C 445.605469 733.140625 442.148438 737.160156 437.714844 737.160156 Z M 452.183594 695.917969 C 449.265625 692.871094 445.121094 690.457031 439.445313 690.457031 C 429.40625 690.457031 420.21875 698.277344 420.21875 717.863281 C 420.21875 735.160156 428.09375 743.25 437.785156 743.25 C 446.09375 743.25 453.011719 736.671875 453.011719 726.566406 C 453.011719 715.773438 447.265625 710.527344 438.6875 710.527344 C 435.011719 710.527344 430.597656 712.726563 427.605469 716.402344 C 427.96875 701.878906 433.355469 696.960938 439.859375 696.960938 C 442.832031 696.960938 445.949219 698.546875 447.824219 700.761719 L 452.183594 695.917969 "/>
<path style=" stroke:none;fill-rule:nonzero;fill:rgb(16.868591%,15.696716%,16.088867%);fill-opacity:1;" d="M 465.875 742.347656 L 474.035156 742.347656 C 474.863281 722.421875 476.738281 711.214844 488.703125 696.277344 L 488.703125 691.429688 L 455.910156 691.429688 L 455.910156 698.132813 L 479.855469 698.132813 C 470.035156 711.84375 466.773438 723.734375 465.875 742.347656 "/>
<path style=" stroke:none;fill-rule:nonzero;fill:rgb(16.868591%,15.696716%,16.088867%);fill-opacity:1;" d="M 508.285156 743.25 C 518.121094 743.25 524.753906 737.429688 524.753906 729.898438 C 524.753906 722.980469 520.734375 719.035156 516.175781 716.402344 L 516.175781 716.0625 C 519.367188 713.699219 522.878906 709.269531 522.878906 704.078125 C 522.878906 696.132813 517.347656 690.601563 508.5 690.601563 C 500.121094 690.601563 493.960938 695.789063 493.960938 703.738281 C 493.960938 709.140625 497.003906 712.941406 500.824219 715.644531 L 500.824219 715.988281 C 496.105469 718.476563 491.6875 722.980469 491.6875 729.683594 C 491.6875 737.574219 498.734375 743.25 508.285156 743.25 Z M 511.617188 714.042969 C 505.941406 711.84375 501.09375 709.269531 501.09375 703.738281 C 501.09375 699.175781 504.210938 696.332031 508.355469 696.332031 C 513.347656 696.332031 516.175781 699.863281 516.175781 704.566406 C 516.175781 707.96875 514.664063 711.214844 511.617188 714.042969 Z M 508.429688 737.503906 C 502.96875 737.503906 498.734375 733.96875 498.734375 728.925781 C 498.734375 724.492188 501.167969 720.691406 504.699219 718.277344 C 511.617188 721.105469 517.222656 723.464844 517.222656 729.683594 C 517.222656 734.457031 513.617188 737.503906 508.429688 737.503906 "/>
<path style=" stroke:none;fill-rule:nonzero;fill:rgb(16.868591%,15.696716%,16.088867%);fill-opacity:1;" d="M 543.089844 717.449219 C 537.757813 717.449219 534.859375 713.699219 534.859375 707.195313 C 534.859375 700.566406 538.316406 696.617188 542.675781 696.617188 C 548.210938 696.617188 552.011719 701.179688 552.785156 711.214844 C 549.742188 715.644531 546.210938 717.449219 543.089844 717.449219 Z M 528.28125 737.84375 C 531.253906 740.890625 535.417969 743.25 541.289063 743.25 C 551.109375 743.25 560.246094 735.214844 560.246094 715.160156 C 560.246094 698.347656 552.371094 690.457031 542.605469 690.457031 C 534.371094 690.457031 527.453125 697.105469 527.453125 707.195313 C 527.453125 717.863281 533.199219 723.179688 541.703125 723.179688 C 545.578125 723.179688 549.9375 720.90625 552.914063 717.230469 C 552.425781 731.753906 547.109375 736.746094 540.949219 736.746094 C 537.6875 736.746094 534.585938 735.214844 532.570313 732.945313 L 528.28125 737.84375 "/>
<path style=" stroke:none;fill-rule:nonzero;fill:rgb(16.868591%,15.696716%,16.088867%);fill-opacity:1;" d="M 95.71875 795.917969 L 103.25 795.917969 L 103.25 781.195313 L 117.230469 781.195313 L 117.230469 773.988281 L 103.25 773.988281 L 103.25 759.25 L 95.71875 759.25 L 95.71875 773.988281 L 81.734375 773.988281 L 81.734375 781.195313 L 95.71875 781.195313 L 95.71875 795.917969 "/>
<path style=" stroke:none;fill-rule:nonzero;fill:rgb(16.868591%,15.696716%,16.088867%);fill-opacity:1;" d="M 127.605469 778.152344 C 131.28125 778.152344 133.964844 775.304688 133.964844 771.574219 C 133.964844 767.773438 131.28125 764.925781 127.605469 764.925781 C 124.003906 764.925781 121.316406 767.773438 121.316406 771.574219 C 121.316406 775.304688 124.003906 778.152344 127.605469 778.152344 Z M 122.21875 818.207031 C 130.507813 815.429688 135.28125 809.285156 135.28125 801.179688 C 135.28125 794.890625 132.652344 791.144531 127.949219 791.144531 C 124.363281 791.144531 121.371094 793.503906 121.371094 797.179688 C 121.371094 801.050781 124.417969 803.195313 127.75 803.195313 C 127.949219 803.195313 128.164063 803.195313 128.363281 803.195313 C 128.363281 807.195313 125.390625 810.65625 120.074219 812.675781 L 122.21875 818.207031 "/>
<path style=" stroke:none;fill-rule:nonzero;fill:rgb(16.868591%,15.696716%,16.088867%);fill-opacity:1;" d="M 150.09375 783.753906 C 157.425781 783.753906 162.613281 777.738281 162.613281 767.410156 C 162.613281 757.179688 157.425781 751.304688 150.09375 751.304688 C 142.761719 751.304688 137.640625 757.179688 137.640625 767.410156 C 137.640625 777.738281 142.761719 783.753906 150.09375 783.753906 Z M 150.09375 778.007813 C 147.121094 778.007813 144.832031 774.960938 144.832031 767.410156 C 144.832031 759.882813 147.121094 757.035156 150.09375 757.035156 C 153.066406 757.035156 155.425781 759.882813 155.425781 767.410156 C 155.425781 774.960938 153.066406 778.007813 150.09375 778.007813 Z M 151.824219 804.441406 L 157.769531 804.441406 L 185.660156 751.304688 L 179.640625 751.304688 Z M 187.320313 804.441406 C 194.578125 804.441406 199.839844 798.347656 199.839844 788.113281 C 199.839844 777.789063 194.578125 771.917969 187.320313 771.917969 C 180.058594 771.917969 174.867188 777.789063 174.867188 788.113281 C 174.867188 798.347656 180.058594 804.441406 187.320313 804.441406 Z M 187.320313 798.621094 C 184.34375 798.621094 181.984375 795.648438 181.984375 788.113281 C 181.984375 780.566406 184.34375 777.664063 187.320313 777.664063 C 190.292969 777.664063 192.652344 780.566406 192.652344 788.113281 C 192.652344 795.648438 190.292969 798.621094 187.320313 798.621094 "/>
<path style=" stroke:none;fill-rule:nonzero;fill:rgb(16.868591%,15.696716%,16.088867%);fill-opacity:1;" d="M 231.609375 816.621094 C 237.140625 816.621094 242.113281 815.429688 246.816406 812.800781 L 244.546875 807.140625 C 241.210938 809 236.652344 810.3125 232.4375 810.3125 C 219.84375 810.3125 209.320313 802.566406 209.320313 787.140625 C 209.320313 769.285156 222.671875 757.734375 236.238281 757.734375 C 251.320313 757.734375 257.753906 767.484375 257.753906 779.179688 C 257.753906 788.167969 252.832031 793.84375 248.058594 793.84375 C 244.328125 793.84375 243.085938 791.503906 244.328125 786.4375 L 247.714844 769.554688 L 241.429688 769.554688 L 240.3125 772.816406 L 240.183594 772.816406 C 238.871094 770.117188 236.796875 768.945313 234.167969 768.945313 C 225.160156 768.945313 218.527344 778.691406 218.527344 787.898438 C 218.527344 795.089844 222.671875 799.519531 228.617188 799.519531 C 231.878906 799.519531 235.824219 797.375 238.09375 794.257813 L 238.238281 794.257813 C 238.996094 798.132813 242.597656 800.222656 247.03125 800.222656 C 254.976563 800.222656 264.328125 793.015625 264.328125 778.835938 C 264.328125 762.710938 253.734375 751.429688 237.066406 751.429688 C 218.3125 751.429688 202.402344 765.753906 202.402344 787.414063 C 202.402344 807 215.96875 816.621094 231.609375 816.621094 Z M 230.761719 793.089844 C 228.078125 793.089844 226.203125 791.214844 226.203125 787.339844 C 226.203125 782.296875 229.390625 775.574219 234.4375 775.574219 C 236.167969 775.574219 237.484375 776.421875 238.527344 778.152344 L 236.507813 789.214844 C 234.292969 791.988281 232.5625 793.089844 230.761719 793.089844 "/>
<path style=" stroke:none;fill-rule:nonzero;fill:rgb(16.868591%,15.696716%,16.088867%);fill-opacity:1;" d="M 276.164063 774.546875 L 282.253906 767.628906 L 288.328125 774.546875 L 292.6875 771.359375 L 288.058594 763.464844 L 296.363281 759.808594 L 294.707031 754.691406 L 285.839844 756.691406 L 285.011719 747.558594 L 279.550781 747.558594 L 278.652344 756.691406 L 269.785156 754.691406 L 268.128906 759.808594 L 276.363281 763.464844 L 271.804688 771.359375 L 276.164063 774.546875 "/>
<path style=" stroke:none;fill-rule:nonzero;fill:rgb(16.868591%,15.696716%,16.088867%);fill-opacity:1;" d="M 127.070313 524.738281 L 133.988281 501.90625 C 139.539063 483.457031 144.835938 464.773438 149.683594 445.402344 L 150.601563 445.402344 C 155.898438 464.539063 160.980469 483.457031 166.746094 501.90625 L 173.429688 524.738281 Z M 194.1875 594.160156 L 222.566406 594.160156 L 166.277344 424.410156 L 135.375 424.410156 L 79.105469 594.160156 L 106.3125 594.160156 L 120.855469 545.726563 L 179.898438 545.726563 L 194.1875 594.160156 "/>
<path style=" stroke:none;fill-rule:nonzero;fill:rgb(16.868591%,15.696716%,16.088867%);fill-opacity:1;" d="M 266.386719 597.152344 C 281.59375 597.152344 295.214844 589.546875 306.746094 579.636719 L 307.429688 579.636719 L 309.738281 594.160156 L 331.414063 594.160156 L 331.414063 517.816406 C 331.414063 484.140625 316.890625 464.085938 285.289063 464.085938 C 265 464.085938 247.234375 472.394531 234.097656 480.683594 L 244.007813 498.683594 C 254.855469 491.761719 267.304688 485.761719 280.675781 485.761719 C 299.359375 485.761719 304.65625 498.683594 304.890625 513.4375 C 252.078125 519.203125 229.015625 533.277344 229.015625 560.484375 C 229.015625 582.863281 244.476563 597.152344 266.386719 597.152344 Z M 274.457031 576.175781 C 263.144531 576.175781 254.621094 571.097656 254.621094 558.644531 C 254.621094 544.339844 267.304688 534.878906 304.890625 530.269531 L 304.890625 561.402344 C 294.511719 570.863281 285.519531 576.175781 274.457031 576.175781 "/>
<path style=" stroke:none;fill-rule:nonzero;fill:rgb(16.868591%,15.696716%,16.088867%);fill-opacity:1;" d="M 444.664063 314.234375 L 437.78125 314.234375 L 437.78125 310.757813 L 444.664063 310.757813 Z M 444.664063 320.234375 L 437.78125 320.234375 L 437.78125 316.683594 L 444.664063 316.683594 Z M 427.816406 316.683594 L 434.882813 316.683594 L 434.882813 320.234375 L 427.816406 320.234375 Z M 427.816406 310.757813 L 434.882813 310.757813 L 434.882813 314.234375 L 427.816406 314.234375 Z M 447.636719 308.125 L 424.972656 308.125 L 424.972656 322.863281 L 447.636719 322.863281 Z M 441.242188 327.53125 C 439.78125 326.125 436.953125 324.253906 434.59375 323.082031 L 432.628906 324.953125 C 434.972656 326.214844 437.78125 328.179688 439.117188 329.601563 Z M 424.519531 334.648438 C 426.070313 332.503906 427.1875 329.226563 427.960938 326.59375 L 425.296875 325.605469 C 424.574219 328.179688 423.386719 331.226563 421.835938 333.152344 Z M 434.59375 332.992188 C 432.917969 332.992188 432.59375 332.828125 432.59375 331.929688 L 432.59375 326.054688 L 429.546875 326.054688 L 429.546875 331.929688 C 429.546875 334.867188 430.519531 335.710938 434.304688 335.710938 L 440.304688 335.710938 C 443.441406 335.710938 444.339844 334.648438 444.738281 330.179688 C 443.925781 330 442.628906 329.53125 441.980469 329.0625 C 441.78125 332.488281 441.566406 332.992188 440.089844 332.992188 Z M 443.980469 326.433594 C 445.765625 328.917969 447.53125 332.214844 448.160156 334.378906 L 451.0625 333.152344 C 450.375 330.9375 448.46875 327.730469 446.664063 325.316406 L 443.980469 326.433594 "/>
<path style=" stroke:none;fill-rule:nonzero;fill:rgb(16.868591%,15.696716%,16.088867%);fill-opacity:1;" d="M 462.484375 310.289063 C 461.222656 309.386719 458.773438 307.964844 457.132813 307.027344 L 455.351563 309.136719 C 457.0625 310.234375 459.457031 311.746094 460.648438 312.683594 Z M 460.933594 318.722656 C 459.636719 317.855469 457.222656 316.484375 455.546875 315.585938 L 453.800781 317.746094 C 455.546875 318.757813 457.925781 320.234375 459.132813 321.152344 Z M 459.097656 323.945313 C 457.675781 327.640625 455.746094 331.765625 454.378906 334.289063 L 457.097656 335.890625 C 458.574219 332.863281 460.234375 328.992188 461.496094 325.640625 Z M 466.359375 311.042969 L 483.1875 311.042969 L 483.1875 308.324219 L 463.421875 308.324219 L 463.421875 317.136719 C 463.421875 322.378906 463.097656 329.640625 459.476563 334.667969 C 460.195313 334.992188 461.496094 335.765625 462 336.253906 C 465.78125 330.9375 466.359375 322.757813 466.359375 317.136719 Z M 468.792969 327.191406 C 467.945313 329.242188 466.558594 331.515625 465.167969 333.027344 C 465.855469 333.386719 467.007813 334.089844 467.546875 334.488281 C 468.882813 332.863281 470.429688 330.253906 471.457031 327.925781 Z M 470.59375 321.007813 L 479.3125 321.007813 L 479.3125 323.371094 L 470.59375 323.371094 Z M 470.59375 316.558594 L 479.3125 316.558594 L 479.3125 318.882813 L 470.59375 318.882813 Z M 482.125 325.605469 L 482.125 314.304688 L 475.496094 314.304688 C 475.890625 313.53125 476.339844 312.71875 476.753906 311.835938 L 473.402344 311.226563 C 473.207031 312.109375 472.847656 313.296875 472.519531 314.304688 L 467.910156 314.304688 L 467.910156 325.605469 L 473.367188 325.605469 L 473.367188 333.28125 C 473.367188 333.640625 473.242188 333.765625 472.847656 333.765625 C 472.46875 333.765625 471.132813 333.800781 469.78125 333.730469 C 470.070313 334.488281 470.46875 335.585938 470.558594 336.324219 C 472.664063 336.359375 474.070313 336.324219 475.007813 335.875 C 475.980469 335.476563 476.214844 334.738281 476.214844 333.386719 L 476.214844 325.605469 Z M 477.816406 327.855469 C 478.988281 329.890625 480.414063 332.613281 481.078125 334.214844 L 483.835938 333.027344 C 483.117188 331.441406 481.601563 328.828125 480.414063 326.902344 L 477.816406 327.855469 "/>
<path style=" stroke:none;fill-rule:nonzero;fill:rgb(16.868591%,15.696716%,16.088867%);fill-opacity:1;" d="M 505.441406 316.558594 C 506.234375 315.332031 507.171875 313.460938 508.015625 311.785156 L 505.726563 310.9375 C 505.242188 312.398438 504.304688 314.484375 503.566406 315.820313 Z M 494.035156 311.675781 C 494.898438 313.136719 495.675781 315.097656 495.910156 316.34375 L 497.945313 315.566406 C 497.675781 314.304688 496.882813 312.433594 495.960938 311.007813 Z M 492.699219 316.917969 L 492.699219 310.324219 L 499.457031 310.324219 L 499.457031 316.917969 Z M 509.078125 316.917969 L 502.464844 316.917969 L 502.464844 310.324219 L 509.078125 310.324219 Z M 515.277344 326.304688 L 502.464844 326.304688 L 502.464844 323.945313 L 512.664063 323.945313 L 512.664063 321.566406 L 502.464844 321.566406 L 502.464844 319.40625 L 512.105469 319.40625 L 512.105469 307.875 L 489.871094 307.875 L 489.871094 319.40625 L 499.457031 319.40625 L 499.457031 321.566406 L 489.347656 321.566406 L 489.347656 323.945313 L 499.457031 323.945313 L 499.457031 326.304688 L 486.773438 326.304688 L 486.773438 328.957031 L 515.277344 328.957031 Z M 489.511719 336.449219 C 490.988281 334.992188 492.285156 332.667969 493.0625 330.578125 L 490.160156 329.839844 C 489.386719 331.835938 488.050781 334 486.664063 335.191406 Z M 495.675781 330.828125 C 496.035156 332.578125 496.199219 334.828125 496.199219 336.164063 L 499.171875 335.800781 C 499.171875 334.488281 498.882813 332.289063 498.484375 330.613281 Z M 502.195313 330.9375 C 502.882813 332.613281 503.566406 334.828125 503.820313 336.199219 L 506.792969 335.476563 C 506.519531 334.125 505.746094 331.964844 505.042969 330.34375 Z M 508.628906 330.773438 C 510.105469 332.503906 511.820313 334.9375 512.574219 336.449219 L 515.53125 335.316406 C 514.699219 333.765625 512.882813 331.515625 511.402344 329.839844 L 508.628906 330.773438 "/>
<path style=" stroke:none;fill-rule:nonzero;fill:rgb(16.868591%,15.696716%,16.088867%);fill-opacity:1;" d="M 524.933594 306.863281 C 523.386719 311.550781 520.863281 316.269531 518.089844 319.296875 C 518.613281 319.984375 519.476563 321.621094 519.765625 322.34375 C 520.574219 321.371094 521.351563 320.34375 522.160156 319.171875 L 522.160156 336.289063 L 525.027344 336.289063 L 525.027344 314.199219 C 526.070313 312.070313 527.027344 309.875 527.746094 307.675781 Z M 547.855469 315.710938 L 547.855469 312.882813 L 538.628906 312.882813 L 538.628906 306.863281 L 535.691406 306.863281 L 535.691406 312.882813 L 527.027344 312.882813 L 527.027344 315.710938 L 534.105469 315.710938 C 532.199219 321.007813 529.027344 326.269531 525.621094 329.117188 C 526.25 329.640625 527.296875 330.667969 527.746094 331.40625 C 530.898438 328.378906 533.710938 323.496094 535.691406 318.199219 L 535.691406 327.925781 L 530.882813 327.925781 L 530.882813 330.632813 L 535.691406 330.632813 L 535.691406 336.164063 L 538.628906 336.164063 L 538.628906 330.632813 L 543.402344 330.632813 L 543.402344 327.925781 L 538.628906 327.925781 L 538.628906 318.019531 C 540.519531 323.28125 543.3125 328.304688 546.339844 331.316406 C 546.882813 330.503906 547.890625 329.476563 548.628906 328.917969 C 545.316406 326.125 542.144531 320.917969 540.304688 315.710938 L 547.855469 315.710938 "/>
<path style=" stroke:none;fill-rule:nonzero;fill:rgb(16.868591%,15.696716%,16.088867%);fill-opacity:1;" d="M 569.101563 334.214844 C 572.164063 334.214844 574.597656 332.992188 576.507813 330.792969 L 574.488281 328.449219 C 573.082031 330 571.390625 330.953125 569.226563 330.953125 C 565.03125 330.953125 562.382813 327.511719 562.382813 321.855469 C 562.382813 316.269531 565.226563 312.847656 569.335938 312.847656 C 571.261719 312.847656 572.757813 313.710938 573.984375 314.972656 L 576.019531 312.59375 C 574.5625 311.007813 572.238281 309.585938 569.265625 309.585938 C 563.265625 309.585938 558.542969 314.234375 558.542969 321.980469 C 558.542969 329.765625 563.136719 334.214844 569.101563 334.214844 "/>
<path style=" stroke:none;fill-rule:nonzero;fill:rgb(16.868591%,15.696716%,16.088867%);fill-opacity:1;" d="M 580.699219 333.800781 L 584.25 333.800781 L 584.25 322.59375 C 584.25 320.019531 583.960938 317.261719 583.761719 314.808594 L 583.925781 314.808594 L 586.410156 319.785156 L 594.285156 333.800781 L 598.140625 333.800781 L 598.140625 310.035156 L 594.574219 310.035156 L 594.574219 321.117188 C 594.574219 323.695313 594.878906 326.578125 595.058594 329.027344 L 594.898438 329.027344 L 592.410156 323.980469 L 584.535156 310.035156 L 580.699219 310.035156 L 580.699219 333.800781 "/>
<path style=" stroke:none;fill-rule:nonzero;fill:rgb(16.868591%,15.696716%,16.088867%);fill-opacity:1;" d="M 422.519531 361.476563 L 425.207031 361.476563 L 425.207031 354.164063 L 431.476563 354.164063 L 431.476563 351.929688 L 425.207031 351.929688 L 425.207031 346.738281 L 432.574219 346.738281 L 432.574219 344.503906 L 422.519531 344.503906 L 422.519531 361.476563 "/>
<path style=" stroke:none;fill-rule:nonzero;fill:rgb(16.868591%,15.696716%,16.088867%);fill-opacity:1;" d="M 441.953125 361.785156 C 444.132813 361.785156 445.863281 360.902344 447.230469 359.335938 L 445.789063 357.660156 C 444.78125 358.757813 443.574219 359.441406 442.042969 359.441406 C 439.03125 359.441406 437.140625 356.972656 437.140625 352.9375 C 437.140625 348.957031 439.175781 346.503906 442.097656 346.503906 C 443.484375 346.503906 444.546875 347.136719 445.429688 348.035156 L 446.871094 346.324219 C 445.84375 345.1875 444.1875 344.179688 442.058594 344.179688 C 437.773438 344.179688 434.402344 347.496094 434.402344 353.046875 C 434.402344 358.59375 437.679688 361.785156 441.953125 361.785156 "/>
<path style=" stroke:none;fill-rule:nonzero;fill:rgb(16.868591%,15.696716%,16.088867%);fill-opacity:1;" d="M 455.882813 361.785156 C 460.222656 361.785156 463.269531 358.378906 463.269531 352.917969 C 463.269531 347.460938 460.222656 344.179688 455.882813 344.179688 C 451.519531 344.179688 448.492188 347.460938 448.492188 352.917969 C 448.492188 358.378906 451.519531 361.785156 455.882813 361.785156 Z M 455.882813 359.441406 C 453.050781 359.441406 451.230469 356.917969 451.230469 352.917969 C 451.230469 348.9375 453.050781 346.503906 455.882813 346.503906 C 458.691406 346.503906 460.53125 348.9375 460.53125 352.917969 C 460.53125 356.917969 458.691406 359.441406 455.882813 359.441406 "/>
<path style=" stroke:none;fill-rule:nonzero;fill:rgb(16.868591%,15.696716%,16.088867%);fill-opacity:1;" d="M 422.519531 389.152344 L 425.207031 389.152344 L 425.207031 381.839844 L 431.476563 381.839844 L 431.476563 379.605469 L 425.207031 379.605469 L 425.207031 374.414063 L 432.574219 374.414063 L 432.574219 372.179688 L 422.519531 372.179688 L 422.519531 389.152344 "/>
<path style=" stroke:none;fill-rule:nonzero;fill:rgb(16.868591%,15.696716%,16.088867%);fill-opacity:1;" d="M 434.832031 389.152344 L 437.464844 389.152344 L 437.464844 381.242188 C 438.273438 379.242188 439.515625 378.523438 440.5625 378.523438 C 441.066406 378.523438 441.390625 378.59375 441.824219 378.722656 L 442.308594 376.414063 C 441.914063 376.234375 441.5 376.144531 440.886719 376.144531 C 439.515625 376.144531 438.183594 377.117188 437.285156 378.757813 L 437.210938 378.757813 L 437.011719 376.46875 L 434.832031 376.46875 L 434.832031 389.152344 "/>
<path style=" stroke:none;fill-rule:nonzero;fill:rgb(16.868591%,15.696716%,16.088867%);fill-opacity:1;" d="M 449.292969 389.460938 C 450.96875 389.460938 452.410156 388.902344 453.597656 388.109375 L 452.660156 386.433594 C 451.742188 387.027344 450.769531 387.371094 449.652344 387.371094 C 447.453125 387.371094 445.941406 385.929688 445.722656 383.496094 L 453.957031 383.496094 C 454.03125 383.207031 454.066406 382.667969 454.066406 382.160156 C 454.066406 378.558594 452.28125 376.144531 448.914063 376.144531 C 445.941406 376.144531 443.113281 378.703125 443.113281 382.828125 C 443.113281 387.007813 445.867188 389.460938 449.292969 389.460938 Z M 445.707031 381.675781 C 445.957031 379.441406 447.363281 378.214844 448.949219 378.214844 C 450.804688 378.214844 451.796875 379.496094 451.796875 381.675781 L 445.707031 381.675781 "/>
<path style=" stroke:none;fill-rule:nonzero;fill:rgb(16.868591%,15.696716%,16.088867%);fill-opacity:1;" d="M 462.324219 389.460938 C 463.996094 389.460938 465.4375 388.902344 466.628906 388.109375 L 465.691406 386.433594 C 464.773438 387.027344 463.800781 387.371094 462.683594 387.371094 C 460.484375 387.371094 458.972656 385.929688 458.753906 383.496094 L 466.988281 383.496094 C 467.0625 383.207031 467.097656 382.667969 467.097656 382.160156 C 467.097656 378.558594 465.3125 376.144531 461.945313 376.144531 C 458.972656 376.144531 456.144531 378.703125 456.144531 382.828125 C 456.144531 387.007813 458.898438 389.460938 462.324219 389.460938 Z M 458.738281 381.675781 C 458.988281 379.441406 460.394531 378.214844 461.980469 378.214844 C 463.835938 378.214844 464.828125 379.496094 464.828125 381.675781 L 458.738281 381.675781 "/>
<path style=" stroke:none;fill-rule:nonzero;fill:rgb(16.868591%,15.696716%,16.088867%);fill-opacity:1;" d="M 475.246094 389.460938 C 476.703125 389.460938 478.199219 388.917969 479.351563 387.890625 L 478.273438 386.125 C 477.515625 386.777344 476.558594 387.28125 475.496094 387.28125 C 473.371094 387.28125 471.929688 385.515625 471.929688 382.828125 C 471.929688 380.144531 473.441406 378.34375 475.570313 378.34375 C 476.453125 378.34375 477.15625 378.703125 477.859375 379.332031 L 479.171875 377.605469 C 478.238281 376.792969 477.066406 376.144531 475.460938 376.144531 C 472.109375 376.144531 469.171875 378.59375 469.171875 382.828125 C 469.171875 387.027344 471.804688 389.460938 475.246094 389.460938 "/>
<path style=" stroke:none;fill-rule:nonzero;fill:rgb(16.868591%,15.696716%,16.088867%);fill-opacity:1;" d="M 486.476563 389.460938 C 489.613281 389.460938 492.441406 387.027344 492.441406 382.828125 C 492.441406 378.59375 489.613281 376.144531 486.476563 376.144531 C 483.34375 376.144531 480.496094 378.59375 480.496094 382.828125 C 480.496094 387.027344 483.34375 389.460938 486.476563 389.460938 Z M 486.476563 387.28125 C 484.496094 387.28125 483.253906 385.515625 483.253906 382.828125 C 483.253906 380.144531 484.496094 378.34375 486.476563 378.34375 C 488.480469 378.34375 489.722656 380.144531 489.722656 382.828125 C 489.722656 385.515625 488.480469 387.28125 486.476563 387.28125 "/>
<path style=" stroke:none;fill-rule:nonzero;fill:rgb(21.946716%,21.580505%,21.946716%);fill-opacity:1;" d="M 654.960938 920.867188 L 654.566406 920.792969 L 656.746094 918.777344 L 656.746094 917.550781 L 651.089844 917.550781 L 651.105469 919.171875 L 654.226563 919.171875 L 652.332031 920.992188 L 652.332031 922.109375 L 653.683594 922.109375 C 654.585938 922.109375 655.089844 922.453125 655.089844 923.101563 C 655.089844 923.730469 654.585938 924.109375 653.703125 924.109375 C 652.925781 924.109375 652.171875 923.75 651.539063 923.101563 L 650.675781 924.722656 C 651.46875 925.316406 652.691406 925.714844 653.863281 925.714844 C 655.863281 925.714844 657.144531 924.632813 657.144531 923.082031 C 657.144531 921.839844 656.261719 921.066406 654.960938 920.867188 "/>
<path style=" stroke:none;fill-rule:nonzero;fill:rgb(21.946716%,21.580505%,21.946716%);fill-opacity:1;" d="M 658.167969 917.535156 L 658.167969 919.261719 L 659.71875 919.261719 L 659.71875 925.625 L 661.824219 925.625 L 661.824219 917.535156 L 658.167969 917.535156 "/>
<path style=" stroke:none;fill-rule:nonzero;fill:rgb(21.946716%,21.580505%,21.946716%);fill-opacity:1;" d="M 605.019531 917.535156 L 605.019531 925.625 L 607.128906 925.625 L 607.128906 922.703125 L 610.75 922.703125 L 610.75 921.027344 L 607.128906 921.027344 L 607.128906 919.226563 L 611.039063 919.226563 L 611.054688 917.535156 L 605.019531 917.535156 "/>
<path style=" stroke:none;fill-rule:nonzero;fill:rgb(21.946716%,21.580505%,21.946716%);fill-opacity:1;" d="M 613.480469 920.417969 L 613.480469 919.390625 L 611.445313 919.390625 L 611.445313 925.625 L 613.480469 925.625 L 613.480469 922.433594 C 613.585938 921.570313 614.34375 921.066406 615.5 921.191406 L 615.5 919.296875 C 614.617188 919.296875 613.914063 919.714844 613.480469 920.417969 "/>
<path style=" stroke:none;fill-rule:nonzero;fill:rgb(21.946716%,21.580505%,21.946716%);fill-opacity:1;" d="M 618.566406 919.316406 C 616.617188 919.316406 615.304688 920.597656 615.304688 922.523438 C 615.304688 924.433594 616.566406 925.695313 618.601563 925.695313 C 619.753906 925.695313 620.691406 925.296875 621.320313 924.578125 L 620.257813 923.515625 C 619.84375 923.929688 619.320313 924.144531 618.796875 924.144531 C 618.097656 924.144531 617.574219 923.75 617.375 923.046875 L 621.71875 923.046875 C 621.84375 920.777344 620.746094 919.316406 618.566406 919.316406 Z M 617.320313 921.949219 C 617.464844 921.246094 617.898438 920.757813 618.566406 920.757813 C 619.265625 920.757813 619.71875 921.246094 619.71875 921.949219 L 617.320313 921.949219 "/>
<path style=" stroke:none;fill-rule:nonzero;fill:rgb(21.946716%,21.580505%,21.946716%);fill-opacity:1;" d="M 624.941406 919.316406 C 622.996094 919.316406 621.679688 920.597656 621.679688 922.523438 C 621.679688 924.433594 622.941406 925.695313 624.976563 925.695313 C 626.128906 925.695313 627.066406 925.296875 627.699219 924.578125 L 626.636719 923.515625 C 626.222656 923.929688 625.699219 924.144531 625.175781 924.144531 C 624.472656 924.144531 623.949219 923.75 623.753906 923.046875 L 628.09375 923.046875 C 628.222656 920.777344 627.121094 919.316406 624.941406 919.316406 Z M 623.699219 921.949219 C 623.84375 921.246094 624.273438 920.757813 624.941406 920.757813 C 625.644531 920.757813 626.09375 921.246094 626.09375 921.949219 L 623.699219 921.949219 "/>
<path style=" stroke:none;fill-rule:nonzero;fill:rgb(21.946716%,21.580505%,21.946716%);fill-opacity:1;" d="M 632.597656 921.660156 L 634.074219 920.792969 C 633.535156 919.855469 632.542969 919.316406 631.300781 919.316406 C 629.355469 919.316406 628.058594 920.597656 628.058594 922.523438 C 628.058594 924.433594 629.335938 925.695313 631.265625 925.695313 C 632.597656 925.695313 633.605469 925.15625 634.109375 924.199219 L 632.597656 923.335938 C 632.34375 923.820313 631.914063 924.039063 631.371094 924.039063 C 630.632813 924.039063 630.128906 923.425781 630.128906 922.523438 C 630.128906 921.625 630.632813 921.011719 631.371094 921.011719 C 631.894531 921.011719 632.328125 921.246094 632.597656 921.660156 "/>
<path style=" stroke:none;fill-rule:nonzero;fill:rgb(21.946716%,21.580505%,21.946716%);fill-opacity:1;" d="M 637.195313 919.316406 C 635.140625 919.316406 633.789063 920.578125 633.789063 922.507813 C 633.789063 924.417969 635.140625 925.695313 637.195313 925.695313 C 639.246094 925.695313 640.617188 924.417969 640.617188 922.507813 C 640.617188 920.578125 639.246094 919.316406 637.195313 919.316406 Z M 637.195313 920.976563 C 638.003906 920.976563 638.546875 921.605469 638.546875 922.523438 C 638.546875 923.460938 638.003906 924.074219 637.195313 924.074219 C 636.402344 924.074219 635.859375 923.460938 635.859375 922.523438 C 635.859375 921.605469 636.402344 920.976563 637.195313 920.976563 "/>
</g>
</svg>
