<?xml version="1.0" encoding="UTF-8"?>
<svg xmlns="http://www.w3.org/2000/svg" xmlns:xlink="http://www.w3.org/1999/xlink" width="707.04pt" height="1000.08pt" viewBox="0 0 707.04 1000.08" version="1.2">
<defs>
<clipPath id="clip1">
  <path d="M 0 0.21875 L 706.042969 0.21875 L 706.042969 998.792969 L 0 998.792969 Z M 0 0.21875 "/>
</clipPath>
<clipPath id="clip2">
  <path d="M 0 0.21875 L 706 0.21875 L 706 998 L 0 998 Z M 0 0.21875 "/>
</clipPath>
<clipPath id="clip3">
  <path d="M 0 0.21875 L 705.734375 0.21875 L 705.734375 997.429688 L 0 997.429688 Z M 0 0.21875 "/>
</clipPath>
<clipPath id="clip4">
  <path d="M 0 370 L 704.878906 370 L 704.878906 766.140625 L 0 766.140625 Z M 0 370 "/>
</clipPath>
</defs>
<g id="surface1">
<g clip-path="url(#clip1)" clip-rule="nonzero">
<path style=" stroke:none;fill-rule:nonzero;fill:rgb(100%,100%,100%);fill-opacity:1;" d="M 0 998.792969 L 706.042969 998.792969 L 706.042969 0.21875 L 0 0.21875 Z M 0 998.792969 "/>
</g>
<g clip-path="url(#clip2)" clip-rule="nonzero">
<path style=" stroke:none;fill-rule:nonzero;fill:rgb(100%,100%,100%);fill-opacity:1;" d="M 0 997.429688 L 705.734375 997.429688 L 705.734375 0.21875 L 0 0.21875 Z M 0 997.429688 "/>
</g>
<g clip-path="url(#clip3)" clip-rule="nonzero">
<path style=" stroke:none;fill-rule:nonzero;fill:rgb(100%,100%,100%);fill-opacity:1;" d="M 0 997.429688 L 705.734375 997.429688 L 705.734375 0.21875 L 0 0.21875 Z M 0 997.429688 "/>
</g>
<g clip-path="url(#clip4)" clip-rule="nonzero">
<path style=" stroke:none;fill-rule:nonzero;fill:rgb(94.139099%,51.756287%,38.818359%);fill-opacity:1;" d="M 0 766.101563 L 704.875 766.101563 L 704.875 370.027344 L 0 370.027344 L 0 766.101563 "/>
</g>
<path style=" stroke:none;fill-rule:nonzero;fill:rgb(92.576599%,92.96875%,93.359375%);fill-opacity:1;" d="M 42.628906 955.078125 L 662.25 955.078125 L 662.25 43.441406 L 42.628906 43.441406 L 42.628906 955.078125 "/>
<path style=" stroke:none;fill-rule:nonzero;fill:rgb(94.139099%,51.756287%,38.818359%);fill-opacity:1;" d="M 42.925781 955.078125 L 662.546875 955.078125 L 662.546875 43.441406 L 42.925781 43.441406 L 42.925781 955.078125 "/>
<path style=" stroke:none;fill-rule:nonzero;fill:rgb(100%,100%,100%);fill-opacity:1;" d="M 108.234375 541.910156 C 105.269531 538.039063 103.011719 530.3125 103.011719 518.382813 L 103.011719 485.742188 C 104.363281 485.742188 106.992188 486.09375 108.699219 486.78125 C 114.605469 489.039063 119.367188 494.617188 128.460938 504.398438 L 128.59375 504.398438 L 128.59375 487.222656 L 118.921875 487.222656 C 105.957031 487.222656 102.546875 480.851563 102.546875 474.386719 C 102.546875 468.015625 106.53125 463.699219 112.550781 463.699219 C 122.792969 463.699219 129.609375 472.21875 133.925781 481.09375 L 134.148438 481.09375 L 133.351563 462.328125 L 79.464844 462.328125 C 82.429688 466.199219 84.707031 473.925781 84.707031 485.855469 L 84.707031 518.382813 C 84.707031 530.3125 82.429688 538.039063 79.464844 541.910156 L 108.234375 541.910156 "/>
<path style=" stroke:none;fill-rule:nonzero;fill:rgb(100%,100%,100%);fill-opacity:1;" d="M 130.285156 494.949219 C 132.101563 496.210938 135.75 500.636719 135.507813 512.011719 L 134.839844 541.910156 L 157.902344 541.910156 C 155.292969 539.742188 152.570313 533.386719 152.570313 522.011719 L 152.570313 513.253906 C 152.570313 501.210938 165.183594 499.394531 172.683594 500.988281 L 176.207031 484.148438 C 161.886719 485.519531 155.070313 493.375 152.570313 506.546875 L 152.570313 484.148438 L 130.285156 494.503906 L 130.285156 494.949219 "/>
<path style=" stroke:none;fill-rule:nonzero;fill:rgb(100%,100%,100%);fill-opacity:1;" d="M 169.953125 513.714844 C 169.953125 530.3125 182.917969 542.816406 199.625 542.816406 C 215.09375 542.816406 225.894531 530.644531 227.136719 516.328125 C 228.394531 531.570313 240.898438 542.816406 256.699219 542.816406 C 272.945313 542.816406 284.097656 529.292969 284.320313 514.046875 L 284.097656 514.046875 C 282.503906 523.71875 275.226563 529.292969 266.019531 529.292969 C 253.625 529.292969 243.734375 520.996094 243.734375 508.378906 C 243.734375 507.582031 243.84375 506.785156 243.84375 505.988281 L 279.429688 505.988281 C 279.429688 490.746094 267.613281 484.148438 256.480469 484.148438 C 240.214844 484.148438 227.023438 496.320313 227.023438 513.714844 C 225.433594 523.605469 218.390625 529.292969 208.945313 529.292969 C 196.550781 529.292969 186.679688 520.996094 186.679688 508.378906 C 186.679688 507.582031 186.789063 506.785156 186.789063 505.988281 L 222.375 505.988281 C 222.375 490.746094 210.539063 484.148438 199.40625 484.148438 C 183.140625 484.148438 169.953125 496.320313 169.953125 513.714844 Z M 186.789063 504.839844 C 187.808594 494.726563 192.699219 485.742188 201 485.742188 C 206 485.742188 208.390625 489.503906 208.390625 493.132813 C 208.390625 501.320313 203.5 504.839844 192.589844 504.839844 Z M 243.84375 504.839844 C 244.882813 494.726563 249.773438 485.742188 258.070313 485.742188 C 263.074219 485.742188 265.445313 489.503906 265.445313 493.132813 C 265.445313 501.320313 260.570313 504.839844 249.644531 504.839844 L 243.84375 504.839844 "/>
<path style=" stroke:none;fill-rule:nonzero;fill:rgb(100%,100%,100%);fill-opacity:1;" d="M 299.996094 502.117188 C 299.996094 526.328125 319.445313 542.816406 343.769531 542.816406 C 365.144531 542.816406 376.519531 527.921875 381.058594 515.53125 L 380.59375 515.308594 C 375.039063 528.144531 362.644531 530.644531 356.273438 530.644531 C 334.894531 530.644531 317.5 514.402344 317.5 490.746094 C 317.5 475.40625 325.023438 463.808594 339.339844 463.808594 C 356.734375 463.808594 370.945313 482.910156 376.054688 499.394531 L 376.277344 499.394531 L 376.277344 470.183594 C 367.980469 465.050781 357.070313 461.421875 345.25 461.421875 C 319.890625 461.421875 299.996094 478.019531 299.996094 502.117188 "/>
<path style=" stroke:none;fill-rule:nonzero;fill:rgb(100%,100%,100%);fill-opacity:1;" d="M 374.792969 513.382813 C 374.792969 529.847656 387.871094 542.816406 404.136719 542.816406 C 420.492188 542.816406 433.460938 529.738281 433.460938 513.492188 C 433.460938 497.226563 420.382813 484.148438 404.25 484.148438 C 387.984375 484.148438 374.792969 497.117188 374.792969 513.382813 Z M 389.464844 497.691406 C 389.464844 491.320313 391.632813 486.890625 395.726563 486.890625 C 407.191406 486.890625 418.917969 513.9375 418.917969 528.941406 C 418.917969 535.886719 416.53125 540.316406 412.195313 540.09375 C 400.949219 539.1875 389.464844 512.34375 389.464844 497.691406 "/>
<path style=" stroke:none;fill-rule:nonzero;fill:rgb(100%,100%,100%);fill-opacity:1;" d="M 438.917969 543.835938 C 444.824219 543.835938 449.03125 539.40625 449.03125 533.71875 C 449.03125 528.144531 444.824219 523.382813 438.917969 523.382813 C 433.117188 523.382813 428.5625 528.144531 428.5625 533.71875 C 428.5625 539.40625 433.117188 543.835938 438.917969 543.835938 "/>
<path style=" stroke:none;fill-rule:nonzero;fill:rgb(100%,100%,100%);fill-opacity:1;" d="M 530.492188 146.265625 L 530.492188 191.09375 L 542.183594 191.09375 L 542.183594 174.921875 L 562.261719 174.921875 L 562.261719 165.585938 L 542.183594 165.585938 L 542.183594 155.601563 L 563.929688 155.601563 L 564.003906 146.265625 L 530.492188 146.265625 "/>
<path style=" stroke:none;fill-rule:nonzero;fill:rgb(100%,100%,100%);fill-opacity:1;" d="M 566.996094 180.535156 C 563.808594 180.535156 561.570313 182.777344 561.570313 186.035156 C 561.570313 189.296875 563.808594 191.613281 566.996094 191.613281 C 570.199219 191.613281 572.496094 189.296875 572.496094 186.035156 C 572.496094 182.777344 570.199219 180.535156 566.996094 180.535156 "/>
<path style=" stroke:none;fill-rule:nonzero;fill:rgb(100%,100%,100%);fill-opacity:1;" d="M 111.992188 634.847656 L 95.453125 634.847656 L 95.453125 629.605469 L 111.992188 629.605469 Z M 119.589844 622.527344 L 88.320313 622.527344 L 88.320313 641.886719 L 119.589844 641.886719 Z M 94.378906 652.574219 L 94.378906 659.445313 L 88.523438 659.445313 L 88.523438 652.574219 Z M 81.539063 668.96875 L 88.523438 668.96875 L 88.523438 666.523438 L 94.378906 666.523438 L 94.378906 668.765625 L 101.769531 668.765625 L 101.769531 645.496094 L 81.539063 645.496094 Z M 112.457031 659.445313 L 112.457031 652.574219 L 118.664063 652.574219 L 118.664063 659.445313 Z M 105.382813 645.496094 L 105.382813 668.96875 L 112.457031 668.96875 L 112.457031 666.523438 L 118.664063 666.523438 L 118.664063 668.765625 L 126.109375 668.765625 L 126.109375 645.496094 L 105.382813 645.496094 "/>
<path style=" stroke:none;fill-rule:nonzero;fill:rgb(100%,100%,100%);fill-opacity:1;" d="M 136.746094 639.886719 L 146.878906 639.886719 L 146.878906 633.679688 L 144.636719 633.679688 L 144.636719 620.636719 L 138.527344 620.636719 L 138.527344 633.679688 L 136.746094 633.679688 L 136.746094 622.121094 L 130.429688 622.121094 L 130.429688 640.867188 C 130.429688 647.792969 130.023438 659.648438 127.261719 667.042969 C 129.003906 667.449219 131.949219 668.46875 133.433594 669.117188 C 135.210938 664.039063 136.023438 657.261719 136.433594 651 L 139.285156 651 L 139.285156 669.078125 L 145.601563 669.078125 L 145.601563 644.832031 L 136.691406 644.832031 C 136.746094 643.40625 136.746094 642.089844 136.746094 640.867188 Z M 154.863281 640.292969 L 154.863281 637.957031 L 157.253906 637.957031 C 157.105469 638.71875 156.902344 639.476563 156.605469 640.292969 Z M 154.863281 630.417969 L 157.863281 630.417969 L 157.863281 632.714844 L 154.863281 632.714844 Z M 167.386719 632.714844 L 164.550781 632.714844 L 164.550781 630.417969 L 167.386719 630.417969 Z M 167.386719 640.292969 L 163.625 640.292969 C 163.828125 639.476563 163.976563 638.71875 164.144531 637.957031 L 167.386719 637.957031 Z M 176.203125 653.59375 L 168.054688 653.59375 L 168.054688 647.425781 L 160.976563 647.425781 L 160.976563 653.59375 L 155.125 653.59375 C 158.03125 651.351563 160.070313 648.703125 161.496094 645.996094 L 174.425781 645.996094 L 174.425781 624.714844 L 163.273438 624.714844 C 163.828125 623.65625 164.347656 622.472656 164.847656 621.25 L 156.140625 620.636719 C 156.03125 621.859375 155.789063 623.285156 155.476563 624.714844 L 148.195313 624.714844 L 148.195313 645.996094 L 153.382813 645.996094 C 151.972656 647.683594 150.140625 649.3125 147.730469 650.683594 C 148.863281 651.40625 150.4375 652.519531 151.660156 653.59375 L 146.621094 653.59375 L 146.621094 659.910156 L 160.976563 659.910156 L 160.976563 668.96875 L 168.054688 668.96875 L 168.054688 659.910156 L 176.203125 659.910156 L 176.203125 653.59375 "/>
<path style=" stroke:none;fill-rule:nonzero;fill:rgb(100%,100%,100%);fill-opacity:1;" d="M 224.222656 646.722656 L 204.511719 646.722656 L 204.511719 641.976563 L 221.109375 641.976563 L 221.109375 634.902344 L 204.511719 634.902344 L 204.511719 629.195313 C 209.960938 628.53125 215.144531 627.675781 219.832031 626.546875 L 214.496094 620.398438 C 205.792969 622.527344 192.195313 623.859375 179.820313 624.304688 C 180.523438 625.9375 181.449219 628.9375 181.65625 630.828125 C 186.488281 630.679688 191.621094 630.417969 196.769531 629.957031 L 196.769531 634.902344 L 180.523438 634.902344 L 180.523438 641.976563 L 196.769531 641.976563 L 196.769531 646.722656 L 176.96875 646.722656 L 176.96875 653.945313 L 196.769531 653.945313 L 196.769531 660.410156 C 196.769531 661.429688 196.304688 661.800781 195.140625 661.800781 C 193.917969 661.800781 189.546875 661.800781 186.027344 661.632813 C 187.15625 663.578125 188.5625 666.875 189.027344 668.96875 C 194.121094 669.023438 198.046875 668.820313 200.789063 667.691406 C 203.550781 666.578125 204.511719 664.6875 204.511719 660.578125 L 204.511719 653.945313 L 224.222656 653.945313 L 224.222656 646.722656 "/>
<path style=" stroke:none;fill-rule:nonzero;fill:rgb(100%,100%,100%);fill-opacity:1;" d="M 257.421875 640.292969 L 257.421875 630.476563 L 261.089844 630.476563 L 261.089844 640.292969 Z M 247.289063 647.425781 L 250.085938 647.425781 C 249.828125 652.109375 249.160156 657.113281 247.289063 661.28125 Z M 237.140625 640.292969 L 237.140625 630.476563 L 240.15625 630.476563 L 240.15625 640.292969 Z M 272.855469 640.292969 L 268.40625 640.292969 L 268.40625 623.65625 L 250.234375 623.65625 L 250.234375 640.292969 L 247.289063 640.292969 L 247.289063 623.65625 L 230.0625 623.65625 L 230.0625 640.292969 L 224.929688 640.292969 L 224.929688 647.425781 L 229.859375 647.425781 C 229.507813 653.332031 228.339844 659.59375 224.726563 664.226563 C 226.097656 665.152344 228.949219 668.058594 229.96875 669.523438 C 234.65625 663.875 236.378906 655.074219 236.898438 647.425781 L 240.15625 647.425781 L 240.15625 661.429688 C 240.15625 662.097656 239.953125 662.355469 239.230469 662.355469 C 238.621094 662.410156 236.527344 662.410156 234.917969 662.300781 C 235.824219 663.984375 236.84375 666.984375 237.101563 668.820313 C 240.453125 668.820313 242.957031 668.671875 244.84375 667.542969 C 245.863281 666.929688 246.476563 666.171875 246.828125 665.097656 C 248.347656 666.375 250.328125 668.265625 251.199219 669.375 C 255.273438 663.78125 256.757813 654.964844 257.21875 647.425781 L 261.089844 647.425781 L 261.089844 660.984375 C 261.089844 661.632813 260.886719 661.890625 260.164063 661.945313 C 259.554688 661.945313 257.460938 661.945313 255.828125 661.835938 C 256.8125 663.632813 257.828125 666.835938 258.070313 668.765625 C 261.480469 668.765625 263.980469 668.617188 265.925781 667.449219 C 267.851563 666.226563 268.40625 664.335938 268.40625 661.078125 L 268.40625 647.425781 L 272.855469 647.425781 L 272.855469 640.292969 "/>
<path style="fill:none;stroke-width:35.5717;stroke-linecap:butt;stroke-linejoin:miter;stroke:rgb(96.484375%,78.90625%,74.804688%);stroke-opacity:1;stroke-miterlimit:4;" d="M 5470.190645 7715.238937 C 5777.873467 7715.238937 6027.274138 7964.678723 6027.274138 8272.32243 C 6027.274138 8579.966136 5777.873467 8829.366807 5470.190645 8829.366807 C 5162.546939 8829.366807 4913.146268 8579.966136 4913.146268 8272.32243 C 4913.146268 7964.678723 5162.546939 7715.238937 5470.190645 7715.238937 Z M 5470.190645 7715.238937 " transform="matrix(0.0998644,0,0,-0.0998644,0,998.942603)"/>
</g>
</svg>
