<?xml version="1.0" encoding="UTF-8"?>
<svg xmlns="http://www.w3.org/2000/svg" xmlns:xlink="http://www.w3.org/1999/xlink" width="707.04pt" height="1000.08pt" viewBox="0 0 707.04 1000.08" version="1.2">
<defs>
<clipPath id="clip1">
  <path d="M 0 0.21875 L 706.042969 0.21875 L 706.042969 998.792969 L 0 998.792969 Z M 0 0.21875 "/>
</clipPath>
<clipPath id="clip2">
  <path d="M 0 0.21875 L 706 0.21875 L 706 998 L 0 998 Z M 0 0.21875 "/>
</clipPath>
<clipPath id="clip3">
  <path d="M 0 42 L 705.734375 42 L 705.734375 956 L 0 956 Z M 0 42 "/>
</clipPath>
</defs>
<g id="surface1">
<g clip-path="url(#clip1)" clip-rule="nonzero">
<path style=" stroke:none;fill-rule:nonzero;fill:rgb(100%,100%,100%);fill-opacity:1;" d="M 0 998.792969 L 706.042969 998.792969 L 706.042969 0.21875 L 0 0.21875 Z M 0 998.792969 "/>
</g>
<g clip-path="url(#clip2)" clip-rule="nonzero">
<path style=" stroke:none;fill-rule:nonzero;fill:rgb(100%,100%,100%);fill-opacity:1;" d="M 0 997.429688 L 705.734375 997.429688 L 705.734375 0.21875 L 0 0.21875 Z M 0 997.429688 "/>
</g>
<g clip-path="url(#clip3)" clip-rule="nonzero">
<path style=" stroke:none;fill-rule:nonzero;fill:rgb(97.65625%,82.03125%,77.34375%);fill-opacity:1;" d="M 0 955.972656 L 705.734375 955.972656 L 705.734375 42.671875 L 0 42.671875 Z M 0 955.972656 "/>
</g>
<path style=" stroke:none;fill-rule:nonzero;fill:rgb(87.889099%,45.483398%,20.776367%);fill-opacity:1;" d="M 86.210938 101.898438 L 73.234375 101.898438 L 73.234375 96.261719 L 86.210938 96.261719 Z M 89.488281 93.179688 L 70.15625 93.179688 L 70.15625 104.960938 L 89.488281 104.960938 Z M 74.625 111.414063 L 74.625 118.601563 L 68.316406 118.601563 L 68.316406 111.414063 Z M 65.273438 123.484375 L 68.316406 123.484375 L 68.316406 121.683594 L 74.625 121.683594 L 74.625 123.234375 L 77.792969 123.234375 L 77.792969 108.332031 L 65.273438 108.332031 Z M 84.261719 118.601563 L 84.261719 111.414063 L 91.128906 111.414063 L 91.128906 118.601563 Z M 81.199219 108.332031 L 81.199219 123.484375 L 84.261719 123.484375 L 84.261719 121.683594 L 91.128906 121.683594 L 91.128906 123.304688 L 94.335938 123.304688 L 94.335938 108.332031 L 81.199219 108.332031 "/>
<path style=" stroke:none;fill-rule:nonzero;fill:rgb(87.889099%,45.483398%,20.776367%);fill-opacity:1;" d="M 103.019531 103.792969 L 110.605469 103.792969 L 110.605469 101.070313 L 108.28125 101.070313 L 108.28125 91.753906 L 105.578125 91.753906 L 105.578125 101.070313 L 103.019531 101.070313 L 103.019531 92.511719 L 100.226563 92.511719 L 100.226563 105.484375 C 100.226563 110.402344 99.902344 117.628906 97.976563 122.546875 C 98.804688 122.746094 100.082031 123.234375 100.730469 123.574219 C 102.082031 119.953125 102.640625 115.324219 102.875 111.015625 L 106.550781 111.015625 L 106.550781 123.484375 L 109.328125 123.484375 L 109.328125 108.296875 L 102.984375 108.296875 C 103.019531 107.289063 103.019531 106.386719 103.019531 105.484375 Z M 114.929688 105.863281 L 114.929688 102.855469 L 118.730469 102.855469 C 118.550781 103.828125 118.28125 104.871094 117.832031 105.863281 Z M 114.929688 97.503906 L 119.003906 97.503906 L 119.003906 100.441406 L 114.929688 100.441406 Z M 125.613281 100.441406 L 121.902344 100.441406 L 121.902344 97.503906 L 125.613281 97.503906 Z M 125.613281 105.863281 L 121 105.863281 C 121.328125 104.871094 121.5625 103.828125 121.703125 102.855469 L 125.613281 102.855469 Z M 130.082031 113.972656 L 123.886719 113.972656 L 123.886719 108.945313 L 120.804688 108.945313 L 120.804688 113.972656 L 114.371094 113.972656 C 117.003906 112.332031 118.695313 110.402344 119.832031 108.421875 L 128.660156 108.421875 L 128.660156 94.945313 L 120.355469 94.945313 C 120.804688 94.082031 121.253906 93.070313 121.597656 92.132813 L 117.902344 91.753906 C 117.757813 92.65625 117.453125 93.863281 117.109375 94.945313 L 111.976563 94.945313 L 111.976563 108.421875 L 116.246094 108.421875 C 115.164063 109.808594 113.667969 111.160156 111.558594 112.3125 C 112.226563 112.730469 113.09375 113.414063 113.667969 113.972656 L 110.460938 113.972656 L 110.460938 116.726563 L 120.804688 116.726563 L 120.804688 123.484375 L 123.886719 123.484375 L 123.886719 116.726563 L 130.082031 116.726563 L 130.082031 113.972656 "/>
<path style=" stroke:none;fill-rule:nonzero;fill:rgb(87.889099%,45.483398%,20.776367%);fill-opacity:1;" d="M 152.28125 98.53125 C 151.453125 101.035156 150.390625 103.628906 149.109375 106.007813 C 147.398438 103.828125 145.648438 101.71875 144.046875 99.808594 L 141.382813 101.160156 C 143.363281 103.519531 145.46875 106.222656 147.398438 108.871094 C 145.21875 112.277344 142.695313 115.214844 140.011719 117.105469 C 140.769531 117.664063 141.796875 118.800781 142.390625 119.574219 C 144.914063 117.558594 147.308594 114.835938 149.34375 111.648438 C 151.21875 114.351563 152.839844 116.945313 153.847656 118.945313 L 156.820313 117.214844 C 155.507813 114.871094 153.433594 111.828125 151.109375 108.675781 C 152.695313 105.738281 154.046875 102.546875 155.09375 99.304688 Z M 137.019531 93.179688 L 137.019531 103.144531 C 137.019531 108.566406 136.714844 116.1875 132.984375 121.394531 C 133.703125 121.792969 135.09375 122.925781 135.6875 123.574219 C 139.6875 117.9375 140.351563 108.980469 140.351563 103.144531 L 140.351563 96.296875 L 157.273438 96.296875 C 157.308594 114.097656 157.363281 123.125 162.210938 123.125 C 164.226563 123.125 164.875 121.503906 165.183594 117.015625 C 164.570313 116.496094 163.703125 115.414063 163.183594 114.621094 C 163.109375 117.359375 162.875 119.738281 162.460938 119.738281 C 160.316406 119.738281 160.351563 109.808594 160.480469 93.179688 L 137.019531 93.179688 "/>
<path style=" stroke:none;fill-rule:nonzero;fill:rgb(87.889099%,45.483398%,20.776367%);fill-opacity:1;" d="M 193.417969 113.449219 L 193.417969 118.746094 L 184.011719 118.746094 L 184.011719 113.449219 Z M 180.964844 123.378906 L 184.011719 123.378906 L 184.011719 121.574219 L 193.417969 121.574219 L 193.417969 123.304688 L 196.605469 123.304688 L 196.605469 110.601563 L 180.964844 110.601563 Z M 179.757813 106.945313 C 179.09375 106.078125 176.390625 102.511719 175.523438 101.648438 L 175.523438 101.234375 L 179.019531 101.234375 L 179.019531 100.925781 C 179.613281 101.574219 180.40625 102.726563 180.714844 103.269531 C 181.578125 102.441406 182.40625 101.503906 183.21875 100.476563 C 184.136719 101.898438 185.328125 103.214844 186.640625 104.386719 C 184.355469 105.808594 181.757813 106.910156 179.058594 107.773438 Z M 193.417969 97.882813 C 192.28125 99.71875 190.785156 101.339844 189.019531 102.726563 C 187.328125 101.339844 185.902344 99.753906 184.875 97.953125 L 184.949219 97.882813 Z M 195.8125 94.910156 L 195.289063 95.035156 L 186.460938 95.035156 C 186.914063 94.171875 187.289063 93.25 187.632813 92.351563 L 184.804688 91.554688 C 183.5625 95.035156 181.453125 98.332031 179.019531 100.546875 L 179.019531 98.261719 L 175.523438 98.261719 L 175.523438 91.753906 L 172.480469 91.753906 L 172.480469 98.261719 L 167.957031 98.261719 L 167.957031 101.234375 L 172.03125 101.234375 C 171.148438 105.59375 169.199219 110.710938 167.199219 113.449219 C 167.742188 114.277344 168.445313 115.738281 168.75 116.65625 C 170.136719 114.546875 171.488281 111.269531 172.480469 107.773438 L 172.480469 123.484375 L 175.523438 123.484375 L 175.523438 105.394531 C 176.390625 106.835938 177.289063 108.457031 177.742188 109.394531 L 178.082031 108.980469 C 178.515625 109.648438 178.984375 110.476563 179.199219 111.054688 C 182.730469 109.988281 186.15625 108.421875 189.199219 106.386719 C 191.902344 108.261719 195.074219 109.71875 198.535156 110.675781 C 198.75 109.808594 199.199219 108.457031 199.6875 107.703125 C 196.695313 107.015625 193.976563 105.933594 191.578125 104.53125 C 194.210938 102.242188 196.390625 99.429688 197.847656 96.117188 L 195.8125 94.910156 "/>
<path style=" stroke:none;fill-rule:nonzero;fill:rgb(87.889099%,45.483398%,20.776367%);fill-opacity:1;" d="M 65.757813 162.261719 L 74.28125 162.261719 C 79.921875 162.261719 84.027344 159.847656 84.027344 154.78125 C 84.027344 151.324219 81.921875 149.359375 79.019531 148.730469 L 79.019531 148.566406 C 81.289063 147.792969 82.640625 145.484375 82.640625 143.050781 C 82.640625 138.457031 78.875 136.800781 73.652344 136.800781 L 65.757813 136.800781 Z M 69.777344 147.414063 L 69.777344 139.917969 L 73.308594 139.917969 C 76.894531 139.917969 78.695313 140.910156 78.695313 143.574219 C 78.695313 145.972656 77.074219 147.414063 73.199219 147.414063 Z M 69.777344 159.105469 L 69.777344 150.457031 L 73.832031 150.457031 C 77.867188 150.457031 80.082031 151.703125 80.082031 154.585938 C 80.082031 157.703125 77.792969 159.105469 73.832031 159.105469 L 69.777344 159.105469 "/>
<path style=" stroke:none;fill-rule:nonzero;fill:rgb(87.889099%,45.483398%,20.776367%);fill-opacity:1;" d="M 88.492188 162.261719 L 92.4375 162.261719 L 92.4375 150.386719 C 93.644531 147.378906 95.519531 146.3125 97.066406 146.3125 C 97.824219 146.3125 98.3125 146.421875 98.976563 146.621094 L 99.699219 143.160156 C 99.105469 142.890625 98.492188 142.746094 97.554688 142.746094 C 95.519531 142.746094 93.5 144.207031 92.167969 146.65625 L 92.058594 146.65625 L 91.753906 143.234375 L 88.492188 143.234375 L 88.492188 162.261719 "/>
<path style=" stroke:none;fill-rule:nonzero;fill:rgb(87.889099%,45.483398%,20.776367%);fill-opacity:1;" d="M 106.175781 162.710938 C 108.445313 162.710938 110.5 161.574219 112.230469 160.078125 L 112.320313 160.078125 L 112.679688 162.261719 L 115.921875 162.261719 L 115.921875 150.800781 C 115.921875 145.757813 113.742188 142.746094 109.003906 142.746094 C 105.960938 142.746094 103.292969 143.988281 101.328125 145.234375 L 102.804688 147.9375 C 104.445313 146.910156 106.300781 146.007813 108.320313 146.007813 C 111.113281 146.007813 111.90625 147.9375 111.941406 150.152344 C 104.03125 151.015625 100.574219 153.125 100.574219 157.214844 C 100.574219 160.566406 102.878906 162.710938 106.175781 162.710938 Z M 107.382813 159.558594 C 105.691406 159.558594 104.410156 158.800781 104.410156 156.925781 C 104.410156 154.78125 106.300781 153.378906 111.941406 152.675781 L 111.941406 157.339844 C 110.390625 158.765625 109.039063 159.558594 107.382813 159.558594 "/>
<path style=" stroke:none;fill-rule:nonzero;fill:rgb(87.889099%,45.483398%,20.776367%);fill-opacity:1;" d="M 121.5625 162.261719 L 125.507813 162.261719 L 125.507813 148.765625 C 127.203125 147.070313 128.410156 146.171875 130.175781 146.171875 C 132.429688 146.171875 133.402344 147.484375 133.402344 150.785156 L 133.402344 162.261719 L 137.367188 162.261719 L 137.367188 150.296875 C 137.367188 145.449219 135.582031 142.746094 131.527344 142.746094 C 128.933594 142.746094 126.988281 144.171875 125.238281 145.863281 L 125.132813 145.863281 L 124.824219 143.234375 L 121.5625 143.234375 L 121.5625 162.261719 "/>
<path style=" stroke:none;fill-rule:nonzero;fill:rgb(87.889099%,45.483398%,20.776367%);fill-opacity:1;" d="M 149.726563 162.710938 C 151.871094 162.710938 153.835938 161.574219 155.257813 160.117188 L 155.367188 160.117188 L 155.710938 162.261719 L 158.953125 162.261719 L 158.953125 134.691406 L 154.988281 134.691406 L 154.988281 141.738281 L 155.148438 144.890625 C 153.601563 143.574219 152.214844 142.746094 150.035156 142.746094 C 145.78125 142.746094 141.871094 146.585938 141.871094 152.78125 C 141.871094 159.070313 144.953125 162.710938 149.726563 162.710938 Z M 150.664063 159.429688 C 147.691406 159.429688 145.980469 157.035156 145.980469 152.710938 C 145.980469 148.601563 148.140625 146.0625 150.789063 146.0625 C 152.214844 146.0625 153.566406 146.511719 154.988281 147.792969 L 154.988281 157.105469 C 153.601563 158.691406 152.25 159.429688 150.664063 159.429688 "/>
<path style=" stroke:none;fill-rule:nonzero;fill:rgb(87.889099%,45.483398%,20.776367%);fill-opacity:1;" d="M 177.882813 162.710938 C 182.585938 162.710938 185.109375 160.117188 185.109375 156.925781 C 185.109375 153.339844 182.171875 152.152344 179.503906 151.160156 C 177.433594 150.386719 175.46875 149.773438 175.46875 148.152344 C 175.46875 146.835938 176.421875 145.792969 178.511719 145.792969 C 180.097656 145.792969 181.449219 146.476563 182.765625 147.449219 L 184.640625 145 C 183.070313 143.792969 181 142.746094 178.441406 142.746094 C 174.261719 142.746094 171.683594 145.144531 171.683594 148.316406 C 171.683594 151.539063 174.601563 152.890625 177.125 153.847656 C 179.199219 154.65625 181.339844 155.414063 181.339844 157.140625 C 181.339844 158.585938 180.277344 159.703125 177.992188 159.703125 C 175.953125 159.703125 174.28125 158.875 172.585938 157.519531 L 170.730469 160.078125 C 172.550781 161.613281 175.253906 162.710938 177.882813 162.710938 "/>
<path style=" stroke:none;fill-rule:nonzero;fill:rgb(87.889099%,45.483398%,20.776367%);fill-opacity:1;" d="M 194.96875 162.710938 C 196.355469 162.710938 197.636719 162.367188 198.71875 162.027344 L 197.980469 159.070313 C 197.4375 159.324219 196.59375 159.519531 195.941406 159.519531 C 193.980469 159.519531 193.167969 158.351563 193.167969 156.0625 L 193.167969 146.421875 L 198.121094 146.421875 L 198.121094 143.234375 L 193.167969 143.234375 L 193.167969 137.972656 L 189.816406 137.972656 L 189.367188 143.234375 L 186.429688 143.449219 L 186.429688 146.421875 L 189.203125 146.421875 L 189.203125 156.027344 C 189.203125 160.042969 190.683594 162.710938 194.96875 162.710938 "/>
<path style=" stroke:none;fill-rule:nonzero;fill:rgb(87.889099%,45.483398%,20.776367%);fill-opacity:1;" d="M 217.640625 143.234375 L 213.75 143.234375 L 210.722656 153.015625 L 209.226563 158.386719 L 209.046875 158.386719 C 208.472656 156.621094 207.875 154.710938 207.320313 153.015625 L 203.804688 143.234375 L 199.714844 143.234375 L 207.265625 162.117188 L 206.867188 163.429688 C 206.183594 165.484375 204.976563 167 202.902344 167 C 202.417969 167 201.859375 166.820313 201.515625 166.730469 L 200.757813 169.828125 C 201.410156 170.078125 202.164063 170.226563 203.136719 170.226563 C 207.15625 170.226563 209.15625 167.484375 210.652344 163.394531 L 217.640625 143.234375 "/>
<path style=" stroke:none;fill-rule:nonzero;fill:rgb(87.889099%,45.483398%,20.776367%);fill-opacity:1;" d="M 225.039063 162.710938 C 226.011719 162.710938 226.695313 162.566406 227.183594 162.40625 L 226.660156 159.394531 C 226.316406 159.449219 226.175781 159.449219 226.011719 159.449219 C 225.523438 159.449219 225.039063 159.070313 225.039063 158.007813 L 225.039063 134.691406 L 221.09375 134.691406 L 221.09375 157.792969 C 221.09375 160.875 222.171875 162.710938 225.039063 162.710938 "/>
<path style=" stroke:none;fill-rule:nonzero;fill:rgb(87.889099%,45.483398%,20.776367%);fill-opacity:1;" d="M 239.328125 162.710938 C 241.816406 162.710938 243.996094 161.882813 245.761719 160.710938 L 244.375 158.171875 C 242.988281 159.070313 241.546875 159.59375 239.851563 159.59375 C 236.554688 159.59375 234.265625 157.414063 233.960938 153.792969 L 246.320313 153.792969 C 246.410156 153.339844 246.484375 152.53125 246.484375 151.773438 C 246.484375 146.386719 243.78125 142.746094 238.734375 142.746094 C 234.265625 142.746094 230.050781 146.585938 230.050781 152.78125 C 230.050781 159.035156 234.175781 162.710938 239.328125 162.710938 Z M 233.925781 151.054688 C 234.304688 147.703125 236.410156 145.863281 238.808594 145.863281 C 241.582031 145.863281 243.058594 147.773438 243.058594 151.054688 L 233.925781 151.054688 "/>
<path style=" stroke:none;fill-rule:nonzero;fill:rgb(16.868591%,15.696716%,16.088867%);fill-opacity:1;" d="M 80.734375 305.730469 L 72.085938 305.730469 L 72.085938 301.984375 L 80.734375 301.984375 Z M 82.914063 299.929688 L 70.03125 299.929688 L 70.03125 307.785156 L 82.914063 307.785156 Z M 73.003906 312.074219 L 73.003906 316.882813 L 68.804688 316.882813 L 68.804688 312.074219 Z M 66.769531 320.128906 L 68.804688 320.128906 L 68.804688 318.9375 L 73.003906 318.9375 L 73.003906 319.964844 L 75.128906 319.964844 L 75.128906 310.019531 L 66.769531 310.019531 Z M 79.433594 316.882813 L 79.433594 312.074219 L 83.996094 312.074219 L 83.996094 316.882813 Z M 77.382813 310.019531 L 77.382813 320.128906 L 79.433594 320.128906 L 79.433594 318.9375 L 83.996094 318.9375 L 83.996094 320.019531 L 86.136719 320.019531 L 86.136719 310.019531 L 77.382813 310.019531 "/>
<path style=" stroke:none;fill-rule:nonzero;fill:rgb(16.868591%,15.696716%,16.088867%);fill-opacity:1;" d="M 91.941406 307.011719 L 96.984375 307.011719 L 96.984375 305.191406 L 95.4375 305.191406 L 95.4375 298.976563 L 93.632813 298.976563 L 93.632813 305.191406 L 91.941406 305.191406 L 91.941406 299.496094 L 90.066406 299.496094 L 90.066406 308.144531 C 90.066406 311.40625 89.867188 316.234375 88.570313 319.515625 C 89.128906 319.640625 89.976563 319.964844 90.410156 320.199219 C 91.308594 317.785156 91.6875 314.6875 91.851563 311.820313 L 94.28125 311.820313 L 94.28125 320.128906 L 96.136719 320.128906 L 96.136719 310.003906 L 91.902344 310.003906 C 91.941406 309.335938 91.941406 308.742188 91.941406 308.144531 Z M 99.867188 308.398438 L 99.867188 306.378906 L 102.410156 306.378906 C 102.28125 307.027344 102.101563 307.714844 101.8125 308.398438 Z M 99.867188 302.8125 L 102.589844 302.8125 L 102.589844 304.777344 L 99.867188 304.777344 Z M 107.003906 304.777344 L 104.535156 304.777344 L 104.535156 302.8125 L 107.003906 302.8125 Z M 107.003906 308.398438 L 103.921875 308.398438 C 104.136719 307.714844 104.300781 307.027344 104.390625 306.378906 L 107.003906 306.378906 Z M 109.976563 313.785156 L 105.851563 313.785156 L 105.851563 310.453125 L 103.796875 310.453125 L 103.796875 313.785156 L 99.507813 313.785156 C 101.253906 312.703125 102.390625 311.40625 103.148438 310.09375 L 109.019531 310.09375 L 109.019531 301.101563 L 103.488281 301.101563 C 103.796875 300.523438 104.085938 299.859375 104.316406 299.226563 L 101.851563 298.976563 C 101.761719 299.585938 101.542969 300.378906 101.328125 301.101563 L 97.902344 301.101563 L 97.902344 310.09375 L 100.75 310.09375 C 100.03125 311.027344 99.039063 311.910156 97.632813 312.6875 C 98.066406 312.957031 98.644531 313.425781 99.039063 313.785156 L 96.894531 313.785156 L 96.894531 315.640625 L 103.796875 315.640625 L 103.796875 320.128906 L 105.851563 320.128906 L 105.851563 315.640625 L 109.976563 315.640625 L 109.976563 313.785156 "/>
<path style=" stroke:none;fill-rule:nonzero;fill:rgb(16.868591%,15.696716%,16.088867%);fill-opacity:1;" d="M 131.722656 300.578125 L 121.722656 300.578125 L 121.722656 302.578125 L 131.722656 302.578125 Z M 120.605469 309.984375 C 120.210938 309.40625 118.246094 306.957031 117.5625 306.199219 L 117.5625 305.640625 L 120.390625 305.640625 L 120.390625 303.660156 L 117.5625 303.660156 L 117.5625 298.957031 L 115.4375 298.957031 L 115.4375 303.660156 L 112.085938 303.660156 L 112.085938 305.640625 L 115.003906 305.640625 C 114.300781 308.363281 112.96875 311.496094 111.578125 313.207031 C 111.957031 313.75 112.5 314.6875 112.714844 315.261719 C 113.722656 313.910156 114.699219 311.785156 115.4375 309.550781 L 115.4375 320.128906 L 117.5625 320.128906 L 117.5625 308.652344 C 118.246094 309.714844 119.058594 310.976563 119.398438 311.695313 Z M 122.046875 310.378906 C 121.472656 312.777344 120.460938 315.261719 119.238281 316.847656 C 119.722656 317.101563 120.570313 317.660156 120.949219 317.984375 C 122.175781 316.21875 123.328125 313.480469 123.996094 310.832031 Z M 132.96875 308.019531 L 132.96875 306.019531 L 120.714844 306.019531 L 120.714844 308.019531 L 125.417969 308.019531 L 125.417969 317.460938 C 125.417969 317.75 125.328125 317.839844 125.003906 317.839844 C 124.714844 317.875 123.6875 317.875 122.605469 317.820313 C 122.914063 318.46875 123.183594 319.40625 123.253906 320.039063 C 124.839844 320.039063 125.921875 319.984375 126.660156 319.625 C 127.398438 319.28125 127.617188 318.632813 127.617188 317.496094 L 127.617188 308.019531 Z M 128.804688 310.902344 C 129.851563 313.207031 130.839844 316.21875 131.148438 318.054688 L 133.109375 317.316406 C 132.734375 315.496094 131.671875 312.5625 130.605469 310.308594 L 128.804688 310.902344 "/>
<path style=" stroke:none;fill-rule:nonzero;fill:rgb(16.868591%,15.696716%,16.088867%);fill-opacity:1;" d="M 152.480469 308.921875 L 146.226563 308.921875 L 146.226563 302.558594 L 152.480469 302.558594 Z M 154.695313 300.507813 L 144.101563 300.507813 L 144.101563 310.957031 L 154.695313 310.957031 Z M 141.363281 302.847656 C 140.570313 301.910156 138.929688 300.453125 137.722656 299.460938 L 136.300781 300.757813 C 137.5625 301.839844 139.148438 303.335938 139.867188 304.324219 Z M 140.300781 315.082031 L 140.300781 306.054688 L 135.21875 306.054688 L 135.21875 308.109375 L 138.226563 308.109375 L 138.226563 315.480469 C 138.226563 316.792969 137.398438 317.75 136.859375 318.199219 C 137.253906 318.46875 137.941406 319.191406 138.191406 319.605469 C 138.570313 319.101563 139.257813 318.523438 143.363281 315.171875 C 143.113281 314.777344 142.695313 313.910156 142.535156 313.335938 Z M 145.652344 313.027344 C 144.949219 315.261719 143.777344 317.480469 142.28125 318.867188 C 142.804688 319.15625 143.742188 319.769531 144.175781 320.109375 C 145.6875 318.523438 147.039063 316.054688 147.832031 313.515625 Z M 150.789063 313.675781 C 152.011719 315.675781 153.292969 318.308594 153.761719 319.964844 L 155.90625 319.136719 C 155.382813 317.480469 154.050781 314.902344 152.804688 312.9375 L 150.789063 313.675781 "/>
<path style=" stroke:none;fill-rule:nonzero;fill:rgb(16.868591%,15.696716%,16.088867%);fill-opacity:1;" d="M 67.09375 345.984375 L 72.769531 345.984375 C 76.535156 345.984375 79.273438 344.363281 79.273438 341.011719 C 79.273438 338.703125 77.867188 337.390625 75.921875 336.976563 L 75.921875 336.847656 C 77.453125 336.34375 78.355469 334.792969 78.355469 333.191406 C 78.355469 330.109375 75.832031 329.011719 72.355469 329.011719 L 67.09375 329.011719 Z M 69.777344 336.09375 L 69.777344 331.082031 L 72.121094 331.082031 C 74.515625 331.082031 75.722656 331.75 75.722656 333.53125 C 75.722656 335.117188 74.644531 336.09375 72.046875 336.09375 Z M 69.777344 343.894531 L 69.777344 338.128906 L 72.460938 338.128906 C 75.164063 338.128906 76.644531 338.957031 76.644531 340.867188 C 76.644531 342.9375 75.128906 343.894531 72.460938 343.894531 L 69.777344 343.894531 "/>
<path style=" stroke:none;fill-rule:nonzero;fill:rgb(16.868591%,15.696716%,16.088867%);fill-opacity:1;" d="M 82.242188 345.984375 L 84.871094 345.984375 L 84.871094 338.074219 C 85.683594 336.074219 86.925781 335.355469 87.972656 335.355469 C 88.476563 335.355469 88.800781 335.425781 89.234375 335.550781 L 89.71875 333.246094 C 89.324219 333.066406 88.910156 332.976563 88.296875 332.976563 C 86.925781 332.976563 85.59375 333.949219 84.691406 335.585938 L 84.621094 335.585938 L 84.421875 333.300781 L 82.242188 333.300781 L 82.242188 345.984375 "/>
<path style=" stroke:none;fill-rule:nonzero;fill:rgb(16.868591%,15.696716%,16.088867%);fill-opacity:1;" d="M 94.039063 346.289063 C 95.550781 346.289063 96.921875 345.515625 98.074219 344.523438 L 98.144531 344.523438 L 98.363281 345.984375 L 100.542969 345.984375 L 100.542969 338.34375 C 100.542969 334.976563 99.082031 332.976563 95.929688 332.976563 C 93.894531 332.976563 92.128906 333.804688 90.8125 334.632813 L 91.804688 336.433594 C 92.886719 335.75 94.128906 335.136719 95.460938 335.136719 C 97.335938 335.136719 97.859375 336.433594 97.894531 337.914063 C 92.597656 338.488281 90.289063 339.894531 90.289063 342.613281 C 90.289063 344.847656 91.839844 346.289063 94.039063 346.289063 Z M 94.847656 344.179688 C 93.714844 344.179688 92.847656 343.675781 92.847656 342.433594 C 92.847656 341.011719 94.128906 340.054688 97.894531 339.585938 L 97.894531 342.703125 C 96.847656 343.660156 95.949219 344.179688 94.847656 344.179688 "/>
<path style=" stroke:none;fill-rule:nonzero;fill:rgb(16.868591%,15.696716%,16.088867%);fill-opacity:1;" d="M 104.289063 345.984375 L 106.921875 345.984375 L 106.921875 336.992188 C 108.054688 335.859375 108.867188 335.265625 110.039063 335.265625 C 111.535156 335.265625 112.183594 336.128906 112.183594 338.328125 L 112.183594 345.984375 L 114.832031 345.984375 L 114.832031 338.003906 C 114.832031 334.777344 113.640625 332.976563 110.9375 332.976563 C 109.207031 332.976563 107.914063 333.929688 106.742188 335.046875 L 106.667969 335.046875 L 106.46875 333.300781 L 104.289063 333.300781 L 104.289063 345.984375 "/>
<path style=" stroke:none;fill-rule:nonzero;fill:rgb(16.868591%,15.696716%,16.088867%);fill-opacity:1;" d="M 123.078125 346.289063 C 124.503906 346.289063 125.816406 345.515625 126.753906 344.558594 L 126.824219 344.558594 L 127.058594 345.984375 L 129.222656 345.984375 L 129.222656 327.605469 L 126.574219 327.605469 L 126.574219 332.308594 L 126.699219 334.398438 C 125.65625 333.53125 124.734375 332.976563 123.277344 332.976563 C 120.449219 332.976563 117.835938 335.535156 117.835938 339.660156 C 117.835938 343.859375 119.890625 346.289063 123.078125 346.289063 Z M 123.691406 344.089844 C 121.707031 344.089844 120.574219 342.507813 120.574219 339.625 C 120.574219 336.867188 122.015625 335.191406 123.78125 335.191406 C 124.734375 335.191406 125.636719 335.496094 126.574219 336.34375 L 126.574219 342.542969 C 125.65625 343.605469 124.753906 344.089844 123.691406 344.089844 "/>
<path style=" stroke:none;fill-rule:nonzero;fill:rgb(16.868591%,15.696716%,16.088867%);fill-opacity:1;" d="M 138.402344 345.984375 L 141.03125 345.984375 L 141.03125 333.300781 L 138.402344 333.300781 Z M 139.714844 330.921875 C 140.6875 330.921875 141.429688 330.273438 141.429688 329.355469 C 141.429688 328.417969 140.6875 327.785156 139.714844 327.785156 C 138.761719 327.785156 138.039063 328.417969 138.039063 329.355469 C 138.039063 330.273438 138.761719 330.921875 139.714844 330.921875 "/>
<path style=" stroke:none;fill-rule:nonzero;fill:rgb(16.868591%,15.696716%,16.088867%);fill-opacity:1;" d="M 149.417969 346.289063 C 150.839844 346.289063 152.15625 345.515625 153.09375 344.558594 L 153.164063 344.558594 L 153.398438 345.984375 L 155.5625 345.984375 L 155.5625 327.605469 L 152.914063 327.605469 L 152.914063 332.308594 L 153.039063 334.398438 C 151.992188 333.53125 151.074219 332.976563 149.613281 332.976563 C 146.785156 332.976563 144.171875 335.535156 144.171875 339.660156 C 144.171875 343.859375 146.226563 346.289063 149.417969 346.289063 Z M 150.027344 344.089844 C 148.046875 344.089844 146.910156 342.507813 146.910156 339.625 C 146.910156 336.867188 148.355469 335.191406 150.121094 335.191406 C 151.074219 335.191406 151.976563 335.496094 152.914063 336.34375 L 152.914063 342.542969 C 151.992188 343.605469 151.09375 344.089844 150.027344 344.089844 "/>
<path style=" stroke:none;fill-rule:nonzero;fill:rgb(16.868591%,15.696716%,16.088867%);fill-opacity:1;" d="M 164.828125 346.289063 C 166.503906 346.289063 167.945313 345.730469 169.136719 344.9375 L 168.199219 343.261719 C 167.28125 343.859375 166.304688 344.199219 165.191406 344.199219 C 162.992188 344.199219 161.476563 342.757813 161.261719 340.324219 L 169.496094 340.324219 C 169.566406 340.039063 169.605469 339.496094 169.605469 338.992188 C 169.605469 335.390625 167.820313 332.976563 164.449219 332.976563 C 161.476563 332.976563 158.648438 335.535156 158.648438 339.660156 C 158.648438 343.839844 161.40625 346.289063 164.828125 346.289063 Z M 161.242188 338.507813 C 161.496094 336.273438 162.902344 335.046875 164.488281 335.046875 C 166.34375 335.046875 167.332031 336.328125 167.332031 338.507813 L 161.242188 338.507813 "/>
<path style=" stroke:none;fill-rule:nonzero;fill:rgb(16.868591%,15.696716%,16.088867%);fill-opacity:1;" d="M 172.582031 345.984375 L 175.210938 345.984375 L 175.210938 336.992188 C 176.347656 335.859375 177.15625 335.265625 178.328125 335.265625 C 179.824219 335.265625 180.472656 336.128906 180.472656 338.328125 L 180.472656 345.984375 L 183.121094 345.984375 L 183.121094 338.003906 C 183.121094 334.777344 181.933594 332.976563 179.230469 332.976563 C 177.5 332.976563 176.203125 333.929688 175.03125 335.046875 L 174.957031 335.046875 L 174.761719 333.300781 L 172.582031 333.300781 L 172.582031 345.984375 "/>
<path style=" stroke:none;fill-rule:nonzero;fill:rgb(16.868591%,15.696716%,16.088867%);fill-opacity:1;" d="M 191.242188 346.289063 C 192.160156 346.289063 193.027344 346.054688 193.730469 345.824219 L 193.261719 343.859375 C 192.882813 344.019531 192.324219 344.164063 191.890625 344.164063 C 190.574219 344.164063 190.054688 343.371094 190.054688 341.859375 L 190.054688 335.425781 L 193.351563 335.425781 L 193.351563 333.300781 L 190.054688 333.300781 L 190.054688 329.785156 L 187.800781 329.785156 L 187.511719 333.300781 L 185.546875 333.441406 L 185.546875 335.425781 L 187.386719 335.425781 L 187.386719 341.839844 C 187.386719 344.507813 188.378906 346.289063 191.242188 346.289063 "/>
<path style=" stroke:none;fill-rule:nonzero;fill:rgb(16.868591%,15.696716%,16.088867%);fill-opacity:1;" d="M 196.105469 345.984375 L 198.734375 345.984375 L 198.734375 333.300781 L 196.105469 333.300781 Z M 197.421875 330.921875 C 198.394531 330.921875 199.132813 330.273438 199.132813 329.355469 C 199.132813 328.417969 198.394531 327.785156 197.421875 327.785156 C 196.464844 327.785156 195.746094 328.417969 195.746094 329.355469 C 195.746094 330.273438 196.464844 330.921875 197.421875 330.921875 "/>
<path style=" stroke:none;fill-rule:nonzero;fill:rgb(16.868591%,15.696716%,16.088867%);fill-opacity:1;" d="M 206.992188 346.289063 C 207.914063 346.289063 208.777344 346.054688 209.480469 345.824219 L 209.011719 343.859375 C 208.632813 344.019531 208.074219 344.164063 207.644531 344.164063 C 206.328125 344.164063 205.804688 343.371094 205.804688 341.859375 L 205.804688 335.425781 L 209.101563 335.425781 L 209.101563 333.300781 L 205.804688 333.300781 L 205.804688 329.785156 L 203.550781 329.785156 L 203.265625 333.300781 L 201.300781 333.441406 L 201.300781 335.425781 L 203.136719 335.425781 L 203.136719 341.839844 C 203.136719 344.507813 204.128906 346.289063 206.992188 346.289063 "/>
<path style=" stroke:none;fill-rule:nonzero;fill:rgb(16.868591%,15.696716%,16.088867%);fill-opacity:1;" d="M 222.109375 333.300781 L 219.515625 333.300781 L 217.496094 339.820313 L 216.507813 343.40625 L 216.378906 343.40625 C 215.984375 342.21875 215.605469 340.957031 215.226563 339.820313 L 212.882813 333.300781 L 210.164063 333.300781 L 215.191406 345.894531 L 214.9375 346.777344 C 214.46875 348.128906 213.660156 349.136719 212.273438 349.136719 C 211.945313 349.136719 211.585938 349.027344 211.351563 348.957031 L 210.847656 351.03125 C 211.28125 351.191406 211.804688 351.28125 212.433594 351.28125 C 215.117188 351.28125 216.453125 349.460938 217.441406 346.738281 L 222.109375 333.300781 "/>
<path style=" stroke:none;fill-rule:nonzero;fill:rgb(21.946716%,21.580505%,21.946716%);fill-opacity:1;" d="M 45.910156 920.867188 L 45.511719 920.792969 L 47.695313 918.777344 L 47.695313 917.550781 L 42.035156 917.550781 L 42.054688 919.171875 L 45.171875 919.171875 L 43.28125 920.992188 L 43.28125 922.109375 L 44.628906 922.109375 C 45.53125 922.109375 46.035156 922.453125 46.035156 923.101563 C 46.035156 923.730469 45.53125 924.109375 44.648438 924.109375 C 43.875 924.109375 43.117188 923.75 42.488281 923.101563 L 41.621094 924.722656 C 42.414063 925.316406 43.640625 925.714844 44.8125 925.714844 C 46.8125 925.714844 48.089844 924.632813 48.089844 923.082031 C 48.089844 921.839844 47.207031 921.066406 45.910156 920.867188 "/>
<path style=" stroke:none;fill-rule:nonzero;fill:rgb(21.946716%,21.580505%,21.946716%);fill-opacity:1;" d="M 51.511719 921.207031 L 48.574219 924.234375 L 48.574219 925.625 L 54.738281 925.625 L 54.738281 923.929688 L 51.277344 923.929688 L 52.933594 922.273438 C 53.835938 921.351563 54.503906 920.453125 54.503906 919.570313 C 54.503906 918.289063 53.3125 917.441406 51.691406 917.441406 C 50.503906 917.441406 49.386719 917.894531 48.339844 918.652344 L 49.132813 920.21875 C 49.890625 919.585938 50.71875 919.191406 51.367188 919.191406 C 51.960938 919.191406 52.304688 919.441406 52.304688 919.875 C 52.304688 920.21875 51.960938 920.742188 51.511719 921.207031 "/>
<path style=" stroke:none;fill-rule:nonzero;fill:rgb(21.946716%,21.580505%,21.946716%);fill-opacity:1;" d="M 65.652344 917.535156 L 65.652344 925.625 L 67.761719 925.625 L 67.761719 922.703125 L 71.382813 922.703125 L 71.382813 921.027344 L 67.761719 921.027344 L 67.761719 919.226563 L 71.667969 919.226563 L 71.6875 917.535156 L 65.652344 917.535156 "/>
<path style=" stroke:none;fill-rule:nonzero;fill:rgb(21.946716%,21.580505%,21.946716%);fill-opacity:1;" d="M 74.109375 920.417969 L 74.109375 919.390625 L 72.074219 919.390625 L 72.074219 925.625 L 74.109375 925.625 L 74.109375 922.433594 C 74.21875 921.570313 74.976563 921.066406 76.128906 921.191406 L 76.128906 919.296875 C 75.246094 919.296875 74.542969 919.714844 74.109375 920.417969 "/>
<path style=" stroke:none;fill-rule:nonzero;fill:rgb(21.946716%,21.580505%,21.946716%);fill-opacity:1;" d="M 79.195313 919.316406 C 77.25 919.316406 75.933594 920.597656 75.933594 922.523438 C 75.933594 924.433594 77.195313 925.695313 79.230469 925.695313 C 80.382813 925.695313 81.320313 925.296875 81.953125 924.578125 L 80.890625 923.515625 C 80.476563 923.929688 79.953125 924.144531 79.429688 924.144531 C 78.726563 924.144531 78.203125 923.75 78.007813 923.046875 L 82.347656 923.046875 C 82.476563 920.777344 81.375 919.316406 79.195313 919.316406 Z M 77.953125 921.949219 C 78.097656 921.246094 78.527344 920.757813 79.195313 920.757813 C 79.898438 920.757813 80.347656 921.246094 80.347656 921.949219 L 77.953125 921.949219 "/>
<path style=" stroke:none;fill-rule:nonzero;fill:rgb(21.946716%,21.580505%,21.946716%);fill-opacity:1;" d="M 85.574219 919.316406 C 83.625 919.316406 82.3125 920.597656 82.3125 922.523438 C 82.3125 924.433594 83.574219 925.695313 85.609375 925.695313 C 86.761719 925.695313 87.699219 925.296875 88.328125 924.578125 L 87.265625 923.515625 C 86.851563 923.929688 86.328125 924.144531 85.808594 924.144531 C 85.105469 924.144531 84.582031 923.75 84.382813 923.046875 L 88.726563 923.046875 C 88.851563 920.777344 87.753906 919.316406 85.574219 919.316406 Z M 84.328125 921.949219 C 84.472656 921.246094 84.90625 920.757813 85.574219 920.757813 C 86.273438 920.757813 86.726563 921.246094 86.726563 921.949219 L 84.328125 921.949219 "/>
<path style=" stroke:none;fill-rule:nonzero;fill:rgb(21.946716%,21.580505%,21.946716%);fill-opacity:1;" d="M 93.230469 921.660156 L 94.707031 920.792969 C 94.164063 919.855469 93.175781 919.316406 91.929688 919.316406 C 89.984375 919.316406 88.6875 920.597656 88.6875 922.523438 C 88.6875 924.433594 89.96875 925.695313 91.894531 925.695313 C 93.230469 925.695313 94.238281 925.15625 94.742188 924.199219 L 93.230469 923.335938 C 92.976563 923.820313 92.542969 924.039063 92.003906 924.039063 C 91.265625 924.039063 90.761719 923.425781 90.761719 922.523438 C 90.761719 921.625 91.265625 921.011719 92.003906 921.011719 C 92.527344 921.011719 92.957031 921.246094 93.230469 921.660156 "/>
<path style=" stroke:none;fill-rule:nonzero;fill:rgb(21.946716%,21.580505%,21.946716%);fill-opacity:1;" d="M 97.824219 919.316406 C 95.769531 919.316406 94.417969 920.578125 94.417969 922.507813 C 94.417969 924.417969 95.769531 925.695313 97.824219 925.695313 C 99.878906 925.695313 101.25 924.417969 101.25 922.507813 C 101.25 920.578125 99.878906 919.316406 97.824219 919.316406 Z M 97.824219 920.976563 C 98.636719 920.976563 99.175781 921.605469 99.175781 922.523438 C 99.175781 923.460938 98.636719 924.074219 97.824219 924.074219 C 97.03125 924.074219 96.492188 923.460938 96.492188 922.523438 C 96.492188 921.605469 97.03125 920.976563 97.824219 920.976563 "/>
</g>
</svg>
