<?xml version="1.0" encoding="UTF-8"?>
<svg xmlns="http://www.w3.org/2000/svg" xmlns:xlink="http://www.w3.org/1999/xlink" width="707.04pt" height="1000.08pt" viewBox="0 0 707.04 1000.08" version="1.2">
<defs>
<clipPath id="clip1">
  <path d="M 0 0.21875 L 706.042969 0.21875 L 706.042969 998.792969 L 0 998.792969 Z M 0 0.21875 "/>
</clipPath>
<clipPath id="clip2">
  <path d="M 0 0.21875 L 706 0.21875 L 706 998 L 0 998 Z M 0 0.21875 "/>
</clipPath>
<clipPath id="clip3">
  <path d="M 0 0.808594 L 704.882813 0.808594 L 704.882813 997.429688 L 0 997.429688 Z M 0 0.808594 "/>
</clipPath>
</defs>
<g id="surface1">
<g clip-path="url(#clip1)" clip-rule="nonzero">
<path style=" stroke:none;fill-rule:nonzero;fill:rgb(100%,100%,100%);fill-opacity:1;" d="M 0 998.792969 L 706.042969 998.792969 L 706.042969 0.21875 L 0 0.21875 Z M 0 998.792969 "/>
</g>
<g clip-path="url(#clip2)" clip-rule="nonzero">
<path style=" stroke:none;fill-rule:nonzero;fill:rgb(100%,100%,100%);fill-opacity:1;" d="M 0 997.429688 L 705.734375 997.429688 L 705.734375 0.21875 L 0 0.21875 Z M 0 997.429688 "/>
</g>
<g clip-path="url(#clip3)" clip-rule="nonzero">
<path style=" stroke:none;fill-rule:nonzero;fill:rgb(92.576599%,92.96875%,93.359375%);fill-opacity:1;" d="M -10.078125 997.707031 L 704.867188 997.707031 L 704.867188 0.808594 L -10.078125 0.808594 L -10.078125 997.707031 "/>
</g>
<path style=" stroke:none;fill-rule:nonzero;fill:rgb(96.484375%,78.90625%,74.804688%);fill-opacity:1;" d="M 87.015625 230.367188 L 97.539063 230.367188 L 97.539063 209.046875 L 116.210938 209.046875 L 116.210938 200.246094 L 97.539063 200.246094 L 97.539063 186.539063 L 119.414063 186.539063 L 119.414063 177.796875 L 87.015625 177.796875 L 87.015625 230.367188 "/>
<path style=" stroke:none;fill-rule:nonzero;fill:rgb(96.484375%,78.90625%,74.804688%);fill-opacity:1;" d="M 122.539063 230.367188 L 132.914063 230.367188 L 132.914063 206.636719 C 135.191406 200.878906 138.953125 198.820313 142.085938 198.820313 C 143.714844 198.820313 144.84375 199.042969 146.195313 199.46875 L 148.050781 190.449219 C 146.84375 189.949219 145.566406 189.59375 143.363281 189.59375 C 139.230469 189.59375 134.972656 192.429688 132.0625 197.617188 L 131.785156 197.617188 L 131.0625 190.578125 L 122.539063 190.578125 L 122.539063 230.367188 "/>
<path style=" stroke:none;fill-rule:nonzero;fill:rgb(96.484375%,78.90625%,74.804688%);fill-opacity:1;" d="M 166.378906 231.367188 C 171.339844 231.367188 176.398438 229.664063 180.308594 226.957031 L 176.75 220.570313 C 173.898438 222.347656 171.0625 223.328125 167.804688 223.328125 C 161.894531 223.328125 157.632813 219.921875 156.78125 213.378906 L 181.289063 213.378906 C 181.585938 212.472656 181.789063 210.546875 181.789063 208.621094 C 181.789063 197.617188 176.101563 189.59375 165.171875 189.59375 C 155.652344 189.59375 146.628906 197.617188 146.628906 210.546875 C 146.628906 223.625 155.300781 231.367188 166.378906 231.367188 Z M 156.632813 206.488281 C 157.429688 200.671875 161.117188 197.691406 165.300781 197.691406 C 170.414063 197.691406 172.839844 201.097656 172.839844 206.488281 L 156.632813 206.488281 "/>
<path style=" stroke:none;fill-rule:nonzero;fill:rgb(96.484375%,78.90625%,74.804688%);fill-opacity:1;" d="M 204.101563 231.367188 C 209.066406 231.367188 214.125 229.664063 218.03125 226.957031 L 214.476563 220.570313 C 211.625 222.347656 208.789063 223.328125 205.527344 223.328125 C 199.621094 223.328125 195.359375 219.921875 194.507813 213.378906 L 219.015625 213.378906 C 219.3125 212.472656 219.515625 210.546875 219.515625 208.621094 C 219.515625 197.617188 213.828125 189.59375 202.898438 189.59375 C 193.378906 189.59375 184.355469 197.617188 184.355469 210.546875 C 184.355469 223.625 193.023438 231.367188 204.101563 231.367188 Z M 194.359375 206.488281 C 195.15625 200.671875 198.84375 197.691406 203.027344 197.691406 C 208.140625 197.691406 210.566406 201.097656 210.566406 206.488281 L 194.359375 206.488281 "/>
<path style=" stroke:none;fill-rule:nonzero;fill:rgb(96.484375%,78.90625%,74.804688%);fill-opacity:1;" d="M 259.441406 231.367188 C 266.257813 231.367188 271.871094 228.664063 276.207031 223.625 L 270.667969 217.085938 C 267.835938 220.140625 264.277344 222.273438 259.792969 222.273438 C 251.496094 222.273438 246.085938 215.382813 246.085938 203.933594 C 246.085938 192.652344 252.050781 185.816406 260.015625 185.816406 C 264 185.816406 267.054688 187.667969 269.667969 190.226563 L 275.226563 183.558594 C 271.796875 180 266.480469 176.796875 259.792969 176.796875 C 246.511719 176.796875 235.359375 186.964844 235.359375 204.304688 C 235.359375 221.847656 246.160156 231.367188 259.441406 231.367188 "/>
<path style=" stroke:none;fill-rule:nonzero;fill:rgb(96.484375%,78.90625%,74.804688%);fill-opacity:1;" d="M 296.882813 231.367188 C 306.828125 231.367188 315.996094 223.699219 315.996094 210.546875 C 315.996094 197.265625 306.828125 189.59375 296.882813 189.59375 C 286.933594 189.59375 277.78125 197.265625 277.78125 210.546875 C 277.78125 223.699219 286.933594 231.367188 296.882813 231.367188 Z M 296.882813 222.828125 C 291.488281 222.828125 288.433594 218.011719 288.433594 210.546875 C 288.433594 203.023438 291.488281 198.117188 296.882813 198.117188 C 302.289063 198.117188 305.347656 203.023438 305.347656 210.546875 C 305.347656 218.011719 302.289063 222.828125 296.882813 222.828125 "/>
<path style=" stroke:none;fill-rule:nonzero;fill:rgb(96.484375%,78.90625%,74.804688%);fill-opacity:1;" d="M 326.226563 231.367188 C 330.003906 231.367188 332.765625 228.386719 332.765625 224.550781 C 332.765625 220.699219 330.003906 217.714844 326.226563 217.714844 C 322.539063 217.714844 319.761719 220.699219 319.761719 224.550781 C 319.761719 228.386719 322.539063 231.367188 326.226563 231.367188 "/>
<path style=" stroke:none;fill-rule:nonzero;fill:rgb(96.484375%,78.90625%,74.804688%);fill-opacity:1;" d="M 141.921875 237.066406 C 132.84375 239.195313 118.0625 240.917969 105.335938 241.550781 C 106.058594 243.328125 106.984375 246.164063 107.191406 248.015625 C 120.195313 247.515625 135.605469 246.03125 146.554688 243.53125 Z M 130.714844 256.035156 C 130.289063 253.628906 128.789063 249.867188 127.085938 247.015625 L 120.972656 249.21875 C 122.527344 252.203125 123.824219 256.035156 124.101563 258.535156 Z M 138.515625 245.960938 C 137.382813 249.71875 135.179688 254.90625 133.402344 258.3125 L 139.238281 260.871094 C 141.292969 257.8125 143.699219 253.277344 146.128906 248.867188 Z M 130.214844 280.96875 L 148.535156 280.96875 L 148.535156 273.949219 L 130.214844 273.949219 L 130.214844 267.835938 L 146.128906 267.835938 L 146.128906 260.871094 L 119.265625 260.871094 C 119.546875 260.242188 119.839844 259.519531 120.121094 258.960938 L 114.304688 257.535156 L 118.0625 256.035156 C 117.359375 253.90625 115.636719 250.71875 114.082031 248.238281 L 107.835938 250.570313 C 109.320313 253.054688 110.820313 256.460938 111.320313 258.667969 L 112.523438 258.167969 C 110.671875 262.222656 107.617188 265.984375 104.058594 268.539063 C 105.707031 269.613281 108.691406 271.820313 109.96875 273.097656 C 111.671875 271.671875 113.378906 269.890625 114.933594 267.835938 L 122.175781 267.835938 L 122.175781 273.949219 L 104.78125 273.949219 L 103.707031 266.835938 L 99.09375 268.113281 L 99.09375 257.738281 L 104.855469 257.738281 L 104.855469 249.941406 L 99.09375 249.941406 L 99.09375 236.585938 L 91.351563 236.585938 L 91.351563 249.941406 L 83.535156 249.941406 L 83.535156 257.738281 L 91.351563 257.738281 L 91.351563 270.242188 C 87.941406 271.039063 84.960938 271.820313 82.40625 272.375 L 84.238281 280.488281 C 86.441406 279.839844 88.796875 279.210938 91.351563 278.414063 L 91.351563 292.917969 C 91.351563 293.84375 91.074219 294.121094 90.148438 294.121094 C 89.296875 294.195313 86.867188 294.195313 84.3125 294.121094 C 85.3125 296.324219 86.3125 299.808594 86.441406 301.863281 C 91 301.9375 94.113281 301.640625 96.261719 300.234375 C 98.445313 298.957031 99.09375 296.902344 99.09375 292.992188 L 99.09375 276.226563 L 104.207031 274.652344 L 104.207031 280.96875 L 122.175781 280.96875 L 122.175781 292.917969 L 114.15625 292.917969 L 114.15625 283.394531 L 106.484375 283.394531 L 106.484375 299.808594 L 138.308594 299.808594 L 138.308594 303.21875 L 145.980469 303.21875 L 145.980469 283.117188 L 138.308594 283.117188 L 138.308594 292.917969 L 130.214844 292.917969 L 130.214844 280.96875 "/>
<path style=" stroke:none;fill-rule:nonzero;fill:rgb(96.484375%,78.90625%,74.804688%);fill-opacity:1;" d="M 209.417969 237.066406 C 200.339844 239.195313 185.558594 240.917969 172.832031 241.550781 C 173.554688 243.328125 174.480469 246.164063 174.683594 248.015625 C 187.6875 247.515625 203.101563 246.03125 214.046875 243.53125 Z M 198.210938 256.035156 C 197.785156 253.628906 196.285156 249.867188 194.578125 247.015625 L 188.464844 249.21875 C 190.023438 252.203125 191.320313 256.035156 191.597656 258.535156 Z M 206.007813 245.960938 C 204.878906 249.71875 202.675781 254.90625 200.894531 258.3125 L 206.730469 260.871094 C 208.789063 257.8125 211.195313 253.277344 213.621094 248.867188 Z M 197.710938 280.96875 L 216.03125 280.96875 L 216.03125 273.949219 L 197.710938 273.949219 L 197.710938 267.835938 L 213.621094 267.835938 L 213.621094 260.871094 L 186.761719 260.871094 C 187.039063 260.242188 187.335938 259.519531 187.613281 258.960938 L 181.796875 257.535156 L 185.558594 256.035156 C 184.855469 253.90625 183.132813 250.71875 181.574219 248.238281 L 175.332031 250.570313 C 176.816406 253.054688 178.316406 256.460938 178.816406 258.667969 L 180.019531 258.167969 C 178.167969 262.222656 175.109375 265.984375 171.554688 268.539063 C 173.203125 269.613281 176.183594 271.820313 177.464844 273.097656 C 179.167969 271.671875 180.871094 269.890625 182.425781 267.835938 L 189.671875 267.835938 L 189.671875 273.949219 L 172.277344 273.949219 L 171.203125 266.835938 L 166.589844 268.113281 L 166.589844 257.738281 L 172.351563 257.738281 L 172.351563 249.941406 L 166.589844 249.941406 L 166.589844 236.585938 L 158.847656 236.585938 L 158.847656 249.941406 L 151.027344 249.941406 L 151.027344 257.738281 L 158.847656 257.738281 L 158.847656 270.242188 C 155.4375 271.039063 152.457031 271.820313 149.898438 272.375 L 151.734375 280.488281 C 153.9375 279.839844 156.289063 279.210938 158.847656 278.414063 L 158.847656 292.917969 C 158.847656 293.84375 158.570313 294.121094 157.640625 294.121094 C 156.789063 294.195313 154.363281 294.195313 151.808594 294.121094 C 152.808594 296.324219 153.808594 299.808594 153.9375 301.863281 C 158.492188 301.9375 161.605469 301.640625 163.753906 300.234375 C 165.941406 298.957031 166.589844 296.902344 166.589844 292.992188 L 166.589844 276.226563 L 171.703125 274.652344 L 171.703125 280.96875 L 189.671875 280.96875 L 189.671875 292.917969 L 181.648438 292.917969 L 181.648438 283.394531 L 173.980469 283.394531 L 173.980469 299.808594 L 205.804688 299.808594 L 205.804688 303.21875 L 213.472656 303.21875 L 213.472656 283.117188 L 205.804688 283.117188 L 205.804688 292.917969 L 197.710938 292.917969 L 197.710938 280.96875 "/>
<path style=" stroke:none;fill-rule:nonzero;fill:rgb(96.484375%,78.90625%,74.804688%);fill-opacity:1;" d="M 245.585938 269.1875 C 244.179688 267.410156 238.269531 260.296875 235.863281 257.886719 L 235.863281 257.609375 L 243.105469 257.609375 L 243.105469 249.792969 L 235.863281 249.792969 L 235.863281 236.585938 L 227.769531 236.585938 L 227.769531 249.792969 L 218.671875 249.792969 L 218.671875 257.609375 L 226.621094 257.609375 C 224.710938 266.058594 221.007813 276.003906 217.042969 282.246094 C 218.320313 284.398438 220.449219 287.804688 221.300781 290.363281 C 223.710938 286.804688 225.839844 281.96875 227.769531 276.578125 L 227.769531 302.921875 L 235.863281 302.921875 L 235.863281 268.1875 C 237.640625 271.039063 239.417969 274.023438 240.328125 276.003906 Z M 284.527344 277.503906 C 281.746094 272.449219 275.355469 264.574219 270.519531 258.886719 L 266.128906 261.945313 L 266.128906 256.535156 C 267.335938 253.832031 268.464844 251.21875 269.464844 248.441406 L 282.597656 248.441406 L 282.597656 240.34375 L 243.734375 240.34375 L 243.734375 248.441406 L 260.09375 248.441406 C 255.609375 260.167969 248.792969 271.097656 240.753906 277.929688 C 242.753906 279.488281 246.085938 282.820313 247.367188 284.675781 C 250.996094 281.117188 254.480469 276.855469 257.664063 272.023438 L 257.664063 302.789063 L 266.128906 302.789063 L 266.128906 265.910156 C 270.519531 271.523438 275.355469 278.210938 277.558594 282.691406 L 284.527344 277.503906 "/>
<path style=" stroke:none;fill-rule:nonzero;fill:rgb(96.484375%,78.90625%,74.804688%);fill-opacity:1;" d="M 100.519531 324.476563 C 99.945313 331.164063 98.816406 337.203125 97.167969 342.390625 C 95.835938 341.113281 94.335938 339.90625 92.90625 338.757813 C 93.980469 334.351563 95.039063 329.535156 95.964844 324.476563 Z M 107.617188 352.835938 C 106.558594 351.410156 105.207031 349.910156 103.632813 348.355469 C 106.558594 340.183594 108.191406 330.035156 108.746094 317.160156 L 103.707031 316.605469 L 102.355469 316.734375 L 97.316406 316.734375 C 98.09375 312.121094 98.742188 307.582031 99.167969 303.378906 L 91.128906 302.953125 C 90.777344 307.230469 90.148438 311.917969 89.371094 316.734375 L 83.332031 316.734375 L 83.332031 324.476563 L 87.941406 324.476563 C 86.792969 330.738281 85.386719 336.554688 83.960938 341.113281 C 87.21875 343.742188 90.777344 346.855469 94.113281 350.058594 C 91.203125 355.597656 87.367188 359.726563 82.476563 362.210938 C 84.109375 363.914063 86.238281 366.898438 87.367188 369.027344 C 92.628906 365.824219 96.742188 361.710938 99.945313 356.246094 C 100.945313 357.375 101.800781 358.503906 102.503906 359.503906 Z M 136.382813 327.183594 C 137.734375 321.066406 139.238281 313.824219 140.367188 307.65625 L 108.394531 307.65625 L 108.394531 315.324219 L 114.433594 315.324219 C 114.230469 334.648438 113.582031 352.542969 103.28125 363.414063 C 105.28125 364.691406 107.96875 367.398438 109.320313 369.378906 C 120.898438 357.023438 122.398438 336.777344 122.675781 315.324219 L 130.917969 315.324219 C 129.714844 322.347656 128.085938 329.664063 126.734375 334.851563 L 139.515625 334.851563 C 138.738281 351.1875 137.808594 357.875 136.308594 359.503906 C 135.53125 360.359375 134.753906 360.582031 133.625 360.582031 C 132.050781 360.582031 128.714844 360.507813 125.230469 360.210938 C 126.734375 362.488281 127.660156 365.972656 127.789063 368.378906 C 131.566406 368.527344 135.179688 368.601563 137.308594 368.25 C 139.867188 367.898438 141.496094 367.101563 143.199219 364.96875 C 145.628906 362.0625 146.554688 353.1875 147.535156 330.664063 C 147.609375 329.664063 147.683594 327.183594 147.683594 327.183594 L 136.382813 327.183594 "/>
<path style=" stroke:none;fill-rule:nonzero;fill:rgb(96.484375%,78.90625%,74.804688%);fill-opacity:1;" d="M 173.40625 311.269531 C 170.144531 308.992188 163.679688 305.730469 159.347656 303.75 L 154.660156 309.84375 C 159.050781 312.269531 165.386719 315.824219 168.441406 318.160156 Z M 169.144531 330.238281 C 165.941406 328.179688 159.476563 325.050781 155.289063 323.144531 L 150.675781 329.386719 C 155.085938 331.664063 161.402344 335.074219 164.386719 337.277344 Z M 160.625 368.101563 C 164.179688 361.785156 167.941406 354.671875 170.996094 348.003906 L 164.535156 342.59375 C 160.976563 349.984375 156.4375 357.800781 153.234375 362.636719 Z M 197.710938 356.449219 L 197.710938 344.871094 L 206.082031 344.871094 L 206.082031 356.449219 Z M 181.296875 344.871094 L 189.464844 344.871094 L 189.464844 356.449219 L 181.296875 356.449219 Z M 189.464844 325.625 L 189.464844 336.777344 L 181.296875 336.777344 L 181.296875 325.625 Z M 206.082031 325.625 L 206.082031 336.777344 L 197.710938 336.777344 L 197.710938 325.625 Z M 197.710938 317.53125 L 197.710938 303.097656 L 189.464844 303.097656 L 189.464844 317.53125 L 173.332031 317.53125 L 173.332031 368.75 L 181.296875 368.75 L 181.296875 364.546875 L 206.082031 364.546875 L 206.082031 368.25 L 214.398438 368.25 L 214.398438 317.53125 L 197.710938 317.53125 "/>
<path style=" stroke:none;fill-rule:nonzero;fill:rgb(96.484375%,78.90625%,74.804688%);fill-opacity:1;" d="M 226.339844 368.101563 C 229.675781 361.210938 233.304688 352.894531 236.140625 345.296875 L 229.398438 340.539063 C 226.117188 348.855469 221.726563 357.800781 218.671875 363.339844 Z M 234.230469 328.886719 C 231.378906 327.183594 225.839844 324.476563 222.15625 322.773438 L 217.523438 329.035156 C 221.230469 331.089844 226.691406 334.074219 229.25 335.925781 Z M 261.722656 320.863281 L 257.035156 320.863281 L 257.035156 314.324219 L 261.722656 314.324219 Z M 273.503906 335.222656 C 273.300781 335.351563 273.023438 335.351563 272.375 335.351563 L 269.167969 335.351563 C 267.964844 335.351563 267.835938 335.277344 267.835938 333.867188 L 267.835938 328.179688 L 273.503906 328.179688 Z M 245.808594 358.875 L 245.808594 353.691406 L 273.503906 353.691406 L 273.503906 358.875 Z M 250.996094 328.179688 L 250.996094 329.886719 C 250.996094 332.792969 250.144531 336.074219 245.808594 338.832031 L 245.808594 328.179688 Z M 273.300781 341.964844 L 273.503906 341.964844 L 273.503906 346.578125 L 245.808594 346.578125 L 245.808594 341.613281 C 246.941406 342.59375 248.144531 343.742188 248.644531 344.445313 C 255.683594 340.757813 257.386719 335.074219 257.386719 330.035156 L 257.386719 328.179688 L 261.425781 328.179688 L 261.425781 334.074219 C 261.425781 340.039063 262.703125 341.964844 268.1875 341.964844 Z M 283.449219 314.324219 L 283.449219 306.65625 L 236.363281 306.65625 L 236.363281 310.492188 C 233.65625 308.640625 228.191406 305.878906 224.636719 303.953125 L 219.875 310.214844 C 223.507813 312.34375 228.824219 315.53125 231.378906 317.457031 L 236.363281 310.566406 L 236.363281 314.324219 L 249.644531 314.324219 L 249.644531 320.863281 L 238.195313 320.863281 L 238.195313 369.175781 L 245.808594 369.175781 L 245.808594 366.117188 L 273.503906 366.117188 L 273.503906 369.101563 L 281.542969 369.101563 L 281.542969 320.863281 L 269.242188 320.863281 L 269.242188 314.324219 L 283.449219 314.324219 "/>
</g>
</svg>
