<?xml version="1.0" encoding="UTF-8"?>
<svg xmlns="http://www.w3.org/2000/svg" xmlns:xlink="http://www.w3.org/1999/xlink" width="707.04pt" height="1000.08pt" viewBox="0 0 707.04 1000.08" version="1.2">
<defs>
<clipPath id="clip1">
  <path d="M 0 0.21875 L 706.042969 0.21875 L 706.042969 998.792969 L 0 998.792969 Z M 0 0.21875 "/>
</clipPath>
<clipPath id="clip2">
  <path d="M 0 0.21875 L 706 0.21875 L 706 998 L 0 998 Z M 0 0.21875 "/>
</clipPath>
<clipPath id="clip3">
  <path d="M 0 42 L 705.734375 42 L 705.734375 956 L 0 956 Z M 0 42 "/>
</clipPath>
<clipPath id="clip4">
  <path d="M 185 246 L 705.734375 246 L 705.734375 711 L 185 711 Z M 185 246 "/>
</clipPath>
</defs>
<g id="surface1">
<g clip-path="url(#clip1)" clip-rule="nonzero">
<path style=" stroke:none;fill-rule:nonzero;fill:rgb(100%,100%,100%);fill-opacity:1;" d="M 0 998.792969 L 706.042969 998.792969 L 706.042969 0.21875 L 0 0.21875 Z M 0 998.792969 "/>
</g>
<g clip-path="url(#clip2)" clip-rule="nonzero">
<path style=" stroke:none;fill-rule:nonzero;fill:rgb(100%,100%,100%);fill-opacity:1;" d="M 0 997.429688 L 705.734375 997.429688 L 705.734375 0.21875 L 0 0.21875 Z M 0 997.429688 "/>
</g>
<g clip-path="url(#clip3)" clip-rule="nonzero">
<path style=" stroke:none;fill-rule:nonzero;fill:rgb(94.139099%,51.756287%,38.818359%);fill-opacity:1;" d="M 0 955.972656 L 705.734375 955.972656 L 705.734375 42.671875 L 0 42.671875 Z M 0 955.972656 "/>
</g>
<g clip-path="url(#clip4)" clip-rule="nonzero">
<path style=" stroke:none;fill-rule:nonzero;fill:rgb(92.576599%,46.263123%,19.604492%);fill-opacity:1;" d="M 185.992188 710.976563 L 762.9375 710.976563 L 762.9375 246.808594 L 185.992188 246.808594 L 185.992188 710.976563 "/>
</g>
<path style=" stroke:none;fill-rule:nonzero;fill:rgb(92.576599%,92.96875%,93.359375%);fill-opacity:1;" d="M 272.09375 333.316406 L 251.859375 333.316406 L 251.859375 326.902344 L 272.09375 326.902344 Z M 281.375 318.238281 L 243.140625 318.238281 L 243.140625 341.914063 L 281.375 341.914063 Z M 250.5625 354.976563 L 250.5625 363.390625 L 243.390625 363.390625 L 243.390625 354.976563 Z M 234.867188 375.03125 L 243.390625 375.03125 L 243.390625 372.039063 L 250.5625 372.039063 L 250.5625 374.777344 L 259.589844 374.777344 L 259.589844 346.328125 L 234.867188 346.328125 Z M 272.671875 363.390625 L 272.671875 354.976563 L 280.257813 354.976563 L 280.257813 363.390625 Z M 264.003906 346.328125 L 264.003906 375.03125 L 272.671875 375.03125 L 272.671875 372.039063 L 280.257813 372.039063 L 280.257813 374.777344 L 289.355469 374.777344 L 289.355469 346.328125 L 264.003906 346.328125 "/>
<path style=" stroke:none;fill-rule:nonzero;fill:rgb(92.576599%,92.96875%,93.359375%);fill-opacity:1;" d="M 302.367188 339.480469 L 314.765625 339.480469 L 314.765625 331.875 L 312.027344 331.875 L 312.027344 315.949219 L 304.546875 315.949219 L 304.546875 331.875 L 302.367188 331.875 L 302.367188 317.75 L 294.640625 317.75 L 294.640625 340.667969 C 294.640625 349.136719 294.152344 363.640625 290.78125 372.671875 C 292.910156 373.175781 296.511719 374.417969 298.316406 375.226563 C 300.492188 368.992188 301.484375 360.707031 301.988281 353.046875 L 305.484375 353.046875 L 305.484375 375.15625 L 313.199219 375.15625 L 313.199219 345.515625 L 302.296875 345.515625 C 302.367188 343.769531 302.367188 342.164063 302.367188 340.667969 Z M 324.53125 339.984375 L 324.53125 337.121094 L 327.46875 337.121094 C 327.269531 338.039063 327.015625 338.976563 326.65625 339.984375 Z M 324.53125 327.894531 L 328.207031 327.894531 L 328.207031 330.703125 L 324.53125 330.703125 Z M 339.84375 330.703125 L 336.367188 330.703125 L 336.367188 327.894531 L 339.84375 327.894531 Z M 339.84375 339.984375 L 335.25 339.984375 C 335.484375 338.976563 335.683594 338.039063 335.863281 337.121094 L 339.84375 337.121094 Z M 350.621094 356.234375 L 340.65625 356.234375 L 340.65625 348.6875 L 332.007813 348.6875 L 332.007813 356.234375 L 324.835938 356.234375 C 328.386719 353.496094 330.890625 350.253906 332.621094 346.957031 L 348.441406 346.957031 L 348.441406 320.921875 L 334.800781 320.921875 C 335.484375 319.605469 336.117188 318.183594 336.746094 316.6875 L 326.097656 315.949219 C 325.972656 317.445313 325.648438 319.171875 325.289063 320.921875 L 316.367188 320.921875 L 316.367188 346.957031 L 322.730469 346.957031 C 320.980469 349.011719 318.746094 350.992188 315.808594 352.6875 C 317.179688 353.550781 319.109375 354.921875 320.601563 356.234375 L 314.441406 356.234375 L 314.441406 363.949219 L 332.007813 363.949219 L 332.007813 375.03125 L 340.65625 375.03125 L 340.65625 363.949219 L 350.621094 363.949219 L 350.621094 356.234375 "/>
<path style=" stroke:none;fill-rule:nonzero;fill:rgb(92.576599%,92.96875%,93.359375%);fill-opacity:1;" d="M 386.175781 350.5625 L 395.707031 350.5625 L 395.707031 353.046875 C 395.707031 353.734375 395.398438 353.929688 394.644531 353.929688 C 393.957031 353.929688 391.292969 353.984375 389.542969 353.804688 C 390.355469 355.300781 391.34375 357.355469 392.03125 359.28125 C 389.796875 358.164063 387.796875 356.921875 386.175781 355.605469 Z M 369.363281 333.246094 L 373.921875 331.515625 C 373.542969 330.453125 372.859375 329.210938 372.101563 327.894531 L 377.707031 327.894531 C 377.472656 328.144531 377.148438 328.328125 376.894531 328.578125 C 377.652344 329.011719 378.644531 329.570313 379.652344 330.199219 L 376.410156 330.199219 L 376.410156 333.246094 Z M 362.949219 327.894531 C 364.011719 329.640625 365.003906 331.625 365.6875 333.246094 L 358.355469 333.246094 C 359.847656 331.75 361.328125 329.894531 362.824219 327.894531 Z M 386.175781 333.246094 L 386.175781 331.949219 C 387.238281 330.703125 388.226563 329.390625 389.238281 327.894531 L 391.292969 327.894531 C 392.355469 329.769531 393.398438 331.695313 394.03125 333.246094 Z M 405.058594 342.957031 L 386.175781 342.957031 L 386.175781 340.976563 L 407.976563 340.976563 L 407.976563 333.246094 L 396.460938 333.246094 L 402.320313 331.390625 C 401.941406 330.378906 401.253906 329.136719 400.5 327.894531 L 409.164063 327.894531 L 409.164063 320.417969 L 393.273438 320.417969 C 393.722656 319.425781 394.082031 318.488281 394.460938 317.496094 L 385.617188 315.316406 C 384.375 319.121094 382.191406 322.976563 379.578125 325.964844 L 379.578125 320.417969 L 367.308594 320.417969 C 367.8125 319.5 368.246094 318.617188 368.625 317.679688 L 359.957031 315.316406 C 358.03125 320.238281 354.425781 325.40625 350.5 328.578125 C 352.5 329.640625 355.796875 331.75 357.667969 333.246094 L 352.984375 333.246094 L 352.984375 340.976563 L 376.410156 340.976563 L 376.410156 342.957031 L 356.734375 342.957031 L 356.734375 360.957031 L 366.371094 360.957031 L 366.371094 350.5625 L 376.410156 350.5625 L 376.410156 354.417969 C 371.109375 359.96875 361.832031 364.148438 351.4375 365.949219 C 353.308594 367.804688 355.851563 371.300781 357.039063 373.535156 C 364.390625 371.679688 371.058594 368.433594 376.410156 364.074219 L 376.410156 375.03125 L 386.175781 375.03125 L 386.175781 364.253906 C 391.164063 368.003906 397.582031 371.355469 404.679688 373.046875 C 405.921875 370.667969 408.535156 366.992188 410.410156 365.066406 C 404.804688 364.199219 399.507813 362.652344 394.96875 360.707031 C 397.507813 360.652344 399.8125 360.398438 401.742188 359.589844 C 404.300781 358.523438 405.058594 356.722656 405.058594 353.046875 L 405.058594 342.957031 "/>
<path style=" stroke:none;fill-rule:nonzero;fill:rgb(92.576599%,92.96875%,93.359375%);fill-opacity:1;" d="M 444.214844 350.433594 C 447.078125 349.136719 449.890625 347.640625 452.429688 345.894531 C 454.933594 347.640625 457.601563 349.136719 460.59375 350.433594 Z M 446.898438 363.390625 L 446.898438 358.292969 L 457.601563 358.292969 L 457.601563 363.390625 Z M 434.683594 333.875 C 436.050781 335.75 437.621094 338.238281 438.304688 339.535156 C 439.675781 338.417969 440.972656 337.046875 442.285156 335.625 C 443.347656 337.171875 444.464844 338.667969 445.78125 340.039063 C 442.414063 341.839844 438.683594 343.28125 434.683594 344.34375 Z M 426.214844 356.417969 L 426.214844 344.957031 L 428.339844 344.957031 L 428.339844 356.417969 Z M 418.683594 344.957031 L 420.933594 344.957031 L 420.933594 356.417969 L 418.683594 356.417969 Z M 420.933594 327.769531 L 420.933594 338.417969 L 418.683594 338.417969 L 418.683594 327.769531 Z M 428.339844 338.417969 L 426.214844 338.417969 L 426.214844 327.769531 L 428.339844 327.769531 Z M 457.296875 330.378906 C 455.855469 332.253906 454.25 334.003906 452.375 335.550781 C 450.699219 334.003906 449.257813 332.253906 448.070313 330.378906 Z M 464.144531 322.039063 L 462.59375 322.289063 L 451.132813 322.289063 C 451.816406 320.921875 452.429688 319.5 452.988281 318.054688 L 445.457031 315.820313 C 443.152344 321.859375 439.167969 327.640625 434.683594 331.515625 L 434.683594 320.054688 L 412.015625 320.054688 L 412.015625 368.003906 L 418.683594 368.003906 L 418.683594 364.074219 L 434.683594 364.074219 L 434.683594 348.074219 C 435.367188 349.949219 435.996094 352.003906 436.304688 353.371094 C 437.242188 353.121094 438.125 352.8125 439.042969 352.488281 L 439.042969 374.667969 L 446.898438 374.667969 L 446.898438 371.246094 L 457.601563 371.246094 L 457.601563 374.417969 L 465.816406 374.417969 L 465.816406 352.363281 C 466.574219 352.613281 467.3125 352.867188 468.070313 353.046875 C 468.195313 350.507813 469.0625 346.199219 469.871094 343.894531 C 465.945313 343.15625 462.394531 341.964844 459.222656 340.34375 C 463.53125 336.109375 466.953125 331.136719 469.257813 325.226563 L 464.144531 322.039063 "/>
<path style=" stroke:none;fill-rule:nonzero;fill:rgb(92.576599%,92.96875%,93.359375%);fill-opacity:1;" d="M 259.789063 444.472656 L 235.15625 444.472656 L 235.15625 491.355469 L 260.851563 491.355469 C 272.886719 491.355469 280.617188 486.273438 280.617188 478.238281 C 280.617188 472.292969 276.671875 467.605469 270.527344 466.398438 C 275.734375 464.996094 279.03125 461.046875 279.03125 456.308594 C 279.03125 449.085938 271.515625 444.472656 259.789063 444.472656 Z M 258.996094 462.867188 L 249.984375 462.867188 L 249.984375 454.902344 L 258.996094 454.902344 C 261.933594 454.902344 263.789063 456.382813 263.789063 458.777344 C 263.789063 461.265625 261.933594 462.867188 258.996094 462.867188 Z M 258.996094 480.921875 L 249.984375 480.921875 L 249.984375 472.433594 L 258.996094 472.433594 C 262.796875 472.363281 265.230469 473.96875 265.230469 476.507813 C 265.230469 479.246094 262.796875 480.992188 258.996094 480.921875 "/>
<path style=" stroke:none;fill-rule:nonzero;fill:rgb(92.576599%,92.96875%,93.359375%);fill-opacity:1;" d="M 297.71875 460.722656 L 297.71875 454.976563 L 283.25 454.976563 L 283.25 491.355469 L 297.71875 491.355469 L 297.71875 473.96875 C 297.71875 468.6875 302.511719 465.734375 309.953125 466.617188 L 309.953125 454.4375 C 304.65625 454.4375 300.4375 456.707031 297.71875 460.722656 "/>
<path style=" stroke:none;fill-rule:nonzero;fill:rgb(92.576599%,92.96875%,93.359375%);fill-opacity:1;" d="M 328.914063 454.4375 C 322.839844 454.4375 316.535156 455.769531 310.15625 458.183594 L 313.742188 467.140625 C 318.027344 465.410156 322.40625 464.523438 325.472656 464.523438 C 329.921875 464.523438 332.210938 466.347656 332.210938 469.355469 L 332.210938 469.480469 L 322.695313 469.480469 C 312.875 469.625 307.652344 473.5 307.652344 480.527344 C 307.652344 487.335938 312.535156 491.949219 320.824219 491.949219 C 325.976563 491.949219 329.847656 490.292969 332.210938 487.335938 L 332.210938 491.355469 L 346.371094 491.355469 L 346.371094 467.75 C 346.371094 459.316406 339.867188 454.4375 328.914063 454.4375 Z M 325.613281 483.121094 C 322.839844 483.121094 321.253906 481.785156 321.253906 479.515625 C 321.253906 477.246094 322.769531 476.113281 325.613281 476.113281 L 332.210938 476.113281 L 332.210938 479.390625 C 331.128906 481.660156 328.550781 483.121094 325.613281 483.121094 "/>
<path style=" stroke:none;fill-rule:nonzero;fill:rgb(92.576599%,92.96875%,93.359375%);fill-opacity:1;" d="M 377.296875 454.4375 C 371.855469 454.4375 367.640625 456.578125 364.917969 460.578125 L 364.917969 454.976563 L 350.449219 454.976563 L 350.449219 491.355469 L 364.917969 491.355469 L 364.917969 473.355469 C 364.917969 469.210938 367.351563 466.347656 371.277344 466.273438 C 374.648438 466.273438 376.863281 468.542969 376.863281 472.164063 L 376.863281 491.355469 L 391.316406 491.355469 L 391.316406 468.273438 C 391.316406 459.859375 385.601563 454.4375 377.296875 454.4375 "/>
<path style=" stroke:none;fill-rule:nonzero;fill:rgb(92.576599%,92.96875%,93.359375%);fill-opacity:1;" d="M 421.085938 441.734375 L 421.085938 459.191406 C 418.4375 456.164063 414.652344 454.507813 410.078125 454.507813 C 399.410156 454.507813 392.382813 461.785156 392.382813 472.957031 C 392.382813 484.398438 399.554688 491.824219 410.417969 491.824219 C 414.871094 491.824219 418.507813 490.148438 421.085938 487.210938 L 421.085938 491.355469 L 435.554688 491.355469 L 435.554688 441.734375 Z M 414.078125 481.464844 C 409.789063 481.464844 406.996094 478.183594 406.996094 473.300781 C 406.996094 468.472656 409.789063 465.210938 414.078125 465.210938 C 418.292969 465.210938 421.085938 468.472656 421.085938 473.300781 C 421.085938 478.183594 418.292969 481.464844 414.078125 481.464844 "/>
<path style=" stroke:none;fill-rule:nonzero;fill:rgb(92.576599%,92.96875%,93.359375%);fill-opacity:1;" d="M 271.230469 521.101563 L 276.742188 510.398438 C 271.300781 507.121094 263.425781 504.976563 255.769531 504.976563 C 243.246094 504.976563 235.011719 510.742188 235.011719 519.769531 C 235.011719 536.292969 261.210938 531.804688 261.210938 538.886719 C 261.210938 541.03125 259.210938 542.039063 256.058594 542.039063 C 250.90625 542.039063 242.527344 538.957031 237.375 534.886719 L 231.804688 545.445313 C 238.09375 550.058594 247.410156 552.867188 255.914063 552.867188 C 267.15625 552.867188 276.597656 548.128906 276.597656 538.167969 C 276.597656 521.226563 250.402344 525.320313 250.402344 518.4375 C 250.402344 516.6875 252.058594 515.894531 254.5625 515.894531 C 258.777344 515.894531 266.078125 518.363281 271.230469 521.101563 "/>
<path style=" stroke:none;fill-rule:nonzero;fill:rgb(92.576599%,92.96875%,93.359375%);fill-opacity:1;" d="M 302.652344 541.445313 C 300.941406 542.039063 299.355469 542.507813 298.21875 542.507813 C 296.203125 542.507813 294.921875 541.371094 294.921875 539.03125 L 294.921875 526.578125 L 304.507813 526.578125 L 304.507813 517.96875 L 294.921875 517.96875 L 294.921875 507.859375 L 280.542969 507.859375 L 280.542969 517.96875 L 275.175781 517.96875 L 275.175781 526.578125 L 280.542969 526.578125 L 280.542969 541.101563 C 280.542969 548.652344 286.113281 553.140625 294.417969 553.066406 C 298.363281 553.066406 302.507813 552.203125 305.230469 550.722656 L 302.652344 541.445313 "/>
<path style=" stroke:none;fill-rule:nonzero;fill:rgb(92.576599%,92.96875%,93.359375%);fill-opacity:1;" d="M 321.621094 521.839844 L 321.621094 516.09375 L 307.152344 516.09375 L 307.152344 552.472656 L 321.621094 552.472656 L 321.621094 535.085938 C 321.621094 529.804688 326.414063 526.851563 333.855469 527.734375 L 333.855469 515.554688 C 328.558594 515.554688 324.339844 517.824219 321.621094 521.839844 "/>
<path style=" stroke:none;fill-rule:nonzero;fill:rgb(92.576599%,92.96875%,93.359375%);fill-opacity:1;" d="M 352.816406 515.554688 C 346.742188 515.554688 340.4375 516.886719 334.058594 519.300781 L 337.644531 528.253906 C 341.933594 526.527344 346.3125 525.644531 349.375 525.644531 C 353.824219 525.644531 356.113281 527.460938 356.113281 530.472656 L 356.113281 530.597656 L 346.597656 530.597656 C 336.777344 530.742188 331.554688 534.617188 331.554688 541.644531 C 331.554688 548.453125 336.4375 553.066406 344.726563 553.066406 C 349.878906 553.066406 353.75 551.410156 356.113281 548.453125 L 356.113281 552.472656 L 370.273438 552.472656 L 370.273438 528.867188 C 370.273438 520.4375 363.769531 515.554688 352.816406 515.554688 Z M 349.515625 544.238281 C 346.742188 544.238281 345.15625 542.90625 345.15625 540.636719 C 345.15625 538.363281 346.671875 537.226563 349.515625 537.226563 L 356.113281 537.226563 L 356.113281 540.507813 C 355.03125 542.777344 352.453125 544.238281 349.515625 544.238281 "/>
<path style=" stroke:none;fill-rule:nonzero;fill:rgb(92.576599%,92.96875%,93.359375%);fill-opacity:1;" d="M 398.40625 541.445313 C 396.695313 542.039063 395.109375 542.507813 393.972656 542.507813 C 391.957031 542.507813 390.675781 541.371094 390.675781 539.03125 L 390.675781 526.578125 L 400.261719 526.578125 L 400.261719 517.96875 L 390.675781 517.96875 L 390.675781 507.859375 L 376.296875 507.859375 L 376.296875 517.96875 L 370.929688 517.96875 L 370.929688 526.578125 L 376.296875 526.578125 L 376.296875 541.101563 C 376.296875 548.652344 381.867188 553.140625 390.171875 553.066406 C 394.117188 553.066406 398.261719 552.203125 400.984375 550.722656 L 398.40625 541.445313 "/>
<path style=" stroke:none;fill-rule:nonzero;fill:rgb(92.576599%,92.96875%,93.359375%);fill-opacity:1;" d="M 420.367188 515.625 C 408.058594 515.625 399.824219 523.046875 399.824219 534.417969 C 399.824219 545.589844 407.773438 552.941406 420.800781 552.941406 C 428.167969 552.941406 434.042969 550.597656 438.113281 546.382813 L 430.601563 539.5 C 428.023438 541.699219 425.105469 542.976563 422.023438 542.976563 C 418.296875 542.976563 415.574219 541.03125 414.4375 537.554688 L 440.636719 537.554688 C 441.484375 524.183594 434.042969 515.625 420.367188 515.625 Z M 426.386719 530.941406 L 414.152344 530.941406 C 414.871094 527.265625 417.085938 524.777344 420.511719 524.777344 C 424.023438 524.777344 426.457031 527.320313 426.386719 530.941406 "/>
<path style=" stroke:none;fill-rule:nonzero;fill:rgb(92.576599%,92.96875%,93.359375%);fill-opacity:1;" d="M 466.605469 516.09375 L 466.605469 520.039063 C 464.101563 517.230469 460.445313 515.625 455.867188 515.625 C 446.496094 515.625 439.832031 522.4375 439.832031 532.816406 C 439.832031 543.445313 446.714844 550.398438 456.15625 550.398438 C 460.585938 550.398438 464.101563 548.867188 466.605469 546.058594 L 466.605469 549.734375 C 466.605469 553.285156 463.523438 555.554688 458.300781 555.554688 C 454.300781 555.554688 449.796875 554.347656 446.355469 552.203125 L 441.558594 561.300781 C 445.777344 563.914063 452.300781 566.058594 459.523438 566.058594 C 472.265625 566.058594 480.910156 559.554688 480.910156 549.335938 L 480.910156 516.09375 Z M 459.957031 540.707031 C 456.011719 540.707031 453.363281 537.699219 453.363281 533.210938 C 453.363281 528.671875 456.011719 525.589844 459.957031 525.589844 C 463.957031 525.589844 466.605469 528.597656 466.605469 533.210938 C 466.605469 537.699219 463.957031 540.707031 459.957031 540.707031 "/>
<path style=" stroke:none;fill-rule:nonzero;fill:rgb(92.576599%,92.96875%,93.359375%);fill-opacity:1;" d="M 509.039063 555.554688 L 525.363281 516.09375 L 510.96875 516.09375 L 503.742188 538.363281 L 495.238281 516.09375 L 480.410156 516.09375 L 496.515625 551.464844 L 495.796875 552.742188 C 494.949219 554.347656 493.507813 555.085938 491.582031 555.085938 C 489.652344 555.085938 488.140625 554.472656 486.355469 553.011719 L 480.335938 562.039063 C 484.210938 564.777344 488.066406 566.058594 492.878906 566.058594 C 500.660156 566.058594 505.960938 562.707031 509.039063 555.554688 "/>
<path style=" stroke:none;fill-rule:nonzero;fill:rgb(21.946716%,21.580505%,21.946716%);fill-opacity:1;" d="M 47.421875 919.570313 L 48.199219 918.109375 C 47.511719 917.695313 46.523438 917.441406 45.621094 917.441406 C 43.386719 917.441406 41.945313 919.117188 41.945313 921.695313 C 41.945313 924.183594 43.242188 925.714844 45.386719 925.714844 C 47.171875 925.714844 48.359375 924.632813 48.359375 922.921875 C 48.359375 921.351563 47.351563 920.308594 45.785156 920.308594 C 44.902344 920.308594 44.289063 920.632813 43.890625 921.171875 C 43.875 919.855469 44.488281 919.046875 45.75 919.046875 C 46.359375 919.046875 46.957031 919.226563 47.421875 919.570313 Z M 45.332031 921.820313 C 46.054688 921.820313 46.46875 922.234375 46.46875 922.921875 C 46.46875 923.660156 46.019531 924.054688 45.316406 924.054688 C 44.488281 924.054688 44.125 923.535156 44.125 922.957031 C 44.125 922.289063 44.558594 921.820313 45.332031 921.820313 "/>
<path style=" stroke:none;fill-rule:nonzero;fill:rgb(21.946716%,21.580505%,21.946716%);fill-opacity:1;" d="M 65.652344 917.535156 L 65.652344 925.625 L 67.761719 925.625 L 67.761719 922.703125 L 71.382813 922.703125 L 71.382813 921.027344 L 67.761719 921.027344 L 67.761719 919.226563 L 71.667969 919.226563 L 71.6875 917.535156 L 65.652344 917.535156 "/>
<path style=" stroke:none;fill-rule:nonzero;fill:rgb(21.946716%,21.580505%,21.946716%);fill-opacity:1;" d="M 74.109375 920.417969 L 74.109375 919.390625 L 72.074219 919.390625 L 72.074219 925.625 L 74.109375 925.625 L 74.109375 922.433594 C 74.21875 921.570313 74.976563 921.066406 76.128906 921.191406 L 76.128906 919.296875 C 75.246094 919.296875 74.542969 919.714844 74.109375 920.417969 "/>
<path style=" stroke:none;fill-rule:nonzero;fill:rgb(21.946716%,21.580505%,21.946716%);fill-opacity:1;" d="M 79.195313 919.316406 C 77.25 919.316406 75.933594 920.597656 75.933594 922.523438 C 75.933594 924.433594 77.195313 925.695313 79.230469 925.695313 C 80.382813 925.695313 81.320313 925.296875 81.953125 924.578125 L 80.890625 923.515625 C 80.476563 923.929688 79.953125 924.144531 79.429688 924.144531 C 78.726563 924.144531 78.203125 923.75 78.007813 923.046875 L 82.347656 923.046875 C 82.476563 920.777344 81.375 919.316406 79.195313 919.316406 Z M 77.953125 921.949219 C 78.097656 921.246094 78.527344 920.757813 79.195313 920.757813 C 79.898438 920.757813 80.347656 921.246094 80.347656 921.949219 L 77.953125 921.949219 "/>
<path style=" stroke:none;fill-rule:nonzero;fill:rgb(21.946716%,21.580505%,21.946716%);fill-opacity:1;" d="M 85.574219 919.316406 C 83.625 919.316406 82.3125 920.597656 82.3125 922.523438 C 82.3125 924.433594 83.574219 925.695313 85.609375 925.695313 C 86.761719 925.695313 87.699219 925.296875 88.328125 924.578125 L 87.265625 923.515625 C 86.851563 923.929688 86.328125 924.144531 85.808594 924.144531 C 85.105469 924.144531 84.582031 923.75 84.382813 923.046875 L 88.726563 923.046875 C 88.851563 920.777344 87.753906 919.316406 85.574219 919.316406 Z M 84.328125 921.949219 C 84.472656 921.246094 84.90625 920.757813 85.574219 920.757813 C 86.273438 920.757813 86.726563 921.246094 86.726563 921.949219 L 84.328125 921.949219 "/>
<path style=" stroke:none;fill-rule:nonzero;fill:rgb(21.946716%,21.580505%,21.946716%);fill-opacity:1;" d="M 93.230469 921.660156 L 94.707031 920.792969 C 94.164063 919.855469 93.175781 919.316406 91.929688 919.316406 C 89.984375 919.316406 88.6875 920.597656 88.6875 922.523438 C 88.6875 924.433594 89.96875 925.695313 91.894531 925.695313 C 93.230469 925.695313 94.238281 925.15625 94.742188 924.199219 L 93.230469 923.335938 C 92.976563 923.820313 92.542969 924.039063 92.003906 924.039063 C 91.265625 924.039063 90.761719 923.425781 90.761719 922.523438 C 90.761719 921.625 91.265625 921.011719 92.003906 921.011719 C 92.527344 921.011719 92.957031 921.246094 93.230469 921.660156 "/>
<path style=" stroke:none;fill-rule:nonzero;fill:rgb(21.946716%,21.580505%,21.946716%);fill-opacity:1;" d="M 97.824219 919.316406 C 95.769531 919.316406 94.417969 920.578125 94.417969 922.507813 C 94.417969 924.417969 95.769531 925.695313 97.824219 925.695313 C 99.878906 925.695313 101.25 924.417969 101.25 922.507813 C 101.25 920.578125 99.878906 919.316406 97.824219 919.316406 Z M 97.824219 920.976563 C 98.636719 920.976563 99.175781 921.605469 99.175781 922.523438 C 99.175781 923.460938 98.636719 924.074219 97.824219 924.074219 C 97.03125 924.074219 96.492188 923.460938 96.492188 922.523438 C 96.492188 921.605469 97.03125 920.976563 97.824219 920.976563 "/>
</g>
</svg>
