<?xml version="1.0" encoding="UTF-8"?>
<svg xmlns="http://www.w3.org/2000/svg" xmlns:xlink="http://www.w3.org/1999/xlink" width="707.04pt" height="1000.08pt" viewBox="0 0 707.04 1000.08" version="1.2">
<defs>
<clipPath id="clip1">
  <path d="M 0 0.21875 L 706.042969 0.21875 L 706.042969 998.792969 L 0 998.792969 Z M 0 0.21875 "/>
</clipPath>
<clipPath id="clip2">
  <path d="M 0 0.21875 L 706 0.21875 L 706 998 L 0 998 Z M 0 0.21875 "/>
</clipPath>
<clipPath id="clip3">
  <path d="M 0 42 L 705.734375 42 L 705.734375 956 L 0 956 Z M 0 42 "/>
</clipPath>
</defs>
<g id="surface1">
<g clip-path="url(#clip1)" clip-rule="nonzero">
<path style=" stroke:none;fill-rule:nonzero;fill:rgb(100%,100%,100%);fill-opacity:1;" d="M 0 998.792969 L 706.042969 998.792969 L 706.042969 0.21875 L 0 0.21875 Z M 0 998.792969 "/>
</g>
<g clip-path="url(#clip2)" clip-rule="nonzero">
<path style=" stroke:none;fill-rule:nonzero;fill:rgb(100%,100%,100%);fill-opacity:1;" d="M 0 997.429688 L 705.734375 997.429688 L 705.734375 0.21875 L 0 0.21875 Z M 0 997.429688 "/>
</g>
<g clip-path="url(#clip3)" clip-rule="nonzero">
<path style=" stroke:none;fill-rule:nonzero;fill:rgb(97.65625%,82.03125%,77.34375%);fill-opacity:1;" d="M 0 955.972656 L 705.734375 955.972656 L 705.734375 42.671875 L 0 42.671875 Z M 0 955.972656 "/>
</g>
<path style=" stroke:none;fill-rule:nonzero;fill:rgb(87.889099%,45.483398%,20.776367%);fill-opacity:1;" d="M 119.085938 103.109375 L 106.113281 103.109375 L 106.113281 97.46875 L 119.085938 97.46875 Z M 122.367188 94.390625 L 103.03125 94.390625 L 103.03125 106.171875 L 122.367188 106.171875 Z M 107.503906 112.621094 L 107.503906 119.8125 L 101.195313 119.8125 L 101.195313 112.621094 Z M 98.152344 124.695313 L 101.195313 124.695313 L 101.195313 122.894531 L 107.503906 122.894531 L 107.503906 124.441406 L 110.671875 124.441406 L 110.671875 109.542969 L 98.152344 109.542969 Z M 117.140625 119.8125 L 117.140625 112.621094 L 124.007813 112.621094 L 124.007813 119.8125 Z M 114.078125 109.542969 L 114.078125 124.695313 L 117.140625 124.695313 L 117.140625 122.894531 L 124.007813 122.894531 L 124.007813 124.515625 L 127.214844 124.515625 L 127.214844 109.542969 L 114.078125 109.542969 "/>
<path style=" stroke:none;fill-rule:nonzero;fill:rgb(87.889099%,45.483398%,20.776367%);fill-opacity:1;" d="M 135.898438 105 L 143.484375 105 L 143.484375 102.28125 L 141.160156 102.28125 L 141.160156 92.964844 L 138.457031 92.964844 L 138.457031 102.28125 L 135.898438 102.28125 L 135.898438 93.722656 L 133.105469 93.722656 L 133.105469 106.695313 C 133.105469 111.613281 132.78125 118.839844 130.851563 123.757813 C 131.683594 123.957031 132.960938 124.441406 133.609375 124.785156 C 134.960938 121.164063 135.519531 116.53125 135.753906 112.226563 L 139.429688 112.226563 L 139.429688 124.695313 L 142.203125 124.695313 L 142.203125 109.503906 L 135.863281 109.503906 C 135.898438 108.496094 135.898438 107.597656 135.898438 106.695313 Z M 147.808594 107.074219 L 147.808594 104.066406 L 151.609375 104.066406 C 151.429688 105.039063 151.160156 106.082031 150.710938 107.074219 Z M 147.808594 98.714844 L 151.878906 98.714844 L 151.878906 101.648438 L 147.808594 101.648438 Z M 158.492188 101.648438 L 154.78125 101.648438 L 154.78125 98.714844 L 158.492188 98.714844 Z M 158.492188 107.074219 L 153.878906 107.074219 C 154.203125 106.082031 154.4375 105.039063 154.582031 104.066406 L 158.492188 104.066406 Z M 162.960938 115.179688 L 156.761719 115.179688 L 156.761719 110.15625 L 153.683594 110.15625 L 153.683594 115.179688 L 147.25 115.179688 C 149.878906 113.542969 151.574219 111.613281 152.710938 109.632813 L 161.539063 109.632813 L 161.539063 96.15625 L 153.230469 96.15625 C 153.683594 95.289063 154.132813 94.28125 154.476563 93.34375 L 150.78125 92.964844 C 150.636719 93.867188 150.332031 95.074219 149.988281 96.15625 L 144.851563 96.15625 L 144.851563 109.632813 L 149.125 109.632813 C 148.042969 111.019531 146.546875 112.371094 144.4375 113.523438 C 145.105469 113.9375 145.972656 114.621094 146.546875 115.179688 L 143.339844 115.179688 L 143.339844 117.9375 L 153.683594 117.9375 L 153.683594 124.695313 L 156.761719 124.695313 L 156.761719 117.9375 L 162.960938 117.9375 L 162.960938 115.179688 "/>
<path style=" stroke:none;fill-rule:nonzero;fill:rgb(87.889099%,45.483398%,20.776367%);fill-opacity:1;" d="M 170.382813 99.398438 L 192.980469 99.398438 L 192.980469 103.757813 L 196.257813 103.757813 L 196.257813 96.351563 L 184.257813 96.351563 C 183.773438 95.21875 182.90625 93.792969 182.042969 92.660156 L 178.90625 93.648438 C 179.449219 94.460938 180.007813 95.453125 180.457031 96.351563 L 167.25 96.351563 L 167.25 103.757813 L 170.382813 103.757813 Z M 196.582031 111.363281 L 183.46875 111.363281 L 183.46875 110.441406 C 186.402344 108.75 189.320313 106.496094 191.429688 104.351563 L 189.25 102.695313 L 188.511719 102.855469 L 172.671875 102.855469 L 172.671875 105.832031 L 185.269531 105.832031 C 183.71875 107.144531 181.808594 108.496094 180.042969 109.363281 L 180.042969 111.363281 L 166.925781 111.363281 L 166.925781 114.441406 L 180.042969 114.441406 L 180.042969 120.820313 C 180.042969 121.308594 179.828125 121.46875 179.214844 121.46875 C 178.546875 121.507813 176.167969 121.507813 173.988281 121.433594 C 174.511719 122.261719 175.160156 123.722656 175.375 124.660156 C 178.203125 124.660156 180.222656 124.621094 181.59375 124.101563 C 183.015625 123.613281 183.46875 122.710938 183.46875 120.910156 L 183.46875 114.441406 L 196.582031 114.441406 L 196.582031 111.363281 "/>
<path style=" stroke:none;fill-rule:nonzero;fill:rgb(87.889099%,45.483398%,20.776367%);fill-opacity:1;" d="M 207.414063 93.109375 C 205.753906 98.117188 203.050781 103.164063 200.078125 106.425781 C 200.621094 107.144531 201.554688 108.910156 201.882813 109.667969 C 202.746094 108.640625 203.574219 107.523438 204.4375 106.28125 L 204.4375 124.621094 L 207.503906 124.621094 L 207.503906 100.964844 C 208.621094 98.675781 209.664063 96.316406 210.421875 93.972656 Z M 231.972656 102.585938 L 231.972656 99.542969 L 222.078125 99.542969 L 222.078125 93.109375 L 218.925781 93.109375 L 218.925781 99.542969 L 209.664063 99.542969 L 209.664063 102.585938 L 217.230469 102.585938 C 215.195313 108.261719 211.808594 113.902344 208.132813 116.945313 C 208.820313 117.488281 209.933594 118.605469 210.421875 119.398438 C 213.808594 116.136719 216.816406 110.929688 218.925781 105.253906 L 218.925781 115.667969 L 213.773438 115.667969 L 213.773438 118.570313 L 218.925781 118.570313 L 218.925781 124.480469 L 222.078125 124.480469 L 222.078125 118.570313 L 227.195313 118.570313 L 227.195313 115.667969 L 222.078125 115.667969 L 222.078125 105.039063 C 224.117188 110.675781 227.085938 116.082031 230.347656 119.289063 C 230.925781 118.425781 232.007813 117.324219 232.800781 116.730469 C 229.234375 113.722656 225.84375 108.152344 223.882813 102.585938 L 231.972656 102.585938 "/>
<path style=" stroke:none;fill-rule:nonzero;fill:rgb(87.889099%,45.483398%,20.776367%);fill-opacity:1;" d="M 98.636719 163.46875 L 107.160156 163.46875 C 112.800781 163.46875 116.90625 161.054688 116.90625 155.992188 C 116.90625 152.53125 114.800781 150.570313 111.898438 149.9375 L 111.898438 149.777344 C 114.167969 149 115.519531 146.695313 115.519531 144.261719 C 115.519531 139.667969 111.753906 138.011719 106.53125 138.011719 L 98.636719 138.011719 Z M 102.65625 148.625 L 102.65625 141.128906 L 106.1875 141.128906 C 109.773438 141.128906 111.574219 142.117188 111.574219 144.785156 C 111.574219 147.179688 109.953125 148.625 106.078125 148.625 Z M 102.65625 160.316406 L 102.65625 151.667969 L 106.710938 151.667969 C 110.746094 151.667969 112.960938 152.910156 112.960938 155.792969 C 112.960938 158.910156 110.671875 160.316406 106.710938 160.316406 L 102.65625 160.316406 "/>
<path style=" stroke:none;fill-rule:nonzero;fill:rgb(87.889099%,45.483398%,20.776367%);fill-opacity:1;" d="M 121.371094 163.46875 L 125.316406 163.46875 L 125.316406 151.597656 C 126.523438 148.585938 128.398438 147.523438 129.945313 147.523438 C 130.703125 147.523438 131.191406 147.632813 131.855469 147.832031 L 132.578125 144.371094 C 131.980469 144.101563 131.371094 143.957031 130.433594 143.957031 C 128.398438 143.957031 126.378906 145.414063 125.046875 147.867188 L 124.9375 147.867188 L 124.628906 144.441406 L 121.371094 144.441406 L 121.371094 163.46875 "/>
<path style=" stroke:none;fill-rule:nonzero;fill:rgb(87.889099%,45.483398%,20.776367%);fill-opacity:1;" d="M 139.054688 163.921875 C 141.324219 163.921875 143.378906 162.785156 145.109375 161.289063 L 145.199219 161.289063 L 145.558594 163.46875 L 148.804688 163.46875 L 148.804688 152.011719 C 148.804688 146.964844 146.621094 143.957031 141.882813 143.957031 C 138.839844 143.957031 136.171875 145.199219 134.207031 146.441406 L 135.6875 149.144531 C 137.324219 148.117188 139.179688 147.21875 141.199219 147.21875 C 143.992188 147.21875 144.785156 149.144531 144.820313 151.363281 C 136.910156 152.226563 133.449219 154.335938 133.449219 158.425781 C 133.449219 161.777344 135.757813 163.921875 139.054688 163.921875 Z M 140.261719 160.769531 C 138.566406 160.769531 137.289063 160.011719 137.289063 158.136719 C 137.289063 155.992188 139.179688 154.585938 144.820313 153.882813 L 144.820313 158.550781 C 143.269531 159.976563 141.917969 160.769531 140.261719 160.769531 "/>
<path style=" stroke:none;fill-rule:nonzero;fill:rgb(87.889099%,45.483398%,20.776367%);fill-opacity:1;" d="M 154.441406 163.46875 L 158.386719 163.46875 L 158.386719 149.972656 C 160.082031 148.28125 161.289063 147.378906 163.054688 147.378906 C 165.308594 147.378906 166.28125 148.695313 166.28125 151.992188 L 166.28125 163.46875 L 170.242188 163.46875 L 170.242188 151.503906 C 170.242188 146.660156 168.460938 143.957031 164.40625 143.957031 C 161.8125 143.957031 159.867188 145.378906 158.117188 147.074219 L 158.007813 147.074219 L 157.703125 144.441406 L 154.441406 144.441406 L 154.441406 163.46875 "/>
<path style=" stroke:none;fill-rule:nonzero;fill:rgb(87.889099%,45.483398%,20.776367%);fill-opacity:1;" d="M 182.605469 163.921875 C 184.75 163.921875 186.714844 162.785156 188.136719 161.324219 L 188.246094 161.324219 L 188.589844 163.46875 L 191.832031 163.46875 L 191.832031 135.902344 L 187.867188 135.902344 L 187.867188 142.949219 L 188.03125 146.101563 C 186.480469 144.785156 185.09375 143.957031 182.914063 143.957031 C 178.660156 143.957031 174.75 147.792969 174.75 153.992188 C 174.75 160.28125 177.832031 163.921875 182.605469 163.921875 Z M 183.542969 160.640625 C 180.570313 160.640625 178.859375 158.246094 178.859375 153.921875 C 178.859375 149.8125 181.019531 147.273438 183.667969 147.273438 C 185.09375 147.273438 186.445313 147.722656 187.867188 149 L 187.867188 158.316406 C 186.480469 159.902344 185.128906 160.640625 183.542969 160.640625 "/>
<path style=" stroke:none;fill-rule:nonzero;fill:rgb(87.889099%,45.483398%,20.776367%);fill-opacity:1;" d="M 215.644531 136.101563 C 214.78125 135.722656 213.570313 135.453125 212.292969 135.453125 C 208.023438 135.453125 206.273438 138.15625 206.273438 142.0625 L 206.273438 144.441406 L 203.679688 144.660156 L 203.679688 147.632813 L 206.273438 147.632813 L 206.273438 163.46875 L 210.238281 163.46875 L 210.238281 147.632813 L 214.078125 147.632813 L 214.078125 144.441406 L 210.238281 144.441406 L 210.238281 142.027344 C 210.238281 139.703125 211.066406 138.605469 212.761719 138.605469 C 213.429688 138.605469 214.148438 138.765625 214.851563 139.074219 L 215.644531 136.101563 "/>
<path style=" stroke:none;fill-rule:nonzero;fill:rgb(87.889099%,45.483398%,20.776367%);fill-opacity:1;" d="M 224.765625 163.921875 C 229.488281 163.921875 233.738281 160.28125 233.738281 153.992188 C 233.738281 147.632813 229.488281 143.957031 224.765625 143.957031 C 220.0625 143.957031 215.8125 147.632813 215.8125 153.992188 C 215.8125 160.28125 220.0625 163.921875 224.765625 163.921875 Z M 224.765625 160.660156 C 221.792969 160.660156 219.9375 158.011719 219.9375 153.992188 C 219.9375 149.9375 221.792969 147.253906 224.765625 147.253906 C 227.773438 147.253906 229.648438 149.9375 229.648438 153.992188 C 229.648438 158.011719 227.773438 160.660156 224.765625 160.660156 "/>
<path style=" stroke:none;fill-rule:nonzero;fill:rgb(87.889099%,45.483398%,20.776367%);fill-opacity:1;" d="M 238.402344 163.46875 L 242.351563 163.46875 L 242.351563 149.972656 C 244.042969 148.28125 245.25 147.378906 247.015625 147.378906 C 249.269531 147.378906 250.242188 148.695313 250.242188 151.992188 L 250.242188 163.46875 L 254.207031 163.46875 L 254.207031 151.503906 C 254.207031 146.660156 252.421875 143.957031 248.367188 143.957031 C 245.773438 143.957031 243.828125 145.378906 242.078125 147.074219 L 241.972656 147.074219 L 241.664063 144.441406 L 238.402344 144.441406 L 238.402344 163.46875 "/>
<path style=" stroke:none;fill-rule:nonzero;fill:rgb(87.889099%,45.483398%,20.776367%);fill-opacity:1;" d="M 266.386719 163.921875 C 267.773438 163.921875 269.054688 163.578125 270.136719 163.234375 L 269.394531 160.28125 C 268.855469 160.53125 268.007813 160.730469 267.359375 160.730469 C 265.398438 160.730469 264.585938 159.558594 264.585938 157.269531 L 264.585938 147.632813 L 269.539063 147.632813 L 269.539063 144.441406 L 264.585938 144.441406 L 264.585938 139.179688 L 261.234375 139.179688 L 260.785156 144.441406 L 257.847656 144.660156 L 257.847656 147.632813 L 260.621094 147.632813 L 260.621094 157.234375 C 260.621094 161.253906 262.097656 163.921875 266.386719 163.921875 "/>
<path style=" stroke:none;fill-rule:nonzero;fill:rgb(16.868591%,15.696716%,16.088867%);fill-opacity:1;" d="M 115.207031 238.046875 L 105.207031 238.046875 L 105.207031 240.046875 L 115.207031 240.046875 Z M 104.089844 247.449219 C 103.691406 246.875 101.730469 244.425781 101.042969 243.667969 L 101.042969 243.109375 L 103.871094 243.109375 L 103.871094 241.125 L 101.042969 241.125 L 101.042969 236.425781 L 98.917969 236.425781 L 98.917969 241.125 L 95.566406 241.125 L 95.566406 243.109375 L 98.484375 243.109375 C 97.785156 245.828125 96.449219 248.964844 95.0625 250.675781 C 95.441406 251.21875 95.980469 252.15625 96.199219 252.730469 C 97.207031 251.378906 98.179688 249.253906 98.917969 247.019531 L 98.917969 257.59375 L 101.042969 257.59375 L 101.042969 246.117188 C 101.730469 247.179688 102.539063 248.441406 102.882813 249.164063 Z M 105.53125 247.847656 C 104.953125 250.246094 103.945313 252.730469 102.71875 254.316406 C 103.207031 254.566406 104.054688 255.128906 104.433594 255.449219 C 105.65625 253.683594 106.808594 250.945313 107.476563 248.296875 Z M 116.449219 245.488281 L 116.449219 243.488281 L 104.199219 243.488281 L 104.199219 245.488281 L 108.898438 245.488281 L 108.898438 254.929688 C 108.898438 255.21875 108.808594 255.308594 108.488281 255.308594 C 108.199219 255.34375 107.171875 255.34375 106.089844 255.289063 C 106.398438 255.9375 106.667969 256.875 106.738281 257.503906 C 108.324219 257.503906 109.40625 257.453125 110.144531 257.089844 C 110.882813 256.75 111.097656 256.101563 111.097656 254.964844 L 111.097656 245.488281 Z M 112.289063 248.371094 C 113.332031 250.675781 114.324219 253.683594 114.628906 255.523438 L 116.59375 254.785156 C 116.214844 252.964844 115.152344 250.027344 114.089844 247.777344 L 112.289063 248.371094 "/>
<path style=" stroke:none;fill-rule:nonzero;fill:rgb(16.868591%,15.696716%,16.088867%);fill-opacity:1;" d="M 134.8125 246.386719 L 128.558594 246.386719 L 128.558594 240.027344 L 134.8125 240.027344 Z M 137.027344 237.972656 L 126.433594 237.972656 L 126.433594 248.425781 L 137.027344 248.425781 Z M 123.691406 240.316406 C 122.902344 239.378906 121.261719 237.917969 120.054688 236.929688 L 118.628906 238.226563 C 119.890625 239.308594 121.476563 240.804688 122.199219 241.792969 Z M 122.628906 252.550781 L 122.628906 243.523438 L 117.550781 243.523438 L 117.550781 245.578125 L 120.558594 245.578125 L 120.558594 252.945313 C 120.558594 254.261719 119.730469 255.21875 119.1875 255.667969 C 119.585938 255.9375 120.269531 256.660156 120.523438 257.074219 C 120.902344 256.570313 121.585938 255.992188 125.691406 252.640625 C 125.441406 252.246094 125.027344 251.378906 124.863281 250.804688 Z M 127.980469 250.496094 C 127.277344 252.730469 126.109375 254.945313 124.613281 256.335938 C 125.136719 256.621094 126.070313 257.234375 126.503906 257.578125 C 128.019531 255.992188 129.371094 253.523438 130.164063 250.984375 Z M 133.117188 251.144531 C 134.34375 253.144531 135.621094 255.777344 136.089844 257.433594 L 138.234375 256.605469 C 137.710938 254.945313 136.378906 252.371094 135.132813 250.40625 L 133.117188 251.144531 "/>
<path style=" stroke:none;fill-rule:nonzero;fill:rgb(16.868591%,15.696716%,16.088867%);fill-opacity:1;" d="M 142.234375 240.730469 L 157.296875 240.730469 L 157.296875 243.648438 L 159.476563 243.648438 L 159.476563 238.710938 L 151.476563 238.710938 C 151.152344 237.957031 150.578125 237 150 236.246094 L 147.910156 236.910156 C 148.269531 237.433594 148.648438 238.117188 148.9375 238.710938 L 140.125 238.710938 L 140.125 243.648438 L 142.234375 243.648438 Z M 159.695313 248.714844 L 150.953125 248.714844 L 150.953125 248.101563 C 152.917969 246.964844 154.847656 245.46875 156.25 244.027344 L 154.792969 242.929688 L 154.324219 243.035156 L 143.746094 243.035156 L 143.746094 245.039063 L 152.144531 245.039063 C 151.117188 245.902344 149.835938 246.804688 148.667969 247.378906 L 148.667969 248.714844 L 139.929688 248.714844 L 139.929688 250.765625 L 148.667969 250.765625 L 148.667969 255.019531 C 148.667969 255.34375 148.523438 255.449219 148.109375 255.449219 C 147.675781 255.46875 146.089844 255.46875 144.628906 255.433594 C 144.972656 255.992188 145.421875 256.945313 145.550781 257.578125 C 147.441406 257.578125 148.773438 257.558594 149.710938 257.199219 C 150.648438 256.875 150.953125 256.28125 150.953125 255.089844 L 150.953125 250.765625 L 159.695313 250.765625 L 159.695313 248.714844 "/>
<path style=" stroke:none;fill-rule:nonzero;fill:rgb(16.868591%,15.696716%,16.088867%);fill-opacity:1;" d="M 165.746094 236.53125 C 164.648438 239.882813 162.847656 243.253906 160.863281 245.414063 C 161.242188 245.902344 161.855469 247.074219 162.070313 247.597656 C 162.648438 246.894531 163.1875 246.152344 163.765625 245.324219 L 163.765625 257.558594 L 165.820313 257.558594 L 165.820313 241.777344 C 166.558594 240.261719 167.261719 238.695313 167.765625 237.109375 Z M 182.125 242.855469 L 182.125 240.839844 L 175.53125 240.839844 L 175.53125 236.53125 L 173.441406 236.53125 L 173.441406 240.839844 L 167.261719 240.839844 L 167.261719 242.855469 L 172.304688 242.855469 C 170.9375 246.640625 168.683594 250.40625 166.234375 252.425781 C 166.703125 252.800781 167.441406 253.542969 167.765625 254.0625 C 170.019531 251.902344 172.035156 248.425781 173.441406 244.640625 L 173.441406 251.578125 L 170 251.578125 L 170 253.523438 L 173.441406 253.523438 L 173.441406 257.453125 L 175.53125 257.453125 L 175.53125 253.523438 L 178.953125 253.523438 L 178.953125 251.578125 L 175.53125 251.578125 L 175.53125 244.496094 C 176.902344 248.261719 178.882813 251.847656 181.046875 253.992188 C 181.441406 253.414063 182.164063 252.675781 182.683594 252.296875 C 180.304688 250.28125 178.054688 246.566406 176.738281 242.855469 L 182.125 242.855469 "/>
<path style=" stroke:none;fill-rule:nonzero;fill:rgb(16.868591%,15.696716%,16.088867%);fill-opacity:1;" d="M 96.703125 283.449219 L 106.558594 283.449219 L 106.558594 281.199219 L 99.386719 281.199219 L 99.386719 266.476563 L 96.703125 266.476563 L 96.703125 283.449219 "/>
<path style=" stroke:none;fill-rule:nonzero;fill:rgb(16.868591%,15.696716%,16.088867%);fill-opacity:1;" d="M 112.917969 283.757813 C 116.054688 283.757813 118.882813 281.324219 118.882813 277.128906 C 118.882813 272.890625 116.054688 270.441406 112.917969 270.441406 C 109.785156 270.441406 106.9375 272.890625 106.9375 277.128906 C 106.9375 281.324219 109.785156 283.757813 112.917969 283.757813 Z M 112.917969 281.578125 C 110.9375 281.578125 109.695313 279.8125 109.695313 277.128906 C 109.695313 274.441406 110.9375 272.640625 112.917969 272.640625 C 114.921875 272.640625 116.164063 274.441406 116.164063 277.128906 C 116.164063 279.8125 114.921875 281.578125 112.917969 281.578125 "/>
<path style=" stroke:none;fill-rule:nonzero;fill:rgb(16.868591%,15.696716%,16.088867%);fill-opacity:1;" d="M 125.1875 289.144531 C 129.242188 289.144531 131.835938 287.164063 131.835938 284.710938 C 131.835938 282.550781 130.269531 281.632813 127.261719 281.632813 L 124.9375 281.632813 C 123.316406 281.632813 122.808594 281.144531 122.808594 280.386719 C 122.808594 279.777344 123.097656 279.414063 123.511719 279.054688 C 124.054688 279.308594 124.703125 279.433594 125.277344 279.433594 C 127.925781 279.433594 130.035156 277.847656 130.035156 275.074219 C 130.035156 274.117188 129.691406 273.253906 129.207031 272.75 L 131.621094 272.75 L 131.621094 270.765625 L 127.132813 270.765625 C 126.648438 270.585938 126 270.441406 125.277344 270.441406 C 122.648438 270.441406 120.359375 272.136719 120.359375 275.019531 C 120.359375 276.515625 121.171875 277.703125 122.035156 278.371094 L 122.035156 278.480469 C 121.332031 278.984375 120.628906 279.828125 120.628906 280.820313 C 120.628906 281.867188 121.132813 282.53125 121.78125 282.929688 L 121.78125 283.039063 C 120.59375 283.757813 119.925781 284.75 119.925781 285.8125 C 119.925781 288.011719 122.144531 289.144531 125.1875 289.144531 Z M 125.277344 277.738281 C 123.964844 277.738281 122.882813 276.695313 122.882813 275.019531 C 122.882813 273.289063 123.945313 272.316406 125.277344 272.316406 C 126.613281 272.316406 127.675781 273.308594 127.675781 275.019531 C 127.675781 276.695313 126.59375 277.738281 125.277344 277.738281 Z M 125.585938 287.398438 C 123.476563 287.398438 122.195313 286.660156 122.195313 285.414063 C 122.195313 284.765625 122.523438 284.117188 123.277344 283.558594 C 123.800781 283.6875 124.378906 283.757813 124.972656 283.757813 L 126.902344 283.757813 C 128.429688 283.757813 129.277344 284.082031 129.277344 285.128906 C 129.277344 286.316406 127.800781 287.398438 125.585938 287.398438 "/>
<path style=" stroke:none;fill-rule:nonzero;fill:rgb(16.868591%,15.696716%,16.088867%);fill-opacity:1;" d="M 137.710938 283.757813 C 140.847656 283.757813 143.675781 281.324219 143.675781 277.128906 C 143.675781 272.890625 140.847656 270.441406 137.710938 270.441406 C 134.578125 270.441406 131.730469 272.890625 131.730469 277.128906 C 131.730469 281.324219 134.578125 283.757813 137.710938 283.757813 Z M 137.710938 281.578125 C 135.730469 281.578125 134.488281 279.8125 134.488281 277.128906 C 134.488281 274.441406 135.730469 272.640625 137.710938 272.640625 C 139.710938 272.640625 140.957031 274.441406 140.957031 277.128906 C 140.957031 279.8125 139.710938 281.578125 137.710938 281.578125 "/>
<path style=" stroke:none;fill-rule:nonzero;fill:rgb(16.868591%,15.696716%,16.088867%);fill-opacity:1;" d="M 156.378906 265.21875 C 155.800781 264.945313 154.992188 264.765625 154.125 264.765625 C 151.296875 264.765625 150.125 266.570313 150.125 269.179688 L 150.125 270.765625 L 148.394531 270.910156 L 148.394531 272.890625 L 150.125 272.890625 L 150.125 283.449219 L 152.773438 283.449219 L 152.773438 272.890625 L 155.332031 272.890625 L 155.332031 270.765625 L 152.773438 270.765625 L 152.773438 269.144531 C 152.773438 267.613281 153.332031 266.875 154.449219 266.875 C 154.902344 266.875 155.386719 266.984375 155.835938 267.199219 L 156.378906 265.21875 "/>
<path style=" stroke:none;fill-rule:nonzero;fill:rgb(16.868591%,15.696716%,16.088867%);fill-opacity:1;" d="M 161.304688 283.757813 C 164.441406 283.757813 167.269531 281.324219 167.269531 277.128906 C 167.269531 272.890625 164.441406 270.441406 161.304688 270.441406 C 158.171875 270.441406 155.324219 272.890625 155.324219 277.128906 C 155.324219 281.324219 158.171875 283.757813 161.304688 283.757813 Z M 161.304688 281.578125 C 159.324219 281.578125 158.082031 279.8125 158.082031 277.128906 C 158.082031 274.441406 159.324219 272.640625 161.304688 272.640625 C 163.304688 272.640625 164.550781 274.441406 164.550781 277.128906 C 164.550781 279.8125 163.304688 281.578125 161.304688 281.578125 "/>
<path style=" stroke:none;fill-rule:nonzero;fill:rgb(16.868591%,15.696716%,16.088867%);fill-opacity:1;" d="M 169.234375 283.449219 L 171.863281 283.449219 L 171.863281 274.460938 C 173 273.324219 173.808594 272.730469 174.980469 272.730469 C 176.476563 272.730469 177.125 273.59375 177.125 275.792969 L 177.125 283.449219 L 179.773438 283.449219 L 179.773438 275.46875 C 179.773438 272.246094 178.585938 270.441406 175.882813 270.441406 C 174.152344 270.441406 172.855469 271.398438 171.683594 272.515625 L 171.609375 272.515625 L 171.414063 270.765625 L 169.234375 270.765625 L 169.234375 283.449219 "/>
<path style=" stroke:none;fill-rule:nonzero;fill:rgb(16.868591%,15.696716%,16.088867%);fill-opacity:1;" d="M 186.742188 283.757813 C 187.660156 283.757813 188.523438 283.523438 189.226563 283.289063 L 188.757813 281.324219 C 188.382813 281.488281 187.820313 281.632813 187.390625 281.632813 C 186.074219 281.632813 185.550781 280.839844 185.550781 279.324219 L 185.550781 272.890625 L 188.847656 272.890625 L 188.847656 270.765625 L 185.550781 270.765625 L 185.550781 267.253906 L 183.300781 267.253906 L 183.011719 270.765625 L 181.046875 270.910156 L 181.046875 272.890625 L 182.886719 272.890625 L 182.886719 279.308594 C 182.886719 281.972656 183.875 283.757813 186.742188 283.757813 "/>
<path style=" stroke:none;fill-rule:nonzero;fill:rgb(16.868591%,15.696716%,16.088867%);fill-opacity:1;" d="M 143.195313 676.277344 C 140.765625 672.582031 137.664063 666.457031 133.234375 655.179688 L 121.289063 624.621094 L 113.609375 624.621094 L 113.609375 636.207031 C 111.160156 641.070313 107.105469 650.222656 103.195313 663.738281 C 101.9375 668.078125 99.808594 672.730469 97.953125 676.277344 L 111.394531 676.277344 C 111.089844 674.585938 110.277344 669.484375 110.277344 665.054688 C 110.277344 659.304688 110.511719 654.800781 110.871094 651.035156 L 119.070313 651.035156 L 122.457031 660.1875 C 126.078125 670.007813 125.933594 671.988281 125.933594 676.277344 Z M 110.945313 650.007813 C 111.539063 644.621094 112.566406 640.925781 114.042969 637.375 L 118.691406 650.007813 L 110.945313 650.007813 "/>
<path style=" stroke:none;fill-rule:nonzero;fill:rgb(16.868591%,15.696716%,16.088867%);fill-opacity:1;" d="M 138.847656 663.882813 C 138.847656 671.25 144.382813 676.871094 152.199219 676.871094 C 157.226563 676.871094 160.613281 674.726563 162.6875 670.367188 L 164.742188 676.277344 L 178.398438 676.277344 C 177.371094 675.25 175.824219 672.800781 174.632813 669.628906 C 171.769531 661.953125 168.667969 653.25 166.074219 646.601563 C 163.859375 640.855469 158.921875 638.78125 154.488281 638.78125 C 151.460938 638.78125 148.667969 639.664063 146.148438 641.140625 L 146.21875 641.375 C 148.003906 641.070313 150.363281 641.375 151.984375 643.285156 C 154.34375 646.027344 158.777344 659.160156 162.238281 669.125 C 161.066406 669.558594 159.875 669.792969 158.777344 669.792969 C 152.652344 669.863281 149.316406 663.882813 149.316406 657.304688 C 149.316406 651.339844 150.957031 647.792969 152.507813 646.167969 C 144.382813 649.339844 138.847656 655.394531 138.847656 663.882813 "/>
<path style=" stroke:none;fill-rule:nonzero;fill:rgb(16.868591%,15.696716%,16.088867%);fill-opacity:1;" d="M 198.324219 676.277344 C 209.984375 676.277344 219.28125 667.933594 219.28125 658.117188 C 219.28125 648.386719 211.695313 644.097656 204.832031 642.855469 C 209.335938 640.257813 213.15625 637.972656 213.15625 633.25 C 213.15625 626.53125 206.144531 624.621094 197.082031 624.621094 L 175.082031 624.621094 C 176.992188 627.125 178.46875 632.152344 178.46875 639.898438 L 178.46875 661 C 178.46875 668.746094 176.992188 673.773438 175.082031 676.277344 Z M 181.351563 670.746094 C 184.019531 657.972656 186.882813 645.214844 189.316406 632.367188 C 190.289063 627.339844 192.128906 625.574219 194.867188 625.574219 C 199.730469 625.574219 201.136719 628.746094 201.136719 633.539063 C 201.136719 638.636719 198.777344 643.738281 193.675781 649.933594 C 190.363281 653.917969 183.929688 662.621094 181.351563 670.746094 Z M 190.144531 662.332031 C 190.578125 656.945313 192.273438 652.960938 195.300781 649.414063 C 197.820313 646.910156 200.757813 645.050781 203.714844 643.503906 C 205.929688 645.863281 207.191406 650.960938 207.191406 656.726563 C 207.191406 664.90625 204.378906 675.324219 197.441406 675.324219 C 195.082031 675.324219 193.15625 673.988281 191.839844 671.773438 C 190.433594 669.339844 189.839844 666.027344 190.144531 662.332031 "/>
<path style=" stroke:none;fill-rule:nonzero;fill:rgb(16.868591%,15.696716%,16.088867%);fill-opacity:1;" d="M 216.195313 631.988281 C 217.363281 632.800781 219.652344 635.683594 219.582031 643.070313 L 219.148438 676.277344 L 230.660156 672.222656 C 231.761719 673.105469 235.527344 676.871094 241.652344 676.871094 C 247.921875 676.871094 257.003906 671.25 257.003906 656.945313 C 257.003906 643.738281 249.328125 638.78125 241.941406 638.78125 C 234.644531 638.78125 231.167969 643.429688 230.660156 644.476563 L 230.660156 624.621094 L 216.195313 631.703125 Z M 230.660156 646.386719 C 231.238281 644.835938 234.195313 641.449219 237.363281 641.449219 C 242.085938 641.449219 245.113281 646.601563 245.273438 658.042969 C 245.347656 668.457031 242.609375 673.988281 237.742188 673.988281 C 234.050781 673.988281 231.90625 671.773438 230.660156 670.441406 L 230.660156 646.386719 "/>
<path style=" stroke:none;fill-rule:nonzero;fill:rgb(16.868591%,15.696716%,16.088867%);fill-opacity:1;" d="M 254.9375 650.441406 C 254.9375 666.167969 267.546875 676.871094 283.351563 676.871094 C 297.226563 676.871094 304.613281 667.195313 307.550781 659.160156 L 307.261719 659.015625 C 303.640625 667.339844 295.605469 668.960938 291.460938 668.960938 C 277.585938 668.960938 266.304688 658.421875 266.304688 643.070313 C 266.304688 633.105469 271.171875 625.574219 280.46875 625.574219 C 291.765625 625.574219 300.992188 637.972656 304.304688 648.675781 L 304.449219 648.675781 L 304.449219 629.699219 C 299.0625 626.386719 291.980469 624.023438 284.304688 624.023438 C 267.855469 624.023438 254.9375 634.800781 254.9375 650.441406 "/>
<path style=" stroke:none;fill-rule:nonzero;fill:rgb(16.868591%,15.696716%,16.088867%);fill-opacity:1;" d="M 303.496094 657.972656 C 303.496094 668.746094 311.914063 676.871094 322.09375 676.871094 C 334.058594 676.871094 340.542969 667.71875 340.6875 657.828125 L 340.542969 657.828125 C 339.515625 664.097656 335.679688 668.078125 328.8125 668.078125 C 320.757813 668.078125 314.796875 661.214844 313.535156 654.277344 C 311.984375 645.792969 315.460938 639.828125 321.136719 639.828125 C 327.625 639.828125 333.390625 645.863281 337.15625 654.277344 L 337.15625 642.691406 C 332.199219 639.972656 328.363281 638.78125 322.09375 638.78125 C 311.984375 638.78125 303.496094 646.691406 303.496094 657.972656 "/>
<path style=" stroke:none;fill-rule:nonzero;fill:rgb(16.868591%,15.696716%,16.088867%);fill-opacity:1;" d="M 357.070313 676.277344 C 374.421875 676.277344 386.296875 665.863281 386.296875 650.367188 C 386.296875 635.015625 374.421875 624.621094 357.070313 624.621094 L 338.332031 624.621094 C 340.242188 627.125 341.71875 632.152344 341.71875 639.898438 L 341.71875 661 C 341.71875 668.746094 340.242188 673.773438 338.332031 676.277344 Z M 353.539063 625.644531 L 355.828125 625.644531 C 365.792969 625.644531 374.136719 638.117188 374.136719 650.367188 C 374.136719 662.925781 365.792969 675.25 355.828125 675.25 L 353.539063 675.25 L 353.539063 625.644531 "/>
<path style=" stroke:none;fill-rule:nonzero;fill:rgb(16.868591%,15.696716%,16.088867%);fill-opacity:1;" d="M 384.828125 658.710938 C 384.828125 671.917969 392.503906 676.871094 399.890625 676.871094 C 406.089844 676.871094 409.476563 673.539063 410.738281 671.917969 L 410.667969 676.277344 L 425.640625 676.277344 C 423.945313 674.871094 422.179688 670.746094 422.179688 663.359375 L 422.179688 624.621094 L 407.710938 631.703125 L 407.710938 631.988281 C 408.882813 632.800781 411.097656 635.683594 411.097656 643.070313 L 411.097656 643.359375 C 409.925781 642.402344 406.160156 638.78125 400.179688 638.78125 C 393.910156 638.78125 384.828125 644.402344 384.828125 658.710938 Z M 396.558594 657.609375 C 396.484375 647.195313 399.226563 641.664063 404.089844 641.664063 C 407.710938 641.664063 409.855469 643.738281 411.097656 645.125 L 410.738281 670.082031 C 409.695313 671.773438 407.117188 674.207031 404.449219 674.207031 C 399.730469 674.207031 396.703125 669.050781 396.558594 657.609375 "/>
<path style=" stroke:none;fill-rule:nonzero;fill:rgb(16.868591%,15.696716%,16.088867%);fill-opacity:1;" d="M 473.25 676.277344 L 473.535156 662.765625 C 469.554688 668.386719 459.070313 674.367188 451.105469 675.25 L 451.105469 639.828125 C 451.988281 639.828125 453.683594 640.042969 454.796875 640.476563 C 458.636719 641.953125 461.734375 645.574219 467.628906 651.917969 L 467.699219 651.917969 L 467.699219 640.78125 L 461.429688 640.78125 C 453.015625 640.78125 450.800781 636.636719 450.800781 632.441406 C 450.800781 628.3125 453.394531 625.503906 457.304688 625.503906 C 463.953125 625.503906 468.367188 631.105469 471.175781 636.871094 L 471.320313 636.871094 L 470.796875 624.621094 L 435.828125 624.621094 C 437.734375 627.125 439.210938 632.152344 439.210938 639.898438 L 439.210938 661 C 439.210938 668.746094 437.734375 673.773438 435.828125 676.277344 L 473.25 676.277344 "/>
<path style=" stroke:none;fill-rule:nonzero;fill:rgb(16.868591%,15.696716%,16.088867%);fill-opacity:1;" d="M 508.371094 658.1875 C 507.34375 664.476563 502.621094 668.078125 496.640625 668.078125 C 488.585938 668.078125 482.171875 662.691406 482.171875 654.511719 C 482.171875 653.988281 482.171875 653.464844 482.242188 652.960938 L 505.34375 652.960938 C 505.34375 643.070313 497.667969 638.78125 490.441406 638.78125 C 479.882813 638.78125 471.324219 646.691406 471.324219 657.972656 C 471.324219 668.746094 479.738281 676.871094 490.585938 676.871094 C 501.144531 676.871094 508.371094 668.078125 508.511719 658.1875 Z M 491.46875 639.828125 C 494.710938 639.828125 496.261719 642.261719 496.261719 644.621094 C 496.261719 649.933594 493.089844 652.222656 486.007813 652.222656 L 482.242188 652.222656 C 482.910156 645.648438 486.082031 639.828125 491.46875 639.828125 "/>
<path style=" stroke:none;fill-rule:nonzero;fill:rgb(16.868591%,15.696716%,16.088867%);fill-opacity:1;" d="M 524.824219 676.277344 C 522.914063 673.773438 521.4375 668.746094 521.4375 661 L 521.4375 639.828125 C 522.320313 639.828125 524.015625 640.042969 525.132813 640.476563 C 528.96875 641.953125 532.070313 645.574219 537.960938 651.917969 L 538.035156 651.917969 L 538.035156 640.78125 L 531.761719 640.78125 C 523.347656 640.78125 521.132813 636.636719 521.132813 632.441406 C 521.132813 628.3125 523.726563 625.503906 527.636719 625.503906 C 534.285156 625.503906 538.699219 631.035156 541.511719 636.800781 L 541.65625 636.800781 L 541.132813 624.621094 L 506.160156 624.621094 C 508.070313 627.125 509.546875 632.152344 509.546875 639.898438 L 509.546875 661 C 509.546875 668.746094 508.070313 673.773438 506.160156 676.277344 L 524.824219 676.277344 "/>
<path style=" stroke:none;fill-rule:nonzero;fill:rgb(16.868591%,15.696716%,16.088867%);fill-opacity:1;" d="M 538.558594 641.882813 C 544.972656 641.882813 549.042969 645.574219 548.808594 654.585938 L 548.378906 676.277344 L 563.351563 676.277344 C 561.65625 674.871094 559.890625 670.746094 559.890625 663.359375 L 559.890625 641.953125 L 567.496094 641.953125 L 567.496094 641.289063 C 555.601563 641.289063 548.882813 635.015625 548.882813 628.386719 C 548.882813 626.601563 549.332031 625.429688 550.808594 625.429688 C 553.910156 625.429688 556.339844 631.035156 567.496094 638.492188 L 567.496094 628.152344 C 566.683594 628.242188 561.585938 627.71875 557.367188 626.3125 C 552.953125 624.835938 549.855469 624.023438 546.449219 624.023438 C 542.988281 624.023438 538.558594 625.359375 538.558594 629.789063 C 538.558594 635.539063 550.359375 639.898438 554.269531 641.289063 L 538.558594 641.289063 L 538.558594 641.882813 "/>
<path style=" stroke:none;fill-rule:nonzero;fill:rgb(16.868591%,15.696716%,16.088867%);fill-opacity:1;" d="M 565.273438 650.441406 C 565.273438 666.167969 577.886719 676.871094 593.6875 676.871094 C 606.824219 676.871094 614.429688 667.414063 614.429688 659.738281 C 616.570313 666.601563 618.699219 676.277344 618.699219 676.277344 L 619.601563 676.277344 L 619.601563 648.53125 L 607.78125 648.53125 C 609.777344 649.863281 612.949219 653.84375 613.402344 657.683594 C 614.5 665.144531 606.824219 668.960938 601.796875 668.960938 C 587.921875 668.960938 576.644531 658.421875 576.644531 643.070313 C 576.644531 633.105469 581.507813 625.574219 590.808594 625.574219 C 601.148438 625.574219 609.777344 635.089844 614.644531 645.71875 L 614.789063 645.71875 L 614.789063 629.699219 C 609.402344 626.386719 602.320313 624.023438 594.644531 624.023438 C 578.195313 624.023438 565.273438 634.800781 565.273438 650.441406 "/>
<path style=" stroke:none;fill-rule:nonzero;fill:rgb(16.868591%,15.696716%,16.088867%);fill-opacity:1;" d="M 617.453125 689.628906 C 617.453125 693.847656 621.148438 696.496094 625.34375 696.496094 C 635.308594 696.496094 641.8125 686.097656 655.976563 686.097656 L 655.976563 672.078125 C 637.164063 681.808594 636.785156 692.964844 632.066406 694.0625 C 629.851563 694.585938 629.183594 691.988281 629.328125 689.792969 C 629.703125 685.144531 632.515625 677.609375 640.625 671.847656 C 649.253906 665.648438 653.757813 660.855469 654.066406 653.628906 C 654.210938 649.339844 652.355469 645.125 649.253906 642.691406 C 652.066406 639.898438 656.5 636.871094 660.480469 633.917969 L 660.480469 633.628906 L 650.734375 633.628906 L 648.75 642.261719 C 645.941406 640.117188 642.390625 638.925781 638.40625 638.78125 C 628.011719 638.421875 619.363281 645.214844 619.957031 656.132813 C 620.40625 664.3125 626.390625 670.152344 634.210938 670.152344 C 636.265625 670.152344 638.480469 669.792969 640.550781 669.050781 C 633.164063 666.027344 629.183594 655.089844 629.183594 647.050781 C 629.183594 644.097656 629.777344 640.925781 632.589844 640.1875 C 638.335938 638.710938 644.605469 651.105469 644.679688 660.1875 C 644.75 666.242188 642.695313 670.082031 637.238281 672.730469 C 626.820313 677.972656 617.453125 681.882813 617.453125 689.628906 "/>
<path style=" stroke:none;fill-rule:nonzero;fill:rgb(16.868591%,15.696716%,16.088867%);fill-opacity:1;" d="M 142.171875 701.015625 C 142.171875 693.269531 143.648438 688.242188 145.558594 685.738281 L 126.960938 685.738281 C 128.890625 688.242188 130.351563 693.269531 130.351563 701.015625 L 130.351563 706.691406 L 113.683594 706.691406 L 113.683594 701.015625 C 113.683594 693.269531 115.160156 688.242188 117.070313 685.738281 L 98.476563 685.738281 C 100.386719 688.242188 101.863281 693.269531 101.863281 701.015625 L 101.863281 722.117188 C 101.863281 729.863281 100.386719 734.890625 98.476563 737.394531 L 117.070313 737.394531 C 115.160156 734.890625 113.683594 729.863281 113.683594 722.117188 L 113.683594 707.71875 L 130.351563 707.71875 L 130.351563 722.117188 C 130.351563 729.863281 128.890625 734.890625 126.960938 737.394531 L 145.558594 737.394531 C 143.648438 734.890625 142.171875 729.863281 142.171875 722.117188 L 142.171875 701.015625 "/>
<path style=" stroke:none;fill-rule:nonzero;fill:rgb(16.868591%,15.696716%,16.088867%);fill-opacity:1;" d="M 143.203125 693.105469 C 144.375 693.917969 146.664063 696.800781 146.589844 704.1875 L 146.160156 737.394531 L 161.132813 737.394531 C 159.4375 735.988281 157.671875 731.863281 157.671875 724.476563 L 157.671875 706.402344 C 159.148438 704.621094 160.609375 703.234375 162.679688 703.59375 C 164.96875 704.042969 165.421875 706.980469 166.445313 711.792969 L 171.90625 737.394531 L 186.898438 737.394531 C 185.042969 735.917969 183.058594 733.035156 181.417969 725.882813 L 178.320313 712.296875 C 176.265625 703.375 173.832031 699.898438 167.472656 699.898438 C 162.535156 699.898438 159.4375 702.78125 157.671875 705.289063 L 157.671875 685.738281 L 143.203125 692.816406 L 143.203125 693.105469 "/>
<path style=" stroke:none;fill-rule:nonzero;fill:rgb(16.868591%,15.696716%,16.088867%);fill-opacity:1;" d="M 202.164063 737.394531 C 200.253906 734.890625 198.777344 729.863281 198.777344 722.117188 L 198.777344 701.015625 C 198.777344 693.269531 200.253906 688.242188 202.164063 685.738281 L 183.570313 685.738281 C 185.480469 688.242188 186.957031 693.269531 186.957031 701.015625 L 186.957031 722.117188 C 186.957031 729.863281 185.480469 734.890625 183.570313 737.394531 L 202.164063 737.394531 "/>
<path style=" stroke:none;fill-rule:nonzero;fill:rgb(16.868591%,15.696716%,16.088867%);fill-opacity:1;" d="M 201.71875 691.414063 C 201.71875 695.105469 204.675781 697.988281 208.441406 697.988281 C 212.277344 697.988281 215.015625 695.105469 215.015625 691.414063 C 215.015625 687.792969 212.277344 684.691406 208.441406 684.691406 C 204.675781 684.691406 201.71875 687.792969 201.71875 691.414063 Z M 199.808594 707.285156 C 200.980469 708.097656 203.339844 710.980469 203.195313 718.351563 L 202.765625 737.394531 L 217.738281 737.394531 C 216.042969 735.988281 214.277344 731.863281 214.277344 724.476563 L 214.277344 699.898438 L 199.808594 706.980469 L 199.808594 707.285156 "/>
<path style=" stroke:none;fill-rule:nonzero;fill:rgb(16.868591%,15.696716%,16.088867%);fill-opacity:1;" d="M 215.523438 711.558594 C 215.523438 725.808594 224.226563 737.988281 237.738281 737.988281 C 249.703125 737.988281 261.359375 726.476563 261.433594 711.628906 C 261.433594 697.324219 252.730469 685.144531 239.214844 685.144531 C 227.253906 685.144531 215.59375 696.65625 215.523438 711.558594 Z M 225.34375 698.421875 C 225.34375 692.296875 227.253906 688.3125 232.566406 688.3125 C 244.007813 688.3125 251.613281 709.71875 251.613281 724.691406 C 251.613281 730.820313 249.703125 734.820313 244.386719 734.820313 C 232.945313 734.820313 225.34375 713.414063 225.34375 698.421875 "/>
<path style=" stroke:none;fill-rule:nonzero;fill:rgb(16.868591%,15.696716%,16.088867%);fill-opacity:1;" d="M 258.988281 700.132813 L 263.726563 698.421875 C 264.464844 698.132813 265.492188 697.84375 266.085938 697.84375 C 267.039063 697.84375 267.328125 698.421875 267.328125 699.898438 L 267.328125 722.117188 C 267.328125 729.863281 265.851563 734.890625 263.941406 737.394531 L 282.535156 737.394531 C 280.625 734.890625 279.148438 729.863281 279.148438 722.117188 L 279.148438 685.144531 C 274.265625 690.816406 264.894531 696.800781 258.625 699.234375 L 258.988281 700.132813 "/>
<path style=" stroke:none;fill-rule:nonzero;fill:rgb(16.868591%,15.696716%,16.088867%);fill-opacity:1;" d="M 315.53125 737.324219 L 315.53125 723.972656 C 313.316406 725.429688 310.953125 727.648438 300.683594 727.71875 L 284.828125 727.808594 C 295.675781 713.84375 315.53125 706.765625 315.53125 694.296875 C 315.53125 688.3125 310.648438 685.144531 301.945313 685.144531 C 294.125 685.144531 290.953125 686.691406 284.164063 689.269531 L 284.164063 703.808594 L 284.308594 703.808594 C 288.214844 694.511719 292.71875 686.402344 298.917969 686.242188 C 301.945313 686.167969 303.875 688.167969 303.351563 692.457031 C 302.757813 697.25 296.199219 705.808594 290.722656 714.582031 C 287.332031 720.042969 283.207031 728.242188 281.207031 733.84375 L 279.945313 737.394531 L 315.53125 737.324219 "/>
<path style=" stroke:none;fill-rule:nonzero;fill:rgb(16.868591%,15.696716%,16.088867%);fill-opacity:1;" d="M 314.421875 699.015625 C 316.925781 697.179688 320.261719 695.324219 326.601563 695.324219 L 332.585938 695.324219 L 318.78125 709.648438 C 330.0625 710.007813 338.042969 714.746094 334.566406 724.925781 C 331.324219 734.367188 318.402344 736.730469 315.898438 737.035156 L 316.257813 737.394531 C 316.332031 737.394531 338.332031 737.105469 344.601563 723.808594 C 351.25 709.792969 339.664063 701.519531 328.65625 700.78125 L 343.574219 685.738281 L 314.421875 685.738281 L 314.421875 699.015625 "/>
<path style=" stroke:none;fill-rule:nonzero;fill:rgb(16.868591%,15.696716%,16.088867%);fill-opacity:1;" d="M 382.546875 710.007813 C 380.472656 712.675781 375.230469 718.207031 369.03125 720.351563 L 369.03125 703.304688 C 367.339844 706.402344 361.808594 711.414063 358.707031 712.964844 L 358.707031 721.234375 L 345.121094 721.234375 C 363.050781 697.609375 370.886719 688.386719 374.132813 685.738281 L 358.402344 685.738281 C 357.589844 692.367188 351.390625 710.53125 343.933594 721.378906 L 343.933594 722.117188 L 358.707031 722.117188 L 358.707031 724.78125 C 358.707031 734.222656 355.445313 737.394531 355.445313 737.394531 L 372.347656 737.394531 C 372.347656 737.394531 369.03125 734.222656 369.03125 724.1875 L 369.03125 722.117188 L 382.546875 722.117188 L 382.546875 710.007813 "/>
<path style=" stroke:none;fill-rule:nonzero;fill:rgb(16.868591%,15.696716%,16.088867%);fill-opacity:1;" d="M 379.21875 737.394531 C 389.707031 737.613281 409.777344 733.917969 409.777344 717.84375 C 409.777344 708.53125 400.699219 701.449219 383.652344 700.421875 L 384.390625 695.324219 L 393.832031 695.324219 C 400.175781 695.324219 403.507813 697.179688 406.011719 699.015625 L 406.011719 685.738281 L 383.652344 685.738281 C 384.320313 686.980469 384.390625 689.71875 384.15625 691.195313 L 380.914063 711.628906 C 390.949219 711.9375 397.886719 714.820313 397.886719 721.449219 C 397.816406 731.484375 386.085938 736.132813 378.839844 737.035156 L 379.21875 737.394531 "/>
<path style=" stroke:none;fill-rule:nonzero;fill:rgb(16.868591%,15.696716%,16.088867%);fill-opacity:1;" d="M 408.433594 715.703125 C 408.433594 729.503906 419.136719 738.585938 430.796875 737.988281 C 441.496094 737.46875 447.695313 728.691406 447.335938 718.65625 C 446.886719 705.664063 436.253906 699.160156 426.957031 700.492188 C 424.378906 700.855469 422.378906 701.683594 420.757813 703.882813 C 423.117188 694.296875 431.027344 686.027344 442.09375 685.59375 L 441.714844 685.144531 C 424.234375 685.144531 408.433594 699.234375 408.433594 715.703125 Z M 420.019531 711.484375 C 420.019531 708.765625 420.542969 706.402344 421.496094 704.691406 C 422.308594 703.304688 423.496094 702.332031 424.976563 702.1875 C 431.460938 701.375 436.039063 714.65625 436.039063 725.070313 C 436.039063 730.980469 435.75 736.207031 432.792969 736.945313 C 426.667969 738.496094 420.019531 722.421875 420.019531 711.484375 "/>
<path style=" stroke:none;fill-rule:nonzero;fill:rgb(16.868591%,15.696716%,16.088867%);fill-opacity:1;" d="M 443.425781 699.089844 C 445.640625 697.609375 448.523438 695.324219 458.777344 695.324219 L 468.667969 695.324219 L 465.929688 699.683594 C 459.660156 709.648438 447.40625 726.261719 443.425781 737.394531 L 458.109375 737.394531 C 457.894531 732.53125 457.964844 725.738281 460.542969 716.945313 C 463.0625 708.3125 466.523438 700.636719 472.503906 690.746094 L 475.535156 685.738281 L 443.425781 685.738281 L 443.425781 699.089844 "/>
<path style=" stroke:none;fill-rule:nonzero;fill:rgb(16.868591%,15.696716%,16.088867%);fill-opacity:1;" d="M 467.046875 723.070313 C 467.046875 733.414063 476.867188 737.988281 486.902344 737.988281 C 497.96875 737.988281 505.640625 729.429688 505.640625 722.566406 C 505.640625 714.65625 500.253906 709.792969 492.652344 705.664063 C 496.417969 703.519531 500.542969 700.277344 500.542969 695.917969 C 500.542969 688.386719 492.652344 685.144531 486.308594 685.144531 C 478.417969 685.144531 471.625 689.269531 471.625 696.800781 C 471.625 701.828125 473.769531 705.59375 477.226563 708.980469 C 472.652344 710.601563 467.046875 714.960938 467.046875 723.070313 Z M 477.011719 691.863281 C 477.011719 687.429688 481.066406 686.167969 483.878906 686.167969 C 490.21875 686.167969 493.679688 691.484375 493.679688 696.945313 C 493.679688 699.160156 493.03125 702.1875 490.886719 704.78125 C 482.832031 700.421875 477.011719 696.511719 477.011719 691.863281 Z M 476.417969 720.566406 C 476.417969 716.296875 477.15625 712.53125 478.851563 710.457031 C 480.398438 711.792969 482.253906 713.105469 484.164063 714.441406 C 491.390625 719.394531 499.371094 722.261719 499.371094 728.910156 C 499.371094 733.628906 494.867188 736.65625 489.335938 736.65625 C 482.328125 736.65625 476.417969 728.765625 476.417969 720.566406 "/>
<path style=" stroke:none;fill-rule:nonzero;fill:rgb(16.868591%,15.696716%,16.088867%);fill-opacity:1;" d="M 539.597656 707.429688 C 539.597656 693.628906 528.894531 684.546875 517.222656 685.144531 C 506.535156 685.664063 500.320313 694.441406 500.699219 704.476563 C 501.148438 717.46875 511.761719 723.972656 521.058594 722.640625 C 523.652344 722.261719 525.636719 721.449219 527.273438 719.234375 C 524.894531 728.835938 517.003906 737.105469 505.941406 737.539063 L 506.300781 737.988281 C 523.796875 737.988281 539.597656 723.882813 539.597656 707.429688 Z M 527.996094 711.628906 C 527.996094 714.078125 527.5625 716.296875 526.824219 717.917969 C 525.941406 719.609375 524.679688 720.710938 523.058594 720.945313 C 516.570313 721.757813 511.996094 708.457031 511.996094 698.0625 C 511.996094 692.152344 512.285156 686.910156 515.238281 686.167969 C 521.363281 684.621094 527.996094 700.710938 527.996094 711.628906 "/>
<path style=" stroke:none;fill-rule:nonzero;fill:rgb(16.868591%,15.696716%,16.088867%);fill-opacity:1;" d="M 101.429688 776.746094 C 103.648438 776.675781 104.675781 776.082031 116.78125 776.082031 C 116.78125 788.1875 116.1875 789.214844 116.117188 791.429688 L 118.621094 791.429688 C 118.546875 789.214844 117.953125 788.1875 117.953125 776.082031 C 130.0625 776.082031 131.089844 776.675781 133.304688 776.746094 L 133.304688 774.226563 C 131.089844 774.316406 130.0625 774.890625 117.953125 774.890625 C 117.953125 762.800781 118.546875 761.753906 118.621094 759.539063 L 116.117188 759.539063 C 116.1875 761.753906 116.78125 762.800781 116.78125 774.890625 C 104.675781 774.890625 103.648438 774.316406 101.429688 774.226563 L 101.429688 776.746094 "/>
<path style=" stroke:none;fill-rule:nonzero;fill:rgb(16.868591%,15.696716%,16.088867%);fill-opacity:1;" d="M 135.886719 771.574219 C 135.886719 775.269531 138.839844 778.152344 142.605469 778.152344 C 146.445313 778.152344 149.183594 775.269531 149.183594 771.574219 C 149.183594 767.953125 146.445313 764.855469 142.605469 764.855469 C 138.839844 764.855469 135.886719 767.953125 135.886719 771.574219 Z M 132.425781 808.027344 C 146.445313 805.59375 149.542969 799.46875 149.542969 794.53125 C 149.542969 789.359375 146.824219 786.476563 142.984375 786.476563 C 139.21875 786.476563 136.265625 789.574219 136.265625 793.195313 C 136.265625 796.890625 138.625 798.367188 140.769531 799.179688 C 142.246094 799.773438 143.5625 800.585938 143.5625 802.136719 C 143.5625 804.925781 135.21875 807.289063 132.425781 807.738281 L 132.425781 808.027344 "/>
<path style=" stroke:none;fill-rule:nonzero;fill:rgb(16.868591%,15.696716%,16.088867%);fill-opacity:1;" d="M 151.015625 767.144531 C 151.015625 773.9375 155.96875 779.773438 162.457031 779.773438 C 168.222656 779.773438 174.566406 774.152344 174.566406 767.144531 C 174.566406 760.277344 169.628906 754.53125 163.125 754.53125 C 157.375 754.53125 151.015625 760.277344 151.015625 767.144531 Z M 158.257813 798.511719 C 162.386719 791.648438 165.050781 788.40625 175.230469 776.820313 C 180.027344 771.429688 189.917969 762.0625 194.78125 756.964844 L 190.800781 755.195313 C 186.671875 762.0625 184.007813 765.304688 173.828125 776.890625 C 169.035156 782.277344 159.140625 791.648438 154.277344 796.746094 Z M 156.996094 761.46875 C 156.996094 757.179688 158.257813 756.007813 159.808594 756.007813 C 164.386719 756.007813 168.585938 767.070313 168.585938 772.835938 C 168.585938 777.105469 167.339844 778.296875 165.789063 778.296875 C 161.214844 778.296875 156.996094 767.214844 156.996094 761.46875 Z M 174.566406 786.476563 C 174.566406 793.269531 179.503906 799.105469 186.007813 799.105469 C 191.753906 799.105469 198.113281 793.484375 198.113281 786.476563 C 198.113281 779.703125 193.160156 773.863281 186.671875 773.863281 C 180.910156 773.863281 174.566406 779.46875 174.566406 786.476563 Z M 180.546875 780.800781 C 180.546875 776.511719 181.792969 775.339844 183.339844 775.339844 C 187.917969 775.339844 192.132813 786.402344 192.132813 792.171875 C 192.132813 796.441406 190.871094 797.628906 189.320313 797.628906 C 184.746094 797.628906 180.546875 786.550781 180.546875 780.800781 "/>
<path style=" stroke:none;fill-rule:nonzero;fill:rgb(16.868591%,15.696716%,16.088867%);fill-opacity:1;" d="M 220.765625 756.746094 C 208.136719 756.746094 197.8125 767 197.8125 779.703125 C 197.8125 792.3125 208.136719 802.640625 220.765625 802.640625 C 224.082031 802.640625 227.414063 801.898438 230.425781 800.511719 L 230.136719 799.917969 C 227.253906 801.253906 224.011719 801.988281 220.765625 801.988281 C 208.515625 801.988281 198.476563 791.9375 198.476563 779.703125 C 198.476563 767.449219 208.515625 757.414063 220.765625 757.414063 C 233.019531 757.414063 243.054688 767.449219 243.054688 779.703125 C 243.054688 782.636719 242.53125 785.449219 241.433594 788.097656 C 240.910156 789.359375 239.882813 791.289063 238.191406 791.792969 C 236.046875 792.171875 235.09375 790.546875 233.832031 787.070313 C 231.757813 781.160156 229.46875 774.601563 227.558594 769.574219 C 225.867188 765.234375 222.246094 763.683594 219 763.683594 C 216.785156 763.683594 214.640625 764.351563 212.804688 765.523438 L 212.875 765.59375 C 214.191406 765.449219 215.972656 765.59375 217.144531 767.070313 C 218.839844 769.144531 222.101563 779.105469 224.675781 786.710938 C 223.867188 787 222.984375 787.144531 222.101563 787.144531 C 217.59375 787.214844 215.234375 782.636719 215.234375 777.773438 C 215.234375 773.125 216.40625 770.476563 217.523438 769.289063 C 211.542969 771.648438 207.488281 776.296875 207.488281 782.636719 C 207.488281 788.261719 211.542969 792.53125 217.363281 792.53125 C 220.984375 792.53125 223.488281 790.910156 225.039063 787.59375 L 226.585938 792.027344 C 231.613281 792.027344 233.6875 792.027344 236.046875 792.457031 C 236.640625 792.53125 237.59375 792.675781 238.335938 792.457031 C 240.316406 791.9375 241.433594 789.648438 242.027344 788.40625 C 243.199219 785.667969 243.722656 782.800781 243.722656 779.703125 C 243.722656 767 233.453125 756.746094 220.765625 756.746094 "/>
<path style=" stroke:none;fill-rule:nonzero;fill:rgb(16.868591%,15.696716%,16.088867%);fill-opacity:1;" d="M 244.464844 764.117188 C 244.464844 764.117188 246.679688 760.945313 249.777344 758.730469 L 251.164063 757.703125 L 250.949219 759.394531 C 250.425781 763.160156 248.660156 766.636719 248.660156 766.636719 L 254.859375 766.636719 C 254.859375 766.636719 253.09375 763.160156 252.570313 759.394531 L 252.355469 757.703125 L 253.761719 758.730469 C 256.859375 760.945313 259.074219 764.117188 259.074219 764.117188 L 261.941406 758.65625 C 261.941406 758.65625 258.101563 758.511719 254.5 757.25 L 253.019531 756.746094 L 254.425781 756.222656 C 258.03125 754.820313 261.941406 754.890625 261.941406 754.890625 L 259.074219 749.429688 C 259.074219 749.429688 256.859375 752.601563 253.761719 754.820313 L 252.355469 755.773438 L 252.570313 754.078125 C 253.09375 750.3125 254.859375 746.855469 254.859375 746.855469 L 248.660156 746.855469 C 248.660156 746.855469 250.425781 750.3125 250.949219 754.078125 L 251.164063 755.773438 L 249.777344 754.820313 C 246.679688 752.601563 244.464844 749.429688 244.464844 749.429688 L 241.578125 754.890625 C 241.578125 754.890625 245.488281 754.820313 249.113281 756.222656 L 250.5 756.746094 L 249.039063 757.25 C 245.417969 758.511719 241.578125 758.65625 241.578125 758.65625 L 244.464844 764.117188 "/>
<path style=" stroke:none;fill-rule:nonzero;fill:rgb(16.868591%,15.696716%,16.088867%);fill-opacity:1;" d="M 239.808594 592.960938 C 232.1875 581.429688 222.511719 562.296875 208.675781 526.996094 L 171.304688 431.519531 L 147.324219 431.519531 L 147.324219 467.734375 C 139.71875 482.941406 127.035156 511.554688 114.800781 553.753906 C 110.890625 567.359375 104.1875 581.898438 98.421875 592.960938 L 140.40625 592.960938 C 139.484375 587.664063 136.945313 571.738281 136.945313 557.898438 C 136.945313 539.917969 137.628906 525.84375 138.78125 514.078125 L 164.386719 514.078125 L 175 542.691406 C 186.296875 573.359375 185.84375 579.59375 185.84375 592.960938 Z M 139.015625 510.851563 C 140.871094 494.023438 144.097656 482.492188 148.710938 471.410156 L 163.234375 510.851563 L 139.015625 510.851563 "/>
<path style=" stroke:none;fill-rule:nonzero;fill:rgb(16.868591%,15.696716%,16.088867%);fill-opacity:1;" d="M 226.191406 554.222656 C 226.191406 577.285156 243.488281 594.800781 267.941406 594.800781 C 283.632813 594.800781 294.226563 588.117188 300.695313 574.511719 L 307.148438 592.960938 L 349.8125 592.960938 C 346.589844 589.738281 341.742188 582.117188 338.046875 572.203125 C 329.058594 548.222656 319.382813 520.996094 311.308594 500.242188 C 304.390625 482.257813 288.929688 475.808594 275.09375 475.808594 C 265.632813 475.808594 256.875 478.566406 249.039063 483.179688 L 249.253906 483.878906 C 254.804688 482.941406 262.175781 483.878906 267.253906 489.863281 C 274.625 498.402344 288.460938 539.449219 299.308594 570.582031 C 295.617188 571.96875 291.921875 572.671875 288.460938 572.671875 C 269.328125 572.890625 258.949219 554.222656 258.949219 533.683594 C 258.949219 515.015625 264.03125 503.933594 268.859375 498.871094 C 243.488281 508.78125 226.191406 527.699219 226.191406 554.222656 "/>
<path style=" stroke:none;fill-rule:nonzero;fill:rgb(16.868591%,15.696716%,16.088867%);fill-opacity:1;" d="M 449.566406 333.011719 C 459.0625 333.011719 465.550781 327.320313 465.550781 318.851563 C 465.550781 310.453125 459.0625 304.761719 449.566406 304.761719 L 439.316406 304.761719 C 440.378906 306.128906 441.171875 308.867188 441.171875 313.121094 L 441.171875 324.652344 C 441.171875 328.90625 440.378906 331.644531 439.316406 333.011719 Z M 447.636719 305.320313 L 448.882813 305.320313 C 454.339844 305.320313 458.898438 312.148438 458.898438 318.851563 C 458.898438 325.714844 454.339844 332.453125 448.882813 332.453125 L 447.636719 332.453125 L 447.636719 305.320313 "/>
<path style=" stroke:none;fill-rule:nonzero;fill:rgb(16.868591%,15.696716%,16.088867%);fill-opacity:1;" d="M 466.285156 326.238281 C 466.285156 330.273438 469.3125 333.335938 473.582031 333.335938 C 476.339844 333.335938 478.195313 332.164063 479.3125 329.789063 L 480.445313 333.011719 L 487.921875 333.011719 C 487.347656 332.453125 486.5 331.121094 485.851563 329.371094 C 484.285156 325.175781 482.589844 320.417969 481.167969 316.796875 C 479.960938 313.644531 477.257813 312.507813 474.84375 312.507813 C 473.183594 312.507813 471.652344 312.992188 470.285156 313.804688 L 470.320313 313.914063 C 471.292969 313.769531 472.574219 313.914063 473.472656 314.976563 C 474.753906 316.472656 477.183594 323.640625 479.078125 329.101563 C 478.425781 329.335938 477.777344 329.460938 477.183594 329.460938 C 473.832031 329.5 472.011719 326.238281 472.011719 322.632813 C 472.011719 319.371094 472.894531 317.425781 473.742188 316.542969 C 469.3125 318.273438 466.285156 321.589844 466.285156 326.238281 "/>
<path style=" stroke:none;fill-rule:nonzero;fill:rgb(16.868591%,15.696716%,16.088867%);fill-opacity:1;" d="M 487.230469 308.796875 C 487.878906 309.246094 489.121094 310.8125 489.085938 314.851563 L 488.851563 333.011719 L 497.03125 333.011719 C 496.113281 332.238281 495.140625 329.984375 495.140625 325.949219 L 495.140625 316.058594 C 495.953125 315.085938 496.761719 314.328125 497.878906 314.527344 C 499.140625 314.777344 499.375 316.382813 499.953125 319.011719 L 502.925781 333.011719 L 511.121094 333.011719 C 510.113281 332.203125 509.03125 330.632813 508.132813 326.722656 L 506.4375 319.28125 C 505.304688 314.398438 503.988281 312.507813 500.507813 312.507813 C 497.808594 312.507813 496.113281 314.074219 495.140625 315.460938 L 495.140625 304.761719 L 487.230469 308.632813 L 487.230469 308.796875 "/>
<path style=" stroke:none;fill-rule:nonzero;fill:rgb(16.868591%,15.696716%,16.088867%);fill-opacity:1;" d="M 510.839844 308.796875 C 511.492188 309.246094 512.734375 310.8125 512.699219 314.851563 L 512.464844 333.011719 L 520.644531 333.011719 C 519.722656 332.238281 518.75 329.984375 518.75 325.949219 L 518.75 304.761719 L 510.839844 308.632813 L 510.839844 308.796875 "/>
<path style=" stroke:none;fill-rule:nonzero;fill:rgb(16.868591%,15.696716%,16.088867%);fill-opacity:1;" d="M 522.339844 307.859375 C 522.339844 309.875 523.960938 311.460938 526.015625 311.460938 C 528.105469 311.460938 529.601563 309.875 529.601563 307.859375 C 529.601563 305.894531 528.105469 304.199219 526.015625 304.199219 C 523.960938 304.199219 522.339844 305.894531 522.339844 307.859375 Z M 521.296875 316.542969 C 521.941406 316.992188 523.222656 318.5625 523.152344 322.597656 L 522.917969 333.011719 L 531.097656 333.011719 C 530.179688 332.238281 529.203125 329.984375 529.203125 325.949219 L 529.203125 312.507813 L 521.296875 316.382813 L 521.296875 316.542969 "/>
<path style=" stroke:none;fill-rule:nonzero;fill:rgb(16.868591%,15.696716%,16.088867%);fill-opacity:1;" d="M 531.746094 326.238281 C 531.746094 330.273438 534.777344 333.335938 539.046875 333.335938 C 541.800781 333.335938 543.65625 332.164063 544.773438 329.789063 L 545.910156 333.011719 L 553.386719 333.011719 C 552.8125 332.453125 551.964844 331.121094 551.316406 329.371094 C 549.75 325.175781 548.054688 320.417969 546.628906 316.796875 C 545.425781 313.644531 542.722656 312.507813 540.308594 312.507813 C 538.648438 312.507813 537.117188 312.992188 535.75 313.804688 L 535.785156 313.914063 C 536.757813 313.769531 538.035156 313.914063 538.9375 314.976563 C 540.214844 316.472656 542.648438 323.640625 544.542969 329.101563 C 543.890625 329.335938 543.246094 329.460938 542.648438 329.460938 C 539.296875 329.5 537.476563 326.238281 537.476563 322.632813 C 537.476563 319.371094 538.359375 317.425781 539.207031 316.542969 C 534.777344 318.273438 531.746094 321.589844 531.746094 326.238281 "/>
<path style=" stroke:none;fill-rule:nonzero;fill:rgb(16.868591%,15.696716%,16.088867%);fill-opacity:1;" d="M 444.988281 360.6875 C 444.375 359.894531 443.925781 358.328125 443.925781 355.914063 L 443.925781 349.300781 C 444.195313 349.300781 444.738281 349.371094 445.078125 349.5 C 446.269531 349.964844 447.242188 351.101563 449.082031 353.085938 L 449.117188 353.085938 L 449.117188 349.589844 L 447.152344 349.589844 C 444.519531 349.589844 443.835938 348.308594 443.835938 346.992188 C 443.835938 345.695313 444.628906 344.8125 445.855469 344.8125 C 447.925781 344.8125 449.3125 346.542969 450.199219 348.347656 L 450.234375 348.347656 L 450.089844 344.542969 L 439.152344 344.542969 C 439.746094 345.335938 440.214844 346.902344 440.214844 349.320313 L 440.214844 355.914063 C 440.214844 358.328125 439.746094 359.894531 439.152344 360.6875 L 444.988281 360.6875 "/>
<path style=" stroke:none;fill-rule:nonzero;fill:rgb(16.868591%,15.696716%,16.088867%);fill-opacity:1;" d="M 450.429688 352.617188 C 450.429688 357.535156 454.375 360.867188 459.3125 360.867188 C 463.636719 360.867188 465.941406 357.859375 466.863281 355.335938 L 466.773438 355.28125 C 465.65625 357.894531 463.132813 358.398438 461.835938 358.398438 C 457.511719 358.398438 453.980469 355.101563 453.980469 350.308594 C 453.980469 347.191406 455.492188 344.851563 458.410156 344.851563 C 461.945313 344.851563 464.824219 348.722656 465.851563 352.058594 L 465.90625 352.058594 L 465.90625 346.128906 C 464.214844 345.101563 461.996094 344.363281 459.601563 344.363281 C 454.464844 344.363281 450.429688 347.734375 450.429688 352.617188 "/>
<path style=" stroke:none;fill-rule:nonzero;fill:rgb(16.868591%,15.696716%,16.088867%);fill-opacity:1;" d="M 483.609375 352.617188 C 483.609375 348.058594 479.898438 344.363281 475.339844 344.363281 C 470.761719 344.363281 467.105469 348.074219 467.105469 352.617188 C 467.105469 357.210938 470.796875 360.867188 475.355469 360.867188 C 479.914063 360.867188 483.609375 357.15625 483.609375 352.617188 Z M 480.402344 356.058594 C 480.347656 358.273438 479.375 360.199219 477.394531 360.128906 C 473.554688 360.019531 470.148438 353.554688 470.3125 349.210938 C 470.382813 346.992188 471.320313 345.03125 473.320313 345.101563 C 477.140625 345.226563 480.5625 351.714844 480.402344 356.058594 "/>
<path style=" stroke:none;fill-rule:nonzero;fill:rgb(16.868591%,15.696716%,16.088867%);fill-opacity:1;" d="M 444.988281 388.363281 C 444.375 387.570313 443.925781 386.003906 443.925781 383.589844 L 443.925781 376.976563 C 444.195313 376.976563 444.738281 377.046875 445.078125 377.171875 C 446.269531 377.644531 447.242188 378.777344 449.082031 380.761719 L 449.117188 380.761719 L 449.117188 377.265625 L 447.152344 377.265625 C 444.519531 377.265625 443.835938 375.984375 443.835938 374.671875 C 443.835938 373.371094 444.628906 372.488281 445.855469 372.488281 C 447.925781 372.488281 449.3125 374.21875 450.199219 376.019531 L 450.234375 376.019531 L 450.089844 372.21875 L 439.152344 372.21875 C 439.746094 373.011719 440.214844 374.578125 440.214844 376.992188 L 440.214844 383.589844 C 440.214844 386.003906 439.746094 387.570313 439.152344 388.363281 L 444.988281 388.363281 "/>
<path style=" stroke:none;fill-rule:nonzero;fill:rgb(16.868591%,15.696716%,16.088867%);fill-opacity:1;" d="M 450.605469 378.832031 C 450.984375 379.085938 451.722656 379.984375 451.667969 382.292969 L 451.527344 388.363281 L 456.210938 388.363281 C 455.6875 387.929688 455.128906 386.632813 455.128906 384.328125 L 455.128906 382.542969 C 455.128906 380.113281 457.6875 379.734375 459.21875 380.058594 L 459.921875 376.652344 C 457.019531 376.921875 455.632813 378.507813 455.128906 381.191406 L 455.128906 376.652344 L 450.605469 378.742188 L 450.605469 378.832031 "/>
<path style=" stroke:none;fill-rule:nonzero;fill:rgb(16.868591%,15.696716%,16.088867%);fill-opacity:1;" d="M 494.539063 382.597656 C 494.230469 384.5625 493.023438 385.804688 490.878906 385.804688 C 488.359375 385.804688 486.5 383.660156 486.105469 381.5 C 485.617188 378.832031 486.699219 376.976563 488.484375 376.976563 C 490.503906 376.976563 492.304688 378.867188 493.492188 381.5 L 493.492188 377.875 C 491.941406 377.011719 490.734375 376.652344 488.773438 376.652344 C 485.617188 376.652344 482.96875 379.121094 482.96875 382.652344 C 482.644531 384.652344 481.222656 385.804688 479.292969 385.804688 C 476.789063 385.804688 474.789063 384.113281 474.789063 381.554688 C 474.789063 381.390625 474.808594 381.226563 474.808594 381.085938 L 482.015625 381.085938 C 482.015625 377.984375 479.617188 376.652344 477.367188 376.652344 C 474.070313 376.652344 471.382813 379.121094 471.382813 382.652344 L 471.382813 382.707031 C 471.058594 384.667969 469.601563 385.804688 467.726563 385.804688 C 465.203125 385.804688 463.203125 384.113281 463.203125 381.554688 C 463.203125 381.390625 463.203125 381.226563 463.222656 381.085938 L 470.445313 381.085938 C 470.445313 377.984375 468.050781 376.652344 465.78125 376.652344 C 462.484375 376.652344 459.816406 379.121094 459.816406 382.652344 C 459.816406 386.003906 462.445313 388.542969 465.835938 388.542969 C 468.96875 388.542969 471.167969 386.074219 471.421875 383.175781 C 471.671875 386.273438 474.214844 388.542969 477.402344 388.542969 C 480.554688 388.542969 482.734375 386.074219 482.988281 383.175781 C 483.238281 386.273438 485.761719 388.542969 488.773438 388.542969 C 492.519531 388.542969 494.539063 385.695313 494.589844 382.597656 Z M 466.105469 376.976563 C 467.132813 376.976563 467.601563 377.734375 467.601563 378.472656 C 467.601563 380.128906 466.609375 380.851563 464.410156 380.851563 L 463.222656 380.851563 C 463.4375 378.796875 464.429688 376.976563 466.105469 376.976563 Z M 477.691406 376.976563 C 478.699219 376.976563 479.1875 377.734375 479.1875 378.472656 C 479.1875 380.128906 478.195313 380.851563 475.980469 380.851563 L 474.808594 380.851563 C 475.007813 378.796875 475.996094 376.976563 477.691406 376.976563 "/>
<path style=" stroke:none;fill-rule:nonzero;fill:rgb(16.868591%,15.696716%,16.088867%);fill-opacity:1;" d="M 494.550781 382.578125 C 494.550781 385.914063 497.199219 388.542969 500.496094 388.542969 C 503.8125 388.542969 506.441406 385.894531 506.441406 382.597656 C 506.441406 379.300781 503.792969 376.652344 500.515625 376.652344 C 497.21875 376.652344 494.550781 379.28125 494.550781 382.578125 Z M 497.523438 379.390625 C 497.523438 378.09375 497.957031 377.191406 498.785156 377.191406 C 501.125 377.191406 503.488281 382.6875 503.488281 385.734375 C 503.488281 387.136719 503.019531 388.039063 502.136719 388.003906 C 499.847656 387.804688 497.523438 382.363281 497.523438 379.390625 "/>
<path style=" stroke:none;fill-rule:nonzero;fill:rgb(21.946716%,21.580505%,21.946716%);fill-opacity:1;" d="M 45.910156 920.867188 L 45.511719 920.792969 L 47.695313 918.777344 L 47.695313 917.550781 L 42.035156 917.550781 L 42.054688 919.171875 L 45.171875 919.171875 L 43.28125 920.992188 L 43.28125 922.109375 L 44.628906 922.109375 C 45.53125 922.109375 46.035156 922.453125 46.035156 923.101563 C 46.035156 923.730469 45.53125 924.109375 44.648438 924.109375 C 43.875 924.109375 43.117188 923.75 42.488281 923.101563 L 41.621094 924.722656 C 42.414063 925.316406 43.640625 925.714844 44.8125 925.714844 C 46.8125 925.714844 48.089844 924.632813 48.089844 923.082031 C 48.089844 921.839844 47.207031 921.066406 45.910156 920.867188 "/>
<path style=" stroke:none;fill-rule:nonzero;fill:rgb(21.946716%,21.580505%,21.946716%);fill-opacity:1;" d="M 51.621094 917.480469 C 49.566406 917.480469 48.449219 918.9375 48.449219 921.570313 C 48.449219 924.21875 49.566406 925.675781 51.621094 925.675781 C 53.636719 925.675781 54.773438 924.21875 54.773438 921.570313 C 54.773438 918.9375 53.636719 917.480469 51.621094 917.480469 Z M 51.621094 918.957031 C 52.429688 918.957031 52.753906 919.714844 52.753906 921.570313 C 52.753906 923.425781 52.429688 924.199219 51.621094 924.199219 C 50.789063 924.199219 50.464844 923.425781 50.464844 921.570313 C 50.464844 919.714844 50.789063 918.957031 51.621094 918.957031 "/>
<path style=" stroke:none;fill-rule:nonzero;fill:rgb(21.946716%,21.580505%,21.946716%);fill-opacity:1;" d="M 65.652344 917.535156 L 65.652344 925.625 L 67.761719 925.625 L 67.761719 922.703125 L 71.382813 922.703125 L 71.382813 921.027344 L 67.761719 921.027344 L 67.761719 919.226563 L 71.667969 919.226563 L 71.6875 917.535156 L 65.652344 917.535156 "/>
<path style=" stroke:none;fill-rule:nonzero;fill:rgb(21.946716%,21.580505%,21.946716%);fill-opacity:1;" d="M 74.109375 920.417969 L 74.109375 919.390625 L 72.074219 919.390625 L 72.074219 925.625 L 74.109375 925.625 L 74.109375 922.433594 C 74.21875 921.570313 74.976563 921.066406 76.128906 921.191406 L 76.128906 919.296875 C 75.246094 919.296875 74.542969 919.714844 74.109375 920.417969 "/>
<path style=" stroke:none;fill-rule:nonzero;fill:rgb(21.946716%,21.580505%,21.946716%);fill-opacity:1;" d="M 79.195313 919.316406 C 77.25 919.316406 75.933594 920.597656 75.933594 922.523438 C 75.933594 924.433594 77.195313 925.695313 79.230469 925.695313 C 80.382813 925.695313 81.320313 925.296875 81.953125 924.578125 L 80.890625 923.515625 C 80.476563 923.929688 79.953125 924.144531 79.429688 924.144531 C 78.726563 924.144531 78.203125 923.75 78.007813 923.046875 L 82.347656 923.046875 C 82.476563 920.777344 81.375 919.316406 79.195313 919.316406 Z M 77.953125 921.949219 C 78.097656 921.246094 78.527344 920.757813 79.195313 920.757813 C 79.898438 920.757813 80.347656 921.246094 80.347656 921.949219 L 77.953125 921.949219 "/>
<path style=" stroke:none;fill-rule:nonzero;fill:rgb(21.946716%,21.580505%,21.946716%);fill-opacity:1;" d="M 85.574219 919.316406 C 83.625 919.316406 82.3125 920.597656 82.3125 922.523438 C 82.3125 924.433594 83.574219 925.695313 85.609375 925.695313 C 86.761719 925.695313 87.699219 925.296875 88.328125 924.578125 L 87.265625 923.515625 C 86.851563 923.929688 86.328125 924.144531 85.808594 924.144531 C 85.105469 924.144531 84.582031 923.75 84.382813 923.046875 L 88.726563 923.046875 C 88.851563 920.777344 87.753906 919.316406 85.574219 919.316406 Z M 84.328125 921.949219 C 84.472656 921.246094 84.90625 920.757813 85.574219 920.757813 C 86.273438 920.757813 86.726563 921.246094 86.726563 921.949219 L 84.328125 921.949219 "/>
<path style=" stroke:none;fill-rule:nonzero;fill:rgb(21.946716%,21.580505%,21.946716%);fill-opacity:1;" d="M 93.230469 921.660156 L 94.707031 920.792969 C 94.164063 919.855469 93.175781 919.316406 91.929688 919.316406 C 89.984375 919.316406 88.6875 920.597656 88.6875 922.523438 C 88.6875 924.433594 89.96875 925.695313 91.894531 925.695313 C 93.230469 925.695313 94.238281 925.15625 94.742188 924.199219 L 93.230469 923.335938 C 92.976563 923.820313 92.542969 924.039063 92.003906 924.039063 C 91.265625 924.039063 90.761719 923.425781 90.761719 922.523438 C 90.761719 921.625 91.265625 921.011719 92.003906 921.011719 C 92.527344 921.011719 92.957031 921.246094 93.230469 921.660156 "/>
<path style=" stroke:none;fill-rule:nonzero;fill:rgb(21.946716%,21.580505%,21.946716%);fill-opacity:1;" d="M 97.824219 919.316406 C 95.769531 919.316406 94.417969 920.578125 94.417969 922.507813 C 94.417969 924.417969 95.769531 925.695313 97.824219 925.695313 C 99.878906 925.695313 101.25 924.417969 101.25 922.507813 C 101.25 920.578125 99.878906 919.316406 97.824219 919.316406 Z M 97.824219 920.976563 C 98.636719 920.976563 99.175781 921.605469 99.175781 922.523438 C 99.175781 923.460938 98.636719 924.074219 97.824219 924.074219 C 97.03125 924.074219 96.492188 923.460938 96.492188 922.523438 C 96.492188 921.605469 97.03125 920.976563 97.824219 920.976563 "/>
</g>
</svg>
